<?xml version="1.0" encoding="utf-8"?>
<svg viewBox="72.6954 46.2497 167.77 167.77" xmlns="http://www.w3.org/2000/svg">
  <g transform="matrix(1, 0, 0, 1, 12.41543960571289, 11.88974380493164)">
    <path class="cls-2" d="m144.17,62.27c-30.87,0-55.97,25.11-55.97,55.98s25.1,55.97,55.97,55.97c4.78,0,9.42-.6,13.85-1.74-1.44-4.15-2.88-8.29-4.32-12.44-.1-.28-.2-.57-.29-.85-2.98.68-6.07,1.03-9.24,1.03-23.15,0-41.97-18.83-41.97-41.97s18.82-41.98,41.97-41.98,41.97,18.83,41.97,41.98c0,3.11-.34,6.14-.99,9.06l5.82,2.01c2.49.87,4.98,1.73,7.47,2.59,1.11-4.37,1.7-8.95,1.7-13.66,0-30.87-25.11-55.98-55.97-55.98Z" style="fill: rgb(246, 98, 33); stroke-width: 0px;"/>
    <path class="cls-2" d="m144.17,34.36c-46.26,0-83.89,37.63-83.89,83.89s37.63,83.88,83.89,83.88c8.03,0,15.8-1.14,23.15-3.25l-1.85-5.2c-.14-.27-.26-.56-.37-.87-.83-2.38-1.66-4.76-2.49-7.15-5.88,1.61-12.06,2.47-18.44,2.47-38.54,0-69.89-31.35-69.89-69.88s31.35-69.89,69.89-69.89,69.88,31.35,69.88,69.89c0,6.31-.84,12.43-2.42,18.24l13.27,4.52c2.06-7.24,3.15-14.87,3.15-22.76,0-46.26-37.63-83.89-83.88-83.89Z" style="fill: rgb(246, 98, 33); stroke-width: 0px;"/>
    <path class="cls-1" d="m175.68,197.74c-2.77-.02-4.84-1.45-5.73-4-3.52-10.07-7.01-20.15-10.51-30.22-3.88-11.18-7.76-22.36-11.63-33.54-1.32-3.82.61-7.59,4.37-8.25,1.18-.21,2.55-.03,3.69.36,12.66,4.32,25.29,8.72,37.94,13.1,8.53,2.95,17.06,5.89,25.58,8.87,3.53,1.23,5.16,4.84,3.72,8.17-.78,1.8-2.18,2.87-4.04,3.44-6.51,2-13.02,4.02-19.53,6.04-2.74.85-5.48,1.71-8.24,2.52-.71.21-1.09.58-1.31,1.3-2.77,9.05-5.56,18.09-8.38,27.13-.3.95-.65,1.94-1.23,2.74-1.15,1.61-2.8,2.41-4.7,2.33Z" style="fill: rgb(46, 46, 46); stroke-width: 0px;"/>
    <line class="cls-3" x1="224.9" y1="141.01" x2="211.63" y2="136.49" style="fill: none; stroke-width: 0px;"/>
    <polyline class="cls-3" points="162.61 185.66 165.47 193.68 167.32 198.88" style="fill: none; stroke-width: 0px;"/>
  </g>
</svg>