<?xml version="1.0" encoding="UTF-8"?>
<svg id="Layer_1" data-name="Layer 1" xmlns="http://www.w3.org/2000/svg" viewBox="0 0 529.72 356.47">
  <defs>
    <style>
      .cls-1 {
        fill: #2e2e2e;
      }

      .cls-1, .cls-2, .cls-3 {
        stroke-width: 0px;
      }

      .cls-2 {
        fill: #f66221;
      }

      .cls-3 {
        fill: none;
      }
    </style>
  </defs>
  <g>
    <path class="cls-2" d="m259.24,67.56c-30.87,0-55.97,25.11-55.97,55.98s25.1,55.97,55.97,55.97c4.78,0,9.42-.6,13.85-1.74-1.44-4.15-2.88-8.29-4.32-12.44-.1-.28-.2-.57-.29-.85-2.98.68-6.07,1.03-9.24,1.03-23.15,0-41.97-18.83-41.97-41.97s18.82-41.98,41.97-41.98,41.97,18.83,41.97,41.98c0,3.11-.34,6.14-.99,9.06l5.82,2.01c2.49.87,4.98,1.73,7.47,2.59,1.11-4.37,1.7-8.95,1.7-13.66,0-30.87-25.11-55.98-55.97-55.98Z"/>
    <path class="cls-2" d="m259.24,39.65c-46.26,0-83.89,37.63-83.89,83.89s37.63,83.88,83.89,83.88c8.03,0,15.8-1.14,23.15-3.25l-1.85-5.2c-.14-.27-.26-.56-.37-.87-.83-2.38-1.66-4.76-2.49-7.15-5.88,1.61-12.06,2.47-18.44,2.47-38.54,0-69.89-31.35-69.89-69.88s31.35-69.89,69.89-69.89,69.88,31.35,69.88,69.89c0,6.31-.84,12.43-2.42,18.24l13.27,4.52c2.06-7.24,3.15-14.87,3.15-22.76,0-46.26-37.63-83.89-83.88-83.89Z"/>
    <path class="cls-1" d="m290.74,203.03c-2.77-.02-4.84-1.45-5.73-4-3.52-10.07-7.01-20.15-10.51-30.22-3.88-11.18-7.76-22.36-11.63-33.54-1.32-3.82.61-7.59,4.37-8.25,1.18-.21,2.55-.03,3.69.36,12.66,4.32,25.29,8.72,37.94,13.1,8.53,2.95,17.06,5.89,25.58,8.87,3.53,1.23,5.16,4.84,3.72,8.17-.78,1.8-2.18,2.87-4.04,3.44-6.51,2-13.02,4.02-19.53,6.04-2.74.85-5.48,1.71-8.24,2.52-.71.21-1.09.58-1.31,1.3-2.77,9.05-5.56,18.09-8.38,27.13-.3.95-.65,1.94-1.23,2.74-1.15,1.61-2.8,2.41-4.7,2.33Z"/>
    <line class="cls-3" x1="339.97" y1="146.3" x2="326.7" y2="141.78"/>
    <polyline class="cls-3" points="277.68 190.95 280.54 198.97 282.39 204.17"/>
  </g>
  <g>
    <path class="cls-1" d="m73.63,295.85c-2.37,0-4.2-.65-5.47-1.96-1.28-1.31-1.92-3.18-1.92-5.61v-51.47c0-2.49.66-4.4,1.97-5.71,1.31-1.31,3.18-1.97,5.61-1.97h31.91c1.93,0,3.4.48,4.4,1.45,1,.97,1.5,2.36,1.5,4.16s-.5,3.29-1.5,4.26c-1,.97-2.47,1.45-4.4,1.45h-24.98v16h23.02c1.87,0,3.31.48,4.3,1.45,1,.97,1.5,2.39,1.5,4.26s-.5,3.21-1.5,4.21c-1,1-2.43,1.5-4.3,1.5h-23.02v20.4c0,5.05-2.37,7.58-7.11,7.58Z"/>
    <path class="cls-1" d="m148.21,296.03c-4.93,0-9.2-.97-12.82-2.9-3.62-1.93-6.44-4.69-8.47-8.28-2.03-3.59-3.04-7.84-3.04-12.77,0-3.68.56-6.99,1.68-9.92,1.12-2.93,2.76-5.44,4.91-7.53,2.15-2.09,4.74-3.68,7.77-4.77,3.03-1.09,6.35-1.64,9.97-1.64,4.93,0,9.22.97,12.87,2.9,3.65,1.93,6.49,4.69,8.52,8.28,2.03,3.59,3.04,7.81,3.04,12.68,0,3.68-.58,7.02-1.73,10.01-1.15,2.99-2.79,5.52-4.91,7.58-2.12,2.06-4.68,3.63-7.67,4.73-2.99,1.09-6.36,1.64-10.11,1.64Zm0-10.48c2.06,0,3.84-.48,5.33-1.45,1.5-.97,2.68-2.45,3.56-4.44.87-2,1.31-4.52,1.31-7.58,0-4.55-.94-7.91-2.81-10.06-1.87-2.15-4.34-3.23-7.39-3.23-2,0-3.76.47-5.29,1.4-1.53.94-2.71,2.4-3.56,4.4-.84,2-1.26,4.49-1.26,7.49,0,4.62.94,8.02,2.81,10.2,1.87,2.18,4.3,3.27,7.3,3.27Z"/>
    <path class="cls-1" d="m194.15,295.75c-1.68,0-3.07-.48-4.16-1.45-1.09-.97-1.65-2.2-1.68-3.7-.03-1.5.61-3.02,1.92-4.58l14.41-17.78v6.46l-13.47-16.66c-1.31-1.56-1.93-3.07-1.87-4.54.06-1.47.62-2.68,1.68-3.65,1.06-.97,2.43-1.45,4.12-1.45,1.81,0,3.27.28,4.4.84,1.12.56,2.15,1.5,3.09,2.81l10.01,12.91h-4.96l10.11-12.91c1-1.31,2.04-2.25,3.13-2.81,1.09-.56,2.48-.84,4.16-.84s3.13.5,4.16,1.5c1.03,1,1.57,2.23,1.64,3.7.06,1.47-.56,2.98-1.87,4.54l-13.47,16.47v-6.27l14.6,17.68c1.25,1.5,1.86,2.99,1.82,4.49-.03,1.5-.59,2.75-1.68,3.74-1.09,1-2.51,1.5-4.26,1.5s-3.09-.3-4.21-.89c-1.12-.59-2.18-1.51-3.18-2.76l-10.95-13.94h4.87l-11.04,13.94c-.94,1.19-1.96,2.09-3.09,2.71-1.12.62-2.53.94-4.21.94Z"/>
    <path class="cls-2" d="m258.9,295.85c-2.12,0-3.74-.58-4.87-1.73-1.12-1.15-1.68-2.82-1.68-5.01v-53.99c0-2.25.61-3.93,1.82-5.05,1.22-1.12,2.88-1.68,5.01-1.68,1.87,0,3.35.34,4.44,1.03,1.09.69,2.07,1.87,2.95,3.56l21.62,39.49h-2.99l21.62-39.49c.87-1.68,1.86-2.87,2.95-3.56,1.09-.69,2.57-1.03,4.45-1.03,2.06,0,3.66.56,4.82,1.68,1.15,1.12,1.73,2.81,1.73,5.05v53.99c0,2.18-.56,3.85-1.68,5.01-1.12,1.15-2.78,1.73-4.96,1.73-2.06,0-3.67-.58-4.82-1.73-1.15-1.15-1.73-2.82-1.73-5.01v-37.8h2.06l-17.5,31.16c-.69,1.19-1.45,2.06-2.29,2.62-.84.56-1.92.84-3.23.84-1.44,0-2.59-.3-3.46-.89-.87-.59-1.65-1.45-2.34-2.57l-17.5-31.25h2.15v37.9c0,2.18-.55,3.85-1.64,5.01-1.09,1.15-2.73,1.73-4.91,1.73Z"/>
    <path class="cls-2" d="m357.9,296.03c-3.49,0-6.55-.64-9.17-1.92-2.62-1.28-4.68-3.02-6.18-5.24-1.5-2.21-2.25-4.76-2.25-7.63,0-3.37.87-6.02,2.62-7.95,1.75-1.93,4.57-3.34,8.47-4.21,3.9-.87,9.09-1.31,15.58-1.31h4.96v7.3h-4.87c-3.24,0-5.82.17-7.72.51-1.9.34-3.29.94-4.16,1.78-.87.84-1.31,1.95-1.31,3.32,0,1.68.61,3.09,1.82,4.21,1.22,1.12,2.95,1.68,5.19,1.68,1.81,0,3.43-.41,4.87-1.22,1.43-.81,2.56-1.93,3.37-3.37.81-1.43,1.22-3.15,1.22-5.15v-10.67c0-2.74-.62-4.69-1.87-5.85-1.25-1.15-3.4-1.73-6.46-1.73-1.62,0-3.42.19-5.38.56-1.97.37-4.13,1.06-6.5,2.06-1.44.56-2.67.69-3.7.37-1.03-.31-1.82-.92-2.39-1.82-.56-.9-.84-1.92-.84-3.04s.31-2.18.94-3.18c.62-1,1.68-1.75,3.18-2.25,2.87-1.12,5.6-1.92,8.19-2.39,2.59-.47,4.94-.7,7.06-.7,4.8,0,8.78.7,11.93,2.11,3.15,1.4,5.49,3.57,7.02,6.5,1.53,2.93,2.29,6.64,2.29,11.13v20.77c0,2.31-.58,4.07-1.73,5.29-1.15,1.22-2.76,1.82-4.82,1.82s-3.76-.61-4.91-1.82c-1.16-1.22-1.73-2.98-1.73-5.29v-3.46l.65.66c-.37,2.06-1.17,3.84-2.39,5.33s-2.75,2.67-4.58,3.51c-1.84.84-3.98,1.26-6.41,1.26Z"/>
    <path class="cls-2" d="m410.77,312.69c-2.18,0-3.9-.59-5.15-1.78-1.25-1.19-1.87-2.96-1.87-5.33v-50.06c0-2.31.61-4.07,1.82-5.29s2.95-1.82,5.19-1.82,3.88.61,5.1,1.82c1.22,1.22,1.82,2.98,1.82,5.29v6.36l-1.03-3.65c.94-3.06,2.82-5.49,5.66-7.3,2.84-1.81,6.1-2.71,9.78-2.71,3.99,0,7.52.97,10.57,2.9,3.06,1.93,5.41,4.68,7.06,8.23,1.65,3.56,2.48,7.8,2.48,12.73s-.84,9.2-2.53,12.82c-1.68,3.62-4.02,6.38-7.02,8.28-2.99,1.9-6.52,2.85-10.57,2.85-3.62,0-6.83-.87-9.64-2.62-2.81-1.75-4.68-4.02-5.61-6.83h1.03v19c0,2.37-.61,4.15-1.82,5.33-1.22,1.18-2.98,1.78-5.29,1.78Zm17.12-27.14c2,0,3.76-.48,5.29-1.45,1.53-.97,2.71-2.45,3.56-4.44.84-2,1.26-4.52,1.26-7.58,0-4.55-.94-7.91-2.81-10.06-1.87-2.15-4.3-3.23-7.3-3.23-2,0-3.76.47-5.29,1.4-1.53.94-2.71,2.4-3.56,4.4-.84,2-1.26,4.49-1.26,7.49,0,4.62.94,8.02,2.81,10.2,1.87,2.18,4.3,3.27,7.3,3.27Z"/>
  </g>
</svg>