<svg width="26" height="43" viewBox="0 0 26 43" fill="none" xmlns="http://www.w3.org/2000/svg">
<path fill-rule="evenodd" clip-rule="evenodd" d="M0.394113 0.102812C0.276859 0.164719 0.16448 0.281067 0.100242 0.406963C0.000406251 0.602638 -0.00314844 0.681811 0.0108164 2.38301C0.0247812 4.08166 0.0297578 4.16099 0.130102 4.29531C0.317789 4.54665 0.495371 4.64492 0.761719 4.64492C1.02802 4.64492 1.2056 4.54665 1.39334 4.29536C1.4918 4.16363 1.49896 4.07643 1.51313 2.83845L1.52826 1.52164H2.74661C3.8675 1.52164 3.98105 1.51347 4.16538 1.41941C4.3907 1.30444 4.57031 1.01186 4.57031 0.759868C4.57031 0.507873 4.3907 0.215301 4.16538 0.100323C3.97612 0.00378126 3.871 -0.00180509 2.27449 0.000327878C0.691793 0.00246085 0.571848 0.00896132 0.394113 0.102812ZM12.2093 0.34531C11.5306 0.734272 2.5935 5.95228 2.37194 6.08889L2.23021 6.17629L7.58144 9.156C10.5246 10.7948 12.9629 12.1357 13 12.1357C13.0675 12.1357 23.7784 6.18909 23.7535 6.16542C23.7193 6.13287 13.5254 0.186353 13.3531 0.0984444C13.025 -0.0689428 12.8759 -0.0367959 12.2093 0.34531ZM21.8238 0.102812C21.6094 0.216012 21.4297 0.515643 21.4297 0.759868C21.4297 1.01186 21.6093 1.30444 21.8346 1.41941C22.019 1.51347 22.1325 1.52164 23.2534 1.52164H24.4717L24.4869 2.83845C24.501 4.07643 24.5082 4.16363 24.6067 4.29536C24.7944 4.54665 24.972 4.64492 25.2383 4.64492C25.5046 4.64492 25.6822 4.54665 25.8699 4.29531C25.9702 4.16099 25.9752 4.08166 25.9892 2.38301C26.0031 0.681151 25.9996 0.602688 25.8996 0.406709C25.832 0.274059 25.7253 0.166801 25.5951 0.100323C25.4058 0.00378126 25.3007 -0.00180509 23.7042 0.000327878C22.1215 0.00246085 22.0015 0.00896132 21.8238 0.102812ZM1.625 13.2796C1.625 17.7965 1.63795 18.9467 1.68848 18.9272C1.72341 18.9137 3.54428 17.8142 5.73483 16.4841C9.38026 14.2704 9.73654 14.0655 9.93952 14.0655C10.6507 14.0655 10.976 14.9101 10.4423 15.3707C10.3517 15.4489 8.55989 16.5527 6.46054 17.8236C4.36125 19.0945 2.64382 20.1458 2.64413 20.1597C2.64438 20.1737 4.11196 21.0257 5.90535 22.053C7.69869 23.0804 9.8573 24.3181 10.7021 24.8035L12.2383 25.6861L12.2365 19.5838L12.2346 13.4815L6.98359 10.5624C4.09551 8.95682 1.70833 7.63514 1.67878 7.62529C1.64115 7.61274 1.625 9.31043 1.625 13.2796ZM19.0322 10.5508L13.7654 13.4815L13.7636 19.5838L13.7617 25.6861L15.2979 24.8035C16.1427 24.3181 18.3013 23.0804 20.0946 22.053C21.888 21.0257 23.3556 20.1737 23.356 20.1597C23.3563 20.1458 21.6504 19.0945 19.5649 17.8236C17.4795 16.5527 15.6991 15.4489 15.6085 15.3707C15.3118 15.1146 15.2611 14.6893 15.4892 14.369C15.6335 14.1663 15.8406 14.0655 16.1129 14.0655C16.3185 14.0655 16.6532 14.2592 20.2922 16.4836C22.4679 17.8135 24.2766 18.9129 24.3115 18.9267C24.3621 18.9466 24.375 17.7977 24.375 13.2838C24.375 10.1664 24.3579 7.61675 24.3369 7.61792C24.3159 7.61909 21.9288 8.93884 19.0322 10.5508ZM0.394113 21.5341C0.278078 21.5954 0.164531 21.7122 0.102121 21.8345C0.00589062 22.0231 0 22.1319 0 23.7147C0 25.2982 0.00589063 25.4061 0.102223 25.595C0.168035 25.7241 0.275895 25.832 0.40493 25.8978C0.593836 25.9941 0.701797 26 2.28516 26C3.86852 26 3.97648 25.9941 4.16538 25.8978C4.3907 25.7828 4.57031 25.4902 4.57031 25.2382C4.57031 24.9862 4.3907 24.6937 4.16538 24.5787C3.981 24.4846 3.8675 24.4764 2.74422 24.4764H1.52344V23.2556C1.52344 22.1322 1.51526 22.0187 1.42121 21.8343C1.23383 21.467 0.775125 21.3329 0.394113 21.5341ZM24.8707 21.5341C24.7546 21.5954 24.6411 21.7122 24.5787 21.8345C24.4847 22.0187 24.4766 22.1327 24.4766 23.2556V24.4764H23.2558C22.1325 24.4764 22.019 24.4846 21.8346 24.5787C21.6093 24.6937 21.4297 24.9862 21.4297 25.2382C21.4297 25.4902 21.6093 25.7828 21.8346 25.8978C22.0235 25.9941 22.1315 26 23.7148 26C25.2982 26 25.4062 25.9941 25.5951 25.8978C25.7241 25.832 25.832 25.7241 25.8978 25.595C25.9941 25.4061 26 25.2982 26 23.7147C26 22.1312 25.9941 22.0232 25.8978 21.8343C25.7104 21.467 25.2517 21.3329 24.8707 21.5341Z" fill="white"/>
<path d="M5.88611 34.2315V34.3259H4V34.2396C4 32.6036 5.3044 31 7.91319 31C10.2608 31 11.7908 32.2799 11.7908 33.9874C11.7908 35.3388 10.9004 36.2357 9.88091 37.2647L9.73845 37.409L6.80913 40.4031V40.507H12V42H4.06975V40.8779L8.47709 36.4366C9.12113 35.796 9.8171 35.0771 9.8171 34.1371C9.8171 33.1336 8.99054 32.4701 7.86867 32.4701C6.6177 32.4701 5.88611 33.2995 5.88611 34.2315Z" fill="white"/>
<path d="M13.2461 31.0831V42.0328H17.5146C21.0441 42.0328 22.7504 40.0122 22.7504 36.5297C22.7504 33.0727 21.0714 31.0831 17.5146 31.0831H13.2461ZM15.5607 32.8481H17.2065C19.3749 32.8481 20.3675 34.1003 20.3675 36.5717C20.3675 39.0412 19.3827 40.2587 17.2065 40.2587H15.5607V32.8481Z" fill="white"/>
</svg>
