<svg width="40" height="39" viewBox="0 0 40 39" fill="none" xmlns="http://www.w3.org/2000/svg">
<g clip-path="url(#clip0_157_4698)">
<path d="M2.76416 0.685446C3.04701 0.854458 3.28157 1.07497 3.52588 1.29482C3.61407 1.37131 3.70245 1.44756 3.79099 1.52363C3.98601 1.69135 4.18037 1.85977 4.37418 2.02887C4.65036 2.26965 4.92804 2.50862 5.20642 2.74685C5.25009 2.78423 5.29376 2.82162 5.33876 2.86014C5.42676 2.93546 5.51477 3.01078 5.60279 3.08609C5.82467 3.27597 6.04636 3.46607 6.26807 3.65615C6.35693 3.73232 6.4458 3.80849 6.53467 3.88467C13.4663 9.82607 13.4663 9.82607 13.5998 9.9405C13.688 10.0161 13.7763 10.0917 13.8645 10.1673C14.0964 10.366 14.3281 10.5649 14.5595 10.7642C14.6076 10.8056 14.6557 10.847 14.7053 10.8897C14.7972 10.9687 14.889 11.0479 14.9808 11.1271C15.1944 11.3107 15.4091 11.489 15.6372 11.6542C15.8804 11.5478 16.0341 11.4239 16.2147 11.2305C16.2663 11.1764 16.3179 11.1223 16.3711 11.0666C16.4258 11.0091 16.4806 10.9517 16.537 10.8925C17.2859 10.126 18.0969 9.45676 19.1411 9.14052C19.1891 9.1258 19.2371 9.11107 19.2866 9.09589C19.4883 9.05594 19.6784 9.05715 19.8838 9.05959C19.9588 9.06028 20.0338 9.06097 20.1111 9.06168C20.1681 9.06256 20.225 9.06344 20.2837 9.06435C20.3687 10.2637 19.8568 11.1874 19.1233 12.0928C18.7188 12.5503 18.282 12.9786 17.8462 13.4061C17.9447 13.627 18.0416 13.7692 18.2259 13.9251C18.2715 13.9641 18.3171 14.0031 18.3641 14.0433C18.4131 14.0844 18.4622 14.1255 18.5127 14.1679C18.5634 14.211 18.614 14.2541 18.6663 14.2985C18.7719 14.3884 18.8777 14.478 18.9836 14.5675C19.1341 14.6951 19.2834 14.8238 19.4324 14.9531C19.8825 15.3433 20.333 15.7238 20.8169 16.0722C20.8376 16.028 20.8584 15.9839 20.8797 15.9385C20.9688 15.7684 21.0678 15.623 21.1826 15.4693C21.2251 15.4121 21.2676 15.3548 21.3114 15.2958C21.3572 15.2347 21.4029 15.1735 21.4501 15.1105C21.5473 14.9795 21.6445 14.8485 21.7417 14.7174C21.7909 14.651 21.8402 14.5847 21.8909 14.5163C22.2326 14.0534 22.5676 13.5856 22.9037 13.1186C23.0256 12.9495 23.148 12.7807 23.2705 12.612C23.9273 11.7067 24.5693 10.7914 25.2086 9.87364C26.2269 8.41306 27.1408 7.19771 28.8911 6.60305C28.9453 6.58458 28.9994 6.5661 29.0552 6.54707C29.8771 6.28397 30.6933 6.21981 31.5524 6.22219C31.6431 6.22096 31.7339 6.21973 31.8275 6.21847C31.9586 6.2184 31.9586 6.2184 32.0924 6.21832C32.2099 6.21798 32.2099 6.21798 32.3298 6.21763C32.6538 6.25987 32.8527 6.39902 33.0806 6.62685C33.5088 8.24676 33.0541 10.3061 32.2382 11.7333C31.9971 12.1011 31.7175 12.4125 31.4048 12.7206C31.3486 12.7767 31.2925 12.8327 31.2346 12.8905C30.7293 13.3695 30.163 13.7471 29.587 14.1339C29.3176 14.3163 29.0519 14.5037 28.7864 14.6916C28.7331 14.7292 28.6798 14.7669 28.6248 14.8057C28.1085 15.1715 27.5958 15.5424 27.0832 15.9136C26.7998 16.1187 26.5151 16.3218 26.2299 16.5244C25.6766 16.918 25.1311 17.3219 24.585 17.7253C24.1938 18.0143 23.8008 18.3007 23.4067 18.5858C23.535 18.8951 23.7504 19.1276 23.9685 19.3761C24.051 19.4712 24.1336 19.5663 24.2161 19.6615C24.2797 19.7345 24.2797 19.7345 24.3446 19.809C24.5506 20.0461 24.7546 20.2848 24.9587 20.5235C25.0307 20.6075 25.1027 20.6915 25.1748 20.7755C25.3979 21.0358 25.6211 21.2962 25.8442 21.5565C26.1139 21.3309 26.3736 21.1072 26.6155 20.852C27.3693 20.0948 28.5412 19.1476 29.654 19.1116C29.7353 19.1125 29.8166 19.1134 29.9004 19.1143C29.9825 19.115 30.0646 19.1157 30.1491 19.1164C30.2116 19.1172 30.274 19.1181 30.3384 19.119C30.4186 20.5162 29.6773 21.5412 28.7864 22.5468C28.452 22.914 28.1034 23.2658 27.7485 23.6132C27.8558 23.9403 28.012 24.1365 28.2484 24.3844C28.5132 24.6679 28.7666 24.9533 29.0101 25.2556C29.23 25.528 29.4551 25.792 29.6909 26.0507C29.9894 26.3782 30.2692 26.7179 30.5479 27.0623C30.7143 27.2635 30.8862 27.4574 31.062 27.6503C31.3605 27.9778 31.6403 28.3175 31.9189 28.6619C32.0854 28.8631 32.2573 29.057 32.4331 29.2499C32.7316 29.5774 33.0114 29.9171 33.29 30.2616C33.4565 30.4627 33.6284 30.6566 33.8042 30.8495C34.1027 31.177 34.3825 31.5167 34.6611 31.8612C34.8276 32.0623 34.9995 32.2562 35.1753 32.4491C35.4738 32.7767 35.7536 33.1163 36.0322 33.4608C36.1987 33.6619 36.3706 33.8558 36.5464 34.0487C36.8446 34.376 37.1242 34.7152 37.4024 35.0595C37.5735 35.266 37.7508 35.4647 37.9318 35.6626C38.0416 35.7845 38.1511 35.9067 38.2603 36.0292C38.308 36.0825 38.3557 36.1358 38.4049 36.1908C38.6323 36.4647 38.8079 36.7103 38.7756 37.0864C38.6385 37.4661 38.3139 37.7331 38.0317 38.0097C37.9569 38.086 37.8822 38.1624 37.8077 38.2391C37.0426 39.0204 37.0426 39.0204 36.6654 39.0618C36.1449 39.0517 35.8185 38.6212 35.4771 38.2737C35.3159 38.1121 35.1461 37.9611 34.9753 37.8097C34.9137 37.7543 34.852 37.699 34.7885 37.6419C34.7276 37.5873 34.6667 37.5327 34.604 37.4765C34.1925 37.1074 33.7826 36.7367 33.3757 36.3624C33.1292 36.1357 32.8817 35.9104 32.6283 35.6912C32.3096 35.4151 32.0016 35.1278 31.6925 34.8411C31.4723 34.6372 31.251 34.4354 31.0239 34.2392C30.7066 33.9649 30.4004 33.679 30.0929 33.3938C29.8727 33.19 29.6514 32.9882 29.4243 32.7919C29.107 32.5176 28.8008 32.2317 28.4933 31.9466C28.2731 31.7427 28.0518 31.5409 27.8247 31.3446C27.5074 31.0703 27.2012 30.7845 26.8937 30.4993C26.6735 30.2954 26.4522 30.0936 26.2251 29.8974C25.9529 29.6621 25.6891 29.4184 25.4253 29.1737C25.0624 28.8374 24.6964 28.5058 24.3208 28.1835C24.2695 28.1394 24.2183 28.0953 24.1655 28.0499C24.0397 27.9419 23.9137 27.8341 23.7876 27.7265C23.5172 27.8413 23.3465 27.9985 23.1419 28.2076C23.0783 28.2721 23.0147 28.3365 22.9491 28.4029C22.8833 28.4703 22.8175 28.5378 22.7498 28.6072C22.6188 28.7408 22.4877 28.8742 22.3564 29.0074C22.2985 29.0667 22.2406 29.1259 22.181 29.187C21.952 29.4061 21.7608 29.4423 21.4426 29.4382C21.1066 29.3665 20.897 29.1075 20.6646 28.869C20.6146 28.8217 20.5646 28.7744 20.5131 28.7256C20.2859 28.5083 20.0988 28.3268 19.979 28.0312C19.9706 27.5935 20.1151 27.3802 20.4015 27.0763C20.4632 27.0144 20.5248 26.9524 20.5884 26.8886C20.6311 26.8453 20.6739 26.802 20.718 26.7574C21.0282 26.4435 21.3408 26.1322 21.6548 25.8222C21.2646 25.4248 20.8733 25.0346 20.4503 24.6721C20.2421 24.4911 20.0392 24.3046 19.8362 24.1178C19.7974 24.0823 19.7585 24.0468 19.7185 24.0102C19.5283 23.836 19.3395 23.6608 19.1524 23.4832C19.0858 23.4208 19.0193 23.3585 18.9507 23.2942C18.8918 23.2381 18.8329 23.1821 18.7722 23.1243C18.6009 22.9738 18.6009 22.9738 18.3032 23.0038C18.1465 23.132 18.0105 23.258 17.8701 23.4024C17.8277 23.4447 17.7853 23.4871 17.7416 23.5307C17.6016 23.6709 17.4626 23.8122 17.3237 23.9536C17.2269 24.051 17.1299 24.1483 17.033 24.2456C16.7778 24.5019 16.5236 24.7591 16.2696 25.0165C16.0103 25.279 15.7501 25.5406 15.4899 25.8022C14.9796 26.3158 14.4702 26.8304 13.9614 27.3456C14.1272 27.9987 14.3349 28.6359 14.5503 29.2738C14.6108 29.4528 14.6709 29.6319 14.7309 29.811C14.9014 30.3195 15.0726 30.8279 15.2438 31.3362C15.3491 31.6488 15.454 31.9614 15.5587 32.2741C15.5985 32.3926 15.6384 32.5111 15.6784 32.6295C15.7343 32.7948 15.7898 32.9603 15.8452 33.1258C15.8768 33.2197 15.9085 33.3136 15.941 33.4103C16.1195 34.0071 16.1195 34.0071 16.0547 34.3094C15.8878 34.5999 15.668 34.8217 15.4325 35.058C15.3868 35.1065 15.3411 35.155 15.294 35.205C15.0639 35.4373 14.9159 35.5599 14.5979 35.6567C14.3011 35.647 14.1857 35.6134 13.9614 35.4198C13.8574 35.2538 13.7755 35.1014 13.6948 34.9247C13.6698 34.8722 13.6447 34.8198 13.6189 34.7657C13.5616 34.6457 13.5047 34.5255 13.4483 34.405C13.343 34.1819 13.2354 33.9599 13.1274 33.7381C12.6451 32.7457 12.1743 31.7484 11.7136 30.7459C11.5232 30.3328 11.3302 29.9212 11.1303 29.5126C11.095 29.4405 11.0597 29.3684 11.0234 29.2941C10.7238 28.753 10.3137 28.4747 9.76602 28.2097C9.71303 28.1836 9.66004 28.1576 9.60545 28.1307C9.43274 28.0461 9.25966 27.9623 9.08643 27.8788C8.99945 27.8368 8.99945 27.8368 8.91072 27.794C8.54279 27.6169 8.17413 27.4413 7.80511 27.2664C7.60611 27.1721 7.40725 27.0775 7.20839 26.9829C6.61174 26.6994 6.01451 26.4179 5.41173 26.1477C5.32025 26.1065 5.22878 26.0653 5.13453 26.0228C4.96853 25.9484 4.80214 25.8749 4.63532 25.8025C3.96797 25.5035 3.96797 25.5035 3.75439 25.1366C3.70203 24.9224 3.70203 24.9224 3.75439 24.6796C3.90883 24.4532 4.09584 24.2651 4.2876 24.0702C4.34347 24.008 4.39934 23.9457 4.4569 23.8816C4.51415 23.8197 4.57139 23.7578 4.63037 23.6941C4.683 23.6369 4.73563 23.5796 4.78986 23.5206C5.03563 23.3383 5.20089 23.3265 5.50635 23.3085C5.72787 23.3514 5.93423 23.4253 6.14578 23.5029C6.2074 23.5244 6.26903 23.5459 6.33253 23.5681C6.46565 23.6147 6.5986 23.6618 6.73139 23.7094C6.94168 23.7845 7.1525 23.8579 7.36358 23.9307C7.96335 24.138 8.56232 24.3475 9.16014 24.5604C9.52641 24.6906 9.89355 24.8181 10.2614 24.9438C10.4012 24.9923 10.5407 25.0417 10.6797 25.0923C10.8741 25.1629 11.0695 25.2299 11.2654 25.2962C11.3224 25.3179 11.3795 25.3396 11.4383 25.362C11.6212 25.4279 11.6212 25.4279 11.9048 25.4413C12.12 25.3233 12.2724 25.1634 12.438 24.9843C12.5456 24.8812 12.5456 24.8812 12.6554 24.7761C12.7612 24.67 12.7612 24.67 12.8691 24.5618C12.9086 24.5224 12.948 24.4829 12.9887 24.4423C13.117 24.3139 13.2451 24.1852 13.3732 24.0565C13.4629 23.9667 13.5527 23.8768 13.6424 23.7869C13.8771 23.5519 14.1116 23.3167 14.3461 23.0814C14.5859 22.8408 14.826 22.6004 15.0661 22.3599C15.536 21.8892 16.0056 21.4183 16.4751 20.9472C16.4037 20.8634 16.3322 20.7797 16.2607 20.696C16.2209 20.6494 16.1811 20.6028 16.1401 20.5547C15.9537 20.3397 15.76 20.1317 15.5658 19.9236C15.2779 19.6135 14.9941 19.3012 14.7181 18.9804C14.5926 18.8389 14.4649 18.7005 14.3354 18.5626C14.2935 18.5179 14.2516 18.4731 14.2084 18.4269C14.1241 18.3372 14.0395 18.2477 13.9546 18.1586C13.6567 17.841 13.6567 17.841 13.6567 17.6718C13.3454 17.9323 13.05 18.1995 12.7686 18.4921C12.6941 18.569 12.6941 18.569 12.6182 18.6474C12.5181 18.7513 12.4188 18.856 12.3204 18.9615C12.1091 19.1801 11.9581 19.328 11.6697 19.4338C11.1669 19.4109 10.8512 19.0955 10.5146 18.7572C10.4744 18.7191 10.4341 18.681 10.3927 18.6418C10.1187 18.3693 9.98357 18.1411 9.92432 17.7479C10.0184 17.4108 10.1945 17.2224 10.4415 16.98C10.4767 16.945 10.512 16.91 10.5484 16.874C10.6604 16.7633 10.7732 16.6534 10.886 16.5435C10.9624 16.4682 11.0388 16.3929 11.1151 16.3175C11.3017 16.1336 11.4887 15.9503 11.6763 15.7675C11.5527 15.5076 11.4104 15.3227 11.2145 15.1105C11.1529 15.0433 11.0913 14.9762 11.0279 14.907C10.9341 14.8051 10.9341 14.8051 10.8384 14.7011C10.7271 14.5774 10.6161 14.4537 10.5051 14.3297C10.2467 14.0424 9.98599 13.7572 9.72437 13.4728C9.49759 13.2262 9.27232 12.9787 9.0531 12.7254C8.77701 12.4067 8.48971 12.0987 8.20303 11.7896C7.95704 11.5239 7.71648 11.2545 7.47968 10.9806C7.28246 10.7575 7.07991 10.5395 6.87744 10.3212C6.59061 10.0119 6.30827 9.70008 6.03241 9.38094C5.83519 9.15786 5.63265 8.93989 5.43018 8.72158C5.14335 8.41231 4.861 8.10046 4.58514 7.78133C4.38793 7.55825 4.18538 7.34028 3.98291 7.12197C3.69608 6.8127 3.41374 6.50086 3.13788 6.18172C2.94066 5.95864 2.73811 5.74067 2.53564 5.52236C2.249 5.21329 1.96637 4.90207 1.69151 4.58241C1.57008 4.44565 1.4465 4.31229 1.32076 4.17953C1.28021 4.13648 1.23966 4.09342 1.19788 4.04906C1.11768 3.96414 1.03707 3.87961 0.955971 3.79555C0.65404 3.47505 0.341444 3.12605 0.312378 2.67068C0.44908 2.31813 0.673338 2.09618 0.936035 1.82802C0.977987 1.78503 1.01994 1.74203 1.06316 1.69774C1.29835 1.45737 1.53477 1.21823 1.77303 0.98091C1.81352 0.940511 1.854 0.900112 1.89572 0.858488C2.14856 0.62899 2.44224 0.613789 2.76416 0.685446Z" fill="black"/>
<path d="M36.5607 1.27101C36.6963 1.37957 36.8313 1.48891 36.9653 1.5995C37.0455 1.6592 37.1256 1.7189 37.2081 1.78041C38.1577 2.66672 38.8008 3.79234 39.1743 5.02724C39.1892 5.07642 39.2041 5.12561 39.2195 5.17629C39.3646 5.72945 39.3567 6.29172 39.3552 6.86012C39.3553 6.91251 39.3553 6.96489 39.3553 7.01886C39.3535 7.96831 39.3419 9.14049 38.6649 9.89272C38.4025 10.0204 38.1654 10.0301 37.8794 9.97841C37.6435 9.82718 37.5883 9.71376 37.4985 9.44997C37.4615 9.07834 37.6086 8.73221 37.7265 8.38535C38.1501 7.08814 37.9078 5.59626 37.3271 4.39406C36.5713 2.96895 35.3928 2.08156 33.8762 1.59534C32.7773 1.29382 31.3764 1.30902 30.3384 1.82802C30.0199 1.85807 29.8578 1.86232 29.5862 1.6852C29.3909 1.48994 29.3518 1.42733 29.3339 1.15199C29.3482 0.912805 29.3752 0.808215 29.5005 0.609268C29.7086 0.463117 29.9472 0.388485 30.186 0.30458C30.2666 0.275909 30.3471 0.247237 30.43 0.217697C32.5047 -0.409126 34.8251 -0.0146211 36.5607 1.27101Z" fill="#4F54D0"/>
<path d="M34.8325 3.50383C35.7635 4.2041 36.3311 5.15114 36.5369 6.29362C36.6309 7.06355 36.6111 8.11167 36.1274 8.75969C35.8656 8.92047 35.6726 8.95499 35.3657 8.91203C35.1086 8.75969 35.1086 8.75969 34.9087 8.53117C34.8656 8.19737 34.8849 7.99764 34.9849 7.679C35.1747 6.95539 35.1171 6.21945 34.7563 5.56047C34.3146 4.91609 33.7237 4.48196 32.9595 4.29292C32.5598 4.23333 32.176 4.23185 31.7856 4.34172C31.455 4.43297 31.1364 4.47092 30.7954 4.41789C30.5393 4.25783 30.5003 4.14536 30.4146 3.85612C30.4146 3.59692 30.4244 3.43272 30.5883 3.22622C31.7182 2.33511 33.7562 2.78263 34.8325 3.50383Z" fill="#4F54D0"/>
</g>
<defs>
<clipPath id="clip0_157_4698">
<rect width="39" height="39" fill="white" transform="translate(0.32666)"/>
</clipPath>
</defs>
</svg>
