<svg width="50" height="50" viewBox="0 0 50 50" fill="none" xmlns="http://www.w3.org/2000/svg">
<g clip-path="url(#clip0_157_4715)">
<path d="M15.5124 21.1532C15.6503 21.1532 15.7881 21.1532 15.926 21.1531C16.2957 21.1531 16.6653 21.1537 17.035 21.1543C17.423 21.1549 17.8111 21.155 18.1991 21.1551C18.9318 21.1554 19.6646 21.1562 20.3973 21.1571C21.2324 21.1582 22.0675 21.1587 22.9026 21.1592C24.6185 21.1602 26.3344 21.1619 28.0503 21.164C28.0748 21.7989 28.0914 22.4336 28.1029 23.0689C28.1077 23.2845 28.1142 23.5002 28.1225 23.7157C28.1986 25.7382 28.1986 25.7382 27.5894 26.4075C27.4272 26.5457 27.2621 26.6806 27.0933 26.8105C26.9766 26.9374 26.8622 27.0665 26.7523 27.1993C26.2885 27.7326 25.8129 28.2554 25.3392 28.7799C25.0162 29.1381 24.6939 29.4967 24.3777 29.8611C24.3239 29.9222 24.2701 29.9834 24.2147 30.0465C24.0753 30.2052 23.9369 30.3649 23.799 30.525C22.0977 32.4702 19.8921 33.5746 17.3316 33.8926C16.8422 33.9192 16.3534 33.9208 15.8635 33.9204C15.7196 33.9209 15.5758 33.9216 15.432 33.9223C15.0448 33.924 14.6577 33.9244 14.2706 33.9246C14.0281 33.9247 13.7856 33.9251 13.5431 33.9256C12.6956 33.9274 11.8481 33.9282 11.0006 33.928C10.213 33.9279 9.4254 33.9299 8.63778 33.9329C7.95909 33.9355 7.28041 33.9365 6.60171 33.9364C6.19741 33.9363 5.79313 33.9368 5.38884 33.9389C5.00878 33.9407 4.62876 33.9407 4.2487 33.9394C4.1099 33.9392 3.97109 33.9396 3.83229 33.9408C2.93576 33.9478 2.13302 33.9015 1.40634 33.3284C0.847131 32.6298 0.615522 32.0665 0.640344 31.1605C0.756942 30.1694 1.30106 29.1923 1.81029 28.3421C1.92981 28.1452 1.92981 28.1452 2.04084 27.9093C2.26755 27.5041 2.43449 27.2391 2.89357 27.1068C3.27102 27.0764 3.6423 27.0757 4.02023 27.0857C4.15952 27.0858 4.2988 27.0855 4.43808 27.0847C4.80345 27.0838 5.16854 27.0884 5.53386 27.0944C6.0485 27.1018 6.5632 27.1016 7.07788 27.1024C7.35158 27.1028 7.62512 27.1052 7.89878 27.1094C8.02304 27.1105 8.14729 27.1117 8.27531 27.113C8.38422 27.1146 8.49314 27.1162 8.60535 27.1178C9.02594 27.0899 9.35915 26.9883 9.71121 26.7567C9.91376 26.4529 9.92649 26.232 9.91046 25.8718C9.83941 25.5311 9.66255 25.3831 9.38821 25.1836C9.11218 25.0939 8.85574 25.0739 8.5666 25.0682C8.48041 25.0663 8.39421 25.0644 8.30541 25.0624C8.21318 25.0608 8.12095 25.0592 8.02593 25.0576C7.88336 25.0546 7.88336 25.0546 7.73791 25.0516C7.43466 25.0453 7.13141 25.0397 6.82815 25.034C6.62241 25.0299 6.41667 25.0257 6.21094 25.0215C5.70689 25.0113 5.20282 25.0015 4.69875 24.9922C4.92312 24.6979 5.13142 24.4522 5.43447 24.2392C5.5007 24.1924 5.56692 24.1456 5.63515 24.0973C5.70513 24.0491 5.7751 24.001 5.84719 23.9514C5.92031 23.9008 5.99343 23.8502 6.06876 23.798C8.94187 21.8268 12.0619 21.1437 15.5124 21.1532Z" fill="black"/>
<path d="M23.8708 10.9216C24.3666 11.2209 24.3666 11.2209 24.5217 11.5039C24.6957 11.722 24.6957 11.722 25.0216 11.7375C25.1576 11.7396 25.2936 11.7395 25.4296 11.7379C25.5045 11.7384 25.5795 11.739 25.6567 11.7396C25.9086 11.7411 26.1605 11.7399 26.4125 11.7387C26.5928 11.7392 26.773 11.7399 26.9533 11.7408C27.342 11.7422 27.7307 11.7425 28.1194 11.7418C28.7338 11.7408 29.3482 11.7425 29.9627 11.7445C30.9345 11.7474 31.9064 11.7485 32.8782 11.7488C34.6184 11.7495 36.3586 11.7523 38.0989 11.757C38.7098 11.7586 39.3207 11.7591 39.9317 11.7588C40.3117 11.7587 40.6917 11.7594 41.0717 11.7604C41.248 11.7606 41.4244 11.7605 41.6007 11.7601C41.8413 11.7596 42.0819 11.7602 42.3225 11.7611C42.3924 11.7607 42.4623 11.7602 42.5343 11.7598C43.0265 11.7634 43.3663 11.8461 43.7695 12.1261C44.0183 12.4726 44.0633 12.7982 44.0327 13.2207C43.9245 13.541 43.7731 13.8033 43.4911 14.0032C43.1704 14.1161 42.8592 14.1077 42.5235 14.1051C42.4104 14.1053 42.4104 14.1053 42.2951 14.1056C42.0423 14.1059 41.7896 14.1048 41.5369 14.1038C41.3558 14.1037 41.1747 14.1038 40.9936 14.1039C40.5017 14.1039 40.0098 14.1028 39.5178 14.1015C39.0039 14.1003 38.4899 14.1002 37.9759 14.0999C37.0025 14.0993 36.029 14.0978 35.0556 14.0958C33.9475 14.0937 32.8393 14.0926 31.7312 14.0917C29.4515 14.0897 27.1718 14.0863 24.8921 14.0821C24.8863 14.15 24.8805 14.218 24.8745 14.288C24.8665 14.376 24.8585 14.464 24.8502 14.5546C24.8386 14.6862 24.8386 14.6862 24.8267 14.8204C24.7964 15.0391 24.7964 15.0391 24.7007 15.1348C24.4664 15.1433 24.2348 15.1458 24.0005 15.1441C23.9305 15.144 23.8606 15.1439 23.7885 15.1437C23.5642 15.1432 23.3399 15.142 23.1156 15.1408C22.9639 15.1403 22.8122 15.1399 22.6604 15.1395C22.2878 15.1384 21.9151 15.1368 21.5425 15.1348C21.4274 14.9046 21.4371 14.7568 21.4408 14.5008C21.4417 14.4225 21.4425 14.3443 21.4434 14.2637C21.4451 14.1738 21.4451 14.1738 21.4468 14.0821C21.3521 14.0825 21.2575 14.0829 21.1599 14.0834C18.8572 14.094 16.5544 14.1019 14.2517 14.1068C13.1381 14.1093 12.0245 14.1127 10.9109 14.1182C9.9404 14.1229 8.96987 14.126 7.99933 14.1271C7.48537 14.1277 6.97144 14.1292 6.45749 14.1326C5.97376 14.1359 5.49007 14.1369 5.00633 14.1362C4.82879 14.1363 4.65124 14.1373 4.4737 14.1391C4.23119 14.1415 3.98886 14.1409 3.74635 14.1396C3.67615 14.141 3.60595 14.1424 3.53363 14.1438C2.98998 14.1359 2.77019 13.9747 2.40186 13.6035C2.26068 13.3544 2.2175 13.1236 2.21045 12.8379C2.34071 12.3965 2.47343 12.1098 2.88037 11.8809C3.22681 11.7654 3.54267 11.7723 3.90323 11.7737C3.9789 11.7736 4.05457 11.7735 4.13253 11.7734C4.3869 11.7733 4.64126 11.7738 4.89563 11.7743C5.07764 11.7743 5.25966 11.7743 5.44168 11.7743C5.93658 11.7742 6.43147 11.7748 6.92636 11.7755C7.44328 11.7761 7.96019 11.7761 8.47711 11.7762C9.4563 11.7765 10.4355 11.7773 11.4147 11.7783C12.5293 11.7794 13.644 11.7799 14.7586 11.7804C17.0518 11.7814 19.345 11.783 21.6382 11.7852C21.6769 11.6734 21.6769 11.6734 21.7163 11.5594C21.8706 11.2152 22.0813 11.1081 22.4038 10.9239C22.8847 10.7636 23.3954 10.7222 23.8708 10.9216Z" fill="#5A5ED2"/>
<path d="M49.6792 19.7284C49.7092 20.1687 49.6552 20.5272 49.5416 20.9546C49.4047 21.4734 49.3241 21.9684 49.2964 22.5038C49.2924 22.5781 49.2885 22.6523 49.2844 22.7289C49.2631 23.5457 49.3527 24.4015 49.5955 25.1835C49.6832 25.4842 49.6944 25.7334 49.6792 26.0448C49.3612 26.1498 49.224 26.1498 48.908 26.0242C48.8013 25.9654 48.6945 25.9065 48.5846 25.8459C48.5269 25.8146 48.4693 25.7833 48.4098 25.751C48.2261 25.6509 48.0435 25.5488 47.8608 25.4467C47.738 25.3794 47.6152 25.3122 47.4922 25.2452C46.5752 24.7432 46.5752 24.7432 46.3059 24.5534C45.9735 24.3824 45.7369 24.3811 45.3636 24.3797C45.2964 24.3791 45.2292 24.3784 45.1599 24.3778C44.9352 24.376 44.7106 24.3763 44.4859 24.3765C44.3246 24.3756 44.1633 24.3746 44.002 24.3735C43.5644 24.3709 43.1269 24.37 42.6893 24.3694C42.2319 24.3685 41.7746 24.366 41.3172 24.3637C40.4512 24.3595 39.5852 24.3568 38.7192 24.3546C37.7333 24.352 36.7473 24.3478 35.7614 24.3434C33.7333 24.3346 31.7053 24.3279 29.6772 24.3222C29.6772 23.28 29.6772 22.2378 29.6772 21.164C30.1604 21.1681 30.6435 21.1722 31.1412 21.1764C32.7482 21.1891 34.3552 21.1944 35.9622 21.196C36.9354 21.1971 37.9084 21.2006 38.8815 21.2102C39.7312 21.2186 40.5808 21.2221 41.4305 21.2201C41.8791 21.2192 42.3274 21.2205 42.776 21.2276C45.0764 21.2626 46.8137 21.0009 48.8292 19.849C49.1348 19.7154 49.3492 19.7048 49.6792 19.7284Z" fill="black"/>
<path d="M4.50732 35.4238C5.26529 35.4238 6.02326 35.4238 6.8042 35.4238C6.8042 35.8976 6.8042 36.3713 6.8042 36.8594C9.45709 36.8594 12.11 36.8594 14.8433 36.8594C14.8433 36.3856 14.8433 35.9119 14.8433 35.4238C15.6328 35.4238 16.4224 35.4238 17.2358 35.4238C17.2358 35.8976 17.2358 36.3713 17.2358 36.8594C17.4538 36.8527 17.4538 36.8527 17.6762 36.8459C17.8684 36.8423 18.0605 36.8388 18.2527 36.8354C18.3483 36.8322 18.4439 36.829 18.5424 36.8257C19.1292 36.818 19.4727 36.8438 19.9155 37.2422C20.1277 37.5604 20.1808 37.7243 20.2026 38.1035C20.0858 38.5022 19.9844 38.7167 19.6623 38.982C19.2979 39.1798 19.0179 39.2099 18.6142 39.2042C18.5429 39.2047 18.4717 39.2053 18.3982 39.2058C18.1604 39.2071 17.9226 39.2057 17.6848 39.2043C17.5139 39.2046 17.343 39.2052 17.1721 39.2058C16.7086 39.2072 16.2451 39.2061 15.7817 39.2045C15.2965 39.2032 14.8114 39.2038 14.3262 39.2041C13.5117 39.2044 12.6971 39.2031 11.8825 39.2009C10.9407 39.1984 9.99895 39.1982 9.05716 39.1993C8.15106 39.2003 7.24497 39.1998 6.33888 39.1984C5.95329 39.1978 5.56771 39.1979 5.18212 39.1983C4.72816 39.1988 4.27422 39.1978 3.82026 39.1957C3.65363 39.1952 3.487 39.1951 3.32038 39.1956C3.09298 39.1962 2.86566 39.195 2.63827 39.1934C2.57229 39.1939 2.5063 39.1945 2.43831 39.1951C2.02711 39.1897 1.77509 39.1141 1.44482 38.8691C1.1605 38.5747 1.07802 38.3203 1.06201 37.9121C1.19012 37.5342 1.30999 37.1998 1.63623 36.9551C1.9518 36.8499 2.18457 36.8485 2.51662 36.85C2.63228 36.8503 2.74794 36.8506 2.8671 36.851C2.98794 36.8518 3.10878 36.8526 3.23328 36.8534C3.4162 36.854 3.4162 36.854 3.60282 36.8547C3.90432 36.8558 4.20582 36.8575 4.50732 36.8594C4.50732 36.3856 4.50732 35.9119 4.50732 35.4238Z" fill="#5A5ED2"/>
<path d="M19.7555 16.6541C19.8286 16.6544 19.9016 16.6547 19.9769 16.6551C20.0917 16.6551 20.0917 16.6551 20.2089 16.6551C20.4631 16.6551 20.7174 16.6559 20.9716 16.6566C21.1474 16.6568 21.3232 16.6569 21.4991 16.657C21.9627 16.6574 22.4264 16.6583 22.8901 16.6594C23.3628 16.6604 23.8356 16.6608 24.3083 16.6613C25.2366 16.6623 26.165 16.6639 27.0933 16.666C27.2298 17.0185 27.3661 17.3711 27.5021 17.7238C27.5485 17.8439 27.5949 17.9639 27.6414 18.0839C27.7081 18.2561 27.7745 18.4283 27.8409 18.6006C27.881 18.7043 27.9211 18.8081 27.9624 18.915C28.0503 19.1542 28.0503 19.1542 28.0503 19.2499C24.8289 19.2499 21.6076 19.2499 18.2886 19.2499C18.3562 18.8442 18.41 18.5698 18.5577 18.2043C18.5915 18.1202 18.6253 18.0362 18.6602 17.9495C18.6955 17.8635 18.7307 17.7774 18.7671 17.6888C18.8024 17.6009 18.8377 17.513 18.874 17.4224C19.1848 16.6552 19.1848 16.6552 19.7555 16.6541Z" fill="#5A5ED2"/>
</g>
<defs>
<clipPath id="clip0_157_4715">
<rect width="49" height="49" fill="white" transform="translate(0.679199 0.492188)"/>
</clipPath>
</defs>
</svg>
