<svg width="59" height="59" viewBox="0 0 59 59" fill="none" xmlns="http://www.w3.org/2000/svg">
<g clip-path="url(#clip0_157_4705)">
<path d="M45.632 16.3513C45.7437 16.6586 45.7279 16.7666 45.5957 17.0658C45.4093 17.4182 45.1695 17.7251 44.9249 18.0387C44.875 18.1034 44.825 18.1682 44.7736 18.2349C44.6089 18.4481 44.4437 18.6609 44.2784 18.8736C44.1628 19.0231 44.0472 19.1725 43.9317 19.322C43.6274 19.7156 43.3225 20.1089 43.0175 20.502C42.771 20.8198 42.525 21.1379 42.2789 21.4561C40.9654 23.1544 40.9654 23.1544 40.4364 23.8329C40.2513 24.0705 40.0681 24.3094 39.8866 24.5497C39.4123 25.1734 38.9311 25.6947 38.3101 26.1802C38.1499 26.3113 37.9899 26.4426 37.8299 26.5741C37.5842 26.7739 37.3376 26.9724 37.0887 27.1683C35.8356 28.1597 34.6744 29.2973 34.4691 30.9677C34.4465 31.5617 34.534 32.1335 34.6293 32.7181C34.654 32.8988 34.678 33.0797 34.7014 33.2606C34.7496 33.6276 34.8008 33.9941 34.8544 34.3604C34.9612 35.101 35.0366 35.8445 35.1125 36.5887C35.1481 36.9342 35.186 37.2795 35.224 37.6247C35.238 37.7527 35.2519 37.8806 35.2659 38.0086C35.2727 38.0705 35.2794 38.1325 35.2864 38.1963C35.3264 38.5634 35.366 38.9305 35.4056 39.2976C35.4439 39.6523 35.4824 40.007 35.5212 40.3616C35.6863 41.8715 35.8479 43.3817 36.0045 44.8924C36.0226 45.0668 36.0408 45.2413 36.0592 45.4157C36.0849 45.6604 36.1102 45.9051 36.1353 46.1498C36.1431 46.223 36.1509 46.2962 36.1589 46.3716C36.1658 46.4393 36.1726 46.507 36.1797 46.5767C36.1858 46.6355 36.1919 46.6942 36.1982 46.7547C36.2145 47.0556 36.2028 47.2219 36.0418 47.4826C35.7371 47.7787 35.5023 47.9231 35.0771 47.9713C34.6877 47.8799 34.5124 47.7214 34.2595 47.4171C34.225 47.3761 34.1905 47.3351 34.1549 47.2928C34.0398 47.1556 33.9261 47.0173 33.8123 46.8789C33.7299 46.7802 33.6475 46.6815 33.5649 46.5828C33.3413 46.3151 33.1189 46.0465 32.8967 45.7777C32.6641 45.4968 32.4305 45.2168 32.197 44.9367C31.7551 44.4063 31.3142 43.8751 30.8737 43.3436C30.372 42.7385 29.8692 42.1343 29.3664 41.5302C28.3322 40.2876 27.2994 39.0437 26.2673 37.7994C25.446 38.4851 24.6248 39.1708 23.7787 39.8772C23.8233 40.0142 23.868 40.1511 23.914 40.2922C23.9451 40.4348 23.9737 40.578 23.9999 40.7216C24.0151 40.8047 24.0304 40.8878 24.0461 40.9735C24.0701 41.1071 24.0701 41.1071 24.0945 41.2435C24.1115 41.3373 24.1285 41.431 24.146 41.5276C24.2717 42.2274 24.3904 42.9282 24.5022 43.6304C24.5732 44.0755 24.6469 44.5199 24.726 44.9636C24.7694 45.2072 24.812 45.451 24.8545 45.6948C24.8755 45.8137 24.8969 45.9326 24.9186 46.0514C24.9492 46.2184 24.9784 46.3857 25.0074 46.5531C25.0247 46.6494 25.042 46.7457 25.0598 46.8449C25.1027 47.3773 25.0494 47.6856 24.712 48.0951C24.6009 48.2187 24.4883 48.341 24.3747 48.4623C24.315 48.5277 24.2554 48.5932 24.194 48.6606C24.068 48.7985 23.9414 48.9358 23.8143 49.0726C23.6205 49.281 23.4285 49.491 23.2368 49.7013C23.1138 49.8354 22.9908 49.9694 22.8676 50.1034C22.8104 50.1656 22.7533 50.2278 22.6944 50.292C21.8779 51.1695 21.8779 51.1695 21.4202 51.2636C21.1426 51.2639 20.9502 51.2545 20.7326 51.0714C20.2278 50.4972 19.9627 49.8244 19.6661 49.1291C19.6081 48.9955 19.55 48.862 19.4918 48.7284C19.3396 48.3783 19.1887 48.0276 19.0382 47.6767C18.8858 47.3224 18.732 46.9686 18.5784 46.6147C18.2796 45.9256 17.9816 45.236 17.6864 44.5453C17.6419 44.4413 17.5974 44.3373 17.5527 44.2333C17.4924 44.0931 17.4326 43.9528 17.3728 43.8125C17.3231 43.6962 17.3231 43.6962 17.2724 43.5776C17.1579 43.2815 17.0893 43.0975 17.1658 42.7854C17.3264 42.5193 17.3264 42.5193 18.073 41.8959C17.0444 40.664 16.0159 39.4322 14.9561 38.163C14.6892 38.3858 14.4223 38.6087 14.1473 38.8383C13.8575 38.9417 13.8575 38.9417 13.5663 38.9011C12.8445 38.5535 12.1845 38.0551 11.5236 37.6052C11.4066 37.5258 11.2896 37.4464 11.1726 37.367C10.9285 37.2013 10.6845 37.0354 10.4406 36.8694C10.1306 36.6584 9.82027 36.4479 9.50984 36.2376C9.26839 36.074 9.02715 35.91 8.78597 35.746C8.67176 35.6683 8.55748 35.5908 8.44313 35.5134C6.45813 34.1684 6.45813 34.1684 6.30746 33.7562C6.28208 33.4109 6.30095 33.2235 6.45194 32.9097C6.84323 32.5181 7.31418 32.2198 7.78107 31.9274C7.84647 31.8861 7.91186 31.8448 7.97924 31.8022C8.11644 31.7158 8.2538 31.6296 8.3913 31.5437C8.60067 31.4126 8.80924 31.2802 9.01779 31.1478C9.15194 31.0635 9.28614 30.9793 9.42039 30.8952C9.51292 30.8363 9.51292 30.8363 9.60733 30.7761C10.0448 30.5048 10.4404 30.2701 10.972 30.3297C11.24 30.4091 11.5025 30.4957 11.7652 30.5914C11.816 30.6098 11.8669 30.6282 11.9193 30.6472C12.0282 30.6866 12.137 30.7262 12.2457 30.7659C12.4179 30.8289 12.5903 30.8914 12.7628 30.9538C12.9956 31.0381 13.2285 31.1226 13.4613 31.2071C13.7445 31.3099 14.028 31.4118 14.3117 31.5132C14.4302 31.5557 14.4302 31.5557 14.5511 31.5991C14.7066 31.6539 14.8627 31.707 15.0193 31.7585C15.5505 31.9359 16.0222 32.1595 16.5065 32.4419C16.6104 32.4884 16.7159 32.5316 16.822 32.5729C16.8999 32.6044 16.9778 32.6359 17.058 32.6683C17.4331 32.7828 17.7635 32.8828 18.1338 32.7259C18.554 32.4752 18.9159 32.1493 19.2819 31.8269C19.3958 31.731 19.5099 31.6354 19.6244 31.5401C19.9025 31.3073 20.1767 31.0705 20.4492 30.8312C20.4062 30.78 20.3632 30.7288 20.3188 30.6761C19.272 29.4307 18.2263 28.1845 17.1816 26.9374C16.6765 26.3343 16.1709 25.7314 15.6645 25.1293C15.2232 24.6046 14.7826 24.0792 14.3427 23.5533C14.1097 23.2747 13.8765 22.9965 13.6424 22.7189C13.4221 22.4577 13.2027 22.1957 12.9839 21.9331C12.9035 21.8369 12.8227 21.7409 12.7416 21.6452C12.6309 21.5145 12.5214 21.3829 12.4121 21.2509C12.3505 21.1775 12.2889 21.1041 12.2254 21.0284C12.0698 20.79 12.0271 20.6303 12.0127 20.3476C12.1353 19.9402 12.3122 19.7207 12.6657 19.4856C13.6376 19.2557 14.9181 19.892 15.8477 20.1752C17.3574 20.6347 18.8694 21.0845 20.387 21.5171C20.5052 21.5508 20.6234 21.5845 20.7416 21.6183C20.8002 21.635 20.8589 21.6517 20.9193 21.6689C21.5084 21.8375 22.0958 22.0117 22.6833 22.1857C23.6226 22.4636 24.5636 22.7353 25.5047 23.0069C25.7642 23.0819 26.0238 23.1568 26.2832 23.2321C26.4518 23.2806 26.6206 23.3285 26.7896 23.3756C27.151 23.4772 27.5022 23.5809 27.8478 23.7283C28.8588 24.1427 29.8054 23.9387 30.8097 23.5617C31.4706 23.2581 31.9725 22.7492 32.4944 22.2541C34.3249 20.5439 36.4283 19.4566 38.6707 18.3757C38.7878 18.3192 38.7878 18.3192 38.9073 18.2616C39.6534 17.9022 40.4012 17.5469 41.1515 17.1966C41.7125 16.9345 42.2706 16.669 42.8223 16.3879C42.8734 16.362 42.9245 16.336 42.9771 16.3094C43.207 16.1926 43.436 16.0746 43.664 15.9542C44.1182 15.7219 44.4347 15.5975 44.9465 15.6567C45.2533 15.7906 45.4431 16.0823 45.632 16.3513Z" fill="black"/>
<path d="M39.5465 38.3067C39.5542 38.6758 39.492 38.9119 39.2613 39.1982C39.1726 39.2811 39.0811 39.3611 38.9876 39.4386C38.9328 39.4844 38.878 39.5301 38.8216 39.5772C38.7627 39.6258 38.7039 39.6744 38.6432 39.7245C38.5827 39.7749 38.5223 39.8252 38.4599 39.8771C38.2669 40.0376 38.0736 40.1978 37.8802 40.3579C37.7492 40.4667 37.6182 40.5756 37.4873 40.6845C37.1664 40.9513 36.8452 41.2176 36.5238 41.4838C36.4205 41.1952 36.3637 40.931 36.3359 40.626C36.3283 40.5441 36.3206 40.4621 36.3128 40.3777C36.3053 40.2931 36.2979 40.2085 36.2903 40.1213C36.2823 40.0356 36.2743 39.9498 36.2661 39.8615C36.2085 39.2315 36.2085 39.2315 36.2206 39.0973C36.4858 38.8476 36.7651 38.614 37.0434 38.379C37.1828 38.2609 37.3207 38.1411 37.4587 38.0213C37.5476 37.9459 37.6366 37.8707 37.7257 37.7957C37.8063 37.7268 37.8869 37.6579 37.97 37.587C38.2492 37.4113 38.4055 37.3975 38.7303 37.4241C39.1596 37.5253 39.4312 37.9019 39.5465 38.3067Z" fill="#4F54D0"/>
<path d="M18.013 17.0533C18.0523 17.4562 17.9035 17.7144 17.6595 18.0301C17.4489 18.2517 17.234 18.4658 17.0079 18.6712C16.9475 18.7262 16.9475 18.7262 16.8859 18.7823C16.5164 19.1055 16.1684 19.3716 15.6606 19.3882C15.0705 19.2917 14.1251 19.0836 13.7233 18.6024C14.1188 18.2615 14.5159 17.9225 14.9142 17.5849C15.0494 17.4699 15.1842 17.3544 15.3187 17.2385C15.5123 17.0717 15.7072 16.9066 15.9025 16.7417C15.9621 16.6897 16.0217 16.6378 16.0831 16.5843C16.4493 16.2783 16.6835 16.1386 17.1663 16.15C17.6023 16.3036 17.8521 16.6292 18.013 17.0533Z" fill="#4F54D0"/>
<path d="M22.7124 18.7456C22.6058 19.2409 22.1859 19.5075 21.8196 19.8276C21.732 19.9051 21.6454 19.9839 21.56 20.0638C20.8517 20.7255 20.8517 20.7255 20.4126 20.7201C20.1669 20.6538 19.9453 20.5678 19.713 20.4647C19.6026 20.4321 19.4916 20.4014 19.3799 20.3736C19.2884 20.3476 19.1968 20.3215 19.1025 20.2947C19.0088 20.2685 18.9152 20.2422 18.8188 20.2152C18.5919 20.1337 18.5919 20.1337 18.436 19.947C18.8052 19.6309 19.1754 19.3161 19.5465 19.0024C19.6725 18.8956 19.7983 18.7885 19.9237 18.681C20.1045 18.5262 20.2863 18.3726 20.4683 18.2192C20.5238 18.1713 20.5793 18.1233 20.6364 18.0739C20.9826 17.7847 21.2589 17.6282 21.7026 17.5363C22.3384 17.5935 22.7071 18.1353 22.7124 18.7456Z" fill="#4F54D0"/>
<path d="M39.0195 33.8501C38.9536 34.1563 38.8641 34.2635 38.6271 34.4603C38.5685 34.5092 38.51 34.5581 38.4497 34.6084C38.3861 34.661 38.3225 34.7135 38.257 34.7677C38.1922 34.8216 38.1274 34.8756 38.0606 34.9312C37.853 35.1039 37.6451 35.2762 37.4371 35.4485C37.2966 35.5653 37.156 35.6822 37.0155 35.7991C36.6705 36.086 36.3251 36.3726 35.9796 36.6589C35.9695 36.604 35.9595 36.5492 35.9491 36.4927C35.9355 36.42 35.922 36.3473 35.908 36.2724C35.8947 36.2006 35.8814 36.1289 35.8678 36.055C35.8264 35.8548 35.7747 35.6616 35.7167 35.4657C35.617 35.0564 35.5465 34.6819 35.6764 34.2723C36.1928 33.5681 37.0656 32.9165 37.8956 32.6306C38.5865 32.6834 39.0135 33.1586 39.0195 33.8501Z" fill="#4F54D0"/>
<path d="M40.0567 43.5891C40.0533 43.914 40.0064 44.1483 39.7766 44.3916C39.6119 44.5384 39.4431 44.6782 39.2715 44.8168C39.2096 44.8681 39.1477 44.9193 39.0839 44.9721C38.8865 45.1352 38.6881 45.2969 38.4896 45.4586C38.3553 45.5691 38.2211 45.6797 38.087 45.7903C37.7586 46.061 37.4294 46.3307 37.0994 46.5995C37.0542 46.4612 37.0091 46.3229 36.9641 46.1845C36.9423 46.119 36.9205 46.0534 36.898 45.9859C36.7259 45.421 36.5845 44.848 36.734 44.2649C36.9788 43.904 37.2766 43.6363 37.6165 43.3696C37.6591 43.336 37.7016 43.3024 37.7455 43.2677C38.2193 42.9022 38.5714 42.6675 39.1815 42.6437C39.6274 42.7685 39.9222 43.1604 40.0567 43.5891Z" fill="#4F54D0"/>
<path d="M27.485 19.7828C27.5548 20.2021 27.4679 20.3976 27.2265 20.7378C26.9511 20.9988 26.6556 21.2323 26.3575 21.4666C26.2433 21.559 26.1342 21.6576 26.0258 21.7568C25.7446 21.9965 25.5631 22.1375 25.1848 22.1159C24.9028 22.0477 24.6365 21.9586 24.3634 21.8613C24.156 21.7993 23.9476 21.7415 23.7393 21.6829C23.2495 21.5389 23.2495 21.5389 23.1904 21.468C23.5971 21.1204 24.0051 20.7742 24.414 20.4289C24.553 20.3114 24.6916 20.1934 24.8299 20.0752C25.029 19.9051 25.229 19.7363 25.4292 19.5678C25.4908 19.5147 25.5523 19.4617 25.6158 19.4071C26.1673 18.9463 26.1673 18.9463 26.5814 18.9535C27.0665 19.1269 27.264 19.3349 27.485 19.7828Z" fill="#4F54D0"/>
</g>
<defs>
<clipPath id="clip0_157_4705">
<rect width="41.4981" height="41.4981" fill="white" transform="translate(32.0842 -0.0012207) rotate(50.1398)"/>
</clipPath>
</defs>
</svg>
