<svg width="35" height="34" viewBox="0 0 35 34" fill="none" xmlns="http://www.w3.org/2000/svg">
<g filter="url(#filter0_d_157_4806)">
<path d="M5.24439 0.00156064C5.28151 0.00120546 5.31862 0.000850282 5.35687 0.00048434C5.4788 -0.000403223 5.60068 0.000181257 5.72261 0.000867849C5.80779 0.000731196 5.89297 0.000534384 5.97815 0.000280214C6.15637 -1.80604e-05 6.33457 0.000413969 6.51279 0.0013627C6.74078 0.0025175 6.96872 0.00185228 7.19671 0.000638594C7.37251 -9.52319e-05 7.5483 0.000139914 7.72411 0.000664496C7.80815 0.000799324 7.89219 0.000635131 7.97623 0.000161914C8.09388 -0.000355211 8.21145 0.000434963 8.32909 0.00156064C8.39591 0.0017219 8.46273 0.00188316 8.53158 0.0020493C8.74734 0.0327788 8.8503 0.0904314 9.01634 0.230479C9.21903 0.534515 9.21903 0.534515 9.21903 1.64931C14.5701 1.64931 19.9211 1.64931 25.4343 1.64931C25.4343 1.28143 25.4343 0.913547 25.4343 0.534515C25.684 0.159975 25.684 0.159975 25.941 0.0277877C26.1217 0.0020493 26.1217 0.0020493 26.3242 0.00156064C26.3613 0.00120546 26.3985 0.000850282 26.4367 0.00048434C26.5586 -0.000403223 26.6805 0.000181257 26.8025 0.000867849C26.8876 0.000731196 26.9728 0.000534384 27.058 0.000280214C27.2362 -1.80604e-05 27.4144 0.000413969 27.5926 0.0013627C27.8206 0.0025175 28.0486 0.00185228 28.2766 0.000638594C28.4524 -9.52319e-05 28.6281 0.000139914 28.804 0.000664496C28.888 0.000799324 28.972 0.000635131 29.0561 0.000161914C29.1737 -0.000355211 29.2913 0.000434963 29.4089 0.00156064C29.4758 0.0017219 29.5426 0.00188316 29.6114 0.0020493C29.891 0.0418638 30.0354 0.158468 30.2149 0.371214C30.3156 0.567027 30.3246 0.698078 30.3251 0.917727C30.3256 0.973404 30.3256 0.973404 30.3262 1.03021C30.3271 1.15214 30.3265 1.27402 30.3258 1.39595C30.3259 1.48113 30.3261 1.56631 30.3264 1.65149C30.3267 1.82971 30.3262 2.00791 30.3253 2.18613C30.3241 2.41412 30.3248 2.64206 30.326 2.87005C30.3268 3.04585 30.3265 3.22164 30.326 3.39745C30.3259 3.48149 30.326 3.56553 30.3265 3.64957C30.327 3.76722 30.3262 3.88479 30.3251 4.00243C30.3249 4.06925 30.3248 4.13607 30.3246 4.20492C30.2939 4.42068 30.2362 4.52364 30.0962 4.68968C29.7921 4.89237 29.7921 4.89237 28.6773 4.89237C28.6773 10.2434 28.6773 15.5944 28.6773 21.1076C29.0452 21.1076 29.4131 21.1076 29.7921 21.1076C30.1667 21.3573 30.1667 21.3573 30.2989 21.6144C30.3246 21.7951 30.3246 21.7951 30.3251 21.9976C30.3256 22.0532 30.3256 22.0532 30.3262 22.1101C30.3271 22.232 30.3265 22.3539 30.3258 22.4758C30.3259 22.561 30.3261 22.6462 30.3264 22.7313C30.3267 22.9096 30.3262 23.0878 30.3253 23.266C30.3241 23.494 30.3248 23.7219 30.326 23.9499C30.3268 24.1257 30.3265 24.3015 30.326 24.4773C30.3259 24.5613 30.326 24.6454 30.3265 24.7294C30.327 24.8471 30.3262 24.9646 30.3251 25.0823C30.3249 25.1491 30.3248 25.2159 30.3246 25.2848C30.2848 25.5643 30.1682 25.7088 29.9554 25.8882C29.7596 25.9889 29.6286 25.9979 29.4089 25.9984C29.3533 25.999 29.3533 25.999 29.2965 25.9995C29.1745 26.0004 29.0526 25.9998 28.9307 25.9991C28.8455 25.9993 28.7603 25.9995 28.6752 25.9997C28.4969 26 28.3188 25.9996 28.1405 25.9986C27.9125 25.9975 27.6846 25.9981 27.4566 25.9994C27.2808 26.0001 27.105 25.9999 26.9292 25.9993C26.8452 25.9992 26.7611 25.9994 26.6771 25.9998C26.5594 26.0004 26.4419 25.9996 26.3242 25.9984C26.2574 25.9983 26.1906 25.9981 26.1217 25.998C25.906 25.9672 25.803 25.9096 25.637 25.7695C25.4343 25.4655 25.4343 25.4655 25.4343 24.3507C20.0833 24.3507 14.7322 24.3507 9.21903 24.3507C9.21903 24.7186 9.21903 25.0865 9.21903 25.4655C8.96933 25.84 8.96933 25.84 8.7123 25.9722C8.53158 25.998 8.53158 25.998 8.32909 25.9984C8.27341 25.999 8.27341 25.999 8.21661 25.9995C8.09467 26.0004 7.9728 25.9998 7.85086 25.9991C7.76568 25.9993 7.6805 25.9995 7.59532 25.9997C7.4171 26 7.2389 25.9996 7.06069 25.9986C6.8327 25.9975 6.60475 25.9981 6.37677 25.9994C6.20096 26.0001 6.02517 25.9999 5.84937 25.9993C5.76532 25.9992 5.68128 25.9994 5.59724 25.9998C5.4796 26.0004 5.36203 25.9996 5.24439 25.9984C5.14415 25.9982 5.14415 25.9982 5.04189 25.998C4.76234 25.9581 4.61788 25.8415 4.43843 25.6288C4.33773 25.433 4.32875 25.3019 4.32822 25.0823C4.32769 25.0266 4.32769 25.0266 4.32714 24.9698C4.32626 24.8479 4.32684 24.726 4.32753 24.604C4.32739 24.5189 4.32719 24.4337 4.32694 24.3485C4.32664 24.1703 4.32707 23.9921 4.32802 23.8139C4.32918 23.5859 4.32851 23.3579 4.3273 23.1299C4.32656 22.9541 4.3268 22.7784 4.32732 22.6026C4.32746 22.5185 4.3273 22.4345 4.32682 22.3504C4.3263 22.2328 4.3271 22.1152 4.32822 21.9976C4.32838 21.9307 4.32854 21.8639 4.32871 21.7951C4.35944 21.5793 4.41709 21.4764 4.55714 21.3103C4.86117 21.1076 4.86118 21.1076 5.97597 21.1076C5.97597 15.7566 5.97597 10.4056 5.97597 4.89237C5.60809 4.89237 5.24021 4.89237 4.86117 4.89237C4.48664 4.64267 4.48664 4.64267 4.35445 4.38564C4.32871 4.20492 4.32871 4.20492 4.32822 4.00243C4.32787 3.96531 4.32751 3.92819 4.32714 3.88995C4.32626 3.76801 4.32684 3.64614 4.32753 3.5242C4.32739 3.43902 4.32719 3.35384 4.32694 3.26866C4.32664 3.09044 4.32707 2.91224 4.32802 2.73403C4.32918 2.50604 4.32851 2.27809 4.3273 2.05011C4.32656 1.8743 4.3268 1.69851 4.32732 1.52271C4.32746 1.43866 4.3273 1.35462 4.32682 1.27058C4.3263 1.15293 4.3271 1.03537 4.32822 0.917727C4.32838 0.850904 4.32854 0.784082 4.32871 0.715234C4.36852 0.435681 4.48513 0.291218 4.69787 0.11177C4.89369 0.0110675 5.02474 0.00209071 5.24439 0.00156064ZM9.21903 3.27084C9.20231 3.63872 9.18558 4.00661 9.16835 4.38564C8.96566 4.68968 8.96566 4.68968 8.7123 4.84169C8.16047 4.86678 8.16047 4.86678 7.5975 4.89237C7.5975 10.2434 7.5975 15.5944 7.5975 21.1076C7.96538 21.1244 8.33327 21.1411 8.7123 21.1583C9.01634 21.361 9.01634 21.361 9.16835 21.6144C9.18508 21.9822 9.2018 22.3501 9.21903 22.7292C14.5701 22.7292 19.9211 22.7292 25.4343 22.7292C25.451 22.3613 25.4677 21.9934 25.485 21.6144C25.6877 21.3103 25.6877 21.3103 25.941 21.1583C26.4928 21.1332 26.4928 21.1332 27.0558 21.1076C27.0558 15.7566 27.0558 10.4056 27.0558 4.89237C26.504 4.86728 26.504 4.86728 25.941 4.84169C25.637 4.639 25.637 4.639 25.485 4.38564C25.4682 4.01776 25.4515 3.64987 25.4343 3.27084C20.0833 3.27084 14.7322 3.27084 9.21903 3.27084Z" fill="black"/>
</g>
<defs>
<filter id="filter0_d_157_4806" x="0.32666" y="0" width="34" height="34" filterUnits="userSpaceOnUse" color-interpolation-filters="sRGB">
<feFlood flood-opacity="0" result="BackgroundImageFix"/>
<feColorMatrix in="SourceAlpha" type="matrix" values="0 0 0 0 0 0 0 0 0 0 0 0 0 0 0 0 0 0 127 0" result="hardAlpha"/>
<feOffset dy="4"/>
<feGaussianBlur stdDeviation="2"/>
<feComposite in2="hardAlpha" operator="out"/>
<feColorMatrix type="matrix" values="0 0 0 0 0 0 0 0 0 0 0 0 0 0 0 0 0 0 0.25 0"/>
<feBlend mode="normal" in2="BackgroundImageFix" result="effect1_dropShadow_157_4806"/>
<feBlend mode="normal" in="SourceGraphic" in2="effect1_dropShadow_157_4806" result="shape"/>
</filter>
</defs>
</svg>
