<svg width="43" height="41" viewBox="0 0 43 41" fill="none" xmlns="http://www.w3.org/2000/svg">
<g filter="url(#filter0_d_157_4803)">
<path d="M22.5194 0.356187C22.5826 0.380654 22.6459 0.40512 22.7112 0.430328C23.8609 0.9294 24.5903 1.99404 25.045 3.121C25.1827 3.49533 25.2071 3.86359 25.2339 4.26084C25.2403 4.3552 25.2467 4.44955 25.2534 4.54677C25.2581 4.61877 25.2629 4.69076 25.2678 4.76494C25.8242 4.92298 26.3808 5.08023 26.9377 5.23647C27.1962 5.30905 27.4547 5.38189 27.7131 5.45536C27.9624 5.52625 28.2119 5.59643 28.4615 5.66612C28.6031 5.70582 28.7444 5.74626 28.8857 5.78671C28.9719 5.81066 29.0582 5.8346 29.147 5.85927C29.2229 5.88067 29.2988 5.90208 29.3769 5.92413C29.5774 5.96074 29.6859 5.96168 29.8734 5.88581C29.9825 5.75375 29.9825 5.75375 30.073 5.58691C30.6836 4.61857 31.6835 3.93642 32.7979 3.67797C33.7223 3.51758 34.7305 3.56913 35.5932 3.94297C35.6565 3.96744 35.7197 3.9919 35.785 4.01711C36.8446 4.47704 37.5547 5.43602 38.0224 6.45792C38.4055 7.45154 38.4353 8.70955 38.0634 9.71078C37.4836 11.0189 36.5885 11.9225 35.2656 12.4595C34.6013 12.6816 33.9068 12.6305 33.2161 12.611C33.203 12.6563 33.1898 12.7016 33.1763 12.7482C33.042 13.2051 32.8955 13.6562 32.7396 14.1061C32.7154 14.1765 32.6911 14.2469 32.6661 14.3194C32.5866 14.5502 32.5067 14.7809 32.4268 15.0116C32.3702 15.1755 32.3136 15.3394 32.2569 15.5033C31.8272 16.7455 31.3921 17.9858 30.9547 19.2252C30.5287 20.4322 30.1054 21.6401 29.683 22.8483C29.6514 22.9388 29.6198 23.0293 29.5872 23.1225C29.4101 23.6289 29.2332 24.1353 29.0563 24.6417C29.1024 24.6641 29.1485 24.6866 29.196 24.7097C29.4863 24.8599 29.7117 25.0902 29.9477 25.3142C29.9925 25.3564 30.0373 25.3986 30.0835 25.4421C30.9222 26.3124 31.167 27.4799 31.1633 28.6493C31.1406 29.9111 30.6179 30.9423 29.7248 31.8153C29.2979 32.2017 28.8432 32.4895 28.3134 32.712C28.2287 32.7479 28.2287 32.7479 28.1422 32.7846C27.0342 33.1675 25.7285 33.0114 24.6828 32.5412C23.6579 32.0271 22.884 31.1542 22.4451 30.0966C22.4093 30.0113 22.4093 30.0113 22.3728 29.9244C22.0157 28.8783 22.1329 27.6015 22.5194 26.5845C22.4862 26.5606 22.4531 26.5366 22.419 26.512C21.5915 25.9131 20.7684 25.3084 19.9485 24.6989C19.6543 24.4803 19.3597 24.2621 19.0652 24.0439C18.7113 23.7817 18.3575 23.5194 18.0041 23.2567C17.4268 22.8278 16.8482 22.4011 16.2657 21.9796C15.7964 21.6401 15.3323 21.2946 14.8711 20.9442C14.4474 20.6233 14.0176 20.3114 13.5869 20.0001C13.0174 19.5877 12.4565 19.1641 11.8969 18.7384C11.8474 18.7719 11.7979 18.8053 11.7469 18.8397C10.4812 19.6749 9.24885 19.9979 7.74168 19.7332C6.52374 19.3798 5.53165 18.6078 4.88208 17.5128C4.78353 17.3266 4.69793 17.1397 4.61715 16.9451C4.59331 16.8882 4.56947 16.8314 4.5449 16.7728C4.20018 15.7632 4.27478 14.4806 4.69144 13.5077C4.71576 13.4441 4.74008 13.3804 4.76514 13.3148C5.22235 12.2489 6.17567 11.5345 7.19152 11.064C8.25995 10.6471 9.58211 10.65 10.6341 11.1165C10.8348 11.2126 11.032 11.311 11.2266 11.4189C11.3828 11.5061 11.3828 11.5061 11.5998 11.4902C11.7603 11.3557 11.9096 11.2202 12.0594 11.0745C12.1469 10.9913 12.2344 10.9081 12.322 10.8249C12.3641 10.7847 12.4063 10.7444 12.4497 10.703C12.5875 10.5726 12.7287 10.4469 12.8719 10.3226C13.1074 10.1176 13.3382 9.90792 13.5683 9.69677C13.7999 9.48416 14.0323 9.27293 14.2693 9.06628C14.5226 8.84499 14.77 8.61763 15.0168 8.38909C15.3116 8.11611 15.6087 7.8464 15.9114 7.58229C16.1847 7.34297 16.4547 7.09978 16.7253 6.85723C16.7118 6.81822 16.6983 6.77921 16.6844 6.73901C16.6442 6.62056 16.6051 6.50172 16.5668 6.38261C16.5266 6.25908 16.4841 6.13628 16.438 6.01483C16.0937 4.99558 16.1555 3.73082 16.5767 2.74738C16.601 2.6837 16.6254 2.62003 16.6504 2.55443C17.1076 1.48854 18.0609 0.774124 19.0768 0.303647C20.1518 -0.115773 21.4599 -0.102956 22.5194 0.356187ZM18.6566 2.89682C18.1261 3.5855 18.0734 4.29703 18.1367 5.13856C18.2712 5.81632 18.7287 6.34181 19.2622 6.75769C19.9531 7.21257 20.7476 7.27331 21.5473 7.11264C22.2182 6.87804 22.7605 6.34513 23.1183 5.73782C23.4223 5.07903 23.4689 4.23348 23.2297 3.54132C22.892 2.82955 22.294 2.28309 21.572 1.99254C20.4201 1.67185 19.45 2.03639 18.6566 2.89682ZM31.7304 6.48361C31.1999 7.17228 31.1472 7.88381 31.2105 8.72535C31.345 9.4031 31.8025 9.92859 32.336 10.3445C33.0269 10.7994 33.8214 10.8601 34.6211 10.6994C35.292 10.4648 35.8343 9.93192 36.1921 9.3246C36.4961 8.66582 36.5427 7.82026 36.3035 7.12811C35.9658 6.41633 35.3678 5.86988 34.6458 5.57932C33.4939 5.25863 32.5238 5.62317 31.7304 6.48361ZM24.6736 6.63306C24.5624 6.77579 24.5624 6.77579 24.4739 6.96465C23.9068 7.97813 22.9991 8.52354 21.9251 8.87479C20.5427 9.19326 19.2812 8.865 18.0624 8.20227C17.9942 8.26633 17.926 8.33039 17.8558 8.39638C17.0047 9.19455 17.0047 9.19455 16.5758 9.56687C16.388 9.73208 16.2039 9.90121 16.0196 10.0704C15.7879 10.283 15.5555 10.4942 15.3185 10.7009C15.0653 10.9222 14.8178 11.1495 14.5711 11.3781C14.3227 11.6081 14.0736 11.8369 13.819 12.0599C13.7737 12.1 13.7284 12.1401 13.6817 12.1814C13.565 12.2827 13.4464 12.3819 13.3271 12.4803C13.2236 12.5681 13.2236 12.5681 13.1179 12.6577C13.0212 12.7378 13.0212 12.7378 12.9226 12.8194C12.7676 12.9728 12.7676 12.9728 12.7955 13.1685C12.8628 13.3589 12.9326 13.5459 13.0111 13.7319C13.4553 14.7833 13.3344 16.1231 12.9368 17.1692C13.5468 17.6332 14.1592 18.0931 14.78 18.5423C15.4224 19.0071 16.0598 19.4785 16.6962 19.9515C16.9905 20.1701 17.285 20.3883 17.5795 20.6066C17.9334 20.8688 18.2872 21.1311 18.6407 21.3938C19.2134 21.8193 19.7874 22.2429 20.3651 22.6615C21.4643 23.4579 22.5516 24.2703 23.6336 25.09C23.6831 25.0566 23.7326 25.0232 23.7836 24.9888C24.6902 24.3906 25.5192 24.0376 26.6049 23.9972C26.7242 23.9922 26.8434 23.9872 26.9627 23.9822C27.0663 23.9779 27.1699 23.9735 27.2735 23.9692C27.6606 22.9263 28.0304 21.8778 28.3954 20.827C28.5588 20.3568 28.7225 19.8868 28.8862 19.4168C28.911 19.3455 28.911 19.3455 28.9364 19.2728C29.2454 18.3855 29.5566 17.4989 29.8689 16.6127C29.9469 16.3913 30.0249 16.17 30.1028 15.9486C30.3184 15.3365 30.5342 14.7245 30.7514 14.113C30.8368 13.8721 30.9221 13.6312 31.0073 13.3902C31.0463 13.28 31.0855 13.1698 31.1248 13.0597C31.1777 12.9113 31.2303 12.7628 31.2827 12.6142C31.3267 12.4906 31.3267 12.4906 31.3715 12.3644C31.4442 12.1622 31.4442 12.1622 31.4333 11.9385C31.3073 11.8211 31.3073 11.8211 31.1408 11.7097C30.222 11.015 29.6291 10.0944 29.4277 8.94952C29.3914 8.60109 29.3681 8.25337 29.3534 7.90338C28.871 7.71147 28.3829 7.56623 27.8828 7.42847C27.8003 7.40556 27.7177 7.38266 27.6327 7.35906C27.4592 7.31101 27.2856 7.2631 27.112 7.21533C26.846 7.14203 26.5802 7.06803 26.3145 6.99398C26.1455 6.94729 25.9765 6.90063 25.8075 6.85402C25.7281 6.83184 25.6486 6.80966 25.5667 6.78681C25.4928 6.76659 25.4189 6.74637 25.3428 6.72553C25.2455 6.69867 25.2455 6.69867 25.1462 6.67126C24.9522 6.62252 24.9522 6.62252 24.6736 6.63306ZM6.77136 13.6572C6.24083 14.3458 6.1881 15.0574 6.25138 15.8989C6.38595 16.5767 6.84345 17.1022 7.37694 17.518C8.06782 17.9729 8.86231 18.0337 9.66201 17.873C10.3329 17.6384 10.8752 17.1055 11.233 16.4982C11.537 15.8394 11.5836 14.9938 11.3444 14.3017C11.0067 13.5899 10.4088 13.0434 9.68668 12.7529C8.53486 12.4322 7.56471 12.7967 6.77136 13.6572ZM24.5993 26.8087C24.0687 27.4974 24.016 28.2089 24.0793 29.0504C24.2139 29.7282 24.6714 30.2537 25.2049 30.6696C25.8957 31.1245 26.6902 31.1852 27.4899 31.0245C28.1608 30.7899 28.7031 30.257 29.0609 29.6497C29.3649 28.9909 29.4115 28.1454 29.1723 27.4532C28.8346 26.7414 28.2367 26.195 27.5146 25.9044C26.3628 25.5837 25.3926 25.9483 24.5993 26.8087Z" fill="black"/>
</g>
<defs>
<filter id="filter0_d_157_4803" x="0.32666" y="0" width="42" height="41" filterUnits="userSpaceOnUse" color-interpolation-filters="sRGB">
<feFlood flood-opacity="0" result="BackgroundImageFix"/>
<feColorMatrix in="SourceAlpha" type="matrix" values="0 0 0 0 0 0 0 0 0 0 0 0 0 0 0 0 0 0 127 0" result="hardAlpha"/>
<feOffset dy="4"/>
<feGaussianBlur stdDeviation="2"/>
<feComposite in2="hardAlpha" operator="out"/>
<feColorMatrix type="matrix" values="0 0 0 0 0 0 0 0 0 0 0 0 0 0 0 0 0 0 0.25 0"/>
<feBlend mode="normal" in2="BackgroundImageFix" result="effect1_dropShadow_157_4803"/>
<feBlend mode="normal" in="SourceGraphic" in2="effect1_dropShadow_157_4803" result="shape"/>
</filter>
</defs>
</svg>
