<svg width="26" height="38" viewBox="0 0 26 38" fill="none" xmlns="http://www.w3.org/2000/svg">
<g filter="url(#filter0_d_157_4811)">
<path d="M13.5199 0.29738C13.9921 0.580576 14.2407 1.12096 14.5004 1.57249C14.5759 1.70244 14.6515 1.83239 14.7271 1.96234C14.7654 2.02847 14.8038 2.0946 14.8432 2.16274C15.0239 2.47407 15.2066 2.78435 15.3893 3.09463C15.4247 3.15479 15.4601 3.21495 15.4965 3.27694C15.7656 3.73441 16.0363 4.19094 16.3076 4.64723C16.5872 5.11775 16.8646 5.58943 17.1417 6.06126C17.3793 6.46556 17.6181 6.86918 17.8578 7.27235C18.1701 7.79776 18.4804 8.32429 18.7899 8.85125C19.0275 9.25554 19.2662 9.65917 19.5059 10.0623C19.8235 10.5966 20.1402 11.1313 20.4533 11.6679C20.6094 11.935 20.7664 12.2007 20.9333 12.4618C20.9593 12.5032 20.9854 12.5447 21.0122 12.5874C21.0586 12.6609 21.1061 12.7339 21.1549 12.8061C21.3798 13.1657 21.3496 13.5104 21.2575 13.9072C21.187 14.164 21.1069 14.4181 21.027 14.6723C20.9972 14.7693 20.9675 14.8662 20.9379 14.9632C20.8582 15.2232 20.7776 15.4829 20.6968 15.7425C20.6129 16.0125 20.53 16.2828 20.4471 16.553C20.3456 16.8834 20.2441 17.2137 20.1421 17.5439C19.922 18.2572 19.7039 18.971 19.4883 19.6856C19.4747 19.7307 19.4611 19.7758 19.4471 19.8223C19.3685 20.0825 19.2901 20.3428 19.2117 20.6031C19.1265 20.8859 19.0412 21.1686 18.9558 21.4514C18.9132 21.5923 18.8707 21.7333 18.8282 21.8743C18.8096 21.9357 18.7911 21.9971 18.772 22.0603C18.756 22.1135 18.7399 22.1667 18.7234 22.2216C18.6913 22.325 18.6566 22.4277 18.6208 22.5301C18.6989 22.5253 18.7769 22.5205 18.8574 22.5156C19.3404 22.517 19.7633 22.7001 20.1145 23.0123C20.4954 23.4157 20.6537 23.8414 20.653 24.3823C20.6534 24.4268 20.6538 24.4712 20.6542 24.5171C20.6554 24.6633 20.6556 24.8096 20.6558 24.9559C20.6561 25.0582 20.6566 25.1606 20.657 25.263C20.6577 25.4774 20.6579 25.6917 20.6579 25.9061C20.6579 26.1796 20.6595 26.4531 20.6616 26.7265C20.663 26.938 20.6632 27.1494 20.6632 27.3608C20.6633 27.4616 20.6638 27.5624 20.6648 27.6631C20.6706 28.3466 20.6438 28.9491 20.1288 29.4742C19.6897 29.8501 19.2353 29.9878 18.6482 29.9856C18.5965 29.9859 18.5448 29.9861 18.4915 29.9864C18.3186 29.9871 18.1457 29.987 17.9728 29.9869C17.8486 29.9873 17.7244 29.9877 17.6003 29.9881C17.2633 29.9891 16.9263 29.9894 16.5893 29.9895C16.3786 29.9896 16.1679 29.9898 15.9572 29.9901C15.2219 29.9912 14.4866 29.9917 13.7513 29.9916C13.0665 29.9915 12.3817 29.9927 11.6969 29.9946C11.1084 29.9961 10.52 29.9967 9.93161 29.9967C9.58038 29.9966 9.22916 29.9969 8.87793 29.9982C8.54744 29.9993 8.21697 29.9993 7.88647 29.9985C7.76545 29.9983 7.64443 29.9986 7.52342 29.9993C6.77155 30.0034 6.11066 30.0052 5.52887 29.4878C5.14797 29.0844 4.98964 28.6588 4.99036 28.1178C4.98975 28.0511 4.98975 28.0511 4.98912 27.9831C4.98796 27.8368 4.98772 27.6905 4.98759 27.5442C4.9872 27.4419 4.98679 27.3395 4.98636 27.2372C4.98563 27.0228 4.9854 26.8084 4.98547 26.594C4.98549 26.3205 4.98382 26.0471 4.98172 25.7736C4.98035 25.5622 4.98011 25.3507 4.98018 25.1393C4.98003 25.0385 4.9795 24.9378 4.97855 24.837C4.97271 24.1536 4.99954 23.551 5.51457 23.026C5.87415 22.7181 6.27102 22.5229 6.75952 22.5276C6.80882 22.5279 6.85813 22.5283 6.90893 22.5287C6.94642 22.5291 6.98391 22.5296 7.02253 22.5301C6.99483 22.4393 6.99483 22.4393 6.96657 22.3467C6.72303 21.548 6.48146 20.7487 6.24025 19.9493C6.16104 19.6869 6.08174 19.4244 6.00233 19.162C5.78369 18.4395 5.56552 17.7169 5.34825 16.994C5.24621 16.6546 5.14394 16.3152 5.04113 15.9759C4.94253 15.6505 4.84456 15.325 4.74704 14.9993C4.71045 14.8774 4.67362 14.7557 4.63657 14.6339C4.58531 14.4654 4.53486 14.2967 4.48459 14.1279C4.46947 14.0789 4.45436 14.0299 4.43878 13.9794C4.33479 13.6257 4.26441 13.2928 4.40711 12.9392C4.44003 12.8847 4.47295 12.8303 4.50687 12.7742C4.54378 12.7121 4.58068 12.65 4.61871 12.586C4.65907 12.5204 4.69944 12.4549 4.74103 12.3873C4.78301 12.3175 4.82489 12.2477 4.86669 12.1778C4.99383 11.9659 5.12291 11.7551 5.25227 11.5445C5.28939 11.4838 5.32651 11.4231 5.36476 11.3606C5.50446 11.1323 5.64435 10.9041 5.785 10.6763C6.05207 10.2428 6.30974 9.80484 6.56471 9.36483C6.8868 8.80899 7.21741 8.25884 7.55547 7.71169C7.82236 7.27824 8.08005 6.8404 8.33497 6.40048C8.62348 5.90259 8.91729 5.40842 9.2201 4.91829C9.51993 4.4328 9.81153 3.94361 10.0976 3.45065C10.4028 2.92506 10.7099 2.40071 11.0221 1.87885C11.0638 1.80899 11.1055 1.73909 11.1471 1.66915C12.2743 -0.224371 12.2743 -0.224371 13.5199 0.29738ZM12.1502 2.70956C12.094 2.79132 12.0411 2.87512 11.9895 2.95954C11.939 3.04181 11.939 3.04181 11.8875 3.12574C11.8508 3.1862 11.8141 3.24667 11.7763 3.30897C11.7382 3.37146 11.7 3.43394 11.6608 3.49833C11.341 4.02472 11.0309 4.556 10.7223 5.08843C10.4382 5.5775 10.1446 6.06066 9.84699 6.54238C9.5801 6.97583 9.32242 7.41367 9.06749 7.85359C8.74383 8.41206 8.41191 8.96504 8.07243 9.51491C7.8186 9.92699 7.5717 10.3424 7.32775 10.7598C7.00329 11.315 6.6712 11.8656 6.33305 12.4133C6.26729 12.5199 6.20235 12.6269 6.13833 12.7345C6.04584 12.8814 6.04584 12.8814 5.945 13.0047C5.79447 13.2021 5.73025 13.3353 5.76722 13.582C5.79709 13.6861 5.79709 13.6861 5.82756 13.7923C5.83878 13.8322 5.84999 13.872 5.86155 13.913C5.90159 14.0538 5.94313 14.1941 5.98479 14.3345C6.01731 14.4458 6.04982 14.557 6.08232 14.6683C6.19808 15.0623 6.31617 15.4557 6.43427 15.8491C6.47808 15.9955 6.52187 16.1419 6.56565 16.2882C6.66878 16.6329 6.77207 16.9776 6.87541 17.3223C7.02572 17.8236 7.17582 18.3249 7.32589 18.8263C7.33709 18.8637 7.34828 18.9011 7.35981 18.9396C7.37094 18.9768 7.38206 19.014 7.39352 19.0522C7.47893 19.3376 7.56441 19.6229 7.64995 19.9082C7.68986 20.0414 7.72977 20.1746 7.76968 20.3078C7.78659 20.3642 7.80351 20.4205 7.82094 20.4786C8.0255 21.1617 8.22538 21.846 8.42653 22.5301C11.3273 22.5301 14.2281 22.5301 17.2168 22.5301C17.6086 21.205 17.6086 21.205 18.0001 19.8798C18.2974 18.8744 18.5971 17.8697 18.904 16.8669C18.9518 16.7105 18.9995 16.554 19.0472 16.3975C19.0626 16.3467 19.0781 16.2959 19.094 16.2436C19.1248 16.1424 19.1556 16.0412 19.1864 15.94C19.2767 15.6435 19.3679 15.3474 19.4597 15.0514C19.5166 14.8672 19.5726 14.6829 19.6285 14.4985C19.6546 14.413 19.681 14.3276 19.7078 14.2423C19.7443 14.126 19.7796 14.0094 19.8146 13.8926C19.8347 13.8275 19.8548 13.7623 19.8755 13.6951C19.9066 13.496 19.8767 13.4066 19.7806 13.2301C19.7562 13.184 19.7317 13.1378 19.7065 13.0903C19.679 13.0419 19.6514 12.9935 19.623 12.9436C19.576 12.8609 19.576 12.8609 19.5281 12.7766C19.4944 12.7177 19.4606 12.6587 19.4258 12.598C19.3905 12.5362 19.3552 12.4744 19.3189 12.4107C19.0168 11.8835 18.7075 11.3603 18.3959 10.8382C18.1844 10.4835 17.9752 10.1277 17.7662 9.77171C17.4927 9.30605 17.2181 8.841 16.9421 8.37671C16.6297 7.8513 16.3195 7.32477 16.01 6.79781C15.7403 6.33888 15.4689 5.88091 15.1967 5.4233C14.9105 4.94159 14.6265 4.45863 14.3436 3.97513C14.1667 3.67357 13.9883 3.37293 13.8074 3.07352C13.7545 2.98571 13.7545 2.98571 13.7005 2.89612C13.6723 2.85373 13.6442 2.81135 13.6152 2.76768C13.5951 2.76768 13.5749 2.76768 13.5542 2.76768C13.4937 4.78753 13.4877 6.80666 13.4893 8.82718C13.4894 8.89271 13.4894 8.95824 13.4895 9.02575C13.4902 9.84596 13.4914 10.6662 13.4931 11.4864C13.5265 11.5016 13.5598 11.5168 13.5942 11.5325C13.6381 11.5529 13.6819 11.5733 13.7271 11.5942C13.7705 11.6143 13.8139 11.6343 13.8587 11.6549C14.2196 11.8429 14.506 12.2165 14.6604 12.5755C14.8041 13.0833 14.7836 13.682 14.5421 14.1579C14.2778 14.5915 13.8988 14.8609 13.4025 15.0236C12.6691 15.1893 12.1172 15.0075 11.494 14.6433C11.0294 14.1886 10.9123 13.7346 10.9097 13.1224C10.9157 12.7843 10.9856 12.5319 11.1735 12.242C11.2075 12.1809 11.2415 12.1197 11.2765 12.0567C11.5064 11.7905 11.8063 11.5955 12.1502 11.4864C12.1583 10.6081 12.1662 9.72978 12.1741 8.85148C12.1777 8.44344 12.1814 8.03541 12.1852 7.62738C12.2094 5.16851 12.2094 5.16851 12.2112 2.70956C12.1911 2.70956 12.1709 2.70956 12.1502 2.70956ZM12.3333 12.8233C12.1912 13.0101 12.187 13.1783 12.2112 13.4045C12.2892 13.5678 12.3523 13.6661 12.505 13.7714C12.7521 13.8454 12.9364 13.841 13.1727 13.7387C13.3203 13.6294 13.3764 13.5732 13.4321 13.4045C13.4622 13.1353 13.4242 12.9796 13.249 12.7651C12.9447 12.5553 12.6172 12.613 12.3333 12.8233ZM6.47314 23.9832C6.32184 24.1792 6.33523 24.3734 6.33429 24.611C6.33398 24.6502 6.33366 24.6895 6.33334 24.7299C6.3325 24.8594 6.33255 24.9888 6.33269 25.1182C6.33246 25.2084 6.33219 25.2986 6.3319 25.3888C6.33145 25.5777 6.33146 25.7667 6.33178 25.9556C6.33214 26.1975 6.3311 26.4393 6.32969 26.6811C6.32879 26.8674 6.32873 27.0536 6.32893 27.2398C6.32889 27.329 6.32858 27.4181 6.32796 27.5073C6.32721 27.6321 6.32762 27.7568 6.32833 27.8816C6.32829 27.9526 6.32825 28.0235 6.32821 28.0966C6.35349 28.3045 6.39876 28.4114 6.53418 28.5751C6.75953 28.7244 7.00059 28.7077 7.26452 28.7065C7.31387 28.7067 7.36322 28.7069 7.41407 28.7071C7.57963 28.7077 7.74518 28.7075 7.91075 28.7073C8.02937 28.7075 8.14799 28.7078 8.26661 28.7082C8.58897 28.7089 8.91134 28.709 9.23371 28.7088C9.50268 28.7088 9.77165 28.7091 10.0406 28.7093C10.6751 28.71 11.3095 28.71 11.944 28.7097C12.5988 28.7093 13.2537 28.71 13.9086 28.7113C14.4706 28.7123 15.0325 28.7126 15.5945 28.7124C15.9303 28.7123 16.266 28.7125 16.6018 28.7133C16.9175 28.714 17.2332 28.7139 17.5489 28.7132C17.6648 28.713 17.7807 28.7132 17.8967 28.7137C18.0548 28.7143 18.2129 28.7138 18.3711 28.7131C18.417 28.7135 18.463 28.7139 18.5104 28.7144C18.7818 28.7117 18.9535 28.6747 19.1702 28.5169C19.3215 28.3209 19.3081 28.1267 19.3091 27.8891C19.3094 27.8499 19.3097 27.8106 19.31 27.7702C19.3108 27.6408 19.3108 27.5113 19.3106 27.3819C19.3109 27.2917 19.3111 27.2015 19.3114 27.1113C19.3119 26.9224 19.3119 26.7334 19.3116 26.5445C19.3112 26.3027 19.3122 26.0608 19.3137 25.819C19.3146 25.6328 19.3146 25.4465 19.3144 25.2603C19.3144 25.1711 19.3148 25.082 19.3154 24.9928C19.3161 24.868 19.3157 24.7433 19.315 24.6185C19.3151 24.5476 19.3151 24.4766 19.3151 24.4035C19.2899 24.1957 19.2446 24.0888 19.1092 23.9251C18.8838 23.7757 18.6427 23.7924 18.3788 23.7937C18.3295 23.7935 18.2801 23.7932 18.2293 23.793C18.0637 23.7924 17.8982 23.7926 17.7326 23.7929C17.614 23.7926 17.4954 23.7923 17.3767 23.792C17.0544 23.7912 16.732 23.7911 16.4096 23.7913C16.1407 23.7914 15.8717 23.7911 15.6027 23.7908C14.9683 23.7902 14.3338 23.7901 13.6994 23.7905C13.0445 23.7908 12.3896 23.7901 11.7348 23.7889C11.1728 23.7879 10.6108 23.7875 10.0488 23.7877C9.71308 23.7878 9.37732 23.7876 9.04156 23.7868C8.72585 23.7861 8.41016 23.7862 8.09445 23.787C7.97852 23.7871 7.86259 23.787 7.74666 23.7865C7.58852 23.7859 7.43042 23.7863 7.27227 23.7871C7.2263 23.7866 7.18033 23.7862 7.13296 23.7858C6.86156 23.7884 6.68987 23.8254 6.47314 23.9832Z" fill="black"/>
</g>
<defs>
<filter id="filter0_d_157_4811" x="0.32666" y="0" width="25" height="38" filterUnits="userSpaceOnUse" color-interpolation-filters="sRGB">
<feFlood flood-opacity="0" result="BackgroundImageFix"/>
<feColorMatrix in="SourceAlpha" type="matrix" values="0 0 0 0 0 0 0 0 0 0 0 0 0 0 0 0 0 0 127 0" result="hardAlpha"/>
<feOffset dy="4"/>
<feGaussianBlur stdDeviation="2"/>
<feComposite in2="hardAlpha" operator="out"/>
<feColorMatrix type="matrix" values="0 0 0 0 0 0 0 0 0 0 0 0 0 0 0 0 0 0 0.4 0"/>
<feBlend mode="normal" in2="BackgroundImageFix" result="effect1_dropShadow_157_4811"/>
<feBlend mode="normal" in="SourceGraphic" in2="effect1_dropShadow_157_4811" result="shape"/>
</filter>
</defs>
</svg>
