<?xml version="1.0" encoding="UTF-8"?>
<svg id="Layer_1" data-name="Layer 1" xmlns="http://www.w3.org/2000/svg" xmlns:xlink="http://www.w3.org/1999/xlink" viewBox="0 0 535.75 128.03">
  <defs>
    <style>
      .cls-1 {
        fill: url(#linear-gradient);
      }

      .cls-1, .cls-2, .cls-3 {
        stroke-width: 0px;
      }

      .cls-2 {
        fill: #fff;
      }

      .cls-3 {
        fill: url(#linear-gradient-2);
      }
    </style>
    <linearGradient id="linear-gradient" x1="67.54" y1="65.76" x2="168.46" y2="65.76" gradientUnits="userSpaceOnUse">
      <stop offset="0" stop-color="#f3903f"/>
      <stop offset="1" stop-color="#e93e3a"/>
    </linearGradient>
    <linearGradient id="linear-gradient-2" x1="371.09" y1="65.24" x2="446.72" y2="65.24" xlink:href="#linear-gradient"/>
  </defs>
  <path class="cls-1" d="m168.46,65.76c0-27.87-22.59-50.46-50.46-50.46s-50.46,22.59-50.46,50.46,22.59,50.46,50.46,50.46c7.1,0,14.01-1.15,19.99-4.12,4.2-2.14,8.76-7.18,12.64-12.56-1.99,1.41-8.73,5.91-11.63,6.98,4.51-2.96,14.22-22.22,11.49-18.29-7.13,10.29-19.02,17.03-32.48,17.03-21.82,0-39.51-17.69-39.51-39.51s17.69-39.51,39.51-39.51,39.51,17.69,39.51,39.51c0,.78-.03,1.56-.07,2.33-.07-.19-.15-.37-.22-.54-2.07-4.85-11.67-12.32-11.67-12.32,0,0,.1-8.43-3.19-14.83-1.75-5.88-5.56-2.2-5.56-2.2,0,0-3.16,3.99-4.91,6.2-1.75,2.21-4.14,4.52-5.17-1.03-.84-4.72-3.62-2.2-3.75-1.29-.13.9-.78,3.3-4.4,10.99-3.62,7.69-13.96,14.28-26.76,17.97-7.37,3.36-1.94,8.27-1.94,8.27,0,0,4.91,4.85,9.95,5.3,5.04.45,14.48-.71,17.75-.13s11.6,1.36,9.79,17.97c8.6-6.92,4.52-17.45,4.52-17.45l9.57,1.03s-11.89-10.47-27.41-5.43c-15.51,5.04-21.59-4.01-21.59-4.01,0,0,13.83,5.24,27.37-5.43,13.54-10.66,22.53-5.95,22.53-5.95l-6.75,5.15c17.1-.11,23.98,2.09,27.02,18.96,0,0,0,0,0,0,3.73-7.04,5.85-15.06,5.85-23.58Zm-9.56,6.91s0-.03-.01-.05c0,.02,0,.03.01.05Zm3.69,16.34s0-.07-.01-.11c0,.04,0,.08.01.11Zm-.04-.29s-.01-.1-.02-.15c0,.05.01.1.02.15Zm-.06-.38c0-.05-.02-.11-.03-.16,0,.06.02.11.03.16Zm-.07-.44c0-.06-.02-.11-.03-.17.01.06.02.12.03.17Zm-.09-.49c-.01-.07-.02-.13-.04-.2.01.07.02.13.04.2Zm-.1-.52c-.01-.08-.03-.16-.05-.24.02.08.03.16.05.24Zm-.11-.58c-.02-.09-.03-.18-.05-.27.02.09.04.18.05.27Zm-.13-.65c-.02-.09-.04-.18-.05-.27.02.09.04.18.05.27Zm-.15-.71c-.02-.08-.03-.15-.05-.23.02.08.03.15.05.23Zm-.15-.71c-.02-.08-.03-.16-.05-.25.02.08.04.17.05.25Zm-.16-.74c-.02-.09-.04-.18-.06-.27.02.09.04.18.06.27Zm-.17-.79c-.02-.08-.04-.17-.06-.25.02.08.04.17.06.25Zm-.18-.8c-.02-.09-.04-.18-.06-.27.02.09.04.18.06.27Zm-.18-.81c-.02-.09-.04-.18-.06-.27.02.09.04.18.06.27Zm-.19-.84c-.02-.09-.04-.18-.06-.27.02.09.04.18.06.27Zm-.2-.86c-.02-.08-.04-.16-.06-.24.02.08.04.16.06.24Zm-.21-.86c-.02-.08-.04-.15-.06-.23.02.08.04.15.06.23Zm-.21-.86c-.02-.07-.04-.14-.05-.22.02.07.04.14.05.22Zm-.21-.86c-.02-.07-.04-.14-.05-.21.02.07.04.14.05.21Zm-.22-.86c-.02-.06-.03-.12-.05-.19.02.06.03.12.05.19Zm-.22-.85c-.01-.05-.03-.11-.04-.16.01.05.03.11.04.16Zm-.22-.84s-.02-.08-.03-.13c.01.04.02.08.03.13Zm-.22-.81s-.02-.07-.03-.1c0,.03.02.06.03.1Z"/>
  <path class="cls-2" d="m364.22,15.3v100.36h-20.12V45.64l-25.72,70.02h-17.53l-25.72-69.73v69.73h-20.26V15.3h24.57l30.47,75.48,29.89-75.48h24.43Z"/>
  <path class="cls-2" d="m473.73,78.59v37.27h-20.06V15.43h36.56c11.85,0,20.79,2.84,26.82,8.54,6.02,5.69,9.03,13.42,9.03,23.19s-3.11,17.21-9.32,22.9c-6.21,5.69-15.06,8.54-26.53,8.54h-16.5Zm32.01-31.44c0-5.03-1.38-8.87-4.13-11.52-2.75-2.65-7.25-3.98-13.52-3.98h-14.37v30.87h14.37c11.76,0,17.64-5.12,17.64-15.36Z"/>
  <polygon class="cls-2" points="64.55 33 64.55 15.08 29.81 15.08 24.05 15.08 7.72 15.08 7.72 116.22 29.81 116.22 29.81 75.38 61.14 75.38 61.14 57.6 29.81 57.6 29.81 33 64.55 33"/>
  <path class="cls-2" d="m189.88,15.08l12.99,33.62,12.5-33.62h24.73l-23.55,50.08,24.03,51.06h-25.35l-12.92-34.32-12.99,34.32h-25.15l24.31-51.27-23.76-49.88h25.15Z"/>
  <path class="cls-3" d="m408.9,14.82c-20.88,0-37.81,16.93-37.81,37.81,0,8.22,2.7,15.77,7.18,21.95.08.15.09.31.18.46l25.21,37.81c1.17,1.75,3.14,2.81,5.24,2.81s4.07-1.05,5.24-2.81l25.21-37.81c.09-.14.1-.31.18-.46,4.48-6.18,7.18-13.72,7.18-21.95,0-20.88-16.93-37.81-37.81-37.81Zm0,50.42c-6.96,0-12.6-5.64-12.6-12.6s5.64-12.6,12.6-12.6,12.6,5.64,12.6,12.6-5.64,12.6-12.6,12.6Z"/>
</svg>