<svg width="33" height="32" viewBox="0 0 33 32" fill="none" xmlns="http://www.w3.org/2000/svg">
<path d="M15.3892 32C16.0079 32 16.6267 32 17.2642 32C17.2642 31.3606 17.2642 30.7213 17.2642 30.0625C17.6973 30.0316 17.6973 30.0316 18.1392 30C21.2249 29.5784 23.9614 28.2101 26.2017 26.0625C26.2609 26.0066 26.3201 25.9507 26.3811 25.8931C26.7957 25.492 27.1536 25.0624 27.4996 24.6024C27.568 24.5115 27.6373 24.4212 27.7068 24.3311C29.2447 22.2889 30.3892 19.5262 30.3892 16.9375C31.0285 16.9375 31.6679 16.9375 32.3267 16.9375C32.3267 16.3188 32.3267 15.7 32.3267 15.0625C31.6873 15.0625 31.0479 15.0625 30.3892 15.0625C30.3685 14.7738 30.3479 14.485 30.3267 14.1875C29.905 11.1017 28.5368 8.36529 26.3892 6.125C26.3332 6.06578 26.2773 6.00657 26.2197 5.94556C25.8186 5.53093 25.389 5.17305 24.9291 4.82706C24.8381 4.75864 24.7479 4.68932 24.6577 4.61987C22.6155 3.08197 19.8529 1.9375 17.2642 1.9375C17.2642 1.29812 17.2642 0.658751 17.2642 0C16.6454 0 16.0267 0 15.3892 0C15.3892 0.639376 15.3892 1.27875 15.3892 1.9375C15.1004 1.95812 14.8117 1.97875 14.5142 2C11.4284 2.42164 8.69195 3.78987 6.45166 5.9375C6.39244 5.99341 6.33323 6.04933 6.27222 6.10693C5.85759 6.50803 5.49971 6.93763 5.15372 7.39758C5.0853 7.48852 5.01598 7.57878 4.94653 7.66895C3.40863 9.71113 2.26416 12.4738 2.26416 15.0625C1.62479 15.0625 0.98541 15.0625 0.32666 15.0625C0.32666 15.6812 0.32666 16.3 0.32666 16.9375C0.966035 16.9375 1.60541 16.9375 2.26416 16.9375C2.28479 17.2262 2.30541 17.515 2.32666 17.8125C2.7483 20.8982 4.11653 23.6347 6.26416 25.875C6.34803 25.9638 6.34803 25.9638 6.43359 26.0544C6.83469 26.4691 7.26429 26.827 7.72424 27.1729C7.81518 27.2414 7.90545 27.3107 7.99561 27.3801C10.0378 28.918 12.8005 30.0625 15.3892 30.0625C15.3892 30.7019 15.3892 31.3413 15.3892 32ZM17.2642 28.125C17.2627 27.6453 17.2616 27.1656 17.2609 26.6859C17.2606 26.4631 17.2602 26.2404 17.2594 26.0177C17.2586 25.7619 17.2583 25.5061 17.2581 25.2502C17.2577 25.1699 17.2574 25.0896 17.2571 25.0068C17.2571 24.933 17.2571 24.8592 17.2571 24.7831C17.2569 24.7177 17.2568 24.6524 17.2566 24.585C17.2475 24.4402 17.2475 24.4402 17.3267 24.375C17.41 24.3573 17.494 24.3427 17.5781 24.3296C18.9813 24.0962 20.2499 23.6164 21.3892 22.75C21.4389 22.713 21.4886 22.676 21.5398 22.6379C22.215 22.119 22.795 21.5242 23.2642 20.8125C23.3256 20.7214 23.3256 20.7214 23.3882 20.6284C24.0465 19.6104 24.4388 18.5086 24.6423 17.3165C24.6633 17.1092 24.6633 17.1092 24.7642 16.9375C24.8792 16.9316 24.9945 16.9302 25.1098 16.9304C25.1836 16.9304 25.2574 16.9304 25.3335 16.9304C25.454 16.9309 25.454 16.9309 25.5769 16.9314C25.6587 16.9315 25.7404 16.9316 25.8247 16.9317C26.0424 16.9319 26.2601 16.9325 26.4778 16.9332C26.6999 16.9338 26.9219 16.9341 27.1439 16.9344C27.5798 16.9351 28.0157 16.9362 28.4517 16.9375C28.3914 17.5903 28.3306 18.2316 28.1626 18.8672C28.1463 18.9299 28.13 18.9927 28.1132 19.0574C27.707 20.5672 27.0437 22.0161 26.0767 23.25C26.0352 23.3045 25.9937 23.3591 25.9509 23.4153C25.621 23.8403 25.2574 24.2333 24.8892 24.625C24.8345 24.6847 24.8345 24.6847 24.7788 24.7456C24.4493 25.0934 24.0637 25.3786 23.6837 25.6684C23.5895 25.7402 23.4959 25.8128 23.4023 25.8855C21.8211 27.0821 19.7955 27.8776 17.8252 28.0691C17.7709 28.0746 17.7166 28.0801 17.6607 28.0857C17.5286 28.099 17.3964 28.1121 17.2642 28.125ZM9.07666 25.75C9.02196 25.7084 8.96725 25.6669 8.91089 25.624C8.4862 25.2939 8.0932 24.9306 7.70166 24.5625C7.64196 24.5079 7.64196 24.5079 7.58105 24.4521C7.23324 24.1226 6.94804 23.737 6.65829 23.357C6.58644 23.2628 6.51386 23.1692 6.44116 23.0757C5.24451 21.4945 4.44905 19.4688 4.25757 17.4985C4.25208 17.4443 4.2466 17.39 4.24094 17.3341C4.22762 17.2019 4.21461 17.0697 4.20166 16.9375C4.68137 16.9361 5.16108 16.9349 5.64079 16.9343C5.86352 16.9339 6.08625 16.9335 6.30898 16.9328C6.56479 16.932 6.8206 16.9317 7.07642 16.9314C7.15675 16.9311 7.23709 16.9308 7.31986 16.9304C7.39368 16.9304 7.4675 16.9304 7.54356 16.9304C7.60893 16.9303 7.6743 16.9301 7.74165 16.93C7.88647 16.9208 7.88647 16.9208 7.95166 17C7.96936 17.0833 7.98392 17.1673 7.99707 17.2515C8.23044 18.6546 8.71024 19.9233 9.57666 21.0625C9.61364 21.1122 9.65062 21.1619 9.68872 21.2131C10.2077 21.8883 10.8025 22.4683 11.5142 22.9375C11.6053 22.9989 11.6053 22.9989 11.6982 23.0615C12.7163 23.7198 13.8181 24.1121 15.0102 24.3156C15.2175 24.3367 15.2175 24.3367 15.3892 24.4375C15.395 24.5526 15.3965 24.6679 15.3963 24.7831C15.3963 24.8569 15.3962 24.9307 15.3962 25.0068C15.3959 25.0871 15.3956 25.1675 15.3953 25.2502C15.3952 25.332 15.3951 25.4138 15.395 25.498C15.3948 25.7157 15.3941 25.9335 15.3935 26.1512C15.3928 26.3732 15.3925 26.5952 15.3922 26.8173C15.3915 27.2532 15.3905 27.6891 15.3892 28.125C13.1905 28.125 10.7866 27.0787 9.07666 25.75ZM11.6274 20.5781C10.6715 19.569 10.043 18.3217 9.88916 16.9375C10.4667 16.9375 11.0442 16.9375 11.6392 16.9375C11.6392 16.3188 11.6392 15.7 11.6392 15.0625C11.0617 15.0625 10.4842 15.0625 9.88916 15.0625C10.0404 13.7015 10.6262 12.5876 11.5142 11.5625C11.5544 11.5159 11.5946 11.4694 11.636 11.4214C12.6085 10.3793 13.9848 9.71854 15.3892 9.5625C15.3892 10.14 15.3892 10.7175 15.3892 11.3125C16.0079 11.3125 16.6267 11.3125 17.2642 11.3125C17.2642 10.735 17.2642 10.1575 17.2642 9.5625C18.6251 9.71372 19.7391 10.2995 20.7642 11.1875C20.8107 11.2277 20.8573 11.2679 20.9053 11.3093C21.9474 12.2818 22.6081 13.6581 22.7642 15.0625C22.1867 15.0625 21.6092 15.0625 21.0142 15.0625C21.0142 15.6812 21.0142 16.3 21.0142 16.9375C21.5917 16.9375 22.1692 16.9375 22.7642 16.9375C22.6129 18.2985 22.0271 19.4124 21.1392 20.4375C21.0789 20.5074 21.0789 20.5074 21.0173 20.5786C20.0449 21.6207 18.6685 22.2815 17.2642 22.4375C17.2642 21.86 17.2642 21.2825 17.2642 20.6875C16.6454 20.6875 16.0267 20.6875 15.3892 20.6875C15.3892 21.265 15.3892 21.8425 15.3892 22.4375C13.9926 22.4375 12.6119 21.5021 11.6274 20.5781ZM4.20166 15.0625C4.26193 14.4097 4.32275 13.7684 4.49072 13.1328C4.50703 13.0701 4.52333 13.0073 4.54013 12.9426C4.94632 11.4328 5.60966 9.98387 6.57666 8.75C6.61815 8.69546 6.65964 8.64091 6.70239 8.58472C7.03235 8.15972 7.39593 7.76666 7.76416 7.375C7.81878 7.3153 7.81878 7.3153 7.87451 7.25439C8.20402 6.90658 8.58963 6.62138 8.96967 6.33163C9.06384 6.25978 9.15745 6.1872 9.25098 6.1145C10.8322 4.91785 12.8579 4.12239 14.8281 3.93091C14.8824 3.92542 14.9367 3.91994 14.9926 3.91428C15.1248 3.90096 15.257 3.88795 15.3892 3.875C15.3906 4.35471 15.3917 4.83442 15.3924 5.31413C15.3927 5.53686 15.3932 5.75959 15.3939 5.98232C15.3947 6.23813 15.395 6.49394 15.3953 6.74976C15.3956 6.83009 15.3959 6.91043 15.3962 6.9932C15.3962 7.06702 15.3963 7.14084 15.3963 7.2169C15.3964 7.28227 15.3965 7.34764 15.3967 7.41499C15.4058 7.55981 15.4058 7.5598 15.3267 7.625C15.2433 7.6427 15.1594 7.65726 15.0752 7.67041C13.6721 7.90378 12.4034 8.38358 11.2642 9.25C11.2145 9.28698 11.1647 9.32396 11.1135 9.36206C10.4384 9.881 9.85836 10.4758 9.38916 11.1875C9.32777 11.2786 9.32777 11.2786 9.26514 11.3716C8.60685 12.3896 8.21456 13.4914 8.01103 14.6835C7.99 14.8908 7.99 14.8908 7.88916 15.0625C7.77409 15.0684 7.65879 15.0698 7.54356 15.0696C7.43283 15.0696 7.43283 15.0696 7.31986 15.0696C7.19936 15.0691 7.19936 15.0691 7.07642 15.0686C6.99466 15.0685 6.9129 15.0684 6.82866 15.0683C6.61093 15.0681 6.39321 15.0675 6.17548 15.0668C5.95346 15.0662 5.73143 15.0659 5.5094 15.0656C5.07349 15.0649 4.63757 15.0638 4.20166 15.0625ZM24.7017 15C24.684 14.9167 24.6694 14.8327 24.6562 14.7485C24.4229 13.3454 23.9431 12.0767 23.0767 10.9375C23.0397 10.8878 23.0027 10.8381 22.9646 10.7869C22.4457 10.1117 21.8508 9.5317 21.1392 9.0625C21.048 9.00111 21.048 9.00111 20.9551 8.93848C19.937 8.28019 18.8353 7.8879 17.6432 7.68437C17.4358 7.66334 17.4358 7.66334 17.2642 7.5625C17.2583 7.44743 17.2568 7.33213 17.2571 7.2169C17.2571 7.14308 17.2571 7.06926 17.2571 6.9932C17.2574 6.91286 17.2577 6.83253 17.2581 6.74976C17.2581 6.668 17.2582 6.58624 17.2583 6.502C17.2586 6.28427 17.2592 6.06655 17.2599 5.84882C17.2605 5.6268 17.2608 5.40477 17.2611 5.18274C17.2618 4.74682 17.2628 4.31091 17.2642 3.875C17.9169 3.93527 18.5583 3.99609 19.1938 4.16406C19.2566 4.18037 19.3194 4.19667 19.384 4.21347C20.8939 4.61966 22.3428 5.283 23.5767 6.25C23.6312 6.29149 23.6857 6.33298 23.7419 6.37573C24.1669 6.70569 24.56 7.06927 24.9517 7.4375C25.0114 7.49212 25.0114 7.49212 25.0723 7.54785C25.4201 7.87736 25.7053 8.26297 25.995 8.64301C26.0669 8.73718 26.1395 8.83079 26.2122 8.92432C27.4088 10.5055 28.2043 12.5312 28.3958 14.5015C28.4012 14.5557 28.4067 14.61 28.4124 14.6659C28.4257 14.7981 28.4387 14.9303 28.4517 15.0625C27.972 15.0639 27.4922 15.0651 27.0125 15.0657C26.7898 15.0661 26.5671 15.0665 26.3443 15.0672C26.0885 15.068 25.8327 15.0683 25.5769 15.0686C25.4966 15.0689 25.4162 15.0693 25.3335 15.0696C25.2596 15.0696 25.1858 15.0696 25.1098 15.0696C25.0444 15.0697 24.979 15.0699 24.9117 15.07C24.7669 15.0792 24.7669 15.0792 24.7017 15Z" fill="black"/>
</svg>
