<svg width="34" height="41" viewBox="0 0 34 41" fill="none" xmlns="http://www.w3.org/2000/svg">
<mask id="path-1-inside-1_157_4651" fill="white">
<path d="M17.3267 8.04175C8.49594 8.04175 1.32666 15.211 1.32666 24.0417C1.32666 32.8725 8.49594 40.0417 17.3267 40.0417C26.1414 40.0417 33.2982 32.8981 33.3241 24.0891C33.3257 24.0734 33.3266 24.0576 33.3267 24.0417C33.3267 24.0275 33.326 24.0133 33.3247 23.9992C33.3017 15.188 26.1433 8.04175 17.3267 8.04175ZM17.3267 9.00175C18.0278 9.00175 18.7167 9.05359 19.3923 9.14607C19.3635 9.18447 19.4422 9.27087 19.7174 9.42863L20.0447 9.53999C20.4543 9.48911 20.2799 9.34895 20.0095 9.24495C20.9981 9.42249 21.9662 9.6993 22.8991 10.0712C22.6406 10.1294 22.247 10.1614 21.8579 10.1461C21.8675 10.9176 22.2099 12.979 23.3843 12.6049C23.1756 12.6507 24.0473 13.5134 23.5967 13.6577C23.3567 15.2705 22.0495 12.5822 21.3862 12.6174C20.3942 12.7848 21.5743 13.275 21.2166 13.5153C20.278 14.3217 22.0287 15.1675 21.8873 13.8123C22.0025 14.9048 22.3724 14.8712 23.2579 14.8142C21.2351 15.156 24.3843 15.9397 23.3615 16.5944C22.3481 16.5009 21.7801 16.8792 22.3529 17.8712C22.0841 18.7896 22.9919 18.8299 23.3033 19.1473L23.6435 19.116L23.8636 19.0872C23.855 19.0862 23.8457 19.0881 23.8374 19.0869C25.1004 18.6981 24.4473 16.1704 25.7935 16.3355C25.5116 17.3131 27.0675 18.244 26.2329 16.8261C25.6639 16.1073 28.0783 17.3432 27.0147 17.6965C28.0492 19.0622 27.3199 16.4209 28.0905 17.1387C28.5913 18.011 29.1779 17.3617 29.3142 17.3291C29.6457 17.2366 30.1459 17.3822 30.2774 17.46C31.5462 18.6715 29.0755 18.1691 29.039 19.0955C29.1734 19.6885 27.6822 18.9371 27.4591 18.7755C26.8054 17.0133 25.3161 18.771 24.2207 19.0542C24.1836 19.0833 23.2838 19.7854 23.1779 19.8785C22.9212 21.4225 21.6803 22.3611 21.2198 23.923C21.1273 24.8254 21.4265 26.0737 21.3011 27.0475C21.5929 28.2961 22.7743 29.011 23.8041 29.6222C24.5791 30.1214 25.3871 29.1653 26.2211 29.1544C26.9507 28.0811 28.1187 28.868 28.7785 28.7886C28.0185 29.9854 29.3436 30.9102 28.9686 32.2049C28.3807 32.9243 28.2153 33.8801 27.9004 34.7387C25.1846 37.4235 21.4515 39.0817 17.3267 39.0817C15.3277 39.0842 13.3484 38.6873 11.5049 37.9144C11.8444 37.6056 12.0425 37.1454 12.4991 37.0136C14.5731 37.515 13.6703 34.9489 15.0783 34.3685C16.022 32.6392 13.0099 32.364 11.9347 31.7342C10.1164 31.4597 10.2873 29.2465 8.6361 28.7678C7.28378 28.5525 7.77434 26.6037 6.78298 26.708C5.9273 26.867 5.58778 25.6894 5.11098 25.7736C4.99578 25.8952 4.51386 24.9832 3.99546 25.988C2.53146 25.6638 3.55578 23.9829 2.93722 23.0417C2.6809 22.6107 3.66874 20.4005 2.6105 21.6849C2.5689 21.6113 2.54074 21.5112 2.52346 21.3937C2.65839 20.6315 2.85236 19.8808 3.10362 19.1486C3.25946 18.9755 3.43866 18.8894 3.6361 18.9544C4.4185 18.7765 4.15834 20.0056 4.22298 20.7669C4.81274 21.0197 4.53658 18.5352 5.76218 18.4773C6.59642 17.5381 7.56378 16.7384 8.57818 16.0917C8.9737 16.3739 9.8249 16.3397 10.4924 15.7131C9.74874 15.5637 9.6953 14.9963 10.6892 14.7729C12.2707 14.0933 9.97562 15.5179 11.2668 15.7233C12.6684 16.1361 11.4799 14.5048 12.1443 13.8667C11.4486 13.3931 12.5651 11.5518 11.3484 12.3697C11.7692 12.0689 11.1148 11.5045 11.4905 11.2843C11.6457 11.7195 12.4281 12.3173 12.7062 11.3137C13.4879 11.4472 13.3782 10.3147 13.8006 9.70543C15.783 9.00687 14.1417 10.9288 14.0671 11.8824C14.7052 13.7416 15.7814 11.1656 16.9151 11.1016C18.2937 11.1486 18.1363 9.83087 18.1148 9.12559C17.817 9.07005 17.5166 9.02947 17.2147 9.00399C17.2521 9.00399 17.2892 9.00175 17.3267 9.00175ZM12.0079 10.5912C12.2617 10.5601 11.8614 11.1109 11.3142 11.2017C10.5846 11.8101 11.2063 10.988 11.5174 10.8542C11.766 10.6763 11.9235 10.6014 12.0079 10.5912ZM23.1983 10.9937C23.2204 10.9918 23.255 10.9979 23.3071 11.0155C23.542 11.4046 23.0463 11.0059 23.1983 10.9937ZM10.3174 11.1768C10.8783 11.2174 10.2806 12.5265 9.65722 12.5912C9.32314 12.5601 9.09498 13.0872 8.83674 13.2593C8.81114 13.3745 8.85722 11.4558 9.72954 11.3819C9.99674 11.2251 10.1878 11.1675 10.3174 11.1768ZM18.3935 11.212C18.1075 11.2238 17.895 11.3445 18.0118 11.6555C18.1788 11.8165 18.4223 11.8555 18.6441 11.8568C20.0105 11.6872 19.023 11.1857 18.3935 11.212ZM23.2335 11.4616C23.2943 11.4673 23.4361 11.5211 23.6998 11.6542C24.2323 12.3262 22.9711 11.4376 23.2335 11.4616ZM20.6022 11.955C20.5849 11.9624 20.5705 11.9947 20.5654 12.0654C20.8159 12.347 20.6774 11.9217 20.6022 11.955ZM21.5699 12.1873C21.5494 12.1819 21.5475 12.2264 21.5884 12.3665C21.8575 12.6731 21.6307 12.204 21.5699 12.1873ZM24.3091 12.1905C24.5292 12.1896 25.1452 12.5726 25.0211 12.9905C24.4262 13.4712 24.7017 13.2145 24.5855 12.6817C24.1871 12.3294 24.1772 12.1912 24.3091 12.1905ZM6.96538 14.1342C7.0089 14.1393 7.07098 14.1915 7.1561 14.3198C6.94362 14.972 6.77722 14.1121 6.96538 14.1342ZM9.93658 14.5125C9.97626 14.5128 10.0409 14.5445 10.1359 14.6341C9.92826 14.7909 9.81818 14.5109 9.93658 14.5125ZM28.1414 14.6277C28.198 14.6209 28.3094 14.7003 28.4953 14.915C28.7174 14.5502 29.8636 15.3969 28.8691 15.5499C28.6815 16.2981 27.8969 14.6561 28.1414 14.6277ZM6.98842 14.9281C7.00922 14.9233 7.0313 14.9361 7.05338 14.9742C6.75514 15.8533 6.84282 14.9605 6.98842 14.9281ZM26.3436 15.8312C26.3539 15.8292 26.3645 15.8295 26.3747 15.8318C26.5539 15.8616 27.2601 16.2632 27.5417 16.5429C27.7142 16.9288 26.9763 16.2414 26.8268 16.2862C26.4089 15.9745 26.2937 15.8462 26.3436 15.8312ZM6.62042 15.8385C6.6569 15.8459 6.68538 15.8833 6.69338 15.9697C6.15354 16.3451 6.46234 15.8065 6.62042 15.8385ZM28.5011 16.5537C28.5286 16.5419 28.6079 16.5864 28.7718 16.7406C28.8006 17.1317 28.4182 16.5889 28.5011 16.5537ZM25.2134 17.2942C25.1471 17.3048 25.0454 17.4203 24.9065 17.7269C25.2937 18.1787 25.4121 17.2629 25.2134 17.2942ZM29.2892 17.6168C29.2169 17.6264 29.1411 17.7073 29.0905 17.9166C29.6921 18.2037 29.5062 17.5886 29.2892 17.6168ZM17.5964 18.5064C17.5187 18.4993 17.4099 18.532 17.2774 18.6417C17.7875 18.9054 17.8303 18.5272 17.5964 18.5064ZM18.3023 18.7467C18.2703 18.7349 18.207 18.7569 18.0991 18.8475C18.2102 19.1253 18.3977 18.7825 18.3023 18.7467ZM20.8431 20.3717C20.8121 20.379 20.7718 20.4133 20.7199 20.491C20.9164 20.8161 20.9763 20.3397 20.8431 20.3717ZM4.7897 20.5086C4.76058 20.5089 4.74298 20.5816 4.76026 20.7899C5.07258 21.1617 4.87738 20.5077 4.7897 20.5086ZM4.61594 21.0366C4.58682 21.0318 4.54298 21.1185 4.48474 21.3768C4.66074 21.8891 4.70394 21.0517 4.61594 21.0366ZM3.72218 21.3067C3.10106 21.2427 4.2441 22.3393 4.28922 22.8229C5.43962 23.1333 4.12826 23.4846 5.10106 23.8766C6.5657 24.404 5.66042 23.2261 5.0393 22.9781C5.28282 22.5867 4.42138 22.2981 4.1049 21.4104C3.93562 21.3486 3.81114 21.316 3.72218 21.3067ZM21.8671 21.5518C21.8012 21.5518 21.7286 21.6734 21.6979 22.036C22.1273 22.1393 22.0124 21.5518 21.8671 21.5518ZM4.93114 21.8129C4.92709 21.8117 4.92283 21.8114 4.91864 21.8119C4.91444 21.8125 4.91041 21.8139 4.90682 21.8161C4.87322 21.8376 4.87098 21.9419 4.96442 22.1691L5.03674 22.2171C5.09658 22.0049 4.99482 21.8293 4.93114 21.8129ZM20.7731 21.8398C20.5849 21.8507 20.4636 21.9358 20.5971 22.1585L20.6534 22.1848H20.9731C21.9225 22.1534 21.1865 21.8161 20.7731 21.8398ZM4.04026 23.0062C3.9561 22.9883 3.94426 23.0859 4.14586 23.4261C4.76154 23.6401 4.22586 23.0453 4.04026 23.0062ZM2.32218 23.0542C2.53562 23.9787 2.67162 25.0536 3.06778 25.8661C3.32954 26.8606 3.5225 25.6088 3.58778 26.3925C3.80986 27.8728 2.90746 29.3979 4.01786 30.8174C4.54586 32.2488 5.70554 33.2517 6.51706 34.4981C3.89946 31.7921 2.28666 28.1077 2.28666 24.0417C2.28666 23.7096 2.30106 23.3809 2.32218 23.0542ZM6.15098 23.908C6.07418 23.9176 6.0057 23.9995 5.98714 24.211C6.69242 24.4993 6.3817 23.8789 6.15098 23.908ZM7.27418 25.0744C7.24314 25.0619 7.21082 25.2021 7.1897 25.6229L7.2025 25.8549C7.4521 26.5217 7.36762 25.1112 7.27418 25.0744ZM18.4985 26.0136C18.4188 26.0049 18.4179 26.067 18.6393 26.2773C19.2303 26.3944 18.6739 26.0328 18.4985 26.0136ZM19.358 26.2104C19.3212 26.211 19.2732 26.2376 19.2131 26.3067C19.4582 26.692 19.5171 26.2075 19.358 26.2104ZM19.2153 26.6318C19.159 26.6408 19.0799 26.6782 18.9731 26.7592C19.2671 27.0766 19.4595 26.5921 19.2153 26.6318ZM18.8025 26.6936C18.7724 26.6904 18.727 26.7345 18.6649 26.868C18.8409 27.1387 18.8921 26.7032 18.8025 26.6936ZM28.1529 29.6737C28.1228 29.6705 28.0774 29.7144 28.0153 29.8481C28.1913 30.1189 28.2428 29.683 28.1529 29.6737Z"/>
</mask>
<path d="M17.3267 8.04175C8.49594 8.04175 1.32666 15.211 1.32666 24.0417C1.32666 32.8725 8.49594 40.0417 17.3267 40.0417C26.1414 40.0417 33.2982 32.8981 33.3241 24.0891C33.3257 24.0734 33.3266 24.0576 33.3267 24.0417C33.3267 24.0275 33.326 24.0133 33.3247 23.9992C33.3017 15.188 26.1433 8.04175 17.3267 8.04175ZM17.3267 9.00175C18.0278 9.00175 18.7167 9.05359 19.3923 9.14607C19.3635 9.18447 19.4422 9.27087 19.7174 9.42863L20.0447 9.53999C20.4543 9.48911 20.2799 9.34895 20.0095 9.24495C20.9981 9.42249 21.9662 9.6993 22.8991 10.0712C22.6406 10.1294 22.247 10.1614 21.8579 10.1461C21.8675 10.9176 22.2099 12.979 23.3843 12.6049C23.1756 12.6507 24.0473 13.5134 23.5967 13.6577C23.3567 15.2705 22.0495 12.5822 21.3862 12.6174C20.3942 12.7848 21.5743 13.275 21.2166 13.5153C20.278 14.3217 22.0287 15.1675 21.8873 13.8123C22.0025 14.9048 22.3724 14.8712 23.2579 14.8142C21.2351 15.156 24.3843 15.9397 23.3615 16.5944C22.3481 16.5009 21.7801 16.8792 22.3529 17.8712C22.0841 18.7896 22.9919 18.8299 23.3033 19.1473L23.6435 19.116L23.8636 19.0872C23.855 19.0862 23.8457 19.0881 23.8374 19.0869C25.1004 18.6981 24.4473 16.1704 25.7935 16.3355C25.5116 17.3131 27.0675 18.244 26.2329 16.8261C25.6639 16.1073 28.0783 17.3432 27.0147 17.6965C28.0492 19.0622 27.3199 16.4209 28.0905 17.1387C28.5913 18.011 29.1779 17.3617 29.3142 17.3291C29.6457 17.2366 30.1459 17.3822 30.2774 17.46C31.5462 18.6715 29.0755 18.1691 29.039 19.0955C29.1734 19.6885 27.6822 18.9371 27.4591 18.7755C26.8054 17.0133 25.3161 18.771 24.2207 19.0542C24.1836 19.0833 23.2838 19.7854 23.1779 19.8785C22.9212 21.4225 21.6803 22.3611 21.2198 23.923C21.1273 24.8254 21.4265 26.0737 21.3011 27.0475C21.5929 28.2961 22.7743 29.011 23.8041 29.6222C24.5791 30.1214 25.3871 29.1653 26.2211 29.1544C26.9507 28.0811 28.1187 28.868 28.7785 28.7886C28.0185 29.9854 29.3436 30.9102 28.9686 32.2049C28.3807 32.9243 28.2153 33.8801 27.9004 34.7387C25.1846 37.4235 21.4515 39.0817 17.3267 39.0817C15.3277 39.0842 13.3484 38.6873 11.5049 37.9144C11.8444 37.6056 12.0425 37.1454 12.4991 37.0136C14.5731 37.515 13.6703 34.9489 15.0783 34.3685C16.022 32.6392 13.0099 32.364 11.9347 31.7342C10.1164 31.4597 10.2873 29.2465 8.6361 28.7678C7.28378 28.5525 7.77434 26.6037 6.78298 26.708C5.9273 26.867 5.58778 25.6894 5.11098 25.7736C4.99578 25.8952 4.51386 24.9832 3.99546 25.988C2.53146 25.6638 3.55578 23.9829 2.93722 23.0417C2.6809 22.6107 3.66874 20.4005 2.6105 21.6849C2.5689 21.6113 2.54074 21.5112 2.52346 21.3937C2.65839 20.6315 2.85236 19.8808 3.10362 19.1486C3.25946 18.9755 3.43866 18.8894 3.6361 18.9544C4.4185 18.7765 4.15834 20.0056 4.22298 20.7669C4.81274 21.0197 4.53658 18.5352 5.76218 18.4773C6.59642 17.5381 7.56378 16.7384 8.57818 16.0917C8.9737 16.3739 9.8249 16.3397 10.4924 15.7131C9.74874 15.5637 9.6953 14.9963 10.6892 14.7729C12.2707 14.0933 9.97562 15.5179 11.2668 15.7233C12.6684 16.1361 11.4799 14.5048 12.1443 13.8667C11.4486 13.3931 12.5651 11.5518 11.3484 12.3697C11.7692 12.0689 11.1148 11.5045 11.4905 11.2843C11.6457 11.7195 12.4281 12.3173 12.7062 11.3137C13.4879 11.4472 13.3782 10.3147 13.8006 9.70543C15.783 9.00687 14.1417 10.9288 14.0671 11.8824C14.7052 13.7416 15.7814 11.1656 16.9151 11.1016C18.2937 11.1486 18.1363 9.83087 18.1148 9.12559C17.817 9.07005 17.5166 9.02947 17.2147 9.00399C17.2521 9.00399 17.2892 9.00175 17.3267 9.00175ZM12.0079 10.5912C12.2617 10.5601 11.8614 11.1109 11.3142 11.2017C10.5846 11.8101 11.2063 10.988 11.5174 10.8542C11.766 10.6763 11.9235 10.6014 12.0079 10.5912ZM23.1983 10.9937C23.2204 10.9918 23.255 10.9979 23.3071 11.0155C23.542 11.4046 23.0463 11.0059 23.1983 10.9937ZM10.3174 11.1768C10.8783 11.2174 10.2806 12.5265 9.65722 12.5912C9.32314 12.5601 9.09498 13.0872 8.83674 13.2593C8.81114 13.3745 8.85722 11.4558 9.72954 11.3819C9.99674 11.2251 10.1878 11.1675 10.3174 11.1768ZM18.3935 11.212C18.1075 11.2238 17.895 11.3445 18.0118 11.6555C18.1788 11.8165 18.4223 11.8555 18.6441 11.8568C20.0105 11.6872 19.023 11.1857 18.3935 11.212ZM23.2335 11.4616C23.2943 11.4673 23.4361 11.5211 23.6998 11.6542C24.2323 12.3262 22.9711 11.4376 23.2335 11.4616ZM20.6022 11.955C20.5849 11.9624 20.5705 11.9947 20.5654 12.0654C20.8159 12.347 20.6774 11.9217 20.6022 11.955ZM21.5699 12.1873C21.5494 12.1819 21.5475 12.2264 21.5884 12.3665C21.8575 12.6731 21.6307 12.204 21.5699 12.1873ZM24.3091 12.1905C24.5292 12.1896 25.1452 12.5726 25.0211 12.9905C24.4262 13.4712 24.7017 13.2145 24.5855 12.6817C24.1871 12.3294 24.1772 12.1912 24.3091 12.1905ZM6.96538 14.1342C7.0089 14.1393 7.07098 14.1915 7.1561 14.3198C6.94362 14.972 6.77722 14.1121 6.96538 14.1342ZM9.93658 14.5125C9.97626 14.5128 10.0409 14.5445 10.1359 14.6341C9.92826 14.7909 9.81818 14.5109 9.93658 14.5125ZM28.1414 14.6277C28.198 14.6209 28.3094 14.7003 28.4953 14.915C28.7174 14.5502 29.8636 15.3969 28.8691 15.5499C28.6815 16.2981 27.8969 14.6561 28.1414 14.6277ZM6.98842 14.9281C7.00922 14.9233 7.0313 14.9361 7.05338 14.9742C6.75514 15.8533 6.84282 14.9605 6.98842 14.9281ZM26.3436 15.8312C26.3539 15.8292 26.3645 15.8295 26.3747 15.8318C26.5539 15.8616 27.2601 16.2632 27.5417 16.5429C27.7142 16.9288 26.9763 16.2414 26.8268 16.2862C26.4089 15.9745 26.2937 15.8462 26.3436 15.8312ZM6.62042 15.8385C6.6569 15.8459 6.68538 15.8833 6.69338 15.9697C6.15354 16.3451 6.46234 15.8065 6.62042 15.8385ZM28.5011 16.5537C28.5286 16.5419 28.6079 16.5864 28.7718 16.7406C28.8006 17.1317 28.4182 16.5889 28.5011 16.5537ZM25.2134 17.2942C25.1471 17.3048 25.0454 17.4203 24.9065 17.7269C25.2937 18.1787 25.4121 17.2629 25.2134 17.2942ZM29.2892 17.6168C29.2169 17.6264 29.1411 17.7073 29.0905 17.9166C29.6921 18.2037 29.5062 17.5886 29.2892 17.6168ZM17.5964 18.5064C17.5187 18.4993 17.4099 18.532 17.2774 18.6417C17.7875 18.9054 17.8303 18.5272 17.5964 18.5064ZM18.3023 18.7467C18.2703 18.7349 18.207 18.7569 18.0991 18.8475C18.2102 19.1253 18.3977 18.7825 18.3023 18.7467ZM20.8431 20.3717C20.8121 20.379 20.7718 20.4133 20.7199 20.491C20.9164 20.8161 20.9763 20.3397 20.8431 20.3717ZM4.7897 20.5086C4.76058 20.5089 4.74298 20.5816 4.76026 20.7899C5.07258 21.1617 4.87738 20.5077 4.7897 20.5086ZM4.61594 21.0366C4.58682 21.0318 4.54298 21.1185 4.48474 21.3768C4.66074 21.8891 4.70394 21.0517 4.61594 21.0366ZM3.72218 21.3067C3.10106 21.2427 4.2441 22.3393 4.28922 22.8229C5.43962 23.1333 4.12826 23.4846 5.10106 23.8766C6.5657 24.404 5.66042 23.2261 5.0393 22.9781C5.28282 22.5867 4.42138 22.2981 4.1049 21.4104C3.93562 21.3486 3.81114 21.316 3.72218 21.3067ZM21.8671 21.5518C21.8012 21.5518 21.7286 21.6734 21.6979 22.036C22.1273 22.1393 22.0124 21.5518 21.8671 21.5518ZM4.93114 21.8129C4.92709 21.8117 4.92283 21.8114 4.91864 21.8119C4.91444 21.8125 4.91041 21.8139 4.90682 21.8161C4.87322 21.8376 4.87098 21.9419 4.96442 22.1691L5.03674 22.2171C5.09658 22.0049 4.99482 21.8293 4.93114 21.8129ZM20.7731 21.8398C20.5849 21.8507 20.4636 21.9358 20.5971 22.1585L20.6534 22.1848H20.9731C21.9225 22.1534 21.1865 21.8161 20.7731 21.8398ZM4.04026 23.0062C3.9561 22.9883 3.94426 23.0859 4.14586 23.4261C4.76154 23.6401 4.22586 23.0453 4.04026 23.0062ZM2.32218 23.0542C2.53562 23.9787 2.67162 25.0536 3.06778 25.8661C3.32954 26.8606 3.5225 25.6088 3.58778 26.3925C3.80986 27.8728 2.90746 29.3979 4.01786 30.8174C4.54586 32.2488 5.70554 33.2517 6.51706 34.4981C3.89946 31.7921 2.28666 28.1077 2.28666 24.0417C2.28666 23.7096 2.30106 23.3809 2.32218 23.0542ZM6.15098 23.908C6.07418 23.9176 6.0057 23.9995 5.98714 24.211C6.69242 24.4993 6.3817 23.8789 6.15098 23.908ZM7.27418 25.0744C7.24314 25.0619 7.21082 25.2021 7.1897 25.6229L7.2025 25.8549C7.4521 26.5217 7.36762 25.1112 7.27418 25.0744ZM18.4985 26.0136C18.4188 26.0049 18.4179 26.067 18.6393 26.2773C19.2303 26.3944 18.6739 26.0328 18.4985 26.0136ZM19.358 26.2104C19.3212 26.211 19.2732 26.2376 19.2131 26.3067C19.4582 26.692 19.5171 26.2075 19.358 26.2104ZM19.2153 26.6318C19.159 26.6408 19.0799 26.6782 18.9731 26.7592C19.2671 27.0766 19.4595 26.5921 19.2153 26.6318ZM18.8025 26.6936C18.7724 26.6904 18.727 26.7345 18.6649 26.868C18.8409 27.1387 18.8921 26.7032 18.8025 26.6936ZM28.1529 29.6737C28.1228 29.6705 28.0774 29.7144 28.0153 29.8481C28.1913 30.1189 28.2428 29.683 28.1529 29.6737Z" fill="black" stroke="black" mask="url(#path-1-inside-1_157_4651)"/>
<path d="M8.32666 0.041748C4.12666 0.041748 0.32666 3.31452 0.32666 8.37614C0.32666 11.6083 2.77666 15.4096 7.66666 19.7902C8.04666 20.1256 8.61666 20.1256 8.99666 19.7902C13.8767 15.4096 16.3267 11.6083 16.3267 8.37614C16.3267 3.31452 12.5267 0.041748 8.32666 0.041748ZM8.32666 10.2056C7.22666 10.2056 6.32666 9.29089 6.32666 8.17286C6.32666 7.05483 7.22666 6.14008 8.32666 6.14008C9.42666 6.14008 10.3267 7.05483 10.3267 8.17286C10.3267 9.29089 9.42666 10.2056 8.32666 10.2056Z" fill="#0094D3"/>
</svg>
