<svg width="32" height="32" viewBox="0 0 32 32" fill="none" xmlns="http://www.w3.org/2000/svg">
<g clip-path="url(#clip0_157_4818)">
<path d="M15.2082 -0.0148136C15.2524 -0.0154229 15.2966 -0.0160321 15.3421 -0.0166599C16.6992 -0.0315115 17.9307 0.0923658 19.2173 0.562579C19.3154 0.597021 19.3154 0.597021 19.4155 0.632159C21.8023 1.51729 23.7125 3.44159 24.8482 5.75008C24.8785 5.81083 24.9087 5.87157 24.9399 5.93416C25.8621 7.90428 26.1412 10.4329 25.6353 12.5626C25.6172 12.6405 25.6172 12.6405 25.5988 12.7199C25.253 14.1718 24.6149 15.4479 23.8054 16.6788C23.6098 16.9774 23.423 17.2816 23.2361 17.586C23.2007 17.6437 23.1653 17.7014 23.1287 17.7608C23.0545 17.8816 22.9802 18.0025 22.906 18.1234C22.7027 18.4539 22.4983 18.7836 22.2939 19.1134C22.2528 19.1796 22.2117 19.2459 22.1693 19.3142C21.9148 19.7245 21.6589 20.1339 21.4019 20.5426C21.1763 20.9021 20.9535 21.2635 20.731 21.6251C20.4828 22.0285 20.2338 22.4312 19.9817 22.8321C19.5419 23.5317 19.1076 24.2349 18.6724 24.9376C17.5274 26.7865 17.5274 26.7865 17.109 27.4491C17.0388 27.5608 16.9693 27.6729 16.9 27.7852C16.837 27.8858 16.837 27.8858 16.7727 27.9884C16.7373 28.0455 16.7019 28.1026 16.6654 28.1615C16.4974 28.3879 16.3317 28.5346 16.0689 28.6251C15.7303 28.648 15.5076 28.6451 15.2212 28.4376C14.8694 28.0591 14.6178 27.5877 14.3528 27.1431C14.1969 26.882 14.0362 26.6243 13.8741 26.3673C13.6208 25.965 13.3702 25.5612 13.121 25.1563C12.5145 24.171 11.9063 23.1868 11.2906 22.2075C11.0279 21.789 10.7691 21.368 10.5101 20.9471C10.2959 20.5991 10.0803 20.2521 9.86283 19.9063C9.57116 19.4426 9.28363 18.9763 8.99649 18.5096C8.78224 18.1616 8.56661 17.8147 8.34916 17.4688C8.29578 17.3836 8.2424 17.2984 8.18904 17.2132C8.09731 17.0668 8.00533 16.9205 7.91294 16.7745C7.45877 16.0561 7.02953 15.3435 6.68412 14.5626C6.65142 14.4912 6.61872 14.4198 6.58502 14.3463C6.33049 13.7678 6.16123 13.1786 6.0181 12.5626C6.00802 12.5218 5.99793 12.481 5.98754 12.439C5.64083 10.9933 5.71965 9.24502 6.07865 7.81258C6.08999 7.76526 6.10132 7.71793 6.113 7.66918C6.27619 6.99932 6.51403 6.37119 6.80521 5.75008C6.82387 5.71028 6.84252 5.67048 6.86174 5.62947C7.24493 4.82524 7.72132 4.10781 8.31416 3.45198C8.4297 3.32396 8.53905 3.19256 8.64811 3.05867C10.1989 1.23961 12.8667 0.012045 15.2082 -0.0148136ZM12.5572 7.12508C12.5213 7.16109 12.4854 7.19711 12.4484 7.23421C11.617 8.11406 11.3285 9.27842 11.3316 10.4717C11.3468 11.6657 11.7984 12.6648 12.5799 13.5352C12.6323 13.5855 12.6848 13.6358 12.7388 13.6876C12.7737 13.7246 12.8086 13.7617 12.8445 13.7999C13.6969 14.6581 14.8249 14.9558 15.9808 14.9527C17.1376 14.937 18.1054 14.4709 18.9486 13.6641C18.9973 13.61 19.0461 13.5559 19.0962 13.5001C19.1321 13.4641 19.168 13.4281 19.205 13.3909C20.0364 12.5111 20.3249 11.3467 20.3218 10.1535C20.3066 8.95942 19.855 7.96033 19.0735 7.08992C19.0211 7.03965 18.9686 6.98938 18.9146 6.93758C18.8797 6.90052 18.8448 6.86346 18.8089 6.82527C17.9565 5.96705 16.8285 5.66932 15.6726 5.67244C14.4629 5.68889 13.3823 6.2078 12.5572 7.12508Z" fill="black"/>
<path d="M8.80327 21.5625C8.89744 21.6882 8.89744 21.6882 8.99886 21.8555C9.03699 21.9177 9.07511 21.9799 9.1144 22.0441C9.1758 22.146 9.1758 22.146 9.23845 22.25C9.28171 22.321 9.32503 22.3919 9.36841 22.4628C9.45857 22.6102 9.54848 22.7578 9.63824 22.9055C9.84209 23.2405 10.0494 23.5733 10.2564 23.9063C10.3367 24.0358 10.4171 24.1654 10.4974 24.2949C10.5373 24.3593 10.5772 24.4237 10.6183 24.49C10.7435 24.6919 10.8685 24.8938 10.9936 25.0957C11.3702 25.7037 11.747 26.3117 12.1281 26.9168C12.3207 27.2233 12.51 27.5319 12.6989 27.8409C13.6506 29.4085 13.6506 29.4085 15.2184 30.2161C16.0186 30.3633 16.7474 30.1916 17.4496 29.7837C17.8293 29.5089 18.0948 29.216 18.3432 28.8125C18.3739 28.7638 18.4046 28.715 18.4363 28.6648C18.536 28.5062 18.6346 28.3469 18.733 28.1875C18.766 28.1342 18.799 28.081 18.8331 28.0261C19.0084 27.7435 19.1829 27.4603 19.3569 27.1768C19.5892 26.7981 19.8232 26.4204 20.0574 26.043C20.0978 25.9778 20.1382 25.9127 20.1799 25.8456C20.262 25.7132 20.3442 25.5807 20.4263 25.4483C20.5886 25.1867 20.7508 24.9251 20.913 24.6634C20.9932 24.5341 21.0734 24.4048 21.1536 24.2755C21.3406 23.9741 21.5275 23.6725 21.7137 23.3705C21.779 23.2646 21.8445 23.1587 21.9099 23.0527C21.9915 22.9206 22.073 22.7883 22.1544 22.656C22.3971 22.2634 22.6488 21.8792 22.9107 21.5C25.1119 21.9465 27.7265 22.8408 29.051 24.8369C29.4753 25.5575 29.5542 26.3281 29.4126 27.1541C29.0383 28.4493 27.8695 29.266 26.7765 29.8764C26.1172 30.2363 25.4367 30.5151 24.7271 30.75C24.6483 30.7761 24.6483 30.7761 24.568 30.8027C23.0418 31.3009 21.4707 31.6109 19.8833 31.8125C19.8123 31.8219 19.7413 31.8314 19.6681 31.8411C17.0991 32.1684 14.3361 32.1586 11.7701 31.8125C11.687 31.8017 11.6039 31.7908 11.5209 31.78C8.4898 31.3786 4.74641 30.6798 2.69584 28.1079C2.21212 27.4181 2.11614 26.6408 2.20366 25.8125C2.41754 24.7386 3.23715 23.9339 4.08463 23.344C5.24413 22.5676 6.53398 22.1068 7.85344 21.7109C7.92711 21.6887 8.00078 21.6665 8.07669 21.6436C8.17937 21.6139 8.17937 21.6139 8.28412 21.5835C8.34495 21.5658 8.40577 21.5481 8.46844 21.5299C8.62162 21.5 8.62162 21.5 8.80327 21.5625Z" fill="#0094D3"/>
</g>
<defs>
<clipPath id="clip0_157_4818">
<rect width="31" height="32" fill="white" transform="translate(0.32666)"/>
</clipPath>
</defs>
</svg>
