<svg width="44" height="43" viewBox="0 0 44 43" fill="none" xmlns="http://www.w3.org/2000/svg">
<g clip-path="url(#clip0_157_4772)">
<g filter="url(#filter0_i_157_4772)">
<path d="M43.0747 18.7285C43.3916 19.067 43.3575 19.3539 43.3456 19.798C43.3157 20.2294 43.2447 20.6461 43.1586 21.0695C43.14 21.163 43.1213 21.2565 43.1021 21.3528C42.4789 24.3763 41.4607 27.2472 40.2192 30.0664C40.1871 30.1396 40.1549 30.2128 40.1218 30.2882C39.4153 31.8832 38.5279 33.3919 37.6178 34.8775C37.4232 35.2028 37.3918 35.488 37.4477 35.8613C37.7228 36.5044 38.1708 37.0851 38.5605 37.6617C38.6818 37.8417 38.8029 38.0219 38.924 38.202C38.9772 38.2808 39.0304 38.3595 39.0852 38.4407C39.3448 38.8358 39.3435 39.1753 39.2954 39.6406C39.2072 39.9387 39.0736 40.1495 38.8159 40.3278C38.4024 40.5445 38.0732 40.6029 37.6067 40.5588C37.5361 40.5537 37.4655 40.5486 37.3928 40.5434C37.2271 40.5312 37.0615 40.5181 36.8959 40.5043C36.5738 40.4776 36.2515 40.4538 35.9292 40.4302C35.1615 40.3737 34.3941 40.3135 33.6268 40.253C33.2235 40.2213 32.8201 40.1899 32.4168 40.1584C31.629 40.0969 30.8412 40.0351 30.0534 39.9732C29.4128 39.9228 28.7723 39.8726 28.1317 39.8224C28.0402 39.8153 27.9488 39.8081 27.8545 39.8007C27.6686 39.7862 27.4827 39.7716 27.2969 39.757C25.558 39.6208 23.8191 39.4843 22.0802 39.3477C20.4913 39.2228 18.9024 39.0984 17.3134 38.9741C15.6786 38.8462 14.0439 38.7181 12.4091 38.5897C11.4926 38.5177 10.5761 38.4459 9.65955 38.3743C8.87983 38.3133 8.10012 38.2522 7.32043 38.1907C6.92312 38.1594 6.52579 38.1282 6.12845 38.0972C5.76399 38.0689 5.39957 38.0402 5.03516 38.0113C4.90408 38.0009 4.77299 37.9907 4.64189 37.9806C1.79699 37.761 1.79699 37.761 1.04409 36.8937C0.385112 35.9144 0.296091 34.5537 0.289876 33.41C0.289043 33.3308 0.288211 33.2516 0.287354 33.17C0.29453 32.5888 0.378708 32.0577 0.697003 31.5613C1.46819 30.8667 2.62731 30.6893 3.60166 30.4268C7.11187 29.4799 10.4354 28.097 13.6789 26.457C14.3026 26.1418 14.9321 25.8401 15.5634 25.5407C16.02 25.3236 16.4725 25.1005 16.9225 24.8702C23.165 21.6849 29.8814 19.7659 40.1405 18.6182C40.2287 18.6109 40.3169 18.6036 40.4078 18.596C40.6591 18.5753 40.9104 18.5552 41.1617 18.5352C41.2734 18.5262 41.2734 18.5262 41.3874 18.517C42.5961 18.4239 42.5961 18.4239 43.0747 18.7285ZM31.6151 24.7304C31.287 25.1148 31.2034 25.3417 31.2089 25.8347C31.2484 26.1655 31.3742 26.3528 31.5688 26.623C31.6272 26.6614 31.6856 26.6999 31.7457 26.7395C31.9047 26.875 31.9047 26.875 31.9483 27.0647C31.9491 27.1387 31.9498 27.2127 31.9506 27.289C31.9522 27.3731 31.9539 27.4571 31.9556 27.5437C31.9557 27.6343 31.9558 27.7248 31.9559 27.8181C31.958 27.9574 31.958 27.9574 31.9601 28.0995C31.9642 28.3964 31.966 28.6933 31.9677 28.9903C31.9701 29.1915 31.9726 29.3926 31.9753 29.5938C31.9815 30.0872 31.9858 30.5807 31.9887 31.0742C31.8684 31.011 31.7485 30.9469 31.6288 30.8826C31.562 30.847 31.4952 30.8115 31.4264 30.7748C31.0073 30.5137 30.6941 30.1234 30.561 29.6464C30.5211 29.4313 30.4823 29.2164 30.4485 29.0002C30.3854 28.7801 30.323 28.6914 30.1411 28.5546C29.8789 28.5219 29.7128 28.5077 29.4849 28.6491C29.3044 28.9342 29.2903 29.2272 29.3334 29.5565C29.471 30.1027 29.6348 30.5391 29.9731 30.9902C30.0337 31.0768 30.0944 31.1634 30.1568 31.2526C30.6657 31.8381 31.4859 32.1981 32.2463 32.2765C33.2131 32.3119 34.0157 32.0355 34.7287 31.3734C35.4087 30.6397 35.6963 30.0177 35.7146 29.0126C35.7001 28.8035 35.7001 28.8035 35.5722 28.655C35.3547 28.4992 35.1875 28.5222 34.9282 28.5546C34.6208 28.7639 34.603 29.0633 34.5293 29.4102C34.3957 29.9651 34.2203 30.3907 33.7524 30.7382C33.5307 30.8491 33.309 30.96 33.0805 31.0742C33.0805 29.6607 33.0805 28.2473 33.0805 26.791C33.1914 26.7355 33.3022 26.6801 33.4165 26.623C33.6973 26.3101 33.8254 26.0972 33.8574 25.6729C33.831 25.2831 33.7429 25.0199 33.4644 24.7376C32.9004 24.248 32.1728 24.1666 31.6151 24.7304Z" fill="black"/>
</g>
<path d="M42.7909 20.9961L42.7912 20.9949C42.8753 20.5809 42.9424 20.1848 42.971 19.7799C42.9719 19.7478 42.9728 19.7176 42.9736 19.6892C42.979 19.5043 42.9823 19.3929 42.964 19.2882C42.949 19.2023 42.9181 19.12 42.8303 19.0175C42.6202 18.8847 42.567 18.8593 42.4582 18.8457C42.2953 18.8253 42.0435 18.8426 41.4169 18.8909C41.4166 18.8909 41.4164 18.8909 41.4162 18.8909L41.1919 18.909L41.1913 18.9091C40.9403 18.929 40.6895 18.9491 40.4387 18.9697C40.4387 18.9697 40.4386 18.9697 40.4385 18.9697L40.1769 18.9915C29.9522 20.1357 23.2837 22.0453 17.0932 25.2041C16.6399 25.4361 16.1841 25.6608 15.7245 25.8794L15.7241 25.8796C15.0934 26.1786 14.4673 26.4787 13.8481 26.7917C10.5885 28.4398 7.24065 29.8335 3.69933 30.7888L3.69921 30.7889C3.51092 30.8396 3.32639 30.8849 3.14386 30.9297C2.82232 31.0086 2.507 31.086 2.18836 31.1889C1.72114 31.3397 1.30965 31.5285 0.985998 31.8065C0.743585 32.2062 0.669257 32.643 0.662379 33.1704L0.664855 33.406L0.664875 33.4079C0.671074 34.5494 0.765227 35.7919 1.34284 36.6658C1.71045 37.089 1.837 37.2214 2.16694 37.3211C2.56674 37.4419 3.22239 37.4949 4.67071 37.6067C4.67072 37.6067 4.67073 37.6067 4.67074 37.6067L4.64189 37.9806C4.77299 37.9907 4.90408 38.0009 5.03516 38.0113L42.7909 20.9961ZM42.7909 20.9961L42.7348 21.2771L42.7909 20.9961ZM31.6092 30.4468C31.2744 30.2336 31.0328 29.9266 30.9265 29.5608C30.888 29.3523 30.8511 29.1473 30.819 28.9422L30.8154 28.9192L30.809 28.8969C30.7726 28.77 30.7275 28.6481 30.6476 28.5327C30.568 28.4176 30.4701 28.3329 30.3664 28.2549L30.2866 28.1949L30.1876 28.1825C30.0617 28.1668 29.9143 28.1486 29.7637 28.1633C29.599 28.1794 29.4458 28.232 29.2872 28.3305L29.2141 28.3758L29.1681 28.4485C28.9204 28.8396 28.9133 29.2358 28.9615 29.6051L28.9644 29.6269L28.9697 29.6482C29.1137 30.2193 29.2929 30.7065 29.6693 31.2102L29.8496 31.4677L29.8609 31.4838L29.8738 31.4986C30.4569 32.1695 31.3723 32.5633 32.2078 32.6495L32.2201 32.6508L32.2325 32.6513C33.2926 32.6901 34.1936 32.382 34.9839 31.6482L34.9942 31.6386L35.0038 31.6283C35.3615 31.2423 35.633 30.8676 35.8147 30.442C35.9971 30.0147 36.0797 29.558 36.0895 29.0194L36.0898 29.003L36.0887 28.9867C36.0882 28.9796 36.0877 28.972 36.0872 28.9642C36.0821 28.8857 36.0749 28.7744 36.0343 28.6723C35.992 28.5661 35.9185 28.4818 35.8698 28.4258C35.865 28.4204 35.8605 28.4152 35.8563 28.4103L35.827 28.3763L35.7906 28.3502C35.631 28.2359 35.4724 28.1772 35.3015 28.1609C35.1598 28.1474 35.0176 28.1654 34.904 28.1797C34.8964 28.1807 34.889 28.1816 34.8817 28.1825L34.7919 28.1938L34.7172 28.2446C34.3122 28.5203 34.2358 28.9372 34.1839 29.2208C34.1769 29.259 34.1703 29.2948 34.1635 29.3275C34.0415 29.8321 33.8992 30.1519 33.5538 30.4183L33.4555 30.4674V30.4612V30.4529V30.4446V30.4363V30.428V30.4197V30.4115V30.4032V30.3949V30.3866V30.3783V30.37V30.3617V30.3534V30.3451V30.3369V30.3286V30.3203V30.312V30.3037V30.2954V30.2871V30.2788V30.2705V30.2622V30.2539V30.2457V30.2374V30.2291V30.2208V30.2125V30.2042V30.1959V30.1876V30.1793V30.171V30.1627V30.1544V30.1461V30.1378V30.1296V30.1213V30.113V30.1047V30.0964V30.0881V30.0798V30.0715V30.0632V30.0549V30.0466V30.0383V30.03V30.0217V30.0134V30.0051V29.9968V29.9885V29.9802V29.9719V29.9636V29.9553V29.947V29.9387V29.9304V29.9221V29.9138V29.9055V29.8972V29.8889V29.8806V29.8723V29.864V29.8557V29.8474V29.8391V29.8308V29.8225V29.8142V29.8059V29.7976V29.7893V29.781V29.7727V29.7644V29.7561V29.7477V29.7394V29.7311V29.7228V29.7145V29.7062V29.6979V29.6896V29.6813V29.673V29.6647V29.6564V29.648V29.6397V29.6314V29.6231V29.6148V29.6065V29.5982V29.5899V29.5816V29.5732V29.5649V29.5566V29.5483V29.54V29.5317V29.5234V29.515V29.5067V29.4984V29.4901V29.4818V29.4735V29.4651V29.4568V29.4485V29.4402V29.4319V29.4235V29.4152V29.4069V29.3986V29.3903V29.3819V29.3736V29.3653V29.357V29.3486V29.3403V29.332V29.3237V29.3154V29.307V29.2987V29.2904V29.282V29.2737V29.2654V29.2571V29.2487V29.2404V29.2321V29.2238V29.2154V29.2071V29.1988V29.1904V29.1821V29.1738V29.1654V29.1571V29.1488V29.1404V29.1321V29.1238V29.1154V29.1071V29.0988V29.0904V29.0821V29.0737V29.0654V29.0571V29.0487V29.0404V29.0321V29.0237V29.0154V29.007V28.9987V28.9903V28.982V28.9737V28.9653V28.957V28.9486V28.9403V28.9319V28.9236V28.9152V28.9069V28.8986V28.8902V28.8819V28.8735V28.8652V28.8568V28.8485V28.8401V28.8318V28.8234V28.8151V28.8067V28.7983V28.79V28.7816V28.7733V28.7649V28.7566V28.7482V28.7399V28.7315V28.7231V28.7148V28.7064V28.6981V28.6897V28.6813V28.673V28.6646V28.6563V28.6479V28.6395V28.6312V28.6228V28.6144V28.6061V28.5977V28.5893V28.581V28.5726V28.5642V28.5559V28.5475V28.5391V28.5307V28.5224V28.514V28.5056V28.4973V28.4889V28.4805V28.4721V28.4638V28.4554V28.447V28.4386V28.4302V28.4219V28.4135V28.4051V28.3967V28.3883V28.38V28.3716V28.3632V28.3548V28.3464V28.338V28.3297V28.3213V28.3129V28.3045V28.2961V28.2877V28.2793V28.2709V28.2625V28.2542V28.2458V28.2374V28.229V28.2206V28.2122V28.2038V28.1954V28.187V28.1786V28.1702V28.1618V28.1534V28.145V28.1366V28.1282V28.1198V28.1114V28.103V28.0946V28.0862V28.0778V28.0694V28.061V28.0526V28.0441V28.0357V28.0273V28.0189V28.0105V28.0021V27.9937V27.9853V27.9768V27.9684V27.96V27.9516V27.9432V27.9348V27.9263V27.9179V27.9095V27.9011V27.8927V27.8842V27.8758V27.8674V27.859V27.8506V27.8421V27.8337V27.8253V27.8168V27.8084V27.8V27.7916V27.7831V27.7747V27.7663V27.7578V27.7494V27.741V27.7325V27.7241V27.7156V27.7072V27.6988V27.6903V27.6819V27.6735V27.665V27.6566V27.6481V27.6397V27.6312V27.6228V27.6143V27.6059V27.5974V27.589V27.5806V27.5721V27.5636V27.5552V27.5467V27.5383V27.5298V27.5214V27.5129V27.5045V27.496V27.4876V27.4791V27.4706V27.4622V27.4537V27.4452V27.4368V27.4283V27.4199V27.4114V27.4029V27.3945V27.386V27.3775V27.369V27.3606V27.3521V27.3436V27.3352V27.3267V27.3182V27.3097V27.3012V27.2928V27.2843V27.2758V27.2673V27.2589V27.2504V27.2419V27.2334V27.2249V27.2164V27.2079V27.1995V27.191V27.1825V27.174V27.1655V27.157V27.1485V27.14V27.1315V27.123V27.1145V27.106V27.0975V27.089V27.0805V27.072V27.0635V27.055V27.0465V27.038V27.0295V27.0227L33.4556 27.0227L33.4563 27.0224L33.4569 27.022L33.4576 27.0217L33.4582 27.0214L33.4589 27.0211L33.4595 27.0207L33.4602 27.0204L33.4609 27.0201L33.4615 27.0197L33.4622 27.0194L33.4628 27.0191L33.4635 27.0188L33.4641 27.0184L33.4648 27.0181L33.4655 27.0178L33.4661 27.0174L33.4668 27.0171L33.4674 27.0168L33.4681 27.0164L33.4688 27.0161L33.4694 27.0158L33.4701 27.0155L33.4707 27.0151L33.4714 27.0148L33.472 27.0145L33.4727 27.0141L33.4734 27.0138L33.474 27.0135L33.4747 27.0132L33.4753 27.0128L33.476 27.0125L33.4767 27.0122L33.4773 27.0118L33.478 27.0115L33.4786 27.0112L33.4793 27.0109L33.4799 27.0105L33.4806 27.0102L33.4813 27.0099L33.4819 27.0095L33.4826 27.0092L33.4832 27.0089L33.4839 27.0085L33.4846 27.0082L33.4852 27.0079L33.4859 27.0076L33.4865 27.0072L33.4872 27.0069L33.4879 27.0066L33.4885 27.0062L33.4892 27.0059L33.4898 27.0056L33.4905 27.0052L33.4912 27.0049L33.4918 27.0046L33.4925 27.0043L33.4931 27.0039L33.4938 27.0036L33.4945 27.0033L33.4951 27.0029L33.4958 27.0026L33.4964 27.0023L33.4971 27.0019L33.4978 27.0016L33.4984 27.0013L33.4991 27.001L33.4997 27.0006L33.5004 27.0003L33.5011 27L33.5017 26.9996L33.5024 26.9993L33.503 26.999L33.5037 26.9986L33.5044 26.9983L33.505 26.998L33.5057 26.9976L33.5064 26.9973L33.507 26.997L33.5077 26.9967L33.5083 26.9963L33.509 26.996L33.5097 26.9957L33.5103 26.9953L33.511 26.995L33.5116 26.9947L33.5123 26.9943L33.513 26.994L33.5136 26.9937L33.5143 26.9933L33.515 26.993L33.5156 26.9927L33.5163 26.9924L33.5169 26.992L33.5176 26.9917L33.5183 26.9914L33.5189 26.991L33.5196 26.9907L33.5203 26.9904L33.5209 26.99L33.5216 26.9897L33.5222 26.9894L33.5229 26.989L33.5236 26.9887L33.5242 26.9884L33.5249 26.988L33.5256 26.9877L33.5262 26.9874L33.5269 26.9871L33.5275 26.9867L33.5282 26.9864L33.5289 26.9861L33.5295 26.9857L33.5302 26.9854L33.5309 26.9851L33.5315 26.9847L33.5322 26.9844L33.5329 26.9841L33.5335 26.9837L33.5342 26.9834L33.5348 26.9831L33.5355 26.9827L33.5362 26.9824L33.5368 26.9821L33.5375 26.9817L33.5382 26.9814L33.5388 26.9811L33.5395 26.9807L33.5402 26.9804L33.5408 26.9801L33.5415 26.9798L33.5421 26.9794L33.5428 26.9791L33.5435 26.9788L33.5441 26.9784L33.5448 26.9781L33.5455 26.9778L33.5461 26.9774L33.5468 26.9771L33.5475 26.9768L33.5481 26.9764L33.5488 26.9761L33.5495 26.9758L33.5501 26.9754L33.5508 26.9751L33.5515 26.9748L33.5521 26.9744L33.5528 26.9741L33.5535 26.9738L33.5541 26.9734L33.5548 26.9731L33.5555 26.9728L33.5561 26.9724L33.5568 26.9721L33.5575 26.9718L33.5581 26.9714L33.5588 26.9711L33.5595 26.9708L33.5601 26.9704L33.5608 26.9701L33.5615 26.9698L33.5621 26.9694L33.5628 26.9691L33.5635 26.9688L33.5641 26.9684L33.5648 26.9681L33.5655 26.9678L33.5661 26.9674L33.5668 26.9671L33.5675 26.9668L33.5681 26.9664L33.5688 26.9661L33.5695 26.9658L33.5701 26.9654L33.5708 26.9651L33.5715 26.9648L33.5721 26.9644L33.5728 26.9641L33.5735 26.9638L33.5741 26.9634L33.5748 26.9631L33.5755 26.9628L33.5761 26.9624L33.5768 26.9621L33.5775 26.9618L33.5781 26.9614L33.5788 26.9611L33.5795 26.9608L33.5802 26.9604L33.5808 26.9601L33.5815 26.9597L33.5822 26.9594L33.5828 26.9591L33.5835 26.9587L33.5842 26.9584L33.6479 26.9265L33.6956 26.8735C33.8429 26.7093 33.9729 26.547 34.0671 26.3545C34.1639 26.1566 34.2126 25.9485 34.2313 25.7011L34.2333 25.6744L34.2315 25.6476C34.2169 25.4315 34.1837 25.2253 34.1034 25.0253C34.0218 24.8219 33.8995 24.6447 33.7313 24.4743L33.7211 24.4639L33.7102 24.4544C33.3776 24.1657 32.9754 23.9788 32.5503 23.9642C32.1169 23.9493 31.6961 24.1153 31.3485 24.4667L31.3388 24.4765L31.9601 28.0995L31.5852 28.1047L31.5852 28.1051C31.5892 28.4002 31.591 28.6955 31.5927 28.9925L31.5928 28.9947C31.5951 29.1961 31.5976 29.3974 31.6003 29.5988C31.6039 29.8814 31.6068 30.1641 31.6092 30.4468ZM31.6092 30.4468C31.6092 30.447 31.6092 30.4471 31.6092 30.4473L31.6026 30.4438L31.4264 30.7748L31.6095 30.4809C31.6106 30.6119 31.6116 30.7429 31.6125 30.8739" stroke="black" stroke-width="0.75"/>
<path d="M6.14493 19.1295C6.08859 19.1671 6.03207 19.2046 5.9755 19.2421C5.52487 19.5412 5.07067 19.8426 4.67086 20.2068C4.26085 20.668 4.16166 21.2416 4.15857 21.8431M6.14493 19.1295L19.4302 17.6367V17.6342L19.9347 17.6308M6.14493 19.1295C6.32049 19.0123 6.49533 18.8941 6.67008 18.7758C7.79221 18.0188 8.17624 17.7597 8.59614 17.6717C8.81461 17.6259 9.04279 17.6264 9.38969 17.6272L6.14493 19.1295ZM4.15857 21.8431L4.16131 22.0585C4.1612 22.3024 4.16144 22.5462 4.16328 22.79M4.15857 21.8431L4.53354 21.8383L4.53358 21.8417M4.15857 21.8431L4.53356 21.845C4.53357 21.8439 4.53358 21.8428 4.53358 21.8417M4.16328 22.79C4.16464 22.9635 4.16555 23.1371 4.16601 23.3106C4.16666 23.7664 4.16816 24.2222 4.17091 24.678M4.16328 22.79L4.53827 22.7871C4.53644 22.5448 4.5362 22.3023 4.53631 22.0587H4.53635L4.53628 22.0538L4.53358 21.8417M4.16328 22.79L4.53827 22.7872C4.53964 22.9613 4.54055 23.1355 4.54101 23.3096L4.54101 23.3101C4.54166 23.7654 4.54316 24.2206 4.5459 24.6757L14.0552 15.2402M4.17091 24.678C4.17377 25.1499 4.17555 25.6218 4.17686 26.0938C4.1796 27.1101 4.18407 28.1263 4.18992 29.1426M4.17091 24.678L4.5459 24.6757C4.54877 25.1482 4.55055 25.6206 4.55186 26.0927L4.55186 26.0928C4.55426 26.9838 4.55799 27.8748 4.56282 28.7659M4.17091 24.678L23.8946 19.2665M4.18992 29.1426C5.84808 29.1426 5.84808 29.1426 12.0701 26.1236M4.18992 29.1426L4.56491 29.1404C4.56419 29.0156 4.5635 28.8908 4.56282 28.7659M4.18992 29.1426V28.7676C4.32696 28.7676 4.4495 28.7675 4.56282 28.7659M12.0701 26.1236L12.4419 25.9434C13.6138 25.3763 14.7844 24.8063 15.952 24.2304M12.0701 26.1236L11.9064 25.7862L12.2785 25.6059L12.2786 25.6059C13.4499 25.039 14.6196 24.4694 15.7861 23.8941M12.0701 26.1236L11.9064 25.7862C8.78561 27.3005 7.25007 28.0451 6.28441 28.415C5.8089 28.5972 5.48713 28.6821 5.19276 28.7242C4.99111 28.753 4.79658 28.7627 4.56282 28.7659M15.952 24.2304C18.5989 22.9247 21.2555 21.7474 24.0323 20.7431L24.2622 20.6602M15.952 24.2304L15.7861 23.8941M15.952 24.2304L15.7861 23.8941C15.7861 23.8941 15.7861 23.8941 15.7861 23.8941M24.2622 20.6602C24.2639 20.4042 24.2653 20.1482 24.2663 19.8922M24.2622 20.6602L24.135 20.3074L23.9051 20.3903L23.9048 20.3904C23.8995 20.3923 23.8941 20.3943 23.8888 20.3962M24.2622 20.6602L24.0018 20.6584L24.0017 20.6584L23.8872 20.6576C23.8878 20.5705 23.8883 20.4833 23.8888 20.3962M24.2663 19.8922L24.2674 19.5789L24.2696 19.2675M24.2663 19.8922L23.8913 19.8908V19.8907M24.2663 19.8922L23.8913 19.8907M24.2696 19.2675L24.2704 18.9706C24.2727 18.4911 24.1874 18.3155 23.9046 17.9254M24.2696 19.2675L23.8946 19.2665M24.2696 19.2675L23.8946 19.265L23.8946 19.2665M23.9046 17.9254C23.5314 17.6175 23.5314 17.6175 22.4763 17.6177M23.9046 17.9254L23.601 18.1455C23.6106 18.1588 23.6199 18.1717 23.6288 18.1842C23.6405 18.1937 23.6528 18.2038 23.6659 18.2147L23.9046 17.9254ZM22.4763 17.6177L22.2128 17.6203C21.9311 17.6211 21.6495 17.622 21.3678 17.624M22.4763 17.6177L22.4801 17.9927L22.4782 17.9927L22.4763 17.6177ZM21.3678 17.624C21.1722 17.6255 20.9767 17.6266 20.7811 17.6275C20.4989 17.6285 20.2168 17.6295 19.9347 17.6308M21.3678 17.624L21.3706 17.999C21.3706 17.999 21.3706 17.999 21.3705 17.999M21.3678 17.624L21.3705 17.999M19.9347 17.6308L19.9372 18.0058L19.9369 18.0058M19.9347 17.6308L19.9364 18.0058L19.0577 18.0117L18.6802 18.0142V17.6367V17.6312V17.6257V17.6202V17.6146V17.6091V17.6036V17.5981V17.5926V17.5871V17.5815V17.576V17.5705V17.565V17.5595V17.554V17.5485V17.5429V17.5374V17.5319V17.5264V17.5209V17.5154V17.5099V17.5044V17.4989V17.4934V17.4879V17.4824V17.4769V17.4714V17.4659V17.4604V17.4549V17.4494V17.4439V17.4384V17.4329V17.4274V17.4219V17.4164V17.4109V17.4054V17.3999V17.3944V17.3889V17.3834V17.3779V17.3724V17.3669V17.3614V17.3559V17.3504V17.3449V17.3395V17.334V17.3285V17.323V17.3175V17.312V17.3065V17.3011V17.2956V17.2901V17.2846V17.2791V17.2736V17.2682V17.2627V17.2572V17.2517V17.2462V17.2408V17.2353V17.2298V17.2243V17.2188V17.2134V17.2079V17.2024V17.1969V17.1915V17.186V17.1805V17.175V17.1696V17.1641V17.1586V17.1532V17.1477V17.1422V17.1367V17.1313V17.1258V17.1203V17.1149V17.1094V17.1039V17.0985V17.093V17.0876V17.0821V17.0766V17.0712V17.0657V17.0602V17.0548V17.0493V17.0439V17.0384V17.0329V17.0275V17.022V17.0166V17.0111V17.0056V17.0002V16.9947V16.9893V16.9838V16.9784V16.9729V16.9675V16.962V16.9566V16.9511V16.9457V16.9402V16.9348V16.9293V16.9239V16.9184V16.913V16.9075V16.9021V16.8966V16.8912V16.8857V16.8803V16.8748V16.8694V16.8639V16.8585V16.8531V16.8476V16.8422V16.8367V16.8313V16.8258V16.8204V16.815V16.8095V16.8041V16.7986V16.7932V16.7878V16.7823V16.7769V16.7715V16.766V16.7606V16.7551V16.7497V16.7443V16.7388V16.7334V16.728V16.7225V16.7171V16.7117V16.7062V16.7008V16.6954V16.69V16.6845V16.6791V16.6737V16.6682V16.6628V16.6574V16.652V16.6465V16.6411V16.6357V16.6302V16.6248V16.6194V16.614V16.6085V16.6031V16.5977V16.5923V16.5869V16.5814V16.576V16.5706V16.5652V16.5597V16.5543V16.5489V16.5435V16.5381V16.5327V16.5272V16.5218V16.5164V16.511V16.5056V16.5001V16.4947V16.4893V16.4839V16.4785V16.4731V16.4677V16.4622V16.4568V16.4514V16.446V16.4406V16.4352V16.4298V16.4244V16.4189V16.4135V16.4081V16.4027V16.3973V16.3919V16.3865V16.3811V16.3757V16.3703V16.3649V16.3595V16.354V16.3486V16.3432V16.3378V16.3324V16.327V16.3216V16.3162V16.3108V16.3054V16.3V16.2946V16.2892V16.2838V16.2784V16.273V16.2676V16.2622V16.2568V16.2514V16.246V16.2406V16.2352V16.2298V16.2244V16.219V16.2136V16.2082V16.2028V16.1974V16.192V16.1866V16.1812V16.1758V16.1704V16.165V16.1596V16.1542V16.1488V16.1434V16.138V16.1327V16.1273V16.1219V16.1165V16.1111V16.1057V16.1003V16.0949V16.0895V16.0841V16.0787V16.0733V16.068V16.0626V16.0572V16.0518V16.0464V16.041V16.0356V16.0302V16.0248V16.0195V16.0141V16.0087V16.0033V15.9979V15.9925V15.9871V15.9817V15.9764V15.971V15.9656V15.9602V15.9548V15.9494V15.9441V15.9387V15.9333V15.9279V15.9225V15.9171V15.9118V15.9064V15.901V15.8956V15.8902V15.8848V15.8795V15.8741V15.8687V15.8633V15.8579V15.8526V15.8472V15.8418V15.8364V15.831V15.8257V15.8203V15.8149V15.8095V15.8042V15.7988V15.7934V15.788V15.7826V15.7773V15.7719V15.7665V15.7611V15.7558V15.7504V15.745V15.7396V15.7343V15.7289V15.7235V15.7181V15.7128V15.7074V15.702V15.6966V15.6913V15.6859V15.6805V15.6751V15.6698V15.6644V15.659V15.6537V15.6483V15.6429V15.6375V15.6322V15.6268V15.6214V15.6161V15.6107V15.6053V15.5999V15.5946V15.5892V15.5838V15.5785V15.5731V15.5677V15.5623V15.557V15.5516V15.5462V15.5409V15.5355V15.5301V15.5248V15.5194V15.514V15.5087V15.5033V15.4979V15.4926V15.4872V15.4818V15.4765V15.4711V15.4657V15.4604V15.455V15.4496V15.4443V15.4389V15.4335V15.4282V15.4228V15.4174V15.4121V15.4067V15.4013V15.396V15.3906V15.3852V15.3799V15.3745V15.3691V15.3638V15.3584V15.3531V15.3477V15.3423V15.337V15.3316V15.3262V15.3209V15.3155V15.3101V15.3048V15.2994V15.2941V15.2887V15.2833V15.278V15.2726V15.2672V15.2619V15.2565V15.2512V15.2458V15.2404V15.2402M19.9369 18.0058L19.0444 15.2402H19.0337H19.023H19.0123H19.0016H18.9909H18.9802H18.9695H18.9588H18.9481H18.9374H18.9267H18.916H18.9054H18.8947H18.884H18.8733H18.8626H18.8519H18.8412H18.8305H18.8199H18.8092H18.7985H18.7878H18.7772H18.7665H18.7558H18.7451H18.7345H18.7238H18.7131H18.7024H18.6918H18.6811H18.6802M19.9369 18.0058C20.2186 18.0045 20.5004 18.0035 20.7824 18.0025L20.7827 18.0025C20.9786 18.0016 21.1746 18.0005 21.3705 17.999M19.9369 18.0058L22.2165 17.9953L22.2138 17.9953C21.9322 17.9961 21.6513 17.997 21.3705 17.999M18.6802 15.2402H18.6704H18.6598H18.6491H18.6384H18.6278H18.6171H18.6065H18.5958H18.5852H18.5745H18.5638H18.5532H18.5425H18.5319H18.5212H18.5106H18.4999H18.4893H18.4786H18.468H18.4574H18.4467H18.4361H18.4254H18.4148H18.4042H18.3935H18.3829H18.3723H18.3616H18.351H18.3404H18.3297H18.3191H18.3085H18.2978H18.2872H18.2766H18.266H18.2553H18.2447H18.2341H18.2235H18.2129H18.2022H18.1916H18.181H18.1704H18.1598H18.1492H18.1386H18.1279H18.1173H18.1067H18.0961H18.0855H18.0749H18.0643H18.0537H18.0431H18.0325H18.0219H18.0113H18.0007H17.9901H17.9795H17.9689H17.9583H17.9477H17.9371H17.9265H17.9159H17.9054H17.8948H17.8842H17.8736H17.863H17.8524H17.8418H17.8313H17.8207H17.8101H17.7995H17.7889H17.7784H17.7678H17.7572H17.7466H17.7361H17.7255H17.7149H17.7043H17.6938H17.6832H17.6726H17.6621H17.6515H17.6409H17.6304H17.6198H17.6092H17.5987H17.5881H17.5775H17.567H17.5564H17.5459H17.5353H17.5248H17.5142H17.5036H17.4931H17.4825H17.472H17.4614H17.4509H17.4403H17.4298H17.4192H17.4087H17.3982H17.3876H17.3771H17.3665H17.356H17.3454H17.3349H17.3244H17.3138H17.3033H17.2927H17.2822H17.2717H17.2611H17.2506H17.2401H17.2295H17.219H17.2085H17.1979H17.1874H17.1769H17.1664H17.1558H17.1453H17.1348H17.1243H17.1137H17.1032H17.0927H17.0822H17.0716H17.0611H17.0506H17.0401H17.0296H17.0191H17.0085H16.998H16.9875H16.977H16.9665H16.956H16.9455H16.9349H16.9244H16.9139H16.9034H16.8929H16.8824H16.8719H16.8614H16.8509H16.8404H16.8299H16.8194H16.8089H16.7984H16.7879H16.7774H16.7669H16.7564H16.7459H16.7354H16.7249H16.7144H16.7039H16.6934H16.6829H16.6724H16.6619H16.6514H16.641H16.6305H16.62H16.6095H16.599H16.5885H16.578H16.5675H16.5571H16.5466H16.5361H16.5256H16.5151H16.5046H16.4942H16.4837H16.4732H16.4627H16.4522H16.4418H16.4313H16.4208H16.4103H16.3999H16.3894H16.3789H16.3684H16.358H16.3475H16.337H16.3266H16.3161H16.3056H16.2951H16.2847H16.2742H16.2637H16.2533H16.2428H16.2323H16.2219H16.2114H16.2009H16.1905H16.18H16.1696H16.1591H16.1486H16.1382H16.1277H16.1173H16.1068H16.0963H16.0859H16.0754H16.065H16.0545H16.0441H16.0336H16.0232H16.0127H16.0022H15.9918H15.9813H15.9709H15.9604H15.95H15.9395H15.9291H15.9186H15.9082H15.8977H15.8873H15.8768H15.8664H15.856H15.8455H15.8351H15.8246H15.8142H15.8037H15.7933H15.7829H15.7724H15.762H15.7515H15.7411H15.7306H15.7202H15.7098H15.6993H15.6889H15.6785H15.668H15.6576H15.6471H15.6367H15.6263H15.6158H15.6054H15.595H15.5845H15.5741H15.5637H15.5532H15.5428H15.5324H15.5219H15.5115H15.5011H15.4907H15.4802H15.4698H15.4594H15.4489H15.4385H15.4281H15.4177H15.4072H15.3968H15.3864H15.376H15.3655H15.3551H15.3447H15.3343H15.3238H15.3134H15.303H15.2926H15.2821H15.2717H15.2613H15.2509H15.2405H15.23H15.2196H15.2092H15.1988H15.1884H15.1779H15.1675H15.1571H15.1467H15.1363H15.1259H15.1154H15.105H15.0946H15.0842H15.0738H15.0634H15.053H15.0425H15.0321H15.0217H15.0113H15.0009H14.9905H14.9801H14.9697H14.9592H14.9488H14.9384H14.928H14.9176H14.9072H14.8968H14.8864H14.876H14.8656H14.8551H14.8447H14.8343H14.8239H14.8135H14.8031H14.7927H14.7823H14.7719H14.7615H14.7511H14.7407H14.7303H14.7199H14.7095H14.699H14.6886H14.6782H14.6678H14.6574H14.647H14.6366H14.6262H14.6158H14.6054H14.595H14.5846H14.5742H14.5638H14.5534H14.543H14.5326H14.5222H14.5118H14.5014H14.491H14.4806H14.4702H14.4598H14.4494H14.439H14.4286H14.4182H14.4078H14.3974H14.387H14.3766H14.3662H14.3558H14.3454H14.335H14.3246H14.3142H14.3038H14.2934H14.283H14.2726H14.2622H14.2518H14.2414H14.231H14.2206H14.2103H14.1999H14.1895H14.1791H14.1687H14.1583H14.1479H14.1375H14.1271H14.1167H14.1063H14.0959H14.0855H14.0751H14.0647H14.0552M18.6802 15.2402H14.0552M14.0552 15.2402V15.2448V15.2502V15.2557V15.2612V15.2667V15.2722V15.2776V15.2831V15.2886V15.2941V15.2995V15.305V15.3105V15.316V15.3214V15.3269V15.3324V15.3379V15.3433V15.3488V15.3543V15.3597V15.3652V15.3707V15.3761V15.3816V15.3871V15.3925V15.398V15.4035V15.4089V15.4144V15.4199V15.4253V15.4308V15.4363V15.4417V15.4472V15.4526V15.4581V15.4636V15.469V15.4745V15.4799V15.4854V15.4908V15.4963V15.5018V15.5072V15.5127V15.5181V15.5236V15.529V15.5345V15.5399V15.5454V15.5508V15.5563V15.5617V15.5672V15.5726V15.5781V15.5835V15.589V15.5944V15.5999V15.6053V15.6108V15.6162V15.6217V15.6271V15.6326V15.638V15.6435V15.6489V15.6543V15.6598V15.6652V15.6707V15.6761V15.6816V15.687V15.6924V15.6979V15.7033V15.7087V15.7142V15.7196V15.7251V15.7305V15.7359V15.7414V15.7468V15.7522V15.7577V15.7631V15.7685V15.774V15.7794V15.7848V15.7903V15.7957V15.8011V15.8066V15.812V15.8174V15.8229V15.8283V15.8337V15.8391V15.8446V15.85V15.8554V15.8609V15.8663V15.8717V15.8771V15.8826V15.888V15.8934V15.8988V15.9043V15.9097V15.9151V15.9205V15.9259V15.9314V15.9368V15.9422V15.9476V15.953V15.9585V15.9639V15.9693V15.9747V15.9801V15.9856V15.991V15.9964V16.0018V16.0072V16.0126V16.0181V16.0235V16.0289V16.0343V16.0397V16.0451V16.0505V16.0559V16.0614V16.0668V16.0722V16.0776V16.083V16.0884V16.0938V16.0992V16.1046V16.1101V16.1155V16.1209V16.1263V16.1317V16.1371V16.1425V16.1479V16.1533V16.1587V16.1641V16.1695V16.1749V16.1803V16.1857V16.1911V16.1966V16.202V16.2074V16.2128V16.2182V16.2236V16.229V16.2344V16.2398V16.2452V16.2506V16.256V16.2614V16.2668V16.2722V16.2776V16.283V16.2884V16.2938V16.2992V16.3046V16.31V16.3153V16.3207V16.3261V16.3315V16.3369V16.3423V16.3477V16.3531V16.3585V16.3639V16.3693V16.3747V16.3801V16.3855V16.3909V16.3963V16.4017V16.407V16.4124V16.4178V16.4232V16.4286V16.434V16.4394V16.4448V16.4502V16.4556V16.4609V16.4663V16.4717V16.4771V16.4825V16.4879V16.4933V16.4987V16.504V16.5094V16.5148V16.5202V16.5256V16.531V16.5364V16.5417V16.5471V16.5525V16.5579V16.5633V16.5687V16.574V16.5794V16.5848V16.5902V16.5956V16.601V16.6063V16.6117V16.6171V16.6225V16.6279V16.6332V16.6386V16.644V16.6494V16.6548V16.6601V16.6655V16.6709V16.6763V16.6817V16.687V16.6924V16.6978V16.7032V16.7086V16.7139V16.7193V16.7247V16.7301V16.7354V16.7408V16.7462V16.7516V16.7569V16.7623V16.7677V16.7731V16.7784V16.7838V16.7892V16.7946V16.7999V16.8053V16.8107V16.8161V16.8214V16.8268V16.8322V16.8376V16.8429V16.8483V16.8537V16.859V16.8644V16.8698V16.8752V16.8805V16.8859V16.8913V16.8966V16.902V16.9074V16.9128V16.9181V16.9235V16.9289V16.9342V16.9396V16.945V16.9503V16.9557V16.9611V16.9664V16.9718V16.9772V16.9826V16.9879V16.9933V16.9987V17.004V17.0094V17.0148V17.0201V17.0255V17.0309V17.0362V17.0416V17.047V17.0523V17.0577V17.0631V17.0684V17.0738V17.0792V17.0845V17.0899V17.0953V17.1006V17.106V17.1113V17.1167V17.1221V17.1274V17.1328V17.1382V17.1435V17.1489V17.1543V17.1596V17.165V17.1704V17.1757V17.1811V17.1864V17.1918V17.1972V17.2025V17.2079V17.2133V17.2186V17.224V17.2293V17.2347V17.2401V17.2454V17.2508V17.2562V17.2615V17.2669V17.2722V17.2776V17.283V17.2883V17.2937V17.2991V17.3044V17.3098V17.3151V17.3205V17.3259V17.3312V17.3366V17.3419V17.3473V17.3527V17.358V17.3634V17.3687V17.3741V17.3795V17.3848V17.3902V17.3955V17.4009V17.4063V17.4116V17.417V17.4223V17.4277V17.4331V17.4384V17.4438V17.4491V17.4545V17.4599V17.4652V17.4706V17.4759V17.4813V17.4867V17.492V17.4974V17.5027V17.5081V17.5135V17.5188V17.5242V17.5295V17.5349V17.5403V17.5456V17.551V17.5563V17.5617V17.5671V17.5724V17.5778V17.5831V17.5885V17.5938V17.5992V17.6046V17.6099V17.6153V17.6206V17.626V17.6314V17.6367V18.0128L13.6791 18.0117L13.5967 18.0115C13.0651 18.01 12.5338 18.0084 12.0025 18.0076C12.0025 18.0076 12.0025 18.0076 12.0025 18.0076L11.9483 18.0075C11.681 18.0071 11.4133 18.0068 11.1456 18.006L11.1455 18.0059C10.8665 18.005 10.5877 18.0043 10.3088 18.0039C10.3088 18.0039 10.3088 18.0039 10.3087 18.0039L9.98901 18.0035L9.98784 18.0035L9.67998 18.0022L9.67841 18.0022L9.38966 18.0022H9.38886C8.87299 18.001 8.69484 18.005 8.43541 18.1145C8.13822 18.24 7.75066 18.4992 6.88013 19.0864C6.70536 19.2048 6.52971 19.3235 6.35311 19.4414L6.35305 19.4414C6.2961 19.4794 6.23949 19.517 6.18325 19.5544C5.73566 19.8516 5.31204 20.1329 4.93858 20.4702C4.62951 20.8271 4.53681 21.2827 4.53358 21.8417M23.8946 19.2665L23.8924 19.5763L23.8924 19.5775L23.8913 19.8907M23.8913 19.8907C23.8906 20.0592 23.8898 20.2277 23.8888 20.3962M23.8888 20.3962C21.1016 21.4051 18.437 22.5864 15.7861 23.8941M9.98943 17.6285L10.3093 17.6289L9.98943 17.6285Z" fill="black" stroke="black" stroke-width="0.75"/>
<path d="M12.4834 3.08637C12.8733 3.47623 13.1785 3.89907 13.2603 4.45112C13.307 4.45328 13.3538 4.45545 13.402 4.45768C14.0401 4.50511 14.5275 4.66837 14.9662 5.14924C15.4346 5.75415 15.5007 6.30688 15.4439 7.05463C15.4161 7.13778 15.3884 7.22092 15.3599 7.30659C15.469 7.31438 15.469 7.31438 15.5803 7.32233C15.9873 7.42031 16.2407 7.60996 16.4612 7.95812C16.6462 8.3607 16.6355 8.69956 16.5304 9.1257C16.4003 9.45048 16.2206 9.60894 15.9478 9.82612C15.4625 9.98787 14.9524 9.98881 14.4833 9.78412C14.1492 9.45823 13.9941 9.08812 13.8482 8.65034C13.7851 8.65521 13.7221 8.66008 13.6572 8.6651C12.9999 8.69407 12.5511 8.59304 12.0005 8.23041C11.934 8.1687 11.8676 8.107 11.7991 8.04342C11.5901 7.86923 11.5901 7.86923 11.3303 7.90432C11.2414 7.92532 11.1525 7.94632 11.0609 7.96796C10.2914 8.11284 9.727 7.99096 9.05809 7.58774C8.83033 7.43152 8.65293 7.26437 8.47315 7.05463C8.41891 6.99439 8.41891 6.99439 8.36358 6.93292C7.91526 6.38512 7.76603 5.68388 7.80653 4.98652C7.905 4.2595 8.1654 3.59756 8.72511 3.10737C9.95637 2.19913 11.2201 2.28243 12.4834 3.08637Z" fill="#0038FF"/>
<path d="M15.3919 11.1673L15.3919 11.1673L15.3976 11.1673L15.6221 11.1669C15.6222 11.1669 15.6224 11.1669 15.6225 11.1669C15.7775 11.1671 15.9326 11.168 16.0876 11.1698L16.088 11.1698C16.3292 11.1722 16.5697 11.1715 16.808 11.1704C16.9598 11.171 17.1116 11.1717 17.2634 11.1726L17.2634 11.1726L17.2669 11.1726L17.478 11.1718C17.8914 11.1787 18.1491 11.2398 18.4158 11.4679C18.6514 11.7742 18.7167 12.0285 18.7283 12.3331C18.7347 12.5026 18.7243 12.6859 18.7103 12.9141L18.7091 12.9332C18.7019 13.0508 18.6941 13.1778 18.6884 13.3144H18.681H18.6706H18.6602H18.6498H18.6394H18.629H18.6186H18.6082H18.5978H18.5875H18.5771H18.5667H18.5563H18.5459H18.5355H18.5251H18.5147H18.5043H18.4939H18.4835H18.4731H18.4627H18.4523H18.4419H18.4315H18.4211H18.4107H18.4003H18.3899H18.3795H18.3691H18.3587H18.3483H18.3379H18.3275H18.3171H18.3067H18.2963H18.2859H18.2755H18.2651H18.2547H18.2443H18.2339H18.2235H18.2131H18.2027H18.1923H18.1819H18.1715H18.1611H18.1507H18.1403H18.1299H18.1195H18.1091H18.0987H18.0883H18.0779H18.0675H18.0571H18.0467H18.0363H18.0259H18.0155H18.0051H17.9947H17.9843H17.9738H17.9634H17.953H17.9426H17.9322H17.9218H17.9114H17.901H17.8906H17.8802H17.8698H17.8594H17.849H17.8385H17.8281H17.8177H17.8073H17.7969H17.7865H17.7761H17.7657H17.7553H17.7448H17.7344H17.724H17.7136H17.7032H17.6928H17.6824H17.672H17.6615H17.6511H17.6407H17.6303H17.6199H17.6095H17.599H17.5886H17.5782H17.5678H17.5574H17.547H17.5365H17.5261H17.5157H17.5053H17.4949H17.4844H17.474H17.4636H17.4532H17.4428H17.4323H17.4219H17.4115H17.4011H17.3906H17.3802H17.3698H17.3594H17.3489H17.3385H17.3281H17.3177H17.3072H17.2968H17.2864H17.276H17.2655H17.2551H17.2447H17.2342H17.2238H17.2134H17.203H17.1925H17.1821H17.1717H17.1612H17.1508H17.1404H17.1299H17.1195H17.1091H17.0986H17.0882H17.0777H17.0673H17.0569H17.0464H17.036H17.0256H17.0151H17.0047H16.9942H16.9838H16.9734H16.9629H16.9525H16.942H16.9316H16.9211H16.9107H16.9003H16.8898H16.8794H16.8689H16.8585H16.848H16.8376H16.8271H16.8167H16.8062H16.7958H16.7853H16.7749H16.7644H16.754H16.7435H16.7331H16.7226H16.7122H16.7017H16.6913H16.6808H16.6704H16.6599H16.6494H16.639H16.6285H16.6181H16.6076H16.5971H16.5867H16.5762H16.5658H16.5553H16.5448H16.5344H16.5239H16.5135H16.503H16.4925H16.4821H16.4716H16.4611H16.4507H16.4402H16.4297H16.4192H16.4088H16.3983H16.3878H16.3774H16.3669H16.3564H16.3459H16.3355H16.325H16.3145H16.304H16.2936H16.2831H16.2726H16.2621H16.2516H16.2412H16.2307H16.2202H16.2097H16.1992H16.1888H16.1783H16.1678H16.1573H16.1468H16.1363H16.1258H16.1154H16.1049H16.0944H16.0839H16.0734H16.0629H16.0524H16.0419H16.0314H16.0209H16.0104H15.9999H15.9894H15.9789H15.9684H15.9579H15.9474H15.9369H15.9264H15.9159H15.9054H15.8949H15.8844H15.8739H15.8634H15.8529H15.8424H15.8319H15.8214H15.8109H15.8004H15.7899H15.7794H15.7688H15.7583H15.7478H15.7373H15.7268H15.7163H15.7058H15.6952H15.6847H15.6742H15.6637H15.6532H15.6426H15.6321H15.6216H15.6111H15.6005H15.59H15.5795H15.569H15.5584H15.5479H15.5374H15.5269H15.5163H15.5058H15.4953H15.4847H15.4742H15.4637H15.4531H15.4426H15.432H15.4215H15.411H15.4004H15.3899H15.3794H15.3688H15.3583H15.3477H15.3372H15.3266H15.3161H15.3055H15.295H15.2844H15.2739H15.2633H15.2528H15.2422H15.2317H15.2211H15.2106H15.2H15.1895H15.1789H15.1683H15.1578H15.1472H15.1367H15.1261H15.1155H15.105H15.0944H15.0838H15.0733H15.0627H15.0521H15.0416H15.031H15.0204H15.0098H14.9993H14.9887H14.9781H14.9675H14.957H14.9464H14.9358H14.9252H14.9147H14.9041H14.8935H14.8829H14.8723H14.8617H14.8511H14.8406H14.83H14.8194H14.8088H14.7982H14.7876H14.777H14.7664H14.7558H14.7452H14.7346H14.724H14.7134H14.7028H14.6922H14.6816H14.671H14.6604H14.6498H14.6392H14.6286H14.618H14.6074H14.5968H14.5862H14.5755H14.5649H14.5543H14.5437H14.5331H14.5225H14.5118H14.5012H14.4906H14.48H14.4694H14.4587H14.4481H14.4375H14.4269H14.4162H14.4056H14.395H14.3843H14.3737H14.3631H14.3524H14.3418H14.3312H14.3205H14.3099H14.2992H14.2886H14.278H14.2673H14.2567H14.246H14.2354H14.2247H14.2141H14.2034H14.1928H14.1821H14.1715H14.1608H14.1502H14.1395H14.1289H14.1182H14.1075H14.0969H14.0862H14.0756H14.0649H14.0553C14.0561 12.5877 14.0613 12.2198 14.0939 11.9753C14.1229 11.7576 14.1683 11.6613 14.3025 11.4248C14.4676 11.3082 14.6092 11.2475 14.7537 11.2131C14.924 11.1725 15.116 11.1636 15.3919 11.1673Z" fill="black" stroke="black" stroke-width="0.75"/>
</g>
<defs>
<filter id="filter0_i_157_4772" x="0.287354" y="18.4625" width="43.0656" height="26.11" filterUnits="userSpaceOnUse" color-interpolation-filters="sRGB">
<feFlood flood-opacity="0" result="BackgroundImageFix"/>
<feBlend mode="normal" in="SourceGraphic" in2="BackgroundImageFix" result="shape"/>
<feColorMatrix in="SourceAlpha" type="matrix" values="0 0 0 0 0 0 0 0 0 0 0 0 0 0 0 0 0 0 127 0" result="hardAlpha"/>
<feOffset dy="4"/>
<feGaussianBlur stdDeviation="2"/>
<feComposite in2="hardAlpha" operator="arithmetic" k2="-1" k3="1"/>
<feColorMatrix type="matrix" values="0 0 0 0 0 0 0 0 0 0 0 0 0 0 0 0 0 0 0.29 0"/>
<feBlend mode="normal" in2="shape" result="effect1_innerShadow_157_4772"/>
</filter>
<clipPath id="clip0_157_4772">
<rect width="43" height="43" fill="white" transform="translate(0.32666)"/>
</clipPath>
</defs>
</svg>
