<svg width="53" height="52" viewBox="0 0 53 52" fill="none" xmlns="http://www.w3.org/2000/svg">
<g clip-path="url(#clip0_157_4766)">
<path d="M15.4595 8.63281C16.1968 8.63281 16.9342 8.63281 17.6938 8.63281C17.6938 10.074 17.6938 11.5152 17.6938 13C19.135 13 20.5762 13 22.061 13C22.061 14.4077 22.061 15.8153 22.061 17.2656C29.5685 17.2656 37.076 17.2656 44.811 17.2656C44.6634 17.6347 44.5445 17.8944 44.3322 18.2155C44.2769 18.2997 44.2215 18.3839 44.1645 18.4706C44.1046 18.5606 44.0448 18.6507 43.9831 18.7434C43.9206 18.8381 43.8582 18.9327 43.7939 19.0302C43.6613 19.2308 43.5285 19.4313 43.3956 19.6317C43.1959 19.9327 42.9968 20.2342 42.7978 20.5357C42.5415 20.924 42.2834 21.311 42.0241 21.6973C41.7921 22.0437 41.5677 22.3931 41.3499 22.7486C41.3015 22.8252 41.2531 22.9017 41.2032 22.9807C41.1146 23.121 41.0283 23.263 40.9451 23.4067C40.8253 23.5927 40.8253 23.5927 40.5454 23.8672C39.5648 24.0558 38.4502 23.6395 37.6255 23.1372C37.0648 22.754 36.5667 22.3047 36.0767 21.8359C36.0096 21.9051 35.9426 21.9742 35.8735 22.0454C35.7722 22.1451 35.6706 22.2445 35.5688 22.3437C35.5133 22.4 35.4578 22.4563 35.4006 22.5143C34.271 23.5913 32.8476 23.9346 31.3365 23.8989C29.7782 23.8165 28.6336 22.9794 27.5454 21.9375C27.2143 22.0824 27.0013 22.2619 26.7456 22.5151C25.5897 23.5641 24.2244 23.9356 22.7029 23.8985C21.2852 23.8233 20.004 23.1148 19.0475 22.0902C19.003 22.0398 18.9585 21.9894 18.9126 21.9375C18.603 22.0766 18.3842 22.2383 18.1382 22.4707C16.8838 23.5877 15.5006 23.9602 13.8451 23.8849C12.289 23.7557 11.1645 22.8766 10.0767 21.8359C10.0075 21.9072 9.93841 21.9784 9.86719 22.0518C9.76811 22.1495 9.66863 22.2468 9.56885 22.3437C9.51962 22.3926 9.4704 22.4414 9.41968 22.4917C8.6679 23.1901 7.65079 23.6939 6.62564 23.7957C6.31885 23.7656 6.31885 23.7656 6.13405 23.6007C6.05173 23.4757 6.05173 23.4757 5.96774 23.3483C5.89893 23.2461 5.83011 23.1439 5.75921 23.0386C5.70047 22.9479 5.70047 22.9479 5.64053 22.8554C5.48693 22.6185 5.33042 22.3836 5.17374 22.1488C4.78466 21.5638 4.39952 20.9764 4.01465 20.3887C3.81535 20.0847 3.61598 19.7807 3.41644 19.4769C3.29307 19.289 3.16984 19.101 3.04679 18.9129C2.79369 18.5272 2.5387 18.1458 2.26555 17.7739C2.05322 17.4687 2.05322 17.4687 2.05322 17.2656C5.03611 17.2656 8.019 17.2656 11.0923 17.2656C11.0923 15.858 11.0923 14.4503 11.0923 13C12.5335 13 13.9746 13 15.4595 13C15.4595 11.5588 15.4595 10.1177 15.4595 8.63281Z" fill="black"/>
<path d="M51.457 0.203076C51.9712 0.589474 52.2724 0.99274 52.3786 1.63408C52.4147 2.32043 52.321 2.79551 51.9299 3.36143C51.3785 3.86243 50.5904 4.09163 49.8999 4.34254C49.8046 4.37759 49.7094 4.41264 49.6112 4.44875C49.3041 4.56165 48.9968 4.67388 48.6895 4.78608C48.4784 4.86346 48.2674 4.94088 48.0563 5.01834C47.7418 5.1338 47.4272 5.24921 47.1126 5.36443C46.5162 5.58292 45.9206 5.80328 45.326 6.02665C45.2608 6.05108 45.1957 6.0755 45.1285 6.10066C44.8373 6.2098 44.5463 6.31932 44.2555 6.42958C44.1567 6.46655 44.0579 6.50352 43.9561 6.54161C43.8308 6.58895 43.8308 6.58895 43.7029 6.63724C43.4907 6.70308 43.4907 6.70308 43.186 6.70308C43.1592 6.76114 43.1323 6.8192 43.1046 6.87903C42.976 7.12238 42.8292 7.32628 42.6612 7.54414C42.5963 7.62865 42.5315 7.71316 42.4646 7.80023C42.3948 7.89063 42.3249 7.98103 42.2529 8.07417C42.1051 8.26666 41.9574 8.45921 41.8098 8.65181C41.7346 8.74987 41.6593 8.84793 41.5818 8.94896C41.2375 9.39984 40.8977 9.85408 40.5581 10.3085C40.0671 10.965 39.5755 11.6204 39.0668 12.2632C38.8742 12.5118 38.7043 12.7697 38.536 13.0353C37.8147 14.1395 37.8147 14.1395 37.4073 14.2899C36.9878 14.3559 36.5903 14.3065 36.1782 14.2187C36.3165 13.5406 36.5048 12.8986 36.7309 12.245C36.7642 12.1476 36.7974 12.0502 36.8317 11.9498C36.9016 11.7456 36.9717 11.5416 37.042 11.3376C37.1499 11.0244 37.2571 10.711 37.3642 10.3976C37.4324 10.1988 37.5005 9.99994 37.5688 9.80113C37.6009 9.7073 37.6331 9.61347 37.6662 9.51679C37.6961 9.43029 37.7259 9.34379 37.7566 9.25466C37.7829 9.17848 37.8091 9.1023 37.8361 9.02382C37.9048 8.83589 37.9048 8.83589 38.0063 8.63276C37.849 8.6955 37.849 8.6955 37.6886 8.75949C36.5175 9.22275 35.3351 9.64715 34.1447 10.0581C33.7426 10.197 33.3408 10.3366 32.939 10.4763C32.7429 10.5441 32.5466 10.6113 32.35 10.6779C31.89 10.8339 31.4343 10.9949 30.9828 11.1741C29.8467 11.6145 29.8467 11.6145 29.4071 11.5194C29.1763 11.377 29.0203 11.2283 28.8403 11.0258C28.7067 10.8978 28.5728 10.7699 28.4388 10.6422C28.3421 10.5442 28.3421 10.5442 28.2435 10.4443C27.9627 10.169 27.6556 9.93574 27.3423 9.69917C26.7594 9.24571 26.1863 8.78064 25.6144 8.31342C25.0964 7.89107 24.5726 7.47672 24.0431 7.06886C23.7338 6.82869 23.4482 6.58061 23.1782 6.29683C23.4871 6.1338 23.796 5.97091 24.105 5.80806C24.1919 5.76217 24.2788 5.71628 24.3684 5.669C24.5383 5.57948 24.7085 5.49058 24.8791 5.40235C25.0685 5.30208 25.2535 5.19365 25.4372 5.08323C25.7173 4.97651 25.7173 4.97651 25.9962 5.02015C26.4686 5.24813 26.906 5.52096 27.3486 5.80171C27.4435 5.86049 27.5383 5.91928 27.636 5.97984C28.0492 6.23655 28.4583 6.4946 28.8534 6.77846C28.9622 6.85413 29.071 6.9298 29.1831 7.00776C29.2734 7.0748 29.3638 7.14183 29.4568 7.21089C30.2494 7.46015 31.3057 6.87025 32.0546 6.58525C32.16 6.54558 32.2655 6.50592 32.3741 6.46505C32.7071 6.33963 33.0398 6.2135 33.3726 6.08735C33.598 6.00234 33.8235 5.91738 34.049 5.83246C34.4609 5.67713 34.8728 5.52168 35.2845 5.36568C35.3666 5.33457 35.4488 5.30347 35.5333 5.27142C35.7831 5.17536 36.0316 5.07642 36.2798 4.97651C36.2057 4.96828 36.1316 4.96005 36.0553 4.95157C35.4142 4.88033 35.4142 4.88033 34.773 4.80909C34.6335 4.79359 34.494 4.7781 34.3545 4.7626C33.9149 4.71375 33.4753 4.66491 33.0357 4.61606C32.9652 4.60822 32.8946 4.60038 32.8219 4.59231C32.6094 4.56869 32.3968 4.54507 32.1842 4.52145C32.1142 4.51367 32.0441 4.50588 31.9719 4.49786C31.7605 4.47437 31.549 4.45087 31.3375 4.42738C31.268 4.41965 31.1984 4.41192 31.1268 4.40396C31.0228 4.3924 31.0228 4.3924 30.9166 4.38061C30.8476 4.37294 30.7786 4.36527 30.7075 4.35737C30.4321 4.32677 30.1567 4.29617 29.8813 4.26558C29.8127 4.25795 29.744 4.25032 29.6733 4.24246C28.8286 4.1486 27.9839 4.05475 27.1392 3.96089C27.1392 3.89386 27.1392 3.82683 27.1392 3.75776C28.9163 2.63353 30.3827 2.37376 32.4587 2.4451C32.8236 2.45581 33.1886 2.45791 33.5537 2.46068C34.6343 2.47038 35.7145 2.49274 36.7949 2.5181C37.8556 2.54288 38.9162 2.5614 39.9773 2.56559C40.0506 2.56594 40.1238 2.56628 40.1993 2.56664C42.6577 2.57426 44.7538 2.20887 46.9682 1.10044C47.5444 0.813283 48.1457 0.591498 48.7466 0.361768C48.8421 0.323013 48.9376 0.284258 49.0361 0.244328C49.8043 -0.0665421 50.7011 -0.203284 51.457 0.203076Z" fill="#0038FF"/>
<path d="M1.34229 23.7656C1.53906 23.8481 1.53906 23.8481 1.74854 23.9688C1.78205 24.0693 1.81557 24.1698 1.8501 24.2734C1.98326 24.3455 2.11912 24.4126 2.25635 24.4766C2.39361 24.5864 2.52891 24.6988 2.6626 24.813C3.66547 25.5983 4.8823 25.9417 6.15182 25.8826C7.78573 25.6796 8.97641 24.8339 10.1782 23.7656C10.2324 23.8245 10.2866 23.8835 10.3425 23.9442C10.8831 24.511 11.4142 24.9273 12.1079 25.2891C12.1785 25.3287 12.249 25.3684 12.3217 25.4093C13.5167 26.0213 14.8737 25.9767 16.1343 25.6191C17.0912 25.2816 17.895 24.6356 18.5734 23.8926C18.7095 23.7656 18.7095 23.7656 18.9126 23.7656C18.9964 23.8683 19.0802 23.9709 19.1665 24.0767C20.0805 25.1695 21.4313 25.7235 22.8216 25.8826C24.4871 25.9567 25.8257 25.2442 27.0376 24.1719C27.2214 23.9525 27.2214 23.9525 27.3423 23.7656C27.5391 23.8481 27.5391 23.8481 27.7485 23.9688C27.782 24.0693 27.8156 24.1698 27.8501 24.2734C27.9833 24.3455 28.1191 24.4126 28.2563 24.4766C28.3936 24.5864 28.5289 24.6988 28.6626 24.813C29.6655 25.5983 30.8823 25.9417 32.1518 25.8826C33.7857 25.6796 34.9764 24.8339 36.1782 23.7656C36.2324 23.8245 36.2866 23.8835 36.3425 23.9442C36.8831 24.511 37.4142 24.9273 38.1079 25.2891C38.1785 25.3287 38.249 25.3684 38.3217 25.4093C39.5167 26.0213 40.8737 25.9767 42.1343 25.6191C43.0941 25.2806 43.8954 24.6299 44.5833 23.8926C44.6458 23.8297 44.6458 23.8297 44.7095 23.7656C44.743 23.7656 44.7765 23.7656 44.811 23.7656C44.8229 24.1443 44.8301 24.523 44.8364 24.9019C44.8398 25.009 44.8432 25.1162 44.8467 25.2266C44.8568 26.0205 44.8568 26.0205 44.6416 26.4019C43.2939 27.5825 41.9626 28.2989 40.1463 28.2594C38.7525 28.1477 37.5884 27.5681 36.5904 26.6046C36.377 26.3909 36.377 26.3909 36.0767 26.2031C36.031 26.2535 35.9853 26.3039 35.9382 26.3559C34.8025 27.5553 33.4499 28.2027 31.7983 28.2598C30.0154 28.233 28.6716 27.426 27.4438 26.2031C27.4055 26.2462 27.3671 26.2893 27.3276 26.3336C26.2228 27.5109 24.7589 28.2123 23.1465 28.2661C21.3422 28.2229 20.0474 27.4351 18.811 26.2031C18.7126 26.289 18.6141 26.3749 18.5127 26.4634C18.3754 26.58 18.2379 26.6964 18.1001 26.8125C17.9954 26.902 17.9954 26.902 17.8886 26.9934C16.6988 27.971 15.3638 28.357 13.8345 28.2344C12.555 28.0366 11.5179 27.5001 10.5904 26.6046C10.377 26.3909 10.377 26.3909 10.0767 26.2031C10.031 26.2535 9.98528 26.3039 9.9382 26.3559C8.88314 27.4701 7.6013 28.1316 6.06137 28.255C4.38638 28.2861 2.98018 27.6862 1.77036 26.5352C1.49915 26.2573 1.2412 25.9714 0.990784 25.6747C0.781749 25.4306 0.557249 25.208 0.32666 24.9844C0.485229 24.5562 0.792519 24.352 1.13916 24.0703C1.20619 23.9698 1.27322 23.8692 1.34229 23.7656Z" fill="#0038FF"/>
</g>
<defs>
<clipPath id="clip0_157_4766">
<rect width="52" height="52" fill="white" transform="translate(0.32666)"/>
</clipPath>
</defs>
</svg>
