<svg width="51" height="50" viewBox="0 0 51 50" fill="none" xmlns="http://www.w3.org/2000/svg">
<g clip-path="url(#clip0_157_4761)">
<mask id="path-1-inside-1_157_4761" fill="white">
<path d="M36.7829 13.8733C37.0366 14.1646 37.05 14.4658 37.0454 14.8438C36.9965 15.0696 36.9965 15.0696 36.8501 15.2344C36.5362 15.3884 36.2208 15.508 35.8918 15.625C35.6465 15.7145 35.6465 15.7145 35.4829 16.0157C35.4509 16.2543 35.4509 16.2543 35.4517 16.524C35.4498 16.6276 35.4479 16.7312 35.4459 16.838C35.4447 16.9497 35.4436 17.0614 35.4424 17.1765C35.4405 17.2909 35.4387 17.4054 35.4367 17.5233C35.4309 17.8895 35.4263 18.2557 35.4218 18.6219C35.4181 18.8699 35.4143 19.1179 35.4104 19.3659C35.401 19.9744 35.3927 20.5829 35.3852 21.1914C35.4526 21.1903 35.5201 21.1892 35.5896 21.1881C35.6778 21.1872 35.7661 21.1864 35.857 21.1855C35.9446 21.1844 36.0321 21.1833 36.1224 21.1822C36.4559 21.1951 36.5989 21.2627 36.8501 21.4844C37.084 21.7488 37.2973 22.0262 37.5092 22.3084C37.5649 22.3811 37.6205 22.4538 37.6778 22.5287C37.7345 22.6029 37.7911 22.6771 37.8495 22.7536C37.9064 22.8263 37.9632 22.899 38.0218 22.9739C38.2172 23.2422 38.2172 23.2422 38.3861 23.542C38.6796 24.024 38.8992 24.3573 39.4565 24.518C39.8984 24.5674 40.3387 24.5509 40.7822 24.5362C40.9465 24.5352 41.1108 24.5348 41.2751 24.5349C41.7063 24.534 42.1372 24.5264 42.5683 24.5171C43.2565 24.5032 43.9448 24.4992 44.6332 24.4957C44.8715 24.4935 45.1096 24.4883 45.3479 24.4827C46.658 24.4606 47.7826 24.6474 48.7641 25.586C48.8324 25.6503 48.9006 25.7146 48.9709 25.7809C50.0792 26.9206 50.3681 28.3179 50.3621 29.8471C50.3359 31.2451 49.8453 32.4791 48.9045 33.5266C47.8316 34.5283 46.6147 34.6811 45.2167 34.6883C45.0348 34.6898 45.0348 34.6897 44.8491 34.6912C44.5135 34.6938 44.1778 34.696 43.8421 34.6979C43.5538 34.6997 43.2654 34.7018 42.9771 34.7039C40.2272 34.7236 37.4773 34.7336 34.7274 34.7418C34.3684 34.7429 34.0094 34.744 33.6504 34.7451C33.5612 34.7454 33.4719 34.7457 33.38 34.7459C31.945 34.7505 30.51 34.7599 29.075 34.7712C27.5944 34.7828 26.1139 34.7893 24.6333 34.7914C23.805 34.7927 22.9769 34.7961 22.1486 34.8052C18.549 34.8435 15.281 34.7411 11.8322 33.5557C11.0998 33.3058 10.3515 33.1096 9.60397 32.9102C9.60279 33.0093 9.60161 33.1084 9.6004 33.2106C9.59654 33.5206 9.5906 33.8305 9.5837 34.1404C9.58095 34.2798 9.57888 34.4193 9.5775 34.5587C9.57541 34.7595 9.57085 34.9601 9.56582 35.1609C9.56378 35.2815 9.56173 35.4022 9.55962 35.5266C9.49712 35.8939 9.40913 36.0082 9.11569 36.2305C8.74955 36.3525 8.40588 36.3459 8.0243 36.348C7.94591 36.3485 7.86751 36.3491 7.78674 36.3497C7.62084 36.3506 7.45494 36.3512 7.28904 36.3516C7.03634 36.3526 6.78372 36.3556 6.53104 36.3587C6.36961 36.3593 6.20819 36.3598 6.04676 36.3602C5.97167 36.3614 5.89657 36.3626 5.81921 36.3638C5.35462 36.3619 5.00418 36.3283 4.6235 36.0352C4.33513 35.4805 4.25384 34.8267 4.15238 34.216C4.13763 34.1305 4.12287 34.045 4.10766 33.957C4.06127 33.6875 4.01583 33.4179 3.97042 33.1482C3.93889 32.964 3.90729 32.7798 3.87563 32.5957C3.79868 32.1472 3.72257 31.6987 3.64694 31.25C2.8735 31.0083 2.8735 31.0083 2.08444 30.7617C2.07537 30.9642 2.07537 30.9642 2.06613 31.1707C2.02613 31.5229 1.98745 31.6397 1.77316 31.9397C1.44502 32.1658 1.30303 32.194 0.912562 32.1289C0.460184 31.9078 0.460184 31.9078 0.326624 31.6407C0.315518 31.5107 0.310098 31.3802 0.307789 31.2497C0.306221 31.1692 0.304652 31.0887 0.303036 31.0057C0.298692 30.6373 0.294685 30.2688 0.292435 29.9004C0.290818 29.7061 0.288153 29.5118 0.284424 29.3176C0.279073 29.0374 0.276939 28.7573 0.275507 28.4771C0.273294 28.3905 0.27108 28.304 0.268799 28.2147C0.270281 27.7809 0.283399 27.5963 0.552597 27.2401C0.814905 27.0508 0.814906 27.0508 1.1567 26.9898C1.5956 27.0681 1.7252 27.1804 1.98678 27.5391C2.07958 27.8006 2.13092 28.0459 2.18209 28.3203C2.90719 28.127 2.90719 28.127 3.64694 27.9297C3.66907 27.7991 3.6912 27.6686 3.714 27.5341C3.79653 27.0489 3.88038 26.5639 3.96463 26.079C4.00088 25.8692 4.03678 25.6594 4.0723 25.4496C4.12348 25.1476 4.17595 24.8459 4.22868 24.5442C4.24425 24.4506 4.25983 24.357 4.27588 24.2605C4.4543 23.2559 4.4543 23.2559 4.88273 22.9204C5.23331 22.8151 5.58187 22.8238 5.94453 22.8257C6.02519 22.8255 6.10584 22.8253 6.18895 22.8251C6.35927 22.825 6.52959 22.8253 6.69991 22.8261C6.95988 22.8272 7.21979 22.8261 7.47975 22.8249C7.6455 22.825 7.81125 22.8253 7.977 22.8257C8.05443 22.8253 8.13185 22.8249 8.21162 22.8245C8.61714 22.8279 8.94847 22.8432 9.311 23.0469C9.54749 23.4016 9.53604 23.5865 9.54675 24.0094C9.54864 24.074 9.55053 24.1386 9.55248 24.2051C9.55831 24.4111 9.56284 24.617 9.56735 24.823C9.57108 24.9628 9.57489 25.1026 9.57879 25.2425C9.58816 25.5848 9.59637 25.9272 9.60397 26.2696C9.66549 26.2478 9.72702 26.2259 9.7904 26.2035C10.6116 25.9158 11.439 25.6505 12.2712 25.3968C12.3399 25.3757 12.4085 25.3546 12.4793 25.333C14.3624 24.7603 16.1573 24.437 18.1298 24.4351C18.2209 24.4349 18.312 24.4347 18.4058 24.4346C19.3101 24.4354 20.2123 24.4557 21.1154 24.5014C22.9529 24.6884 22.9529 24.6884 24.5755 24.0435C24.8889 23.6856 25.115 23.3047 25.3163 22.8751C25.4794 22.5444 25.6943 22.2708 25.9187 21.9788C25.9822 21.8893 26.0458 21.7998 26.1113 21.7076C26.4313 21.3354 26.675 21.2017 27.1696 21.1582C27.3158 21.1582 27.462 21.1599 27.6082 21.1628C27.6855 21.1632 27.7629 21.1637 27.8426 21.1641C28.0883 21.1657 28.334 21.1694 28.5798 21.1731C28.7469 21.1746 28.9141 21.1759 29.0812 21.1771C29.4899 21.1804 29.8985 21.1854 30.3071 21.1914C30.3045 21.1348 30.302 21.0782 30.2993 21.0199C30.2892 20.7618 30.2828 20.5037 30.2766 20.2454C30.2725 20.1563 30.2684 20.0673 30.2642 19.9755C30.256 19.5245 30.256 19.3085 30.5283 18.9347C30.9304 18.6567 31.0965 18.6814 31.5766 18.75C31.8665 18.9656 31.9505 19.0905 32.0649 19.4336C32.0727 19.5711 32.0754 19.709 32.0744 19.8468C32.0741 19.9251 32.0738 20.0035 32.0735 20.0842C32.0727 20.1656 32.0718 20.247 32.071 20.3308C32.0703 20.4546 32.0703 20.4546 32.0697 20.5809C32.0685 20.7844 32.0668 20.9879 32.0649 21.1914C32.5805 21.1914 33.0962 21.1914 33.6274 21.1914C33.6248 21.0279 33.6223 20.8644 33.6197 20.696C33.6117 20.1522 33.6062 19.6085 33.6021 19.0647C33.5996 18.7354 33.5961 18.4062 33.5906 18.0769C33.5846 17.6973 33.5819 17.3177 33.5797 16.938C33.5772 16.8213 33.5747 16.7046 33.5721 16.5844C33.5718 15.7211 33.7538 15.0761 34.3171 14.4104C35.0554 13.815 35.8487 13.4441 36.7829 13.8733Z"/>
</mask>
<g filter="url(#filter0_i_157_4761)">
<path d="M36.7829 13.8733C37.0366 14.1646 37.05 14.4658 37.0454 14.8438C36.9965 15.0696 36.9965 15.0696 36.8501 15.2344C36.5362 15.3884 36.2208 15.508 35.8918 15.625C35.6465 15.7145 35.6465 15.7145 35.4829 16.0157C35.4509 16.2543 35.4509 16.2543 35.4517 16.524C35.4498 16.6276 35.4479 16.7312 35.4459 16.838C35.4447 16.9497 35.4436 17.0614 35.4424 17.1765C35.4405 17.2909 35.4387 17.4054 35.4367 17.5233C35.4309 17.8895 35.4263 18.2557 35.4218 18.6219C35.4181 18.8699 35.4143 19.1179 35.4104 19.3659C35.401 19.9744 35.3927 20.5829 35.3852 21.1914C35.4526 21.1903 35.5201 21.1892 35.5896 21.1881C35.6778 21.1872 35.7661 21.1864 35.857 21.1855C35.9446 21.1844 36.0321 21.1833 36.1224 21.1822C36.4559 21.1951 36.5989 21.2627 36.8501 21.4844C37.084 21.7488 37.2973 22.0262 37.5092 22.3084C37.5649 22.3811 37.6205 22.4538 37.6778 22.5287C37.7345 22.6029 37.7911 22.6771 37.8495 22.7536C37.9064 22.8263 37.9632 22.899 38.0218 22.9739C38.2172 23.2422 38.2172 23.2422 38.3861 23.542C38.6796 24.024 38.8992 24.3573 39.4565 24.518C39.8984 24.5674 40.3387 24.5509 40.7822 24.5362C40.9465 24.5352 41.1108 24.5348 41.2751 24.5349C41.7063 24.534 42.1372 24.5264 42.5683 24.5171C43.2565 24.5032 43.9448 24.4992 44.6332 24.4957C44.8715 24.4935 45.1096 24.4883 45.3479 24.4827C46.658 24.4606 47.7826 24.6474 48.7641 25.586C48.8324 25.6503 48.9006 25.7146 48.9709 25.7809C50.0792 26.9206 50.3681 28.3179 50.3621 29.8471C50.3359 31.2451 49.8453 32.4791 48.9045 33.5266C47.8316 34.5283 46.6147 34.6811 45.2167 34.6883C45.0348 34.6898 45.0348 34.6897 44.8491 34.6912C44.5135 34.6938 44.1778 34.696 43.8421 34.6979C43.5538 34.6997 43.2654 34.7018 42.9771 34.7039C40.2272 34.7236 37.4773 34.7336 34.7274 34.7418C34.3684 34.7429 34.0094 34.744 33.6504 34.7451C33.5612 34.7454 33.4719 34.7457 33.38 34.7459C31.945 34.7505 30.51 34.7599 29.075 34.7712C27.5944 34.7828 26.1139 34.7893 24.6333 34.7914C23.805 34.7927 22.9769 34.7961 22.1486 34.8052C18.549 34.8435 15.281 34.7411 11.8322 33.5557C11.0998 33.3058 10.3515 33.1096 9.60397 32.9102C9.60279 33.0093 9.60161 33.1084 9.6004 33.2106C9.59654 33.5206 9.5906 33.8305 9.5837 34.1404C9.58095 34.2798 9.57888 34.4193 9.5775 34.5587C9.57541 34.7595 9.57085 34.9601 9.56582 35.1609C9.56378 35.2815 9.56173 35.4022 9.55962 35.5266C9.49712 35.8939 9.40913 36.0082 9.11569 36.2305C8.74955 36.3525 8.40588 36.3459 8.0243 36.348C7.94591 36.3485 7.86751 36.3491 7.78674 36.3497C7.62084 36.3506 7.45494 36.3512 7.28904 36.3516C7.03634 36.3526 6.78372 36.3556 6.53104 36.3587C6.36961 36.3593 6.20819 36.3598 6.04676 36.3602C5.97167 36.3614 5.89657 36.3626 5.81921 36.3638C5.35462 36.3619 5.00418 36.3283 4.6235 36.0352C4.33513 35.4805 4.25384 34.8267 4.15238 34.216C4.13763 34.1305 4.12287 34.045 4.10766 33.957C4.06127 33.6875 4.01583 33.4179 3.97042 33.1482C3.93889 32.964 3.90729 32.7798 3.87563 32.5957C3.79868 32.1472 3.72257 31.6987 3.64694 31.25C2.8735 31.0083 2.8735 31.0083 2.08444 30.7617C2.07537 30.9642 2.07537 30.9642 2.06613 31.1707C2.02613 31.5229 1.98745 31.6397 1.77316 31.9397C1.44502 32.1658 1.30303 32.194 0.912562 32.1289C0.460184 31.9078 0.460184 31.9078 0.326624 31.6407C0.315518 31.5107 0.310098 31.3802 0.307789 31.2497C0.306221 31.1692 0.304652 31.0887 0.303036 31.0057C0.298692 30.6373 0.294685 30.2688 0.292435 29.9004C0.290818 29.7061 0.288153 29.5118 0.284424 29.3176C0.279073 29.0374 0.276939 28.7573 0.275507 28.4771C0.273294 28.3905 0.27108 28.304 0.268799 28.2147C0.270281 27.7809 0.283399 27.5963 0.552597 27.2401C0.814905 27.0508 0.814906 27.0508 1.1567 26.9898C1.5956 27.0681 1.7252 27.1804 1.98678 27.5391C2.07958 27.8006 2.13092 28.0459 2.18209 28.3203C2.90719 28.127 2.90719 28.127 3.64694 27.9297C3.66907 27.7991 3.6912 27.6686 3.714 27.5341C3.79653 27.0489 3.88038 26.5639 3.96463 26.079C4.00088 25.8692 4.03678 25.6594 4.0723 25.4496C4.12348 25.1476 4.17595 24.8459 4.22868 24.5442C4.24425 24.4506 4.25983 24.357 4.27588 24.2605C4.4543 23.2559 4.4543 23.2559 4.88273 22.9204C5.23331 22.8151 5.58187 22.8238 5.94453 22.8257C6.02519 22.8255 6.10584 22.8253 6.18895 22.8251C6.35927 22.825 6.52959 22.8253 6.69991 22.8261C6.95988 22.8272 7.21979 22.8261 7.47975 22.8249C7.6455 22.825 7.81125 22.8253 7.977 22.8257C8.05443 22.8253 8.13185 22.8249 8.21162 22.8245C8.61714 22.8279 8.94847 22.8432 9.311 23.0469C9.54749 23.4016 9.53604 23.5865 9.54675 24.0094C9.54864 24.074 9.55053 24.1386 9.55248 24.2051C9.55831 24.4111 9.56284 24.617 9.56735 24.823C9.57108 24.9628 9.57489 25.1026 9.57879 25.2425C9.58816 25.5848 9.59637 25.9272 9.60397 26.2696C9.66549 26.2478 9.72702 26.2259 9.7904 26.2035C10.6116 25.9158 11.439 25.6505 12.2712 25.3968C12.3399 25.3757 12.4085 25.3546 12.4793 25.333C14.3624 24.7603 16.1573 24.437 18.1298 24.4351C18.2209 24.4349 18.312 24.4347 18.4058 24.4346C19.3101 24.4354 20.2123 24.4557 21.1154 24.5014C22.9529 24.6884 22.9529 24.6884 24.5755 24.0435C24.8889 23.6856 25.115 23.3047 25.3163 22.8751C25.4794 22.5444 25.6943 22.2708 25.9187 21.9788C25.9822 21.8893 26.0458 21.7998 26.1113 21.7076C26.4313 21.3354 26.675 21.2017 27.1696 21.1582C27.3158 21.1582 27.462 21.1599 27.6082 21.1628C27.6855 21.1632 27.7629 21.1637 27.8426 21.1641C28.0883 21.1657 28.334 21.1694 28.5798 21.1731C28.7469 21.1746 28.9141 21.1759 29.0812 21.1771C29.4899 21.1804 29.8985 21.1854 30.3071 21.1914C30.3045 21.1348 30.302 21.0782 30.2993 21.0199C30.2892 20.7618 30.2828 20.5037 30.2766 20.2454C30.2725 20.1563 30.2684 20.0673 30.2642 19.9755C30.256 19.5245 30.256 19.3085 30.5283 18.9347C30.9304 18.6567 31.0965 18.6814 31.5766 18.75C31.8665 18.9656 31.9505 19.0905 32.0649 19.4336C32.0727 19.5711 32.0754 19.709 32.0744 19.8468C32.0741 19.9251 32.0738 20.0035 32.0735 20.0842C32.0727 20.1656 32.0718 20.247 32.071 20.3308C32.0703 20.4546 32.0703 20.4546 32.0697 20.5809C32.0685 20.7844 32.0668 20.9879 32.0649 21.1914C32.5805 21.1914 33.0962 21.1914 33.6274 21.1914C33.6248 21.0279 33.6223 20.8644 33.6197 20.696C33.6117 20.1522 33.6062 19.6085 33.6021 19.0647C33.5996 18.7354 33.5961 18.4062 33.5906 18.0769C33.5846 17.6973 33.5819 17.3177 33.5797 16.938C33.5772 16.8213 33.5747 16.7046 33.5721 16.5844C33.5718 15.7211 33.7538 15.0761 34.3171 14.4104C35.0554 13.815 35.8487 13.4441 36.7829 13.8733Z" fill="black"/>
</g>
<path d="M36.7829 13.8733C37.0366 14.1646 37.05 14.4658 37.0454 14.8438C36.9965 15.0696 36.9965 15.0696 36.8501 15.2344C36.5362 15.3884 36.2208 15.508 35.8918 15.625C35.6465 15.7145 35.6465 15.7145 35.4829 16.0157C35.4509 16.2543 35.4509 16.2543 35.4517 16.524C35.4498 16.6276 35.4479 16.7312 35.4459 16.838C35.4447 16.9497 35.4436 17.0614 35.4424 17.1765C35.4405 17.2909 35.4387 17.4054 35.4367 17.5233C35.4309 17.8895 35.4263 18.2557 35.4218 18.6219C35.4181 18.8699 35.4143 19.1179 35.4104 19.3659C35.401 19.9744 35.3927 20.5829 35.3852 21.1914C35.4526 21.1903 35.5201 21.1892 35.5896 21.1881C35.6778 21.1872 35.7661 21.1864 35.857 21.1855C35.9446 21.1844 36.0321 21.1833 36.1224 21.1822C36.4559 21.1951 36.5989 21.2627 36.8501 21.4844C37.084 21.7488 37.2973 22.0262 37.5092 22.3084C37.5649 22.3811 37.6205 22.4538 37.6778 22.5287C37.7345 22.6029 37.7911 22.6771 37.8495 22.7536C37.9064 22.8263 37.9632 22.899 38.0218 22.9739C38.2172 23.2422 38.2172 23.2422 38.3861 23.542C38.6796 24.024 38.8992 24.3573 39.4565 24.518C39.8984 24.5674 40.3387 24.5509 40.7822 24.5362C40.9465 24.5352 41.1108 24.5348 41.2751 24.5349C41.7063 24.534 42.1372 24.5264 42.5683 24.5171C43.2565 24.5032 43.9448 24.4992 44.6332 24.4957C44.8715 24.4935 45.1096 24.4883 45.3479 24.4827C46.658 24.4606 47.7826 24.6474 48.7641 25.586C48.8324 25.6503 48.9006 25.7146 48.9709 25.7809C50.0792 26.9206 50.3681 28.3179 50.3621 29.8471C50.3359 31.2451 49.8453 32.4791 48.9045 33.5266C47.8316 34.5283 46.6147 34.6811 45.2167 34.6883C45.0348 34.6898 45.0348 34.6897 44.8491 34.6912C44.5135 34.6938 44.1778 34.696 43.8421 34.6979C43.5538 34.6997 43.2654 34.7018 42.9771 34.7039C40.2272 34.7236 37.4773 34.7336 34.7274 34.7418C34.3684 34.7429 34.0094 34.744 33.6504 34.7451C33.5612 34.7454 33.4719 34.7457 33.38 34.7459C31.945 34.7505 30.51 34.7599 29.075 34.7712C27.5944 34.7828 26.1139 34.7893 24.6333 34.7914C23.805 34.7927 22.9769 34.7961 22.1486 34.8052C18.549 34.8435 15.281 34.7411 11.8322 33.5557C11.0998 33.3058 10.3515 33.1096 9.60397 32.9102C9.60279 33.0093 9.60161 33.1084 9.6004 33.2106C9.59654 33.5206 9.5906 33.8305 9.5837 34.1404C9.58095 34.2798 9.57888 34.4193 9.5775 34.5587C9.57541 34.7595 9.57085 34.9601 9.56582 35.1609C9.56378 35.2815 9.56173 35.4022 9.55962 35.5266C9.49712 35.8939 9.40913 36.0082 9.11569 36.2305C8.74955 36.3525 8.40588 36.3459 8.0243 36.348C7.94591 36.3485 7.86751 36.3491 7.78674 36.3497C7.62084 36.3506 7.45494 36.3512 7.28904 36.3516C7.03634 36.3526 6.78372 36.3556 6.53104 36.3587C6.36961 36.3593 6.20819 36.3598 6.04676 36.3602C5.97167 36.3614 5.89657 36.3626 5.81921 36.3638C5.35462 36.3619 5.00418 36.3283 4.6235 36.0352C4.33513 35.4805 4.25384 34.8267 4.15238 34.216C4.13763 34.1305 4.12287 34.045 4.10766 33.957C4.06127 33.6875 4.01583 33.4179 3.97042 33.1482C3.93889 32.964 3.90729 32.7798 3.87563 32.5957C3.79868 32.1472 3.72257 31.6987 3.64694 31.25C2.8735 31.0083 2.8735 31.0083 2.08444 30.7617C2.07537 30.9642 2.07537 30.9642 2.06613 31.1707C2.02613 31.5229 1.98745 31.6397 1.77316 31.9397C1.44502 32.1658 1.30303 32.194 0.912562 32.1289C0.460184 31.9078 0.460184 31.9078 0.326624 31.6407C0.315518 31.5107 0.310098 31.3802 0.307789 31.2497C0.306221 31.1692 0.304652 31.0887 0.303036 31.0057C0.298692 30.6373 0.294685 30.2688 0.292435 29.9004C0.290818 29.7061 0.288153 29.5118 0.284424 29.3176C0.279073 29.0374 0.276939 28.7573 0.275507 28.4771C0.273294 28.3905 0.27108 28.304 0.268799 28.2147C0.270281 27.7809 0.283399 27.5963 0.552597 27.2401C0.814905 27.0508 0.814906 27.0508 1.1567 26.9898C1.5956 27.0681 1.7252 27.1804 1.98678 27.5391C2.07958 27.8006 2.13092 28.0459 2.18209 28.3203C2.90719 28.127 2.90719 28.127 3.64694 27.9297C3.66907 27.7991 3.6912 27.6686 3.714 27.5341C3.79653 27.0489 3.88038 26.5639 3.96463 26.079C4.00088 25.8692 4.03678 25.6594 4.0723 25.4496C4.12348 25.1476 4.17595 24.8459 4.22868 24.5442C4.24425 24.4506 4.25983 24.357 4.27588 24.2605C4.4543 23.2559 4.4543 23.2559 4.88273 22.9204C5.23331 22.8151 5.58187 22.8238 5.94453 22.8257C6.02519 22.8255 6.10584 22.8253 6.18895 22.8251C6.35927 22.825 6.52959 22.8253 6.69991 22.8261C6.95988 22.8272 7.21979 22.8261 7.47975 22.8249C7.6455 22.825 7.81125 22.8253 7.977 22.8257C8.05443 22.8253 8.13185 22.8249 8.21162 22.8245C8.61714 22.8279 8.94847 22.8432 9.311 23.0469C9.54749 23.4016 9.53604 23.5865 9.54675 24.0094C9.54864 24.074 9.55053 24.1386 9.55248 24.2051C9.55831 24.4111 9.56284 24.617 9.56735 24.823C9.57108 24.9628 9.57489 25.1026 9.57879 25.2425C9.58816 25.5848 9.59637 25.9272 9.60397 26.2696C9.66549 26.2478 9.72702 26.2259 9.7904 26.2035C10.6116 25.9158 11.439 25.6505 12.2712 25.3968C12.3399 25.3757 12.4085 25.3546 12.4793 25.333C14.3624 24.7603 16.1573 24.437 18.1298 24.4351C18.2209 24.4349 18.312 24.4347 18.4058 24.4346C19.3101 24.4354 20.2123 24.4557 21.1154 24.5014C22.9529 24.6884 22.9529 24.6884 24.5755 24.0435C24.8889 23.6856 25.115 23.3047 25.3163 22.8751C25.4794 22.5444 25.6943 22.2708 25.9187 21.9788C25.9822 21.8893 26.0458 21.7998 26.1113 21.7076C26.4313 21.3354 26.675 21.2017 27.1696 21.1582C27.3158 21.1582 27.462 21.1599 27.6082 21.1628C27.6855 21.1632 27.7629 21.1637 27.8426 21.1641C28.0883 21.1657 28.334 21.1694 28.5798 21.1731C28.7469 21.1746 28.9141 21.1759 29.0812 21.1771C29.4899 21.1804 29.8985 21.1854 30.3071 21.1914C30.3045 21.1348 30.302 21.0782 30.2993 21.0199C30.2892 20.7618 30.2828 20.5037 30.2766 20.2454C30.2725 20.1563 30.2684 20.0673 30.2642 19.9755C30.256 19.5245 30.256 19.3085 30.5283 18.9347C30.9304 18.6567 31.0965 18.6814 31.5766 18.75C31.8665 18.9656 31.9505 19.0905 32.0649 19.4336C32.0727 19.5711 32.0754 19.709 32.0744 19.8468C32.0741 19.9251 32.0738 20.0035 32.0735 20.0842C32.0727 20.1656 32.0718 20.247 32.071 20.3308C32.0703 20.4546 32.0703 20.4546 32.0697 20.5809C32.0685 20.7844 32.0668 20.9879 32.0649 21.1914C32.5805 21.1914 33.0962 21.1914 33.6274 21.1914C33.6248 21.0279 33.6223 20.8644 33.6197 20.696C33.6117 20.1522 33.6062 19.6085 33.6021 19.0647C33.5996 18.7354 33.5961 18.4062 33.5906 18.0769C33.5846 17.6973 33.5819 17.3177 33.5797 16.938C33.5772 16.8213 33.5747 16.7046 33.5721 16.5844C33.5718 15.7211 33.7538 15.0761 34.3171 14.4104C35.0554 13.815 35.8487 13.4441 36.7829 13.8733Z" stroke="black" stroke-width="1.5" mask="url(#path-1-inside-1_157_4761)"/>
<path d="M6.34229 7C6.53906 7.08252 6.53906 7.08252 6.74854 7.20312C6.78205 7.30367 6.81557 7.40422 6.8501 7.50781C6.98326 7.57985 7.11912 7.64698 7.25635 7.71094C7.39361 7.82081 7.52891 7.93317 7.6626 8.04736C8.66547 8.83265 9.8823 9.17606 11.1518 9.11694C12.7857 8.91393 13.9764 8.06827 15.1782 7C15.2324 7.05891 15.2866 7.11783 15.3425 7.17853C15.8831 7.74533 16.4142 8.16166 17.1079 8.52344C17.1785 8.56311 17.249 8.60278 17.3217 8.64365C18.5167 9.25568 19.8737 9.21104 21.1343 8.85352C22.0912 8.51596 22.895 7.87 23.5734 7.12695C23.7095 7 23.7095 7 23.9126 7C23.9964 7.10264 24.0802 7.20528 24.1665 7.31104C25.0805 8.40387 26.4313 8.95788 27.8216 9.11694C29.4871 9.19105 30.8257 8.47861 32.0376 7.40625C32.2214 7.18688 32.2214 7.18688 32.3423 7C32.5391 7.08252 32.5391 7.08252 32.7485 7.20312C32.782 7.30367 32.8156 7.40422 32.8501 7.50781C32.9833 7.57985 33.1191 7.64698 33.2563 7.71094C33.3936 7.82081 33.5289 7.93317 33.6626 8.04736C34.6655 8.83265 35.8823 9.17606 37.1518 9.11694C38.7857 8.91393 39.9764 8.06827 41.1782 7C41.2324 7.05891 41.2866 7.11783 41.3425 7.17853C41.8831 7.74533 42.4142 8.16166 43.1079 8.52344C43.1785 8.56311 43.249 8.60278 43.3217 8.64365C44.5167 9.25568 45.8737 9.21104 47.1343 8.85352C48.0941 8.51495 48.8954 7.86429 49.5833 7.12695C49.6458 7.06411 49.6458 7.06411 49.7095 7C49.743 7 49.7765 7 49.811 7C49.8229 7.37872 49.8301 7.75739 49.8364 8.13623C49.8398 8.24339 49.8432 8.35055 49.8467 8.46095C49.8568 9.25488 49.8568 9.25488 49.6416 9.63626C48.2939 10.8169 46.9626 11.5332 45.1463 11.4937C43.7525 11.382 42.5884 10.8025 41.5904 9.83899C41.377 9.62526 41.377 9.62526 41.0767 9.4375C41.031 9.4879 40.9853 9.53831 40.9382 9.59024C39.8025 10.7896 38.4499 11.437 36.7983 11.4941C35.0154 11.4673 33.6716 10.6604 32.4438 9.4375C32.4055 9.48057 32.3671 9.52365 32.3276 9.56802C31.2228 10.7452 29.7589 11.4467 28.1465 11.5005C26.3422 11.4573 25.0474 10.6695 23.811 9.4375C23.7126 9.52338 23.6141 9.60927 23.5127 9.69775C23.3754 9.81441 23.2379 9.93076 23.1001 10.0469C22.9954 10.1364 22.9954 10.1364 22.8886 10.2278C21.6988 11.2053 20.3638 11.5913 18.8345 11.4688C17.555 11.271 16.5179 10.7345 15.5904 9.83899C15.377 9.62526 15.377 9.62526 15.0767 9.4375C15.031 9.4879 14.9853 9.53831 14.9382 9.59024C13.8831 10.7045 12.6013 11.366 11.0614 11.4894C9.38638 11.5204 7.98018 10.9206 6.77036 9.76956C6.49915 9.49166 6.2412 9.20576 5.99078 8.90906C5.78175 8.66501 5.55725 8.44235 5.32666 8.21875C5.48523 7.79061 5.79252 7.58633 6.13916 7.30469C6.20619 7.20414 6.27322 7.10359 6.34229 7Z" fill="#0038FF"/>
</g>
<defs>
<filter id="filter0_i_157_4761" x="0.268799" y="13.6875" width="50.0934" height="26.6764" filterUnits="userSpaceOnUse" color-interpolation-filters="sRGB">
<feFlood flood-opacity="0" result="BackgroundImageFix"/>
<feBlend mode="normal" in="SourceGraphic" in2="BackgroundImageFix" result="shape"/>
<feColorMatrix in="SourceAlpha" type="matrix" values="0 0 0 0 0 0 0 0 0 0 0 0 0 0 0 0 0 0 127 0" result="hardAlpha"/>
<feOffset dy="4"/>
<feGaussianBlur stdDeviation="2"/>
<feComposite in2="hardAlpha" operator="arithmetic" k2="-1" k3="1"/>
<feColorMatrix type="matrix" values="0 0 0 0 0 0 0 0 0 0 0 0 0 0 0 0 0 0 0.25 0"/>
<feBlend mode="normal" in2="shape" result="effect1_innerShadow_157_4761"/>
</filter>
<clipPath id="clip0_157_4761">
<rect width="50" height="50" fill="white" transform="translate(0.32666)"/>
</clipPath>
</defs>
</svg>
