<svg width="56" height="56" viewBox="0 0 56 56" fill="none" xmlns="http://www.w3.org/2000/svg">
<path d="M14.9582 30.8038C15.0934 30.8036 15.2287 30.8033 15.3681 30.8031C15.7418 30.8025 16.1156 30.8024 16.4893 30.8025C16.893 30.8026 17.2968 30.802 17.7005 30.8015C18.4908 30.8006 19.2811 30.8003 20.0714 30.8002C20.7138 30.8001 21.3563 30.7999 21.9987 30.7996C23.8212 30.7986 25.6437 30.7981 27.4662 30.7982C27.6135 30.7982 27.6135 30.7982 27.7637 30.7982C27.862 30.7982 27.9603 30.7982 28.0615 30.7982C29.655 30.7983 31.2484 30.7972 32.8419 30.7957C34.479 30.7941 36.1162 30.7934 37.7533 30.7935C38.6721 30.7935 39.5908 30.7932 40.5095 30.7921C41.2916 30.7911 42.0737 30.7908 42.8557 30.7916C43.2545 30.7919 43.6533 30.7919 44.0521 30.791C44.4849 30.79 44.9176 30.7906 45.3504 30.7915C45.4758 30.7909 45.6012 30.7904 45.7305 30.7898C46.8541 30.7946 47.8166 30.904 48.6737 31.687C49.4462 32.674 49.6657 33.7093 49.5423 34.9443C49.3314 35.8927 48.8947 36.6254 48.0936 37.1849C47.328 37.6647 46.5528 38.125 45.7692 38.5749C45.6459 38.6458 45.5226 38.7167 45.3955 38.7897C42.6033 40.3894 42.6033 40.3894 41.2911 40.3892C41.1414 40.3898 41.1414 40.3898 40.9887 40.3904C40.6534 40.3916 40.3182 40.392 39.983 40.3924C39.7429 40.3931 39.5029 40.3938 39.2628 40.3946C38.4737 40.3969 37.6846 40.398 36.8956 40.3991C36.6239 40.3995 36.3522 40.3999 36.0805 40.4004C34.9503 40.4022 33.8201 40.4038 32.6899 40.4046C32.3967 40.4048 32.1036 40.405 31.8105 40.4052C31.7012 40.4053 31.7012 40.4053 31.5897 40.4054C30.4102 40.4063 29.2307 40.409 28.0512 40.4126C26.8392 40.4162 25.6272 40.4181 24.4152 40.4185C23.7351 40.4187 23.0551 40.4197 22.375 40.4224C21.7349 40.425 21.0949 40.4254 20.4548 40.4243C20.2203 40.4242 19.9858 40.4249 19.7513 40.4264C19.4302 40.4283 19.1093 40.4276 18.7882 40.4261C18.6502 40.4279 18.6502 40.4279 18.5094 40.4298C17.5857 40.4199 16.8152 40.0582 16.0198 39.6097C15.8579 39.519 15.8579 39.519 15.6927 39.4264C15.5809 39.3626 15.4691 39.2988 15.3539 39.2331C15.2362 39.1663 15.1186 39.0995 14.9974 39.0307C14.7569 38.8937 14.5167 38.7563 14.2767 38.6184C14.0535 38.4904 13.83 38.363 13.6059 38.2366C11.02 36.7768 11.02 36.7768 10.5629 35.3786C10.3176 34.324 10.3765 33.3021 10.8886 32.3384C11.364 31.6387 11.907 31.1469 12.7344 30.9269C13.4775 30.8096 14.2069 30.8028 14.9582 30.8038ZM19.2936 34.1842C18.8306 34.841 18.8479 35.459 18.9234 36.2472C19.144 37.0346 19.6426 37.4057 20.2942 37.8555C20.9845 38.0984 21.7617 38.1168 22.4386 37.8148C23.0797 37.435 23.5335 36.8654 23.7657 36.1577C23.8943 35.4624 23.7596 34.7748 23.3751 34.1842C22.7652 33.5119 22.2514 33.1481 21.3324 33.0578C20.4414 33.0884 19.8461 33.5155 19.2936 34.1842ZM27.6096 33.9671C27.1616 34.604 27.0042 35.147 27.0667 35.9215C27.2753 36.7478 27.655 37.2989 28.3696 37.7673C29.0284 38.0819 29.704 38.1034 30.4029 37.8971C31.201 37.5475 31.5722 37.0082 31.9527 36.2472C32.0282 35.4433 32.0244 34.7329 31.5184 34.0757C30.9375 33.4516 30.439 33.134 29.5776 33.0645C28.7818 33.0888 28.1703 33.4064 27.6096 33.9671ZM35.9226 33.8924C35.4843 34.4773 35.2505 35.0434 35.2817 35.7773C35.3996 36.5845 35.7801 37.0981 36.3938 37.6142C37.0175 38.0335 37.6268 38.0676 38.3588 37.9845C39.0999 37.7533 39.6308 37.2806 40.0214 36.6137C40.3053 35.9995 40.3212 35.345 40.133 34.6979C39.8212 33.9921 39.2833 33.5153 38.576 33.2206C37.6242 32.9161 36.604 33.1398 35.9226 33.8924Z" fill="black"/>
<path d="M16.5485 23.3668C16.6719 23.366 16.7953 23.3653 16.9225 23.3645C17.3369 23.3625 17.7513 23.3645 18.1658 23.3665C18.4625 23.3662 18.7593 23.3651 19.056 23.3641C19.7789 23.3621 20.5018 23.3631 21.2246 23.365C21.812 23.3665 22.3994 23.3669 22.9868 23.3666C23.0704 23.3665 23.1539 23.3665 23.2401 23.3664C23.4098 23.3663 23.5796 23.3662 23.7494 23.3661C25.2508 23.3651 26.7522 23.367 28.2535 23.3702C29.7109 23.3733 31.1682 23.3741 32.6256 23.3724C34.2122 23.3706 35.7988 23.3702 37.3854 23.3721C37.5545 23.3723 37.7236 23.3725 37.8927 23.3727C38.0176 23.3728 38.0176 23.3728 38.1449 23.373C38.7317 23.3736 39.3186 23.3732 39.9054 23.3725C40.6204 23.3716 41.3353 23.3724 42.0502 23.3751C42.4151 23.3765 42.7799 23.3769 43.1448 23.3759C43.54 23.375 43.9351 23.3767 44.3303 23.3791C44.504 23.3778 44.504 23.3778 44.6813 23.3764C45.4506 23.3851 45.4506 23.3851 45.814 23.6292C46.0347 23.9943 46.0052 24.353 45.9863 24.7651C45.9843 24.846 45.9824 24.9269 45.9803 25.0102C45.9753 25.2091 45.9675 25.4078 45.9591 25.6066C46.1025 25.6028 46.1025 25.6028 46.2488 25.5989C46.3749 25.597 46.501 25.595 46.631 25.593C46.7557 25.5905 46.8804 25.5879 47.0089 25.5853C47.3678 25.6064 47.5982 25.6546 47.9135 25.8237C48.272 26.3614 48.1711 27.0048 48.1709 27.6346C48.1714 27.8787 48.1754 28.1226 48.1795 28.3666C48.1801 28.522 48.1805 28.6775 48.1807 28.8329C48.1816 28.9741 48.1825 29.1154 48.1834 29.2609C48.1205 29.6939 48.0352 29.7922 47.6964 30.0582C47.4144 30.1124 47.4144 30.1124 47.0875 30.1122C46.9627 30.1131 46.838 30.1141 46.7094 30.1151C46.5723 30.114 46.4351 30.1129 46.2939 30.1117C46.1468 30.112 45.9996 30.1125 45.8525 30.1132C45.4479 30.1146 45.0433 30.1132 44.6387 30.1115C44.2024 30.11 43.7662 30.1111 43.3299 30.1119C42.5737 30.113 41.8176 30.1125 41.0614 30.111C39.9672 30.1089 38.873 30.1096 37.7787 30.1111C36.0022 30.1134 34.2257 30.1141 32.4492 30.1135C32.3428 30.1135 32.2365 30.1135 32.1269 30.1134C31.2641 30.1131 30.4014 30.1128 29.5386 30.1124C28.7851 30.1121 28.0316 30.1118 27.2781 30.1115C27.1189 30.1115 27.1189 30.1115 26.9566 30.1114C25.1873 30.1109 23.418 30.112 21.6488 30.1144C20.5574 30.1158 19.466 30.1156 18.3747 30.1135C17.6266 30.1121 16.8786 30.1123 16.1306 30.1136C15.6991 30.1144 15.2675 30.1144 14.836 30.1125C14.4407 30.1108 14.0454 30.1111 13.6501 30.1129C13.4398 30.1134 13.2296 30.1117 13.0193 30.1099C12.1514 30.1167 11.5644 30.2215 10.8796 30.7883C10.8253 30.849 10.771 30.9097 10.715 30.9723C10.6527 31.0389 10.5903 31.1056 10.5261 31.1744C10.4004 31.3134 10.2751 31.4528 10.1503 31.5925C9.82948 31.9343 9.64427 32.1033 9.18602 32.243C8.77563 32.228 8.66751 32.1778 8.38441 31.8905C8.31163 31.8195 8.23884 31.7486 8.16386 31.6755C8.09556 31.6076 8.02725 31.5397 7.95688 31.4698C7.84715 31.3824 7.73742 31.2951 7.62436 31.2051C7.28989 30.9133 7.0065 30.6049 6.72096 30.2661C6.57782 30.0967 6.42688 29.9338 6.27392 29.7732C6.11106 29.5154 6.11106 29.5154 6.0907 29.21C6.42453 28.3139 7.35569 27.5963 8.01796 26.9298C8.10746 26.8381 8.19697 26.7464 8.28919 26.6518C8.37674 26.5637 8.46428 26.4756 8.55448 26.3848C8.63266 26.3056 8.71084 26.2265 8.79139 26.1449C9.4608 25.5785 10.0328 25.5617 10.8741 25.5747C10.9864 25.5752 11.0988 25.5757 11.2145 25.5761C11.5718 25.578 11.9291 25.582 12.2864 25.5862C12.5293 25.5878 12.7722 25.5893 13.0151 25.5907C13.6092 25.5942 14.2032 25.5997 14.7973 25.6066C14.791 25.4953 14.7847 25.384 14.7782 25.2694C14.7731 25.1216 14.7682 24.9739 14.7634 24.8262C14.7588 24.753 14.7543 24.6799 14.7496 24.6045C14.7402 24.2201 14.7792 24.0044 14.9965 23.6851C15.5021 23.3171 15.9376 23.36 16.5485 23.3668Z" fill="black"/>
<path d="M29.0547 16.036C29.1725 16.0353 29.2903 16.0346 29.4117 16.0339C29.5389 16.0338 29.6661 16.0337 29.7972 16.0336C29.928 16.0332 30.0588 16.0328 30.1936 16.0325C30.4705 16.0319 30.7474 16.0317 31.0244 16.0317C31.448 16.0314 31.8717 16.0295 32.2954 16.0274C32.5643 16.0271 32.8332 16.0269 33.1021 16.0268C33.2289 16.026 33.3557 16.0252 33.4863 16.0244C33.664 16.0249 33.664 16.0249 33.8453 16.0254C34.0012 16.0252 34.0012 16.0252 34.1602 16.025C34.4777 16.0544 34.7094 16.1235 34.9929 16.269C35.0934 16.5277 35.0934 16.5277 35.1354 16.8254C35.1506 16.9242 35.1659 17.023 35.1816 17.1249C35.191 17.2007 35.2003 17.2766 35.21 17.3547C35.3102 17.3726 35.3102 17.3726 35.4123 17.3908C35.544 17.4166 35.544 17.4166 35.6782 17.443C35.7652 17.4593 35.8521 17.4757 35.9416 17.4926C36.3397 17.6211 36.4786 17.835 36.6778 18.1985C36.7345 18.3176 36.7912 18.4366 36.8497 18.5593C36.8956 18.655 36.8956 18.655 36.9425 18.7527C37.0068 18.8873 37.0709 19.022 37.1346 19.1568C37.2321 19.363 37.3305 19.5687 37.4291 19.7744C38.049 21.0733 38.049 21.0733 38.0737 21.63C38.0791 21.7114 38.0844 21.7929 38.0899 21.8768C38.0027 22.2684 37.795 22.423 37.4901 22.6751C37.1465 22.7425 37.1465 22.7425 36.7518 22.7418C36.6789 22.7424 36.606 22.743 36.5309 22.7437C36.2875 22.7451 36.0442 22.7426 35.8008 22.7401C35.626 22.7403 35.4512 22.7408 35.2764 22.7414C34.8021 22.7425 34.3279 22.7402 33.8537 22.7373C33.3574 22.7347 32.8612 22.735 32.3649 22.7349C31.5317 22.7344 30.6984 22.7319 29.8652 22.7279C28.9016 22.7234 27.938 22.7215 26.9745 22.7211C25.9488 22.7207 24.9231 22.7187 23.8974 22.716C23.6018 22.7153 23.3061 22.715 23.0104 22.7146C22.546 22.714 22.0816 22.7122 21.6172 22.7095C21.4467 22.7087 21.2762 22.7083 21.1056 22.7082C20.8731 22.7081 20.6405 22.7066 20.408 22.7048C20.2778 22.7043 20.1475 22.7038 20.0134 22.7033C19.6946 22.676 19.5124 22.6352 19.2491 22.4579C19.1405 22.2407 19.1405 22.2407 19.1405 21.2635C16.7757 21.2994 14.4108 21.3352 11.9743 21.3721C11.9027 21.5154 11.831 21.6588 11.7572 21.8064C10.9936 22.1882 9.87335 22.04 9.04274 22.0372C8.86177 22.0378 8.86177 22.0378 8.67714 22.0384C6.75441 22.0362 6.75441 22.0362 6.26382 21.7517C6.03334 21.3426 6.04794 20.9721 6.05685 20.5103C6.05517 20.4236 6.05349 20.3369 6.05176 20.2475C6.05232 20.1631 6.05288 20.0786 6.05345 19.9916C6.05394 19.9153 6.05443 19.839 6.05494 19.7604C6.14297 19.3937 6.26097 19.2344 6.54545 18.9834C6.89863 18.902 7.24504 18.9073 7.6062 18.9113C7.70983 18.9108 7.81345 18.9103 7.92021 18.9097C8.13934 18.9094 8.35848 18.9104 8.5776 18.9126C8.91155 18.9155 9.24511 18.9127 9.57905 18.9092C9.79232 18.9095 10.0056 18.9102 10.2189 18.9113C10.3181 18.9102 10.4173 18.9091 10.5195 18.908C11.0009 18.9167 11.3037 18.9295 11.6708 19.2546C12.2415 19.7199 13.0016 19.6053 13.701 19.6031C13.8581 19.6045 14.0153 19.6062 14.1724 19.608C14.5839 19.6123 14.9953 19.6135 15.4067 19.6139C15.8274 19.6149 16.2481 19.619 16.6689 19.6228C17.4927 19.6298 18.3166 19.6334 19.1405 19.6349C19.138 19.5681 19.1354 19.5013 19.1328 19.4326C19.1309 19.3448 19.1289 19.257 19.1269 19.1666C19.1244 19.0797 19.1219 18.9928 19.1193 18.9032C19.1405 18.6577 19.1405 18.6577 19.3576 18.3319C19.5516 18.2795 19.5516 18.2795 19.7869 18.2628C19.9184 18.2522 19.9184 18.2522 20.0526 18.2414C20.1457 18.2355 20.2389 18.2295 20.3348 18.2234C20.522 18.2091 20.7092 18.1949 20.8964 18.1805C21.0432 18.1697 21.0432 18.1697 21.1929 18.1587C22.1535 18.0856 23.089 17.9748 24.0333 17.7823C25.2719 17.5301 26.4558 17.3828 27.7181 17.5719C27.7222 17.5064 27.7263 17.4409 27.7304 17.3734C27.8037 16.4823 27.8037 16.4823 28.1524 16.1604C28.4831 16.0501 28.7086 16.0374 29.0547 16.036Z" fill="#AFC800"/>
</svg>
