<svg width="46" height="46" viewBox="0 0 46 46" fill="none" xmlns="http://www.w3.org/2000/svg">
<g clip-path="url(#clip0_157_4749)">
<path d="M26.2389 9.66333C26.8292 9.67066 27.3766 10.0946 27.821 10.4499C28.1588 10.8008 28.2619 11.2557 28.2769 11.7288C28.1932 12.1887 27.9992 12.5669 27.7495 12.9592C27.7495 13.0172 27.7495 13.0752 27.7495 13.135C27.8043 13.1659 27.8591 13.1969 27.9156 13.2287C28.9456 13.8103 29.9755 14.3921 31.0015 14.9807C31.0649 14.9118 31.1284 14.8429 31.1938 14.772C31.4313 14.5503 31.5657 14.4339 31.8804 14.3655C32.1015 14.4328 32.1015 14.4328 32.3418 14.5632C32.4354 14.6136 32.529 14.6641 32.6254 14.716C32.7288 14.7746 32.8321 14.8335 32.9351 14.8928C33.0132 14.9378 33.0132 14.9378 33.0929 14.9836C33.3935 15.1576 33.6924 15.3345 33.9908 15.5122C34.4986 15.8139 35.0105 16.1087 35.5224 16.4034C35.6196 16.4595 35.7168 16.5155 35.817 16.5732C36.0166 16.6882 36.2163 16.8032 36.416 16.9182C36.8965 17.195 37.3767 17.4721 37.857 17.7493C38.0474 17.8591 38.2378 17.969 38.4282 18.0789C38.8091 18.2986 39.19 18.5183 39.5708 18.738C39.6652 18.7925 39.7595 18.8469 39.8567 18.903C40.0464 19.0124 40.236 19.1218 40.4256 19.2313C40.9135 19.5128 41.4016 19.7941 41.89 20.0749C43.609 21.0639 43.609 21.0639 44.3609 21.5121C44.4135 21.5433 44.4662 21.5745 44.5204 21.6066C44.7246 21.7294 44.8947 21.8426 45.064 22.012C45.0673 22.6301 44.7397 23.0852 44.4268 23.5995C44.3713 23.6927 44.3157 23.7858 44.2585 23.8818C44.1436 24.0745 44.0283 24.2669 43.9125 24.4591C43.7153 24.787 43.5207 25.1163 43.3264 25.4459C43.1881 25.6804 43.0494 25.9147 42.9107 26.149C42.6807 26.5379 42.4521 26.9276 42.224 27.3177C42.1749 27.4016 42.1749 27.4016 42.1248 27.4873C41.9643 27.7616 41.804 28.0361 41.6439 28.3106C41.2409 29.0005 40.8274 29.6829 40.4058 30.3616C40.4678 30.3714 40.5299 30.3813 40.5938 30.3915C41.1923 30.4902 41.5842 30.6484 42.0098 31.0977C42.3636 31.6283 42.3613 32.1175 42.3394 32.7346C42.4137 32.7305 42.488 32.7265 42.5646 32.7223C43.2647 32.7 43.7925 32.7187 44.319 33.2115C44.8173 33.7688 44.8283 34.2846 44.8298 34.9971C44.8304 35.0887 44.831 35.1802 44.8316 35.2746C44.8325 35.468 44.8329 35.6614 44.8329 35.8548C44.8333 36.1497 44.8365 36.4446 44.8398 36.7395C44.8403 36.9277 44.8407 37.116 44.8408 37.3042C44.8427 37.4358 44.8427 37.4358 44.8447 37.5701C44.8411 38.1156 44.7716 38.4424 44.4488 38.887C43.9634 39.251 43.5007 39.251 42.912 39.2471C42.8404 39.247 42.7687 39.2469 42.6948 39.2467C42.4665 39.2462 42.2381 39.2451 42.0098 39.244C41.8547 39.2436 41.6997 39.2432 41.5446 39.2428C41.165 39.2418 40.7854 39.2403 40.4058 39.2385C40.3933 39.3206 40.3809 39.4027 40.368 39.4873C40.2093 40.3689 39.5849 41.077 38.878 41.5869C37.8471 42.2461 36.731 42.3991 35.5358 42.1691C34.5794 41.8828 33.905 41.3211 33.2866 40.5569C33.2286 40.4989 33.1706 40.4409 33.1109 40.3811C33.0595 40.456 33.0595 40.456 33.0072 40.5325C32.3673 41.4157 31.4696 42.0217 30.3863 42.2268C29.1523 42.2976 28.2664 42.1338 27.2222 41.4358C27.1442 41.385 27.0663 41.3343 26.986 41.282C26.395 40.707 26.124 40.0966 25.8159 39.3264C23.4376 39.2974 21.0593 39.2684 18.6089 39.2385C18.5799 39.4125 18.5509 39.5866 18.521 39.7659C18.2203 40.6751 17.4228 41.4441 16.5874 41.8752C15.6186 42.3285 14.4591 42.4143 13.4436 42.0486C12.5073 41.6403 11.6865 41.0558 11.2261 40.1174C11.1778 39.9666 11.1316 39.8151 11.087 39.6631C11.0519 39.544 11.0519 39.544 11.016 39.4224C10.9983 39.3617 10.9806 39.3011 10.9624 39.2385C10.8638 39.2391 10.7652 39.2397 10.6635 39.2403C9.73249 39.2457 8.80146 39.2496 7.87041 39.2522C7.39179 39.2536 6.91318 39.2554 6.43456 39.2584C5.97239 39.2613 5.51023 39.2629 5.04806 39.2635C4.87201 39.264 4.69597 39.265 4.51993 39.2664C4.27274 39.2683 4.0256 39.2686 3.7784 39.2685C3.70614 39.2694 3.63388 39.2704 3.55943 39.2713C2.96614 39.2682 2.45436 39.1395 1.97012 38.7771C1.42707 38.2214 1.42977 37.6454 1.42636 36.9056C1.42491 36.805 1.42346 36.7045 1.42196 36.6009C1.41768 36.2693 1.41544 35.9378 1.41359 35.6062C1.41274 35.4925 1.41188 35.3789 1.411 35.2619C1.407 34.7225 1.40398 34.1832 1.40256 33.6438C1.40092 33.0238 1.39552 32.404 1.38687 31.784C1.37962 31.2448 1.37725 30.7057 1.37659 30.1665C1.37563 29.9382 1.37321 29.7099 1.36926 29.4816C1.33686 27.473 1.33686 27.473 1.89641 26.8522C2.04413 26.729 2.19479 26.6092 2.34915 26.4944C2.45469 26.3799 2.55793 26.2631 2.65677 26.1428C2.90182 25.8608 3.15205 25.5839 3.40384 25.3079C3.70756 24.9748 4.00723 24.6389 4.303 24.2988C4.54748 24.0198 4.79616 23.7446 5.04526 23.4697C5.18195 23.3176 5.31722 23.1643 5.45107 23.0097C6.17137 22.184 6.81181 21.6301 7.94199 21.5498C8.31919 21.5388 8.69619 21.5428 9.07347 21.5468C9.21212 21.5473 9.35077 21.5476 9.48942 21.5479C9.85152 21.5489 10.2136 21.5515 10.5757 21.5544C10.9463 21.5571 11.3169 21.5583 11.6875 21.5596C12.4126 21.5624 13.1377 21.5669 13.8628 21.5725C13.8601 21.5225 13.8573 21.4725 13.8545 21.4209C13.8434 21.1913 13.8366 20.9618 13.8299 20.7321C13.8254 20.6534 13.821 20.5747 13.8165 20.4936C13.807 20.0642 13.8312 19.7952 14.111 19.4576C14.5036 19.0481 14.944 19.0159 15.4888 19.0017C16.3811 19.0249 16.3811 19.0249 16.728 19.3184C17.1209 19.7399 17.1896 20.0443 17.1746 20.6107C17.1748 20.7265 17.1748 20.7265 17.1749 20.8447C17.1745 21.0983 17.1704 21.3516 17.1663 21.6051C17.1653 21.7816 17.1645 21.9581 17.164 22.1345C17.162 22.5977 17.1568 23.0607 17.151 23.5238C17.1456 23.9969 17.1432 24.47 17.1405 24.9431C17.1349 25.8704 17.1259 26.7976 17.1148 27.7249C17.2445 27.7228 17.2445 27.7228 17.3768 27.7207C17.6977 27.7159 18.0186 27.7129 18.3395 27.7104C18.4783 27.709 18.6172 27.7072 18.7561 27.705C18.9557 27.7018 19.1553 27.7003 19.355 27.6991C19.4481 27.6971 19.4481 27.6971 19.5431 27.695C19.7903 27.6949 19.9723 27.6987 20.1864 27.8292C20.3127 28.0468 20.3105 28.2028 20.3088 28.4541C20.3088 28.5491 20.3087 28.6441 20.3087 28.742C20.3074 28.8445 20.306 28.9469 20.3046 29.0525C20.3042 29.1575 20.3038 29.2624 20.3035 29.3706C20.302 29.7064 20.2987 30.0422 20.2953 30.378C20.294 30.6055 20.2928 30.833 20.2917 31.0604C20.2888 31.6185 20.2842 32.1765 20.2788 32.7346C20.8589 32.7346 21.439 32.7346 22.0366 32.7346C22.0263 32.2048 22.0263 32.2048 22.0129 31.6751C22.0122 31.6083 22.0116 31.5416 22.0109 31.4729C22.0088 31.3714 22.0088 31.3714 22.0067 31.2679C22.0478 30.9893 22.1239 30.8466 22.3003 30.6252C22.5212 30.4968 22.7266 30.3927 22.9595 30.2922C23.0256 30.2625 23.0917 30.2327 23.1598 30.202C23.3708 30.1074 23.5826 30.0147 23.7945 29.9221C23.9285 29.8625 24.0625 29.8028 24.1965 29.743C24.6183 29.5553 25.0413 29.3706 25.4644 29.186C25.6196 29.1181 25.7748 29.0502 25.9301 28.9823C26.2535 28.8407 26.5769 28.6992 26.9004 28.5578C27.4046 28.3373 27.9084 28.1161 28.4122 27.8948C28.4943 27.8587 28.5765 27.8226 28.6612 27.7854C28.9811 27.6448 29.3009 27.5043 29.6208 27.3637C29.8404 27.2672 30.0601 27.1707 30.2798 27.0743C30.344 27.046 30.4082 27.0178 30.4744 26.9887C30.8543 26.8219 31.2351 26.6573 31.6167 26.4944C31.3151 26.2414 31.0132 26.0394 30.6678 25.851C30.5698 25.7972 30.4719 25.7434 30.371 25.6879C30.3197 25.66 30.2684 25.632 30.2156 25.6032C29.9457 25.4561 29.6766 25.3074 29.4074 25.1589C29.3544 25.1296 29.3014 25.1004 29.2468 25.0702C28.7868 24.816 28.3332 24.5525 27.8816 24.2839C27.3133 23.946 26.7405 23.6162 26.1675 23.2864C24.7827 22.4883 24.7827 22.4883 24.146 22.1163C24.0851 22.081 24.0241 22.0456 23.9613 22.0092C23.7362 21.8772 23.5404 21.7579 23.355 21.5725C23.3116 21.1618 23.3894 20.9195 23.5933 20.5655C23.6443 20.4757 23.6953 20.386 23.7479 20.2934C23.8031 20.1989 23.8584 20.1044 23.9153 20.007C23.9714 19.909 24.0275 19.811 24.0853 19.71C24.2507 19.4219 24.4177 19.1347 24.5855 18.8479C24.629 18.7734 24.6725 18.6989 24.7173 18.6222C24.8631 18.3729 25.0093 18.124 25.1567 17.8757C25.5343 17.2394 25.8953 16.5938 26.2554 15.9475C26.1936 15.9247 26.1317 15.9019 26.068 15.8783C25.7953 15.763 25.5524 15.6247 25.2986 15.4724C25.2016 15.4142 25.1047 15.3561 25.0048 15.2962C24.955 15.2661 24.9051 15.2359 24.8537 15.2049C24.7006 15.1124 24.5472 15.0206 24.3937 14.9289C23.6416 14.4762 23.6416 14.4762 23.4429 14.2776C23.394 13.85 23.4861 13.6162 23.7134 13.2576C23.7716 13.1646 23.8297 13.0716 23.8895 12.9759C23.953 12.8769 24.0166 12.778 24.0801 12.6791C24.1442 12.5774 24.2083 12.4757 24.2722 12.3739C24.4014 12.1687 24.5311 11.9639 24.6616 11.7596C24.8337 11.4894 25.0043 11.2183 25.1743 10.9467C25.9458 9.71544 25.9458 9.71544 26.2389 9.66333ZM31.9683 15.5959C31.8902 15.7071 31.8164 15.8213 31.7444 15.9365C31.6991 16.0087 31.6538 16.0809 31.6071 16.1552C31.5595 16.2317 31.5119 16.3082 31.4629 16.387C31.4167 16.4607 31.3705 16.5345 31.3228 16.6105C31.2771 16.6835 31.2313 16.7566 31.1841 16.8319C31.1384 16.9044 31.0927 16.9769 31.0456 17.0516C30.9598 17.1909 30.8766 17.3319 30.7967 17.4746C30.5287 17.9444 30.5287 17.9444 30.252 18.0692C29.9905 18.0544 29.8585 17.9939 29.6337 17.8591C29.51 17.7874 29.51 17.7874 29.3838 17.7142C29.3357 17.686 29.2877 17.6577 29.2382 17.6285C28.8753 17.4176 28.5069 17.2162 28.1396 17.0132C28.0218 16.9472 28.0218 16.9472 27.9016 16.8799C27.8277 16.8389 27.7539 16.7979 27.6778 16.7557C27.6112 16.7185 27.5446 16.6814 27.4761 16.6431C27.3145 16.55 27.3145 16.55 27.1343 16.5627C26.953 16.8769 26.7717 17.1911 26.5904 17.5053C26.5288 17.6119 26.4673 17.7185 26.4057 17.8252C26.3759 17.8768 26.3462 17.9284 26.3155 17.9815C26.2861 18.0325 26.2567 18.0834 26.2264 18.1359C26.1403 18.2851 26.0544 18.4343 25.9686 18.5836C25.878 18.7404 25.787 18.8969 25.6949 19.0528C25.5204 19.3272 25.5204 19.3272 25.4644 19.6389C25.5231 19.6716 25.5819 19.7043 25.6424 19.7379C27.616 20.8368 27.616 20.8368 28.4911 21.3528C28.5507 21.3877 28.6102 21.4227 28.6716 21.4587C28.9277 21.6099 29.18 21.7639 29.4298 21.9254C29.5079 21.9757 29.5861 22.0261 29.6667 22.0779C29.7307 22.1209 29.7947 22.164 29.8606 22.2083C30.0361 22.2973 30.0361 22.2973 30.2239 22.2138C30.44 22.0621 30.5328 21.8946 30.6499 21.6604C30.6499 21.6024 30.6499 21.5444 30.6499 21.4846C30.9466 21.4736 30.9466 21.4736 31.2652 21.4846C31.4409 21.6604 31.4409 21.6604 31.4684 21.9076C31.4379 22.2188 31.3365 22.3641 31.1773 22.6272C31.1778 22.8058 31.1778 22.8058 31.2652 22.9788C31.4465 23.1214 31.4465 23.1214 31.6802 23.239C31.7683 23.2871 31.8563 23.3351 31.947 23.3847C32.0429 23.4356 32.1387 23.4866 32.2375 23.5391C32.439 23.6489 32.6404 23.7588 32.8417 23.869C32.8933 23.897 32.9448 23.9251 32.998 23.954C33.5272 24.2425 34.0471 24.5462 34.5666 24.8519C35.3654 25.3207 36.1685 25.7807 36.9781 26.2307C37.2817 25.9573 37.4689 25.6587 37.6592 25.3024C38.0313 24.6236 38.4226 23.957 38.8183 23.2919C38.8795 23.1887 38.9408 23.0855 39.002 22.9824C39.2717 22.5283 39.542 22.0746 39.8129 21.6213C39.8933 21.486 39.9738 21.3507 40.0542 21.2155C40.0907 21.1548 40.1272 21.0942 40.1648 21.0318C40.3461 20.7503 40.3461 20.7503 40.4058 20.4299C40.3485 20.3969 40.2913 20.3639 40.2323 20.3298C40.0579 20.2293 39.8836 20.1287 39.7093 20.0281C39.5048 19.9101 39.3004 19.7922 39.0959 19.6743C38.4654 19.3105 37.835 18.9467 37.2046 18.5827C36.9181 18.4174 36.6316 18.2522 36.345 18.0871C36.0379 17.9101 35.7311 17.7327 35.4249 17.5543C35.3127 17.4893 35.2006 17.4243 35.0884 17.3593C34.9969 17.3059 34.9053 17.2525 34.811 17.1975C34.6178 17.0765 34.6178 17.0765 34.4292 17.0901C34.3211 17.2291 34.3211 17.2291 34.2198 17.4108C34.1807 17.4774 34.1416 17.544 34.1014 17.6126C34.0609 17.6831 34.0205 17.7536 33.9788 17.8262C33.9377 17.896 33.8965 17.9658 33.8542 18.0377C33.6326 18.3777 33.6326 18.3777 33.5503 18.76C32.9571 18.771 32.9571 18.771 32.7593 18.6721C32.6896 18.5231 32.6896 18.5231 32.6714 18.3206C32.7658 18.074 32.7658 18.074 32.9076 17.8042C32.9562 17.7112 33.0048 17.6182 33.0549 17.5223C33.1657 17.3249 33.2782 17.1381 33.4075 16.9528C33.5747 16.7449 33.5747 16.7449 33.5503 16.4749C33.4119 16.3559 33.4119 16.3559 33.2266 16.2568C33.1596 16.218 33.0925 16.1792 33.0235 16.1393C32.9526 16.0995 32.8818 16.0598 32.8087 16.0189C32.703 15.9578 32.703 15.9578 32.595 15.8955C32.2985 15.6938 32.2985 15.6938 31.9683 15.5959ZM41.2847 21.0452C41.1696 21.1982 41.1696 21.1982 41.0578 21.4002C41.0127 21.4774 40.9676 21.5547 40.9211 21.6343C40.8725 21.7191 40.8239 21.8038 40.7738 21.8911C40.6699 22.0696 40.566 22.2482 40.4621 22.4267C40.4089 22.5186 40.3557 22.6105 40.3009 22.7051C40.058 23.1236 39.8118 23.5401 39.5653 23.9565C39.5189 24.0352 39.4724 24.1139 39.4246 24.1949C38.9355 25.0225 38.4407 25.8466 37.9449 26.6702C38.339 27.0945 38.8122 27.3388 39.3126 27.6205C39.4053 27.6741 39.4979 27.7278 39.5933 27.783C39.6821 27.8333 39.7709 27.8835 39.8623 27.9353C39.9434 27.9814 40.0245 28.0275 40.108 28.075C40.3245 28.1945 40.3245 28.1945 40.5816 28.0764C40.7018 27.8879 40.8073 27.7025 40.9112 27.5051C41.2613 26.8615 41.631 26.2317 42.0098 25.6045C42.6237 24.5862 43.2303 23.5639 43.8335 22.5393C43.582 22.2677 43.3337 22.0848 43.0116 21.9035C42.9223 21.8531 42.8331 21.8026 42.7411 21.7507C42.6484 21.6991 42.5557 21.6476 42.4602 21.5945C42.3669 21.5416 42.2735 21.4887 42.1773 21.4341C41.755 21.1608 41.755 21.1608 41.2847 21.0452ZM6.43057 23.4402C6.38934 23.4828 6.34812 23.5255 6.30564 23.5694C6.02501 23.862 5.75394 24.1624 5.49055 24.4705C5.31098 24.6795 5.1267 24.8838 4.94192 25.0881C4.65581 25.4052 4.37302 25.7247 4.09288 26.047C3.82966 26.346 3.56039 26.6395 3.29157 26.9335C3.13061 27.082 3.13061 27.082 3.14016 27.1975C4.13073 27.3394 4.13073 27.3394 5.072 27.1009C5.38032 26.8459 5.61502 26.5341 5.84426 26.2082C6.00247 25.9845 6.17831 25.7765 6.35366 25.566C6.41552 25.4889 6.47738 25.4117 6.54112 25.3322C6.81297 25.0046 7.10046 24.6929 7.39155 24.3824C7.57619 24.1846 7.73561 23.9957 7.88626 23.7698C8.35169 23.6146 8.84937 23.6657 9.33645 23.6654C9.44624 23.6643 9.55602 23.6633 9.66913 23.6621C9.77416 23.662 9.87918 23.6618 9.98739 23.6616C10.1319 23.6611 10.1319 23.6611 10.2794 23.6605C10.523 23.6819 10.523 23.6819 10.7866 23.8577C10.8163 24.1127 10.8296 24.3498 10.8316 24.6054C10.834 24.7162 10.834 24.7162 10.8364 24.8293C10.8412 25.0657 10.8441 25.3021 10.8471 25.5386C10.85 25.6987 10.853 25.8588 10.8562 26.0189C10.8639 26.4118 10.8691 26.8046 10.8745 27.1975C11.8607 27.1975 12.8468 27.1975 13.8628 27.1975C13.8628 25.6893 13.8628 24.1811 13.8628 22.6272C12.7709 22.617 12.7709 22.617 11.6789 22.61C11.2332 22.6079 10.7875 22.6055 10.3417 22.6007C9.98215 22.5968 9.62258 22.5947 9.26297 22.5938C9.12617 22.5932 8.98938 22.5919 8.85259 22.59C7.81594 22.5762 7.17762 22.6609 6.43057 23.4402ZM5.6011 28.2522C5.6011 29.6734 5.6011 31.0946 5.6011 32.5588C7.02229 32.5588 8.44348 32.5588 9.90774 32.5588C9.90774 31.1376 9.90774 29.7165 9.90774 28.2522C8.48655 28.2522 7.06536 28.2522 5.6011 28.2522ZM2.43704 28.2522C2.42111 28.9849 2.40823 29.7175 2.40061 30.4504C2.39695 30.7907 2.39199 31.131 2.384 31.4712C2.37632 31.8001 2.37215 32.1288 2.37033 32.4577C2.36904 32.5827 2.36651 32.7078 2.3627 32.8327C2.33002 33.5466 2.33002 33.5466 2.58608 34.1918C2.76192 34.3697 2.94016 34.5186 3.14016 34.6682C3.2563 34.7736 3.37177 34.8796 3.48623 34.9868C4.04772 35.4706 4.58181 35.898 5.34157 35.924C5.43197 35.9271 5.52238 35.9302 5.61552 35.9334C6.03025 35.9444 6.44496 35.9523 6.85979 35.9584C7.07796 35.9625 7.2961 35.9685 7.51416 35.9764C8.75629 36.0866 8.75629 36.0866 9.88585 35.6965C10.1099 35.4518 10.2701 35.2187 10.4351 34.9319C10.5683 34.7616 10.7035 34.5929 10.8416 34.4265C10.9064 34.347 10.9712 34.2674 11.038 34.1855C11.8399 33.246 12.6504 32.9551 13.8628 32.7346C13.8628 31.2554 13.8628 29.7762 13.8628 28.2522C12.8767 28.2522 11.8906 28.2522 10.8745 28.2522C10.8692 28.6118 10.8639 28.9714 10.8584 29.3419C10.8539 29.6282 10.8494 29.9146 10.8447 30.2009C10.8399 30.5033 10.8352 30.8058 10.8308 31.1083C10.8258 31.4552 10.8202 31.802 10.8145 32.1489C10.813 32.2576 10.8115 32.3663 10.81 32.4782C10.8083 32.5785 10.8065 32.6788 10.8047 32.7821C10.8033 32.8707 10.802 32.9593 10.8006 33.0506C10.7866 33.262 10.7866 33.262 10.6988 33.4377C9.93249 33.4398 9.16622 33.4413 8.39995 33.4423C8.04417 33.4428 7.6884 33.4434 7.33263 33.4444C6.98957 33.4453 6.64651 33.4459 6.30344 33.4461C6.17227 33.4462 6.0411 33.4466 5.90994 33.447C5.72683 33.4477 5.54373 33.4478 5.36063 33.4477C5.25621 33.4479 5.15179 33.4481 5.04421 33.4483C4.81009 33.4377 4.81009 33.4377 4.7222 33.3499C4.71136 33.1908 4.70656 33.0313 4.70415 32.8719C4.7024 32.7699 4.70064 32.6678 4.69884 32.5627C4.69737 32.4516 4.6959 32.3406 4.69439 32.2262C4.69256 32.1131 4.69073 32.0001 4.68885 31.8837C4.68399 31.5827 4.67965 31.2817 4.67542 30.9807C4.67101 30.6738 4.66611 30.3669 4.66126 30.06C4.65179 29.4574 4.64292 28.8548 4.6343 28.2522C3.90921 28.2522 3.18411 28.2522 2.43704 28.2522ZM34.0945 28.6484C34.0275 28.6803 33.9604 28.7122 33.8914 28.7451C33.6767 28.8475 33.4624 28.9508 33.2482 29.0542C33.1071 29.1218 32.9659 29.1893 32.8247 29.2568C32.6174 29.3558 32.4102 29.4549 32.2031 29.5542C31.6294 29.8292 31.0528 30.0973 30.4741 30.3616C30.4741 30.3906 30.4741 30.4196 30.4741 30.4495C33.1425 30.4495 35.8109 30.4495 38.5601 30.4495C38.2999 30.1892 38.0759 30.0473 37.7571 29.8679C37.7045 29.8381 37.6519 29.8083 37.5977 29.7776C37.4298 29.6825 37.2616 29.5881 37.0934 29.4937C36.8732 29.3696 36.6532 29.2452 36.4332 29.1208C36.3804 29.0911 36.3276 29.0614 36.2732 29.0308C35.9848 28.8677 35.7041 28.6972 35.4273 28.5152C34.9125 28.2096 34.5864 28.4092 34.0945 28.6484ZM11.2649 35.3779C11.0383 35.6176 11.0383 35.6176 10.9624 35.8987C11.2129 35.9196 11.4199 35.936 11.6656 35.8987C11.8421 35.7112 11.8421 35.7112 12.0171 35.4592C13.0265 34.6218 14.0603 34.3242 15.357 34.4045C16.3383 34.5602 17.2812 35.025 17.9058 35.8108C17.9928 35.9558 18.0798 36.1008 18.1695 36.2502C18.5465 36.2502 18.9236 36.2502 19.312 36.2502C19.312 35.4091 19.312 34.568 19.312 33.7014C18.3337 33.6937 18.3337 33.6937 17.3554 33.6885C16.9558 33.687 16.5562 33.6851 16.1566 33.6815C15.8341 33.6786 15.5115 33.6771 15.189 33.6764C15.0665 33.6759 14.9441 33.675 14.8217 33.6735C13.1418 33.6546 12.3582 34.1754 11.2649 35.3779ZM20.2788 33.7014C20.2788 34.5425 20.2788 35.3836 20.2788 36.2502C21.0604 36.2661 21.8419 36.279 22.6236 36.2867C22.9866 36.2903 23.3495 36.2953 23.7125 36.3033C24.063 36.3109 24.4133 36.3151 24.7639 36.317C24.8974 36.3182 25.0309 36.3208 25.1644 36.3246C25.8922 36.3707 25.8922 36.3707 26.5356 36.0989C26.6686 35.9208 26.7667 35.743 26.8706 35.5471C27.541 34.832 28.4402 34.4596 29.4057 34.3853C30.6733 34.3461 31.6491 34.7595 32.565 35.612C32.7889 35.841 32.954 36.06 33.1109 36.3381C33.1598 36.2765 33.2088 36.2149 33.2592 36.1514C33.3598 36.0263 33.3598 36.0263 33.4624 35.8987C33.5223 35.8153 33.5821 35.7319 33.6437 35.646C34.2955 34.8773 35.3196 34.485 36.2976 34.3712C37.3383 34.3324 38.3478 34.6461 39.1753 35.2834C39.4793 35.5812 39.7306 35.8967 39.9663 36.2502C40.1397 36.2886 40.1397 36.2886 40.3413 36.2802C40.4187 36.2802 40.4961 36.2801 40.5759 36.2801C40.7014 36.2781 40.7014 36.2781 40.8294 36.276C40.915 36.2756 41.0006 36.2752 41.0888 36.2749C41.3629 36.2734 41.6369 36.2701 41.9109 36.2667C42.0964 36.2654 42.2819 36.2642 42.4674 36.2631C42.9228 36.2602 43.3782 36.2558 43.8335 36.2502C43.8412 35.9518 43.8459 35.6534 43.85 35.3549C43.8522 35.2705 43.8544 35.1862 43.8567 35.0993C43.8708 34.4841 43.8708 34.4841 43.5699 33.9651C43.1514 33.6225 42.7246 33.6652 42.21 33.6697C42.1163 33.6695 42.0226 33.6693 41.9261 33.669C41.6117 33.6686 41.2973 33.67 40.9828 33.6715C40.7576 33.6716 40.5324 33.6715 40.3072 33.6714C39.8221 33.6713 39.337 33.6721 38.8519 33.6735C38.1506 33.6757 37.4492 33.6764 36.7478 33.6767C35.6099 33.6773 34.4719 33.679 33.334 33.6815C32.2286 33.6839 31.1233 33.6858 30.0179 33.6869C29.9157 33.687 29.9157 33.687 29.8114 33.6871C29.4696 33.6875 29.1277 33.6878 28.7859 33.6881C25.9502 33.6909 23.1145 33.6956 20.2788 33.7014ZM13.79 37.0931C13.4535 37.4664 13.2717 37.7952 13.2146 38.2992C13.2663 38.8073 13.447 39.1743 13.8079 39.5352C14.2691 39.8207 14.6349 39.89 15.1657 39.8132C15.6519 39.6928 15.9588 39.3751 16.2359 38.9749C16.3777 38.5494 16.4096 38.0796 16.2606 37.6503C16.0439 37.2466 15.7848 36.9647 15.3566 36.7961C14.7777 36.629 14.2552 36.6886 13.79 37.0931ZM28.7314 37.09C28.4143 37.4364 28.1934 37.7829 28.1866 38.2666C28.2267 38.8081 28.4428 39.155 28.8427 39.5242C29.2812 39.8236 29.5822 39.8878 30.104 39.8132C30.5821 39.6967 30.9228 39.3837 31.1773 38.9749C31.3727 38.4809 31.3903 38.0707 31.192 37.5755C30.9396 37.1264 30.5809 36.8707 30.0896 36.7281C29.5781 36.6445 29.1291 36.7518 28.7314 37.09ZM35.5632 37.1185C35.1842 37.5411 35.0096 37.8436 35.0204 38.431C35.0795 38.9038 35.3046 39.2834 35.6707 39.5846C36.0526 39.825 36.4434 39.8894 36.8902 39.8538C37.4358 39.6937 37.7572 39.3895 38.0389 38.899C38.1915 38.5482 38.1829 38.2056 38.1206 37.8323C37.9351 37.415 37.7098 37.1189 37.3296 36.8655C36.671 36.6459 36.1063 36.632 35.5632 37.1185Z" fill="black"/>
<path d="M6.05707 4.67564C6.16313 4.74187 6.26927 4.80796 6.37551 4.87391C6.59501 5.01033 6.8141 5.14736 7.03293 5.28486C7.49771 5.57623 7.96729 5.85966 8.43676 6.14337C8.69295 6.2983 8.94878 6.4538 9.20466 6.60923C9.30719 6.67149 9.40973 6.73375 9.51227 6.796C10.1275 7.16953 10.1275 7.16953 10.2813 7.2629C10.3839 7.32522 10.4866 7.38754 10.5892 7.44987C10.8439 7.60447 11.0985 7.75908 11.3531 7.91371C11.8349 8.20624 12.3167 8.49868 12.7986 8.79087C13.027 8.92932 13.2553 9.06781 13.4836 9.2063C13.5927 9.27248 13.7019 9.33864 13.811 9.40478C13.9621 9.49632 14.1132 9.58794 14.2642 9.67957C14.3503 9.73173 14.4363 9.7839 14.525 9.83765C14.6872 9.93746 14.847 10.0412 15.0054 10.1468C15.2209 10.1871 15.2209 10.1871 15.4655 10.2029C15.6063 10.2148 15.6063 10.2148 15.7499 10.227C15.8513 10.2349 15.9526 10.2427 16.057 10.2509C16.2709 10.2691 16.4847 10.2873 16.6985 10.3056C17.0362 10.3336 17.374 10.3611 17.7117 10.3883C18.0373 10.4147 18.3628 10.4426 18.6883 10.4706C18.7894 10.4783 18.8906 10.486 18.9948 10.4939C19.1361 10.5062 19.1361 10.5062 19.2801 10.5188C19.3629 10.5255 19.4456 10.5322 19.5308 10.5391C19.7848 10.5934 19.916 10.6714 20.1031 10.85C20.1884 11.2793 20.0401 11.524 19.8133 11.8708C19.7351 11.9855 19.6566 12.0999 19.5778 12.2141C19.4511 12.4017 19.4511 12.4017 19.3121 12.6957C19.372 12.9144 19.372 12.9144 19.4879 13.1351C19.5877 13.7646 19.4049 14.1778 19.0704 14.7007C19.0314 14.7654 18.9924 14.8302 18.9523 14.8969C18.4553 15.7058 18.4553 15.7058 17.9937 15.8597C17.8712 15.8656 17.7484 15.8672 17.6257 15.8652C17.5151 15.8634 17.4045 15.8616 17.2906 15.8597C17.2551 15.9545 17.2551 15.9545 17.2188 16.0513C17.115 16.2988 16.9948 16.5197 16.8566 16.7496C16.8123 16.8242 16.768 16.8987 16.7224 16.9755C16.4788 17.3412 16.4788 17.3412 16.3238 17.4418C16.0383 17.478 15.9537 17.4855 15.7086 17.3539C15.438 17.0439 15.2365 16.6964 15.0274 16.3431C14.966 16.2427 14.9043 16.1424 14.8424 16.0423C14.7189 15.8419 14.5966 15.641 14.4747 15.4397C14.2407 15.0553 13.998 14.677 13.753 14.2997C13.7153 14.2407 13.6776 14.1817 13.6388 14.121C13.6035 14.0662 13.5682 14.0114 13.5319 13.955C13.5022 13.9087 13.4725 13.8623 13.4419 13.8146C13.1643 13.4174 12.9186 13.1559 12.4954 12.9126C12.399 12.8565 12.3026 12.8004 12.2033 12.7425C12.1524 12.7134 12.1015 12.6843 12.049 12.6543C11.7783 12.4994 11.5092 12.3417 11.2399 12.1844C11.1858 12.153 11.1316 12.1215 11.0759 12.0891C10.61 11.8178 10.1507 11.5367 9.69355 11.251C8.98966 10.8122 8.28246 10.3791 7.57319 9.94907C7.52184 9.91793 7.4705 9.8868 7.4176 9.85471C6.93515 9.56212 6.45253 9.2698 5.96987 8.97756C5.69303 8.80993 5.41625 8.64221 5.1395 8.47443C4.98581 8.3813 4.83204 8.28829 4.67827 8.1953C1.73041 6.4084 1.73041 6.4084 1.33536 4.90532C1.25035 4.47313 1.22328 4.18921 1.47028 3.8187C2.95577 2.95719 4.78672 3.86466 6.05707 4.67564ZM2.34919 4.69761C2.40789 4.83204 2.46878 4.96552 2.53046 5.09861C2.56411 5.17305 2.59776 5.24748 2.63243 5.32417C3.04314 5.98762 3.63746 6.36542 4.29926 6.75205C4.48055 6.86017 4.66183 6.96832 4.84308 7.07649C4.93814 7.13282 5.0332 7.18914 5.13113 7.24717C5.58082 7.51471 6.0276 7.78702 6.47451 8.05917C6.73359 8.21685 6.99289 8.37416 7.25218 8.5315C7.35737 8.59534 7.46255 8.65918 7.56774 8.72303C7.83589 8.88578 8.10406 9.0485 8.37224 9.21122C8.47989 9.27654 8.58753 9.34188 8.69516 9.40724C8.95718 9.56634 9.21934 9.72521 9.48183 9.88354C9.93673 10.1583 10.3893 10.4355 10.8348 10.7253C10.9074 10.772 10.9801 10.8186 11.055 10.8666C11.1862 10.9513 11.3166 11.0373 11.4457 11.1251C11.7367 11.3114 11.8759 11.3873 12.2221 11.3224C12.4834 11.1877 12.6343 11.0882 12.8082 10.85C12.9179 10.5507 12.9179 10.5507 12.8961 10.2347C12.5244 9.76297 11.9961 9.50049 11.4843 9.202C11.3363 9.11448 11.1884 9.02695 11.0404 8.9393C10.9373 8.87822 10.8341 8.81721 10.7309 8.75628C10.2174 8.45302 9.70748 8.14391 9.19808 7.83379C9.04472 7.74043 8.89129 7.6472 8.73785 7.55399C8.25979 7.26357 7.78194 6.9728 7.30436 6.6816C7.08579 6.54837 6.86714 6.41526 6.64848 6.28217C6.49741 6.19014 6.34645 6.09793 6.1955 6.00571C5.69423 5.70061 5.19081 5.39929 4.68344 5.10445C4.58583 5.04752 4.48822 4.9906 4.38765 4.93195C3.77211 4.61075 2.99152 4.31697 2.34919 4.69761ZM13.8629 10.7621C13.8426 10.813 13.8223 10.864 13.8014 10.9166C13.7727 10.9852 13.7441 11.0539 13.7145 11.1246C13.6732 11.2256 13.6732 11.2256 13.6311 11.3285C13.478 11.6154 13.2825 11.8326 13.0718 12.0804C13.1421 12.1224 13.2123 12.1643 13.2846 12.2075C13.5543 12.3687 13.824 12.5301 14.0936 12.6915C14.2141 12.7637 14.3347 12.8358 14.4553 12.9079C15.0689 13.2747 15.6813 13.6426 16.2853 14.025C16.3698 14.0783 16.4542 14.1317 16.5412 14.1866C16.6975 14.2859 16.8532 14.3858 17.0084 14.4867C17.0774 14.5304 17.1464 14.5742 17.2175 14.6193C17.2766 14.6576 17.3358 14.6958 17.3967 14.7352C17.5694 14.8329 17.5694 14.8329 17.8179 14.7171C17.9506 14.5119 18.0701 14.3108 18.186 14.0964C18.2345 14.009 18.2345 14.009 18.284 13.9198C18.3637 13.7758 18.4425 13.6313 18.5211 13.4867C18.4571 13.4479 18.3931 13.409 18.3272 13.369C18.1343 13.2519 17.9413 13.1348 17.7484 13.0177C17.5263 12.8829 17.3042 12.7481 17.0821 12.6135C16.5381 12.2835 15.9946 11.9528 15.4528 11.6193C15.3603 11.5626 15.2679 11.5058 15.1727 11.4474C14.9976 11.3399 14.8228 11.232 14.6482 11.1239C14.5701 11.076 14.492 11.0281 14.4115 10.9787C14.3434 10.9367 14.2753 10.8946 14.2051 10.8513C14.0443 10.7482 14.0443 10.7482 13.8629 10.7621Z" fill="#AFC800"/>
<path d="M21.6851 14.8928C22.5443 15.2381 23.0862 15.9157 23.4793 16.7334C23.65 17.1603 23.7851 17.5172 23.6187 17.969C22.9996 18.2785 21.8225 18.1115 21.1852 17.9086C20.6617 17.6996 20.1815 17.4894 19.8394 17.0297C19.6983 16.5624 19.6459 16.1173 19.8349 15.656C20.2702 14.9104 20.8518 14.7553 21.6851 14.8928Z" fill="#454B1B"/>
<path d="M8.14406 28.9319C8.24569 28.9323 8.34732 28.9328 8.45202 28.9333C8.55342 28.9328 8.65482 28.9324 8.7593 28.9319C9.02881 28.9552 9.02881 28.9552 9.29248 29.131C9.33093 29.4331 9.33093 29.4331 9.29248 29.7462C9.10074 29.9393 8.97696 30.004 8.70746 30.048C8.04016 30.0489 8.04016 30.0489 7.73242 29.8671C7.58368 29.5845 7.61881 29.4321 7.71045 29.131C7.88623 28.9552 7.88623 28.9552 8.14406 28.9319Z" fill="#454B1B"/>
<path d="M32.3199 19.6389C32.4902 19.7817 32.4902 19.7817 32.5835 19.9905C32.5726 20.2651 32.5726 20.2651 32.4957 20.5178C32.232 20.6936 32.232 20.6936 31.9628 20.6716C31.7046 20.6057 31.7046 20.6057 31.5289 20.4299C31.4998 20.1572 31.4844 19.9766 31.6277 19.7378C31.8726 19.5909 32.0404 19.5981 32.3199 19.6389Z" fill="#454B1B"/>
</g>
<defs>
<clipPath id="clip0_157_4749">
<rect width="45" height="45" fill="white" transform="translate(0.679199 0.390869)"/>
</clipPath>
</defs>
</svg>
