<svg width="57" height="56" viewBox="0 0 57 56" fill="none" xmlns="http://www.w3.org/2000/svg">
<g clip-path="url(#clip0_157_4727)" filter="url(#filter0_i_157_4727)">
<path d="M48.8877 39.696C38.1743 39.696 27.4609 39.696 16.4229 39.696C16.4229 40.8426 16.4229 41.9892 16.4229 43.1705C16.8791 43.1746 17.3352 43.1787 17.8052 43.1828C18.1695 43.187 18.5339 43.1914 18.8983 43.1961C19.2825 43.201 19.6668 43.2052 20.0511 43.2082C20.4923 43.2115 20.9335 43.2175 21.3747 43.2236C21.5806 43.2246 21.5806 43.2246 21.7908 43.2257C21.919 43.2278 22.0472 43.23 22.1793 43.2322C22.2919 43.2334 22.4045 43.2346 22.5205 43.2358C22.9917 43.3019 23.2781 43.4822 23.5652 43.8577C23.7135 44.1824 23.7437 44.415 23.7532 44.7708C23.757 44.8866 23.7609 45.0024 23.7649 45.1218C23.7685 45.3014 23.7685 45.3014 23.7723 45.4846C23.776 45.6064 23.7797 45.7283 23.7835 45.8538C23.7924 46.1537 23.7995 46.4537 23.8062 46.7536C24.3078 46.7536 24.8095 46.7536 25.3263 46.7536C25.3567 46.6486 25.387 46.5437 25.4183 46.4355C25.8246 45.0924 26.4026 43.9771 27.6442 43.2354C28.7595 42.6407 29.8906 42.4522 31.1284 42.7498C32.3611 43.1259 33.2805 43.7392 33.9578 44.848C34.2909 45.4776 34.4525 46.0486 34.664 46.7536C35.4523 46.7536 36.2405 46.7536 37.0527 46.7536C37.093 46.561 37.1333 46.3684 37.1749 46.17C37.4775 44.9736 38.1464 43.9524 39.2132 43.3054C40.4624 42.6541 41.6049 42.4179 42.9838 42.8041C43.6178 43.0182 44.1342 43.2924 44.6532 43.7134C44.721 43.7679 44.7889 43.8223 44.8589 43.8784C45.7217 44.651 46.0366 45.6501 46.2818 46.7536C47.1418 46.7536 48.0017 46.7536 48.8877 46.7536C48.8877 44.4246 48.8877 42.0956 48.8877 39.696Z" fill="black"/>
<path d="M15.4456 36.3302C12.2059 36.3127 12.2059 36.3127 10.6018 36.3083C9.73541 36.3059 8.86904 36.3029 8.00267 36.2974C7.31656 36.2931 6.63046 36.2903 5.94433 36.2893C5.58137 36.2887 5.21848 36.2872 4.85552 36.2842C4.4493 36.2811 4.04315 36.2807 3.63692 36.2809C3.4585 36.2785 3.4585 36.2785 3.27648 36.2761C2.2487 36.2816 1.42613 36.5417 0.632311 37.2039C-0.114107 38.1323 -0.0292139 39.0918 -0.0149155 40.222C-0.0141039 40.4106 -0.0134859 40.5993 -0.0130529 40.7879C-0.0114021 41.282 -0.00714302 41.7761 -0.0023241 42.2701C0.00213623 42.7753 0.00410652 43.2804 0.00629139 43.7856C0.0109358 44.7749 0.018569 45.7643 0.0274982 46.7536C0.815773 46.7536 1.60405 46.7536 2.41621 46.7536C2.48003 46.4916 2.48003 46.4916 2.54515 46.2243C2.89335 44.9727 3.45295 43.9994 4.58056 43.2982C5.81592 42.6483 6.98186 42.4245 8.34049 42.8041C8.89298 42.9865 9.34345 43.2193 9.81011 43.565C10.0167 43.7135 10.0167 43.7135 10.247 43.8144C10.5066 43.9623 10.5507 44.0936 10.6681 44.3649C10.8284 44.6113 10.9894 44.857 11.1529 45.1012C11.4003 45.62 11.5059 46.1961 11.6453 46.7536C12.8994 46.7536 14.1535 46.7536 15.4456 46.7536C15.4456 43.3139 15.4456 39.8741 15.4456 36.3302ZM3.39341 37.5245C3.33306 38.3695 3.13002 39.0302 2.50443 39.6282C2.08273 39.9656 1.6405 40.061 1.11328 40.1304C1.07439 39.4275 1.07722 38.7987 1.43901 38.176C1.90098 37.714 2.34467 37.5132 2.99303 37.5109C3.12516 37.5154 3.25728 37.5199 3.39341 37.5245Z" fill="black"/>
<path d="M26.7378 24.7124C25.7704 24.9811 25.7704 24.9811 24.7834 25.2553C23.2351 25.4765 21.7948 25.2611 20.3317 24.7124C20.2231 24.821 20.2231 24.821 20.2098 25.0514C20.2099 25.205 20.2099 25.205 20.2101 25.3617C20.2099 25.4787 20.2098 25.5958 20.2096 25.7165C20.2102 25.9108 20.2102 25.9108 20.2108 26.1091C20.2108 26.2447 20.2108 26.3802 20.2107 26.5199C20.2108 26.8927 20.2114 27.2656 20.2121 27.6384C20.2128 28.0276 20.2129 28.4169 20.213 28.8061C20.2133 29.5436 20.2142 30.2812 20.2153 31.0187C20.2167 32.015 20.2173 33.0113 20.218 34.0076C20.219 35.5781 20.2211 37.1485 20.2231 38.7189C22.373 38.7189 24.5228 38.7189 26.7378 38.7189C26.7378 34.0968 26.7378 29.4746 26.7378 24.7124ZM25.1091 27.9697C25.1091 28.7938 25.1091 29.618 25.1091 30.467C24.0342 30.467 22.9593 30.467 21.8518 30.467C21.8518 29.6429 21.8518 28.8188 21.8518 27.9697C22.9267 27.9697 24.0016 27.9697 25.1091 27.9697Z" fill="black"/>
<path d="M48.8877 24.7124C47.974 24.9811 47.974 24.9811 47.0419 25.2553C45.3863 25.4622 44.0902 25.195 42.4816 24.7124C42.4816 29.3346 42.4816 33.9567 42.4816 38.7189C44.5956 38.7189 46.7096 38.7189 48.8877 38.7189C48.8877 34.0968 48.8877 29.4746 48.8877 24.7124ZM47.3676 27.9697C47.3676 28.7938 47.3676 29.618 47.3676 30.467C46.2927 30.467 45.2178 30.467 44.1103 30.467C44.1103 29.6429 44.1103 28.8188 44.1103 27.9697C45.1852 27.9697 46.2601 27.9697 47.3676 27.9697Z" fill="black"/>
<path d="M34.121 24.7124C33.2073 24.9811 33.2073 24.9811 32.2751 25.2553C31.2992 25.3773 30.5193 25.3964 29.5607 25.2214C29.4899 25.2086 29.4191 25.1958 29.3461 25.1827C28.7739 25.0712 28.2793 24.9005 27.7149 24.7124C27.7149 29.3346 27.7149 33.9567 27.7149 38.7189C29.8289 38.7189 31.9429 38.7189 34.121 38.7189C34.121 34.0968 34.121 29.4746 34.121 24.7124ZM32.6009 27.9697C32.6009 28.7938 32.6009 29.618 32.6009 30.467C31.4901 30.467 30.3794 30.467 29.235 30.467C29.235 29.6429 29.235 28.8188 29.235 27.9697C30.3457 27.9697 31.4565 27.9697 32.6009 27.9697Z" fill="black"/>
<path d="M41.5043 24.7124C40.5906 24.9811 40.5906 24.9811 39.6584 25.2553C38.6825 25.3773 37.9026 25.3964 36.944 25.2214C36.8732 25.2086 36.8024 25.1958 36.7294 25.1827C36.1572 25.0712 35.6626 24.9005 35.0982 24.7124C35.0982 29.3346 35.0982 33.9567 35.0982 38.7189C37.2122 38.7189 39.3262 38.7189 41.5043 38.7189C41.5043 34.0968 41.5043 29.4746 41.5043 24.7124ZM39.9842 27.9697C39.9842 28.7938 39.9842 29.618 39.9842 30.467C38.8734 30.467 37.7627 30.467 36.6183 30.467C36.6183 29.6429 36.6183 28.8188 36.6183 27.9697C37.729 27.9697 38.8398 27.9697 39.9842 27.9697Z" fill="black"/>
<path d="M15.4456 27.2095C12.7224 27.2095 9.99929 27.2095 7.19364 27.2095C6.90699 28.4725 6.62035 29.7355 6.32502 31.0368C6.23432 31.4354 6.14362 31.8339 6.05018 32.2445C5.9399 32.7318 5.9399 32.7318 5.88837 32.9601C5.85235 33.1193 5.81614 33.2785 5.77979 33.4376C5.72472 33.6788 5.67023 33.9201 5.61587 34.1615C5.56957 34.3655 5.56957 34.3655 5.52235 34.5736C5.45639 34.9185 5.45639 34.9185 5.45639 35.3528C8.75282 35.3528 12.0492 35.3528 15.4456 35.3528C15.4456 32.6655 15.4456 29.9782 15.4456 27.2095ZM13.4912 29.2725C13.4912 30.5982 13.4912 31.9239 13.4912 33.2898C11.6638 33.2898 9.83642 33.2898 7.95368 33.2898C8.22238 31.9464 8.50851 30.6061 8.82231 29.2725C10.363 29.2725 11.9037 29.2725 13.4912 29.2725Z" fill="black"/>
<path d="M39.2242 44.365C38.3993 45.1359 37.9572 46.0345 37.9009 47.1609C37.923 48.2327 38.2709 49.1017 38.9875 49.9076C39.7757 50.6542 40.7483 51.0018 41.8301 50.9883C42.8555 50.8985 43.762 50.5226 44.4767 49.7736C45.2541 48.8327 45.4814 47.7836 45.372 46.5892C45.1964 45.604 44.7048 44.841 43.9333 44.2153C42.4615 43.209 40.6314 43.2387 39.2242 44.365ZM42.9159 46.5366C43.0468 46.9296 43.0595 47.2089 43.0244 47.6224C42.7798 48.0936 42.5409 48.3929 42.0472 48.5996C41.5846 48.6584 41.3501 48.6322 40.9343 48.4163C40.48 48.0343 40.3347 47.7925 40.2489 47.2016C40.2642 46.7261 40.4802 46.4767 40.7977 46.14C41.1363 45.8374 41.4576 45.8365 41.8958 45.8393C42.3419 45.9179 42.6346 46.1926 42.9159 46.5366Z" fill="#AFC800"/>
<path d="M27.6102 44.2864C26.8425 44.9363 26.3753 45.8177 26.2581 46.8134C26.2173 47.8935 26.3905 48.7823 27.0694 49.642C27.9481 50.5753 28.8259 50.9142 30.1037 50.9882C31.2478 50.9294 32.1717 50.4469 32.9488 49.614C33.6847 48.6541 33.8246 47.6087 33.6867 46.4279C33.4501 45.4091 32.837 44.5504 31.9563 43.9917C30.522 43.2107 28.9396 43.3322 27.6102 44.2864ZM31.0809 46.3193C31.3415 46.6976 31.4092 46.8969 31.393 47.3576C31.26 47.8802 31.1305 48.1607 30.6873 48.4773C30.2075 48.6372 29.828 48.6383 29.3436 48.4909C29.0003 48.2206 28.7053 47.9397 28.5836 47.5137C28.6032 46.8954 28.6679 46.5476 29.1265 46.1022C29.4571 45.8542 29.8006 45.8389 30.2093 45.8511C30.5843 45.9089 30.8006 46.0716 31.0809 46.3193Z" fill="#AFC800"/>
<path d="M4.47936 44.4734C3.68284 45.2131 3.32968 46.0972 3.27482 47.1751C3.30833 48.2894 3.68039 49.241 4.49123 50.0113C5.3921 50.7553 6.32242 51.0454 7.49027 50.9686C8.55904 50.8208 9.39589 50.3196 10.0745 49.4841C10.6472 48.6464 10.8646 47.7588 10.7769 46.7535C10.5498 45.5985 10.0043 44.719 9.03963 44.0391C7.48452 43.1823 5.85739 43.3493 4.47936 44.4734ZM8.17101 46.3192C8.43091 46.6881 8.52435 46.9675 8.49674 47.4118C8.41698 47.8702 8.21107 48.093 7.84527 48.3822C7.43104 48.6312 7.14016 48.6221 6.67127 48.5565C6.19698 48.4252 5.9779 48.0982 5.74158 47.69C5.64926 47.3023 5.68579 47.031 5.78229 46.645C6.01851 46.2784 6.22856 46.014 6.65092 45.8849C7.30829 45.8213 7.65676 45.8648 8.17101 46.3192Z" fill="#AFC800"/>
<path d="M19.2458 28.6211C18.3143 28.6211 17.3827 28.6211 16.4228 28.6211C16.4228 31.9533 16.4228 35.2856 16.4228 38.7188C17.3544 38.7188 18.286 38.7188 19.2458 38.7188C19.2458 35.3866 19.2458 32.0543 19.2458 28.6211Z" fill="black"/>
<path d="M22.4683 44.1348C22.3566 44.135 22.245 44.1352 22.13 44.1355C21.9409 44.1355 21.9409 44.1355 21.7479 44.1355C21.5422 44.1364 21.5422 44.1364 21.3322 44.1372C21.1228 44.1374 21.1228 44.1374 20.9091 44.1377C20.5373 44.1381 20.1655 44.1392 19.7937 44.1404C19.4145 44.1415 19.0353 44.142 18.6562 44.1425C17.9117 44.1437 17.1673 44.1456 16.4229 44.1478C16.4229 45.0078 16.4229 45.8677 16.4229 46.7537C18.5369 46.7537 20.6509 46.7537 22.829 46.7537C22.829 44.1534 22.829 44.1534 22.4683 44.1348Z" fill="black"/>
</g>
<defs>
<filter id="filter0_i_157_4727" x="0.679077" y="0.390869" width="55.5919" height="59.5918" filterUnits="userSpaceOnUse" color-interpolation-filters="sRGB">
<feFlood flood-opacity="0" result="BackgroundImageFix"/>
<feBlend mode="normal" in="SourceGraphic" in2="BackgroundImageFix" result="shape"/>
<feColorMatrix in="SourceAlpha" type="matrix" values="0 0 0 0 0 0 0 0 0 0 0 0 0 0 0 0 0 0 127 0" result="hardAlpha"/>
<feOffset dy="4"/>
<feGaussianBlur stdDeviation="2"/>
<feComposite in2="hardAlpha" operator="arithmetic" k2="-1" k3="1"/>
<feColorMatrix type="matrix" values="0 0 0 0 0 0 0 0 0 0 0 0 0 0 0 0 0 0 0.25 0"/>
<feBlend mode="normal" in2="shape" result="effect1_innerShadow_157_4727"/>
</filter>
<clipPath id="clip0_157_4727">
<rect width="55.5919" height="55.5919" fill="white" transform="matrix(-1 0 0 1 56.271 0.390869)"/>
</clipPath>
</defs>
</svg>
