<svg width="42" height="41" viewBox="0 0 42 41" fill="none" xmlns="http://www.w3.org/2000/svg">
<g clip-path="url(#clip0_157_4821)">
<path d="M10.7563 6.33167C11.291 6.77095 11.7746 7.25919 12.2626 7.74879C12.3573 7.84355 12.4521 7.93829 12.5469 8.03302C12.8028 8.28892 13.0585 8.54507 13.3141 8.80126C13.5818 9.06945 13.8497 9.3374 14.1176 9.60538C14.6242 10.1123 15.1307 10.6194 15.6371 11.1266C16.2138 11.7042 16.7908 12.2817 17.3678 12.8591C18.5542 14.0463 19.7403 15.2338 20.9262 16.4215C21.3675 16.2106 21.6886 15.884 22.0423 15.5507C22.1154 15.4869 22.1886 15.4231 22.2639 15.3573C22.4718 15.1591 22.6308 14.9927 22.768 14.7399C22.7578 14.3921 22.6464 14.1031 22.5278 13.7789C22.3722 12.8173 22.599 11.8639 23.1434 11.0663C23.7916 10.2401 24.6938 9.68514 25.7409 9.55481C26.801 9.4757 27.7745 9.78343 28.5824 10.4695C29.2924 11.1608 29.7527 12.0069 29.8177 13.0047C29.8034 14.0876 29.4509 15.0601 28.7088 15.8566C28.0043 16.5128 27.1507 16.8513 26.1914 16.8469C26.1088 16.8489 26.1088 16.8489 26.0246 16.8508C25.4954 16.8513 25.1585 16.7313 24.6098 16.5817C24.0549 17.1366 23.4999 17.6915 22.9282 18.2633C23.0873 18.5816 23.2322 18.7472 23.4815 18.9961C23.5219 19.0366 23.5622 19.0771 23.6038 19.1188C23.7391 19.2543 23.8749 19.3892 24.0107 19.5241C24.1078 19.6212 24.2048 19.7183 24.3019 19.8154C24.5654 20.079 24.8294 20.342 25.0935 20.605C25.3694 20.8799 25.6449 21.1553 25.9204 21.4306C26.4422 21.9519 26.9644 22.4728 27.4867 22.9935C28.0814 23.5864 28.6756 24.1797 29.2697 24.7731C30.4919 25.9936 31.7148 27.2136 32.9379 28.4332C32.7918 28.7573 32.6244 28.8841 32.3273 29.0839C32.2816 29.1147 32.2359 29.1455 32.1887 29.1772C32.0388 29.2774 31.888 29.376 31.7368 29.4742C31.6856 29.5076 31.6345 29.5409 31.5818 29.5752C29.3666 31.0098 27.0787 31.8625 24.4497 32.1969C24.334 32.2127 24.334 32.2127 24.216 32.2288C20.5793 32.646 16.5805 31.5643 13.6391 29.3942C13.597 29.3633 13.555 29.3324 13.5116 29.3006C12.9247 28.8661 12.3763 28.3957 11.8424 27.8977C11.7643 27.825 11.7643 27.825 11.6846 27.7508C8.76968 24.9875 7.19514 20.968 7.06238 16.9933C7.01012 14.2988 7.60138 11.5775 8.9145 9.21448C8.95548 9.13561 8.99646 9.05675 9.03868 8.97549C9.33255 8.4147 9.6768 7.89373 10.0356 7.37268C10.0683 7.32522 10.1009 7.27776 10.1346 7.22887C10.3409 6.9292 10.5483 6.63021 10.7563 6.33167Z" fill="black"/>
<path d="M10.0356 29.3942C10.3196 29.5281 10.5089 29.6864 10.7363 29.9047C12.0552 31.1318 13.6091 32.0856 15.2407 32.8375C15.2977 32.864 15.3547 32.8905 15.4134 32.9178C16.6908 33.5044 18.031 33.9071 19.4048 34.1989C19.5576 34.6737 19.6254 35.143 19.6857 35.6374C19.6996 35.7476 19.6996 35.7476 19.7138 35.8599C19.7481 36.132 19.7816 36.4041 19.8152 36.6763C19.8912 37.2857 19.9671 37.8952 20.0454 38.5231C22.503 38.5627 22.503 38.5627 25.0103 38.6031C25.0103 39.3959 25.0103 40.1887 25.0103 41.0055C17.8489 41.0055 10.6875 41.0055 3.30908 41.0055C3.30908 40.2127 3.30908 39.4199 3.30908 38.6031C4.94748 38.6031 6.58588 38.6031 8.27393 38.6031C8.47212 37.4933 8.47212 37.4933 8.67432 36.361C8.78512 35.7796 8.89693 35.1986 9.01121 34.618C9.04117 34.465 9.07112 34.312 9.10105 34.159C9.17816 33.7651 9.25549 33.3713 9.33287 32.9775C9.41248 32.5721 9.49187 32.1666 9.57129 31.7612C9.72586 30.9721 9.88068 30.1831 10.0356 29.3942Z" fill="black"/>
<path d="M26.1313 0.00553837C28.1866 -0.0433967 30.1262 0.376281 31.9771 1.28679C32.0276 1.31134 32.0781 1.3359 32.1302 1.3612C33.1612 1.86806 34.0807 2.49796 34.9215 3.28249C35.0855 3.43531 35.2539 3.57993 35.4254 3.72417C36.5256 4.68987 37.3111 5.92601 37.9829 7.21257C38.0086 7.26136 38.0343 7.31014 38.0608 7.36041C38.6863 8.56519 39.042 9.88162 39.2642 11.2165C39.2792 11.3044 39.2943 11.3924 39.3098 11.483C39.351 11.835 39.3529 12.1788 39.3492 12.5328C39.3476 12.759 39.3459 12.9853 39.3442 13.2184C38.525 13.2184 37.7058 13.2184 36.8618 13.2184C36.8552 13.0401 36.8486 12.8617 36.8418 12.6779C36.6864 9.86974 35.4414 7.15735 33.3634 5.25066C32.899 4.85857 32.3986 4.51194 31.897 4.1696C31.8302 4.12398 31.7634 4.07835 31.6946 4.03134C30.0426 2.97518 28.0604 2.57408 26.1313 2.48796C26.1313 1.66876 26.1313 0.849562 26.1313 0.00553837Z" fill="#D61414"/>
<path d="M26.1314 4.7301C28.3643 4.86013 30.1981 5.5003 31.897 6.97229C31.9576 7.02473 32.0182 7.07717 32.0806 7.1312C33.8033 8.74039 34.4656 10.9387 34.6197 13.2184C33.7741 13.2184 32.9284 13.2184 32.0572 13.2184C32.0374 13.0136 32.0175 12.8088 31.9971 12.5978C31.8259 11.0717 31.1407 9.72718 29.9927 8.69366C28.9388 7.85651 27.7216 7.39021 26.3782 7.30949C26.2115 7.2926 26.2115 7.2926 26.1314 7.21252C26.1244 7.02902 26.1228 6.84531 26.1236 6.66167C26.1237 6.60669 26.1238 6.5517 26.1239 6.49505C26.1244 6.3188 26.1254 6.14256 26.1264 5.96631C26.1268 5.84708 26.1272 5.72785 26.1275 5.60862C26.1284 5.31578 26.1298 5.02294 26.1314 4.7301Z" fill="#D61414"/>
</g>
<defs>
<clipPath id="clip0_157_4821">
<rect width="41" height="41" fill="white" transform="translate(0.82666 0.00549316)"/>
</clipPath>
</defs>
</svg>
