<svg width="41" height="43" viewBox="0 0 41 43" fill="none" xmlns="http://www.w3.org/2000/svg">
<mask id="path-1-inside-1_157_4797" fill="white">
<path d="M25.1554 0C25.1829 0 25.2104 0 25.2387 0C25.3795 1.2582 25.4859 2.51817 25.5856 3.78022C25.6022 3.98852 25.6188 4.19681 25.6354 4.40511C25.6698 4.8386 25.7041 5.27211 25.7383 5.70563C25.7732 6.14868 25.8085 6.59172 25.844 7.03473C25.8872 7.57405 25.93 8.1134 25.9726 8.65277C25.9887 8.85683 26.005 9.06088 26.0214 9.26492C26.0443 9.55025 26.0667 9.83561 26.089 10.121C26.0958 10.2037 26.1025 10.2865 26.1095 10.3717C26.1533 10.9424 26.1624 11.5088 26.1552 12.0811C27.4418 11.3202 28.7275 10.5581 30.0034 9.77944C30.8348 9.27215 31.672 8.77592 32.5133 8.28546C33.2802 7.83823 34.0414 7.38251 34.7994 6.92059C34.8972 6.86114 34.9949 6.80171 35.0927 6.74228C35.6158 6.42419 35.6158 6.42419 36.1383 6.10487C36.339 5.98197 36.5403 5.8601 36.7418 5.73852C36.7983 5.70351 36.8548 5.66851 36.9131 5.63244C37.0449 5.55356 37.182 5.48359 37.3198 5.41566C37.4023 5.44316 37.4848 5.47065 37.5698 5.49898C37.5121 5.59006 37.4544 5.68113 37.395 5.77497C36.7532 6.78938 36.1161 7.80669 35.4804 8.82498C35.2707 9.16085 35.0609 9.49662 34.851 9.83238C34.747 9.99881 34.6429 10.1652 34.5389 10.3317C34.2798 10.7464 34.0205 11.161 33.7609 11.5753C33.1647 12.5273 32.5721 13.4814 31.9858 14.4395C31.4942 15.2413 30.9911 16.0358 30.4877 16.8302C30.5396 16.8345 30.5915 16.8388 30.645 16.8432C33.0536 17.0426 35.4622 17.2429 37.8703 17.4487C38.0827 17.4668 38.295 17.4849 38.5074 17.5028C38.8041 17.5279 39.1006 17.5533 39.3972 17.5788C39.4849 17.5861 39.5726 17.5935 39.663 17.6011C39.7437 17.6081 39.8245 17.6151 39.9077 17.6223C40.0124 17.6312 40.0124 17.6312 40.1193 17.6404C40.328 17.6644 40.5305 17.7027 40.7358 17.7467C40.5022 17.9985 40.2767 18.1677 39.9759 18.3325C39.892 18.3789 39.8082 18.4253 39.7218 18.4731C39.632 18.5221 39.5421 18.5711 39.4496 18.6215C39.2593 18.7267 39.069 18.8319 38.8788 18.9372C38.7839 18.9896 38.689 19.0419 38.5913 19.0958C38.2124 19.3059 37.8361 19.5203 37.4604 19.7359C37.3907 19.7758 37.321 19.8158 37.2492 19.8569C37.1022 19.9411 36.9553 20.0254 36.8083 20.1096C36.4018 20.3426 35.9949 20.575 35.588 20.8074C35.4401 20.8918 35.2923 20.9763 35.1445 21.0608C34.684 21.324 34.2235 21.5871 33.7629 21.85C33.5544 21.969 33.3459 22.088 33.1375 22.207C32.9926 22.2897 32.8478 22.3723 32.703 22.4549C32.1014 22.7984 31.5021 23.1455 30.9043 23.4956C31.2148 23.9132 31.5796 24.2141 31.9852 24.5381C32.2449 24.7516 32.4916 24.9745 32.7373 25.2037C33.0483 25.4932 33.3642 25.7703 33.6955 26.0368C34.0268 26.3034 34.3426 26.5806 34.6536 26.87C35.0377 27.2274 35.435 27.5619 35.8438 27.891C36.1588 28.1516 36.457 28.4291 36.7577 28.7059C36.9798 28.9052 37.2072 29.094 37.4396 29.281C37.824 29.5912 38.189 29.917 38.5508 30.253C38.7818 30.4674 39.0156 30.6768 39.2569 30.8797C39.3326 30.945 39.4082 31.0103 39.4861 31.0776C39.4861 31.1051 39.4861 31.1326 39.4861 31.1609C38.8086 31.1071 38.1386 31.0222 37.4662 30.9241C37.3068 30.9011 37.3068 30.9011 37.144 30.8777C36.8554 30.8361 36.5668 30.7942 36.2781 30.7522C36.0367 30.7171 35.7952 30.6822 35.5537 30.6472C34.9846 30.5649 34.4154 30.4823 33.8463 30.3995C33.2593 30.3141 32.6721 30.2292 32.085 30.1444C31.5799 30.0714 31.0748 29.9982 30.5697 29.9249C30.2685 29.8811 29.9672 29.8374 29.6659 29.794C29.3309 29.7456 28.9961 29.6968 28.6612 29.648C28.5612 29.6336 28.4612 29.6192 28.3581 29.6044C28.222 29.5845 28.222 29.5845 28.0832 29.5641C28.004 29.5526 27.9249 29.5411 27.8433 29.5293C27.6549 29.4945 27.6549 29.4945 27.4883 29.4112C27.5037 29.4833 27.5037 29.4833 27.5195 29.5569C27.6387 30.1304 27.7253 30.7054 27.8039 31.2858C27.8177 31.3865 27.8315 31.4873 27.8458 31.5911C27.8833 31.8649 27.9207 32.1388 27.9578 32.4127C27.989 32.6421 28.0203 32.8716 28.0517 33.101C28.1256 33.6422 28.1992 34.1835 28.2726 34.7249C28.3483 35.2821 28.4244 35.8392 28.5007 36.3963C28.5664 36.8762 28.6319 37.3562 28.697 37.8362C28.7359 38.1222 28.7749 38.4082 28.8141 38.6942C28.8578 39.0127 28.9009 39.3314 28.944 39.6501C28.9569 39.7441 28.9699 39.8381 28.9833 39.9349C29.0422 40.3749 29.0868 40.7983 29.0713 41.2423C28.6278 40.8932 28.2884 40.5105 27.9371 40.0697C27.7396 39.8275 27.5336 39.5973 27.3217 39.3677C26.9806 38.9972 26.6614 38.6139 26.3453 38.2221C26.1496 37.9862 25.9462 37.7602 25.7386 37.5347C25.3976 37.1642 25.0784 36.7809 24.7622 36.3891C24.5666 36.1532 24.3631 35.9272 24.1556 35.7017C23.8145 35.3312 23.4953 34.9479 23.1792 34.5561C22.9184 34.2418 22.6415 33.9436 22.3649 33.6432C22.0312 33.2715 21.7183 32.8838 21.4061 32.494C21.1948 32.7577 21.0414 33.0321 20.8876 33.3327C20.8625 33.3815 20.8374 33.4304 20.8115 33.4807C20.7578 33.5852 20.7043 33.6897 20.6509 33.7943C20.5383 34.0149 20.425 34.2351 20.3117 34.4554C20.2551 34.5656 20.1984 34.6757 20.1419 34.7859C19.9255 35.2072 19.7061 35.6268 19.4846 36.0454C19.1497 36.679 18.8194 37.3149 18.49 37.9513C18.1232 38.6596 17.7549 39.367 17.3826 40.0724C16.9433 40.9052 16.5088 41.7404 16.0737 42.5754C15.9913 42.5754 15.9088 42.5754 15.8238 42.5754C15.82 42.5264 15.8162 42.4773 15.8123 42.4268C15.7199 41.2306 15.6274 40.0344 15.5348 38.8382C15.49 38.2597 15.4453 37.6812 15.4006 37.1027C15.3575 36.5441 15.3142 35.9855 15.2709 35.4269C15.2545 35.2141 15.238 35.0013 15.2216 34.7885C15.1986 34.4898 15.1754 34.1911 15.1522 33.8924C15.1455 33.805 15.1388 33.7176 15.1319 33.6276C15.0916 33.1101 15.0447 32.5936 14.9906 32.0774C14.0506 32.6338 13.1198 33.2023 12.1998 33.7913C11.6274 34.1576 11.0525 34.5194 10.4758 34.8789C9.88286 35.2488 9.29058 35.6195 8.70011 35.9933C8.0294 36.4177 7.35691 36.8392 6.68345 37.2593C6.23885 37.5366 5.79484 37.8147 5.35177 38.0945C5.26109 38.1516 5.17041 38.2087 5.07698 38.2675C4.90292 38.3772 4.72902 38.4871 4.55531 38.5973C4.47671 38.6467 4.39811 38.6961 4.31713 38.747C4.24827 38.7906 4.1794 38.8341 4.10845 38.879C3.90821 38.9934 3.70868 39.0791 3.49274 39.1594C3.62711 38.7684 3.83873 38.4493 4.06555 38.1075C4.14906 37.9801 4.23248 37.8526 4.31583 37.7251C4.38045 37.6264 4.38045 37.6264 4.44638 37.5256C4.65411 37.206 4.85719 36.8836 5.06016 36.5609C5.42154 35.9872 5.78431 35.4144 6.1485 34.8425C6.22161 34.7277 6.22161 34.7277 6.2962 34.6105C6.39534 34.4549 6.49449 34.2992 6.59365 34.1435C6.83767 33.7604 7.08151 33.3771 7.32536 32.9939C7.42257 32.8411 7.51977 32.6884 7.61697 32.5356C7.66509 32.46 7.71321 32.3844 7.76278 32.3065C8.2002 31.6191 8.2002 31.6191 8.34617 31.3898C8.44285 31.2378 8.53951 31.0859 8.63615 30.934C8.88713 30.5394 9.13839 30.1451 9.39008 29.751C9.4679 29.629 9.4679 29.629 9.54728 29.5046C9.64548 29.3507 9.74376 29.1969 9.84215 29.0431C10.1504 28.5598 10.4489 28.0713 10.7414 27.5782C10.4583 27.5167 10.1842 27.4786 9.89514 27.4596C9.81044 27.4539 9.72574 27.4481 9.63848 27.4422C9.50049 27.4333 9.50049 27.4333 9.35971 27.4243C9.21335 27.4145 9.21335 27.4145 9.06402 27.4045C8.74171 27.3831 8.41937 27.362 8.09703 27.341C7.87346 27.3262 7.6499 27.3113 7.42633 27.2965C6.89817 27.2614 6.36999 27.2267 5.8418 27.192C5.24033 27.1526 4.63888 27.1128 4.03743 27.0729C2.80053 26.9911 1.5636 26.9096 0.32666 26.8284C0.32666 26.7459 0.32666 26.6634 0.32666 26.5784C0.37293 26.5526 0.4192 26.5267 0.466873 26.5001C1.43576 25.9583 2.39829 25.4071 3.35214 24.8391C4.35746 24.2406 5.36899 23.6534 6.38352 23.0706C6.76927 22.849 7.15485 22.627 7.54031 22.4049C7.72411 22.299 7.90795 22.1931 8.09184 22.0874C8.56383 21.8154 9.03199 21.539 9.49488 21.2518C9.65826 21.1627 9.65826 21.1627 9.8249 21.1627C9.39413 20.6393 8.91735 20.1928 8.40849 19.7463C8.266 19.6181 8.12366 19.4896 7.98149 19.361C7.7402 19.1437 7.49771 18.9281 7.25246 18.7153C6.92202 18.4277 6.60007 18.131 6.27779 17.8343C5.99142 17.5712 5.70148 17.3129 5.40775 17.058C5.0713 16.764 4.74091 16.4631 4.40924 16.1637C4.27039 16.0387 4.13153 15.9137 3.99265 15.7887C3.78227 15.5995 3.57196 15.4101 3.3619 15.2205C3.04623 14.9357 2.73013 14.6517 2.40961 14.3723C2.14462 14.141 1.88078 13.9085 1.61809 13.6745C1.54677 13.6112 1.47546 13.5478 1.40198 13.4825C1.34957 13.4325 1.29716 13.3824 1.24316 13.3309C1.24316 13.3034 1.24316 13.2759 1.24316 13.2475C1.96653 13.2974 2.67778 13.3879 3.394 13.4996C3.50551 13.5168 3.61703 13.5339 3.72854 13.551C4.02807 13.5969 4.32752 13.6434 4.62696 13.6899C4.94132 13.7386 5.25572 13.7871 5.57012 13.8355C6.09694 13.9168 6.62372 13.9984 7.15047 14.0801C7.75963 14.1746 8.36886 14.2687 8.97813 14.3625C9.56539 14.453 10.1526 14.5437 10.7398 14.6346C10.9894 14.6733 11.239 14.7118 11.4886 14.7502C11.7818 14.7954 12.0749 14.8408 12.368 14.8865C12.5271 14.9112 12.6863 14.9356 12.8455 14.9601C12.9396 14.9748 13.0337 14.9895 13.1307 15.0047C13.2539 15.0237 13.2539 15.0237 13.3795 15.0432C13.5742 15.0805 13.5742 15.0805 13.7408 15.1639C13.7315 15.1041 13.7222 15.0443 13.7126 14.9828C13.559 13.9553 13.4513 12.923 13.3392 11.8904C13.3171 11.6874 13.2949 11.4843 13.2727 11.2813C13.2265 10.8582 13.1804 10.4351 13.1345 10.012C13.0755 9.4694 13.0162 8.92683 12.9568 8.38426C12.9111 7.96615 12.8655 7.54802 12.82 7.12988C12.7982 6.92969 12.7764 6.72951 12.7545 6.52934C12.724 6.2506 12.6937 5.97184 12.6635 5.69308C12.6544 5.61041 12.6454 5.52774 12.636 5.44257C12.6278 5.36668 12.6196 5.29079 12.6112 5.2126C12.6041 5.14684 12.5969 5.08108 12.5895 5.01332C12.5752 4.84246 12.5744 4.67062 12.5744 4.49917C12.9078 4.63067 13.0936 4.84895 13.3295 5.11363C13.4109 5.20434 13.4924 5.29504 13.5739 5.38572C13.6153 5.43217 13.6568 5.47862 13.6995 5.52648C13.8952 5.74487 14.0941 5.96025 14.2928 6.17594C14.5671 6.47469 14.8396 6.77486 15.1104 7.07681C15.4817 7.49048 15.8587 7.89865 16.2361 8.30673C16.753 8.86567 17.2683 9.42614 17.7766 9.99294C18.0746 10.3248 18.3752 10.6542 18.6774 10.9823C18.7187 11.0273 18.76 11.0722 18.8025 11.1185C19.0534 11.3903 19.3099 11.6546 19.5731 11.9145C19.6172 11.7658 19.6172 11.7658 19.6623 11.6141C19.8337 11.1009 20.0746 10.622 20.3139 10.1379C20.4561 9.85017 20.5966 9.56157 20.7373 9.27302C20.7659 9.21442 20.7945 9.15582 20.8239 9.09544C21.0891 8.55073 21.3452 8.00197 21.5988 7.45174C22.0858 6.39629 22.5823 5.34552 23.0808 4.29547C23.4027 3.61753 23.7236 2.9392 24.042 2.25967C24.0729 2.19383 24.1037 2.12799 24.1356 2.06015C24.2827 1.74629 24.4297 1.43234 24.5763 1.11824C24.6287 1.0064 24.6812 0.894564 24.7336 0.782732C24.779 0.685513 24.8245 0.588295 24.8713 0.48813C24.9888 0.249954 24.9888 0.249954 25.1554 0ZM22.6559 13.5808C22.441 14.0325 22.2263 14.4843 22.0115 14.9361C21.9388 15.0892 21.866 15.2423 21.7932 15.3954C21.3551 16.3164 20.9191 17.2383 20.4896 18.1633C19.9779 17.754 19.5475 17.2834 19.1109 16.7977C18.9142 16.5797 18.7149 16.364 18.516 16.148C18.1814 15.7843 17.8527 15.4159 17.5285 15.0428C17.4884 15.0003 17.4482 14.9577 17.4068 14.9139C17.3793 14.9139 17.3518 14.9139 17.3235 14.9139C17.3662 16.3938 17.5638 17.8612 17.7401 19.3297C17.6805 19.3204 17.6209 19.311 17.5594 19.3013C16.9968 19.2127 16.4342 19.1244 15.8715 19.0364C15.5822 18.9912 15.2929 18.9459 15.0037 18.9003C14.671 18.8478 14.3382 18.7958 14.0054 18.7439C13.9019 18.7275 13.7983 18.7111 13.6916 18.6942C13.5949 18.6792 13.4982 18.6642 13.3986 18.6487C13.3136 18.6354 13.2287 18.6221 13.1412 18.6084C12.9216 18.5816 12.712 18.5745 12.4911 18.5799C12.8114 18.9045 13.1407 19.2177 13.4753 19.5276C13.5271 19.5757 13.5789 19.6237 13.6322 19.6732C13.9437 19.9613 14.2582 20.2451 14.5792 20.5226C14.7806 20.6976 14.9794 20.8753 15.1781 21.0534C15.2792 21.1441 15.2792 21.1441 15.3825 21.2366C15.5623 21.402 15.7358 21.5719 15.9071 21.746C15.8489 21.7676 15.7908 21.7892 15.7309 21.8115C15.4669 21.9225 15.2262 22.0548 14.9776 22.1971C14.929 22.2248 14.8803 22.2526 14.8302 22.2812C14.7274 22.3401 14.6246 22.399 14.5219 22.4581C14.3687 22.5462 14.2152 22.6338 14.0617 22.7214C13.5508 23.0136 13.0432 23.3111 12.5405 23.6174C12.4509 23.672 12.3613 23.7266 12.2689 23.7828C12.2048 23.8255 12.1406 23.8682 12.0745 23.9122C12.0745 23.9397 12.0745 23.9672 12.0745 23.9955C12.344 24.0537 12.6044 24.093 12.8796 24.1099C12.9542 24.1147 13.0287 24.1194 13.1055 24.1243C13.1851 24.1291 13.2647 24.1338 13.3467 24.1388C13.4296 24.144 13.5125 24.1492 13.5979 24.1546C13.8625 24.1713 14.1271 24.1876 14.3918 24.2038C14.6555 24.2201 14.9192 24.2365 15.1829 24.2531C15.3468 24.2634 15.5106 24.2735 15.6745 24.2834C16.1161 24.3111 16.5519 24.3523 16.9902 24.4121C16.4538 25.3022 15.9053 26.1818 15.3294 27.047C15.2851 27.114 15.2409 27.1811 15.1953 27.2502C15.1558 27.3095 15.1162 27.3689 15.0755 27.4301C14.9768 27.5739 14.9768 27.5739 14.9906 27.7449C15.3059 27.6291 15.5757 27.4832 15.8589 27.3032C15.9444 27.2492 16.0299 27.1953 16.118 27.1397C16.2508 27.0552 16.2508 27.0552 16.3862 26.969C16.9679 26.5996 17.549 26.2372 18.1567 25.9119C18.1541 26.0156 18.1515 26.1194 18.1489 26.2263C18.1489 26.9462 18.2223 27.6633 18.2817 28.3802C18.2937 28.5289 18.3058 28.6776 18.3178 28.8264C18.3471 29.188 18.3767 29.5496 18.4066 29.9111C18.4891 29.9111 18.5716 29.9111 18.6566 29.9111C18.68 29.8639 18.7034 29.8166 18.7275 29.768C19.1551 28.906 19.5853 28.0455 20.0313 27.1929C20.0654 27.1274 20.0994 27.0619 20.1345 26.9944C20.29 26.699 20.4427 26.4205 20.6562 26.1618C21.0413 26.5814 21.4181 27.0047 21.7758 27.448C22.0967 27.8448 22.4353 28.2209 22.7812 28.5959C23.0602 28.9073 23.3206 29.232 23.5798 29.5599C23.7379 29.7599 23.7379 29.7599 23.9889 29.9111C23.9213 29.3671 23.8531 28.8231 23.7845 28.2792C23.7613 28.0944 23.7382 27.9096 23.7152 27.7248C23.682 27.4582 23.6484 27.1916 23.6147 26.925C23.6046 26.8432 23.5945 26.7614 23.5841 26.6772C23.5222 26.1918 23.4358 25.7214 23.3224 25.2453C23.3789 25.2546 23.4354 25.2638 23.4937 25.2734C24.5567 25.4474 25.6207 25.6144 26.6864 25.7713C26.7873 25.7865 26.8882 25.8018 26.9922 25.8176C27.0861 25.8312 27.18 25.8448 27.2767 25.8588C27.3599 25.8711 27.4431 25.8834 27.5288 25.896C27.7488 25.9262 27.7488 25.9262 27.9882 25.8285C27.4396 25.3163 26.8847 24.8219 26.3 24.3506C25.7538 23.8994 25.237 23.4159 24.7388 22.9124C25.0285 22.742 25.3184 22.5719 25.6084 22.4021C25.6972 22.3501 25.7859 22.2982 25.8773 22.2446C26.3578 21.9644 26.8399 21.6876 27.3262 21.4176C27.4205 21.3652 27.5147 21.3129 27.6118 21.259C27.7943 21.158 27.9771 21.0574 28.16 20.9572C28.243 20.9113 28.3261 20.8654 28.4116 20.8181C28.4848 20.7779 28.5581 20.7378 28.6335 20.6965C28.8071 20.5884 28.9349 20.4807 29.0713 20.3296C28.9437 20.2019 28.8165 20.2217 28.6386 20.2062C28.5272 20.1962 28.5272 20.1962 28.4135 20.186C28.2919 20.1757 28.2919 20.1757 28.1679 20.1652C28.0431 20.1543 28.0431 20.1543 27.9158 20.1431C27.739 20.1278 27.5623 20.1126 27.3854 20.0976C27.1168 20.0747 26.8482 20.0511 26.5796 20.0274C26.4078 20.0125 26.2359 19.9977 26.0641 19.9829C25.9445 19.9724 25.9445 19.9724 25.8226 19.9616C25.3483 19.9219 24.8815 19.9064 24.4055 19.913C24.8134 19.1169 25.2951 18.3704 25.7757 17.6172C25.9804 17.2952 26.1824 16.9717 26.3843 16.648C26.4202 16.5905 26.456 16.5331 26.493 16.4739C26.5748 16.3428 26.6566 16.2116 26.7384 16.0804C26.6834 16.0529 26.6285 16.0254 26.5718 15.997C26.4013 16.072 26.4013 16.072 26.2131 16.1907C26.1394 16.2347 26.0657 16.2788 25.9897 16.3242C25.9103 16.3726 25.8309 16.421 25.749 16.4709C25.668 16.5196 25.5869 16.5682 25.5034 16.6184C25.3338 16.7204 25.1643 16.8226 24.9949 16.9252C24.7459 17.0758 24.4964 17.2256 24.2467 17.375C23.8549 17.6095 23.4636 17.8445 23.0724 18.08C23.0738 18.0325 23.0752 17.9851 23.0767 17.9362C23.0878 17.2088 23.0294 16.4889 22.9702 15.7645C22.9526 15.548 22.9356 15.3313 22.9187 15.1147C22.9076 14.976 22.8965 14.8372 22.8853 14.6984C22.8803 14.6342 22.8752 14.57 22.87 14.5038C22.8441 14.1909 22.8094 13.887 22.7392 13.5808C22.7117 13.5808 22.6842 13.5808 22.6559 13.5808Z"/>
</mask>
<path d="M25.1554 0C25.1829 0 25.2104 0 25.2387 0C25.3795 1.2582 25.4859 2.51817 25.5856 3.78022C25.6022 3.98852 25.6188 4.19681 25.6354 4.40511C25.6698 4.8386 25.7041 5.27211 25.7383 5.70563C25.7732 6.14868 25.8085 6.59172 25.844 7.03473C25.8872 7.57405 25.93 8.1134 25.9726 8.65277C25.9887 8.85683 26.005 9.06088 26.0214 9.26492C26.0443 9.55025 26.0667 9.83561 26.089 10.121C26.0958 10.2037 26.1025 10.2865 26.1095 10.3717C26.1533 10.9424 26.1624 11.5088 26.1552 12.0811C27.4418 11.3202 28.7275 10.5581 30.0034 9.77944C30.8348 9.27215 31.672 8.77592 32.5133 8.28546C33.2802 7.83823 34.0414 7.38251 34.7994 6.92059C34.8972 6.86114 34.9949 6.80171 35.0927 6.74228C35.6158 6.42419 35.6158 6.42419 36.1383 6.10487C36.339 5.98197 36.5403 5.8601 36.7418 5.73852C36.7983 5.70351 36.8548 5.66851 36.9131 5.63244C37.0449 5.55356 37.182 5.48359 37.3198 5.41566C37.4023 5.44316 37.4848 5.47065 37.5698 5.49898C37.5121 5.59006 37.4544 5.68113 37.395 5.77497C36.7532 6.78938 36.1161 7.80669 35.4804 8.82498C35.2707 9.16085 35.0609 9.49662 34.851 9.83238C34.747 9.99881 34.6429 10.1652 34.5389 10.3317C34.2798 10.7464 34.0205 11.161 33.7609 11.5753C33.1647 12.5273 32.5721 13.4814 31.9858 14.4395C31.4942 15.2413 30.9911 16.0358 30.4877 16.8302C30.5396 16.8345 30.5915 16.8388 30.645 16.8432C33.0536 17.0426 35.4622 17.2429 37.8703 17.4487C38.0827 17.4668 38.295 17.4849 38.5074 17.5028C38.8041 17.5279 39.1006 17.5533 39.3972 17.5788C39.4849 17.5861 39.5726 17.5935 39.663 17.6011C39.7437 17.6081 39.8245 17.6151 39.9077 17.6223C40.0124 17.6312 40.0124 17.6312 40.1193 17.6404C40.328 17.6644 40.5305 17.7027 40.7358 17.7467C40.5022 17.9985 40.2767 18.1677 39.9759 18.3325C39.892 18.3789 39.8082 18.4253 39.7218 18.4731C39.632 18.5221 39.5421 18.5711 39.4496 18.6215C39.2593 18.7267 39.069 18.8319 38.8788 18.9372C38.7839 18.9896 38.689 19.0419 38.5913 19.0958C38.2124 19.3059 37.8361 19.5203 37.4604 19.7359C37.3907 19.7758 37.321 19.8158 37.2492 19.8569C37.1022 19.9411 36.9553 20.0254 36.8083 20.1096C36.4018 20.3426 35.9949 20.575 35.588 20.8074C35.4401 20.8918 35.2923 20.9763 35.1445 21.0608C34.684 21.324 34.2235 21.5871 33.7629 21.85C33.5544 21.969 33.3459 22.088 33.1375 22.207C32.9926 22.2897 32.8478 22.3723 32.703 22.4549C32.1014 22.7984 31.5021 23.1455 30.9043 23.4956C31.2148 23.9132 31.5796 24.2141 31.9852 24.5381C32.2449 24.7516 32.4916 24.9745 32.7373 25.2037C33.0483 25.4932 33.3642 25.7703 33.6955 26.0368C34.0268 26.3034 34.3426 26.5806 34.6536 26.87C35.0377 27.2274 35.435 27.5619 35.8438 27.891C36.1588 28.1516 36.457 28.4291 36.7577 28.7059C36.9798 28.9052 37.2072 29.094 37.4396 29.281C37.824 29.5912 38.189 29.917 38.5508 30.253C38.7818 30.4674 39.0156 30.6768 39.2569 30.8797C39.3326 30.945 39.4082 31.0103 39.4861 31.0776C39.4861 31.1051 39.4861 31.1326 39.4861 31.1609C38.8086 31.1071 38.1386 31.0222 37.4662 30.9241C37.3068 30.9011 37.3068 30.9011 37.144 30.8777C36.8554 30.8361 36.5668 30.7942 36.2781 30.7522C36.0367 30.7171 35.7952 30.6822 35.5537 30.6472C34.9846 30.5649 34.4154 30.4823 33.8463 30.3995C33.2593 30.3141 32.6721 30.2292 32.085 30.1444C31.5799 30.0714 31.0748 29.9982 30.5697 29.9249C30.2685 29.8811 29.9672 29.8374 29.6659 29.794C29.3309 29.7456 28.9961 29.6968 28.6612 29.648C28.5612 29.6336 28.4612 29.6192 28.3581 29.6044C28.222 29.5845 28.222 29.5845 28.0832 29.5641C28.004 29.5526 27.9249 29.5411 27.8433 29.5293C27.6549 29.4945 27.6549 29.4945 27.4883 29.4112C27.5037 29.4833 27.5037 29.4833 27.5195 29.5569C27.6387 30.1304 27.7253 30.7054 27.8039 31.2858C27.8177 31.3865 27.8315 31.4873 27.8458 31.5911C27.8833 31.8649 27.9207 32.1388 27.9578 32.4127C27.989 32.6421 28.0203 32.8716 28.0517 33.101C28.1256 33.6422 28.1992 34.1835 28.2726 34.7249C28.3483 35.2821 28.4244 35.8392 28.5007 36.3963C28.5664 36.8762 28.6319 37.3562 28.697 37.8362C28.7359 38.1222 28.7749 38.4082 28.8141 38.6942C28.8578 39.0127 28.9009 39.3314 28.944 39.6501C28.9569 39.7441 28.9699 39.8381 28.9833 39.9349C29.0422 40.3749 29.0868 40.7983 29.0713 41.2423C28.6278 40.8932 28.2884 40.5105 27.9371 40.0697C27.7396 39.8275 27.5336 39.5973 27.3217 39.3677C26.9806 38.9972 26.6614 38.6139 26.3453 38.2221C26.1496 37.9862 25.9462 37.7602 25.7386 37.5347C25.3976 37.1642 25.0784 36.7809 24.7622 36.3891C24.5666 36.1532 24.3631 35.9272 24.1556 35.7017C23.8145 35.3312 23.4953 34.9479 23.1792 34.5561C22.9184 34.2418 22.6415 33.9436 22.3649 33.6432C22.0312 33.2715 21.7183 32.8838 21.4061 32.494C21.1948 32.7577 21.0414 33.0321 20.8876 33.3327C20.8625 33.3815 20.8374 33.4304 20.8115 33.4807C20.7578 33.5852 20.7043 33.6897 20.6509 33.7943C20.5383 34.0149 20.425 34.2351 20.3117 34.4554C20.2551 34.5656 20.1984 34.6757 20.1419 34.7859C19.9255 35.2072 19.7061 35.6268 19.4846 36.0454C19.1497 36.679 18.8194 37.3149 18.49 37.9513C18.1232 38.6596 17.7549 39.367 17.3826 40.0724C16.9433 40.9052 16.5088 41.7404 16.0737 42.5754C15.9913 42.5754 15.9088 42.5754 15.8238 42.5754C15.82 42.5264 15.8162 42.4773 15.8123 42.4268C15.7199 41.2306 15.6274 40.0344 15.5348 38.8382C15.49 38.2597 15.4453 37.6812 15.4006 37.1027C15.3575 36.5441 15.3142 35.9855 15.2709 35.4269C15.2545 35.2141 15.238 35.0013 15.2216 34.7885C15.1986 34.4898 15.1754 34.1911 15.1522 33.8924C15.1455 33.805 15.1388 33.7176 15.1319 33.6276C15.0916 33.1101 15.0447 32.5936 14.9906 32.0774C14.0506 32.6338 13.1198 33.2023 12.1998 33.7913C11.6274 34.1576 11.0525 34.5194 10.4758 34.8789C9.88286 35.2488 9.29058 35.6195 8.70011 35.9933C8.0294 36.4177 7.35691 36.8392 6.68345 37.2593C6.23885 37.5366 5.79484 37.8147 5.35177 38.0945C5.26109 38.1516 5.17041 38.2087 5.07698 38.2675C4.90292 38.3772 4.72902 38.4871 4.55531 38.5973C4.47671 38.6467 4.39811 38.6961 4.31713 38.747C4.24827 38.7906 4.1794 38.8341 4.10845 38.879C3.90821 38.9934 3.70868 39.0791 3.49274 39.1594C3.62711 38.7684 3.83873 38.4493 4.06555 38.1075C4.14906 37.9801 4.23248 37.8526 4.31583 37.7251C4.38045 37.6264 4.38045 37.6264 4.44638 37.5256C4.65411 37.206 4.85719 36.8836 5.06016 36.5609C5.42154 35.9872 5.78431 35.4144 6.1485 34.8425C6.22161 34.7277 6.22161 34.7277 6.2962 34.6105C6.39534 34.4549 6.49449 34.2992 6.59365 34.1435C6.83767 33.7604 7.08151 33.3771 7.32536 32.9939C7.42257 32.8411 7.51977 32.6884 7.61697 32.5356C7.66509 32.46 7.71321 32.3844 7.76278 32.3065C8.2002 31.6191 8.2002 31.6191 8.34617 31.3898C8.44285 31.2378 8.53951 31.0859 8.63615 30.934C8.88713 30.5394 9.13839 30.1451 9.39008 29.751C9.4679 29.629 9.4679 29.629 9.54728 29.5046C9.64548 29.3507 9.74376 29.1969 9.84215 29.0431C10.1504 28.5598 10.4489 28.0713 10.7414 27.5782C10.4583 27.5167 10.1842 27.4786 9.89514 27.4596C9.81044 27.4539 9.72574 27.4481 9.63848 27.4422C9.50049 27.4333 9.50049 27.4333 9.35971 27.4243C9.21335 27.4145 9.21335 27.4145 9.06402 27.4045C8.74171 27.3831 8.41937 27.362 8.09703 27.341C7.87346 27.3262 7.6499 27.3113 7.42633 27.2965C6.89817 27.2614 6.36999 27.2267 5.8418 27.192C5.24033 27.1526 4.63888 27.1128 4.03743 27.0729C2.80053 26.9911 1.5636 26.9096 0.32666 26.8284C0.32666 26.7459 0.32666 26.6634 0.32666 26.5784C0.37293 26.5526 0.4192 26.5267 0.466873 26.5001C1.43576 25.9583 2.39829 25.4071 3.35214 24.8391C4.35746 24.2406 5.36899 23.6534 6.38352 23.0706C6.76927 22.849 7.15485 22.627 7.54031 22.4049C7.72411 22.299 7.90795 22.1931 8.09184 22.0874C8.56383 21.8154 9.03199 21.539 9.49488 21.2518C9.65826 21.1627 9.65826 21.1627 9.8249 21.1627C9.39413 20.6393 8.91735 20.1928 8.40849 19.7463C8.266 19.6181 8.12366 19.4896 7.98149 19.361C7.7402 19.1437 7.49771 18.9281 7.25246 18.7153C6.92202 18.4277 6.60007 18.131 6.27779 17.8343C5.99142 17.5712 5.70148 17.3129 5.40775 17.058C5.0713 16.764 4.74091 16.4631 4.40924 16.1637C4.27039 16.0387 4.13153 15.9137 3.99265 15.7887C3.78227 15.5995 3.57196 15.4101 3.3619 15.2205C3.04623 14.9357 2.73013 14.6517 2.40961 14.3723C2.14462 14.141 1.88078 13.9085 1.61809 13.6745C1.54677 13.6112 1.47546 13.5478 1.40198 13.4825C1.34957 13.4325 1.29716 13.3824 1.24316 13.3309C1.24316 13.3034 1.24316 13.2759 1.24316 13.2475C1.96653 13.2974 2.67778 13.3879 3.394 13.4996C3.50551 13.5168 3.61703 13.5339 3.72854 13.551C4.02807 13.5969 4.32752 13.6434 4.62696 13.6899C4.94132 13.7386 5.25572 13.7871 5.57012 13.8355C6.09694 13.9168 6.62372 13.9984 7.15047 14.0801C7.75963 14.1746 8.36886 14.2687 8.97813 14.3625C9.56539 14.453 10.1526 14.5437 10.7398 14.6346C10.9894 14.6733 11.239 14.7118 11.4886 14.7502C11.7818 14.7954 12.0749 14.8408 12.368 14.8865C12.5271 14.9112 12.6863 14.9356 12.8455 14.9601C12.9396 14.9748 13.0337 14.9895 13.1307 15.0047C13.2539 15.0237 13.2539 15.0237 13.3795 15.0432C13.5742 15.0805 13.5742 15.0805 13.7408 15.1639C13.7315 15.1041 13.7222 15.0443 13.7126 14.9828C13.559 13.9553 13.4513 12.923 13.3392 11.8904C13.3171 11.6874 13.2949 11.4843 13.2727 11.2813C13.2265 10.8582 13.1804 10.4351 13.1345 10.012C13.0755 9.4694 13.0162 8.92683 12.9568 8.38426C12.9111 7.96615 12.8655 7.54802 12.82 7.12988C12.7982 6.92969 12.7764 6.72951 12.7545 6.52934C12.724 6.2506 12.6937 5.97184 12.6635 5.69308C12.6544 5.61041 12.6454 5.52774 12.636 5.44257C12.6278 5.36668 12.6196 5.29079 12.6112 5.2126C12.6041 5.14684 12.5969 5.08108 12.5895 5.01332C12.5752 4.84246 12.5744 4.67062 12.5744 4.49917C12.9078 4.63067 13.0936 4.84895 13.3295 5.11363C13.4109 5.20434 13.4924 5.29504 13.5739 5.38572C13.6153 5.43217 13.6568 5.47862 13.6995 5.52648C13.8952 5.74487 14.0941 5.96025 14.2928 6.17594C14.5671 6.47469 14.8396 6.77486 15.1104 7.07681C15.4817 7.49048 15.8587 7.89865 16.2361 8.30673C16.753 8.86567 17.2683 9.42614 17.7766 9.99294C18.0746 10.3248 18.3752 10.6542 18.6774 10.9823C18.7187 11.0273 18.76 11.0722 18.8025 11.1185C19.0534 11.3903 19.3099 11.6546 19.5731 11.9145C19.6172 11.7658 19.6172 11.7658 19.6623 11.6141C19.8337 11.1009 20.0746 10.622 20.3139 10.1379C20.4561 9.85017 20.5966 9.56157 20.7373 9.27302C20.7659 9.21442 20.7945 9.15582 20.8239 9.09544C21.0891 8.55073 21.3452 8.00197 21.5988 7.45174C22.0858 6.39629 22.5823 5.34552 23.0808 4.29547C23.4027 3.61753 23.7236 2.9392 24.042 2.25967C24.0729 2.19383 24.1037 2.12799 24.1356 2.06015C24.2827 1.74629 24.4297 1.43234 24.5763 1.11824C24.6287 1.0064 24.6812 0.894564 24.7336 0.782732C24.779 0.685513 24.8245 0.588295 24.8713 0.48813C24.9888 0.249954 24.9888 0.249954 25.1554 0ZM22.6559 13.5808C22.441 14.0325 22.2263 14.4843 22.0115 14.9361C21.9388 15.0892 21.866 15.2423 21.7932 15.3954C21.3551 16.3164 20.9191 17.2383 20.4896 18.1633C19.9779 17.754 19.5475 17.2834 19.1109 16.7977C18.9142 16.5797 18.7149 16.364 18.516 16.148C18.1814 15.7843 17.8527 15.4159 17.5285 15.0428C17.4884 15.0003 17.4482 14.9577 17.4068 14.9139C17.3793 14.9139 17.3518 14.9139 17.3235 14.9139C17.3662 16.3938 17.5638 17.8612 17.7401 19.3297C17.6805 19.3204 17.6209 19.311 17.5594 19.3013C16.9968 19.2127 16.4342 19.1244 15.8715 19.0364C15.5822 18.9912 15.2929 18.9459 15.0037 18.9003C14.671 18.8478 14.3382 18.7958 14.0054 18.7439C13.9019 18.7275 13.7983 18.7111 13.6916 18.6942C13.5949 18.6792 13.4982 18.6642 13.3986 18.6487C13.3136 18.6354 13.2287 18.6221 13.1412 18.6084C12.9216 18.5816 12.712 18.5745 12.4911 18.5799C12.8114 18.9045 13.1407 19.2177 13.4753 19.5276C13.5271 19.5757 13.5789 19.6237 13.6322 19.6732C13.9437 19.9613 14.2582 20.2451 14.5792 20.5226C14.7806 20.6976 14.9794 20.8753 15.1781 21.0534C15.2792 21.1441 15.2792 21.1441 15.3825 21.2366C15.5623 21.402 15.7358 21.5719 15.9071 21.746C15.8489 21.7676 15.7908 21.7892 15.7309 21.8115C15.4669 21.9225 15.2262 22.0548 14.9776 22.1971C14.929 22.2248 14.8803 22.2526 14.8302 22.2812C14.7274 22.3401 14.6246 22.399 14.5219 22.4581C14.3687 22.5462 14.2152 22.6338 14.0617 22.7214C13.5508 23.0136 13.0432 23.3111 12.5405 23.6174C12.4509 23.672 12.3613 23.7266 12.2689 23.7828C12.2048 23.8255 12.1406 23.8682 12.0745 23.9122C12.0745 23.9397 12.0745 23.9672 12.0745 23.9955C12.344 24.0537 12.6044 24.093 12.8796 24.1099C12.9542 24.1147 13.0287 24.1194 13.1055 24.1243C13.1851 24.1291 13.2647 24.1338 13.3467 24.1388C13.4296 24.144 13.5125 24.1492 13.5979 24.1546C13.8625 24.1713 14.1271 24.1876 14.3918 24.2038C14.6555 24.2201 14.9192 24.2365 15.1829 24.2531C15.3468 24.2634 15.5106 24.2735 15.6745 24.2834C16.1161 24.3111 16.5519 24.3523 16.9902 24.4121C16.4538 25.3022 15.9053 26.1818 15.3294 27.047C15.2851 27.114 15.2409 27.1811 15.1953 27.2502C15.1558 27.3095 15.1162 27.3689 15.0755 27.4301C14.9768 27.5739 14.9768 27.5739 14.9906 27.7449C15.3059 27.6291 15.5757 27.4832 15.8589 27.3032C15.9444 27.2492 16.0299 27.1953 16.118 27.1397C16.2508 27.0552 16.2508 27.0552 16.3862 26.969C16.9679 26.5996 17.549 26.2372 18.1567 25.9119C18.1541 26.0156 18.1515 26.1194 18.1489 26.2263C18.1489 26.9462 18.2223 27.6633 18.2817 28.3802C18.2937 28.5289 18.3058 28.6776 18.3178 28.8264C18.3471 29.188 18.3767 29.5496 18.4066 29.9111C18.4891 29.9111 18.5716 29.9111 18.6566 29.9111C18.68 29.8639 18.7034 29.8166 18.7275 29.768C19.1551 28.906 19.5853 28.0455 20.0313 27.1929C20.0654 27.1274 20.0994 27.0619 20.1345 26.9944C20.29 26.699 20.4427 26.4205 20.6562 26.1618C21.0413 26.5814 21.4181 27.0047 21.7758 27.448C22.0967 27.8448 22.4353 28.2209 22.7812 28.5959C23.0602 28.9073 23.3206 29.232 23.5798 29.5599C23.7379 29.7599 23.7379 29.7599 23.9889 29.9111C23.9213 29.3671 23.8531 28.8231 23.7845 28.2792C23.7613 28.0944 23.7382 27.9096 23.7152 27.7248C23.682 27.4582 23.6484 27.1916 23.6147 26.925C23.6046 26.8432 23.5945 26.7614 23.5841 26.6772C23.5222 26.1918 23.4358 25.7214 23.3224 25.2453C23.3789 25.2546 23.4354 25.2638 23.4937 25.2734C24.5567 25.4474 25.6207 25.6144 26.6864 25.7713C26.7873 25.7865 26.8882 25.8018 26.9922 25.8176C27.0861 25.8312 27.18 25.8448 27.2767 25.8588C27.3599 25.8711 27.4431 25.8834 27.5288 25.896C27.7488 25.9262 27.7488 25.9262 27.9882 25.8285C27.4396 25.3163 26.8847 24.8219 26.3 24.3506C25.7538 23.8994 25.237 23.4159 24.7388 22.9124C25.0285 22.742 25.3184 22.5719 25.6084 22.4021C25.6972 22.3501 25.7859 22.2982 25.8773 22.2446C26.3578 21.9644 26.8399 21.6876 27.3262 21.4176C27.4205 21.3652 27.5147 21.3129 27.6118 21.259C27.7943 21.158 27.9771 21.0574 28.16 20.9572C28.243 20.9113 28.3261 20.8654 28.4116 20.8181C28.4848 20.7779 28.5581 20.7378 28.6335 20.6965C28.8071 20.5884 28.9349 20.4807 29.0713 20.3296C28.9437 20.2019 28.8165 20.2217 28.6386 20.2062C28.5272 20.1962 28.5272 20.1962 28.4135 20.186C28.2919 20.1757 28.2919 20.1757 28.1679 20.1652C28.0431 20.1543 28.0431 20.1543 27.9158 20.1431C27.739 20.1278 27.5623 20.1126 27.3854 20.0976C27.1168 20.0747 26.8482 20.0511 26.5796 20.0274C26.4078 20.0125 26.2359 19.9977 26.0641 19.9829C25.9445 19.9724 25.9445 19.9724 25.8226 19.9616C25.3483 19.9219 24.8815 19.9064 24.4055 19.913C24.8134 19.1169 25.2951 18.3704 25.7757 17.6172C25.9804 17.2952 26.1824 16.9717 26.3843 16.648C26.4202 16.5905 26.456 16.5331 26.493 16.4739C26.5748 16.3428 26.6566 16.2116 26.7384 16.0804C26.6834 16.0529 26.6285 16.0254 26.5718 15.997C26.4013 16.072 26.4013 16.072 26.2131 16.1907C26.1394 16.2347 26.0657 16.2788 25.9897 16.3242C25.9103 16.3726 25.8309 16.421 25.749 16.4709C25.668 16.5196 25.5869 16.5682 25.5034 16.6184C25.3338 16.7204 25.1643 16.8226 24.9949 16.9252C24.7459 17.0758 24.4964 17.2256 24.2467 17.375C23.8549 17.6095 23.4636 17.8445 23.0724 18.08C23.0738 18.0325 23.0752 17.9851 23.0767 17.9362C23.0878 17.2088 23.0294 16.4889 22.9702 15.7645C22.9526 15.548 22.9356 15.3313 22.9187 15.1147C22.9076 14.976 22.8965 14.8372 22.8853 14.6984C22.8803 14.6342 22.8752 14.57 22.87 14.5038C22.8441 14.1909 22.8094 13.887 22.7392 13.5808C22.7117 13.5808 22.6842 13.5808 22.6559 13.5808Z" fill="black" stroke="#D61414" mask="url(#path-1-inside-1_157_4797)"/>
</svg>
