<svg width="45" height="44" viewBox="0 0 45 44" fill="none" xmlns="http://www.w3.org/2000/svg">
<g clip-path="url(#clip0_157_4785)">
<path d="M42.6968 0.375101L42.6976 0.375103L42.9965 0.375934L42.9981 0.375942L43.3063 0.378118L43.3076 0.378123L43.6234 0.379298C43.6234 0.379298 43.6234 0.379298 43.6235 0.379298C43.7584 0.379829 43.8933 0.380472 44.0282 0.381221C44.082 5.24959 41.379 10.3658 38.1818 14.0275L38.1811 14.0282L37.9935 14.2442C37.8049 14.4574 37.6121 14.6674 37.4162 14.8781L37.4161 14.8781L37.4121 14.8826L37.2327 15.0819C36.6674 15.6816 36.0105 16.1523 35.3063 16.6569C35.2697 16.683 35.233 16.7093 35.1962 16.7357L35.1958 16.7361C34.8492 16.9854 34.506 17.2387 34.1649 17.4905L33.9631 17.6391L33.9629 17.6392C32.864 18.4495 31.7707 19.269 30.6891 20.1049C30.5729 20.0349 30.4733 19.9536 30.3624 19.8423L30.3614 19.8413L30.1954 19.676L30.1935 19.6741L30.0141 19.4928L30.0126 19.4914L29.8196 19.2984C29.6095 19.0882 29.3999 18.8772 29.1898 18.6659L29.1893 18.6653L28.7514 18.2267C28.7514 18.2267 28.7514 18.2266 28.7513 18.2266C28.3675 17.8421 27.9841 17.4571 27.6007 17.0717L27.6006 17.0717C27.2395 16.709 26.8781 16.3467 26.5168 15.9846L26.4252 15.8928C26.4252 15.8928 26.4252 15.8928 26.4252 15.8928C25.7286 15.1946 25.0325 14.4959 24.3366 13.7969L24.4153 13.6785L24.4153 13.6784L24.5534 13.4704C24.5537 13.4701 24.5539 13.4697 24.5542 13.4693C24.6789 13.2845 24.8088 13.107 24.9473 12.9328L24.9482 12.9316L25.0936 12.7474L25.0943 12.7465L25.2443 12.5576L25.2455 12.5561C25.7235 11.9475 26.1814 11.3296 26.6261 10.6975C26.9836 10.1916 27.3481 9.69006 27.7144 9.18667L27.7149 9.18598C27.8482 9.00191 27.9798 8.81712 28.1104 8.63329C29.0007 7.3952 30.0596 6.37585 31.2958 5.46686L31.2958 5.46687L31.298 5.46523L31.4408 5.35861C31.4408 5.35856 31.4409 5.3585 31.441 5.35845C31.441 5.35843 31.441 5.35841 31.441 5.3584C32.9786 4.2127 34.834 2.95826 36.7916 1.99371C38.7534 1.02716 40.7902 0.365661 42.6968 0.375101Z" fill="black" stroke="black" stroke-width="0.75"/>
<path d="M11.7905 37.1018C12.0297 36.8615 12.2685 36.6207 12.5067 36.3793C12.894 35.9866 13.2821 35.5949 13.6707 35.2035C13.8075 35.0657 13.9442 34.9277 14.0806 34.7894C14.4785 34.3857 14.8752 33.9834 15.303 33.611C15.5133 33.4331 15.7121 33.2499 15.906 33.0542M11.7905 37.1018L15.7585 25.3894C15.9028 25.5317 16.0461 25.675 16.1893 25.8183L16.489 26.1161M11.7905 37.1018C11.7 37.193 11.6098 37.2844 11.5198 37.3761L11.7905 37.1018ZM15.906 33.0542C16.1699 32.7862 16.4403 32.5264 16.7145 32.269L16.8886 32.1062C17.2298 31.7852 17.5727 31.4671 17.9259 31.1592C18.2147 30.9081 18.5009 30.6546 18.7834 30.3963L18.9511 30.2424L19.1258 30.0855L19.2918 29.9326C19.4428 29.7951 19.543 29.6876 19.633 29.5044M15.906 33.0542L15.6396 32.7903C15.6395 32.7904 15.6393 32.7906 15.6392 32.7907M15.906 33.0542L15.6388 32.7911C15.6389 32.791 15.6391 32.7908 15.6392 32.7907M19.633 29.5044C19.6377 29.4222 19.6404 29.3754 19.6295 29.332C19.615 29.2744 19.5765 29.2228 19.4869 29.1028L19.2489 28.8654C19.1119 28.7268 18.9747 28.5887 18.836 28.4519M19.633 29.5044L19.2964 29.339C19.2852 29.3619 19.2739 29.3829 19.2621 29.4028L19.2614 29.4295C19.2609 29.4416 19.26 29.4584 19.2586 29.4829L19.633 29.5044ZM18.836 28.4519C18.7365 28.354 18.6373 28.2557 18.5386 28.157C18.3332 27.9513 18.1275 27.7459 17.9209 27.5415M18.836 28.4519L18.5728 28.7191C18.4727 28.6206 18.373 28.5216 18.2736 28.4224L18.2732 28.422C18.0681 28.2166 17.8631 28.0118 17.6573 27.8083M18.836 28.4519L18.5726 28.7189C18.7097 28.8541 18.8457 28.9909 18.9823 29.1291L18.9841 29.1308L19.2027 29.3489C19.225 29.3789 19.2409 29.4005 19.2531 29.4176C19.2033 29.4976 19.1429 29.561 19.0393 29.6553L19.0377 29.6568L18.8735 29.8081L18.7005 29.9634L18.7005 29.9634L18.6975 29.9662L18.5304 30.1196C18.5302 30.1197 18.53 30.1199 18.5299 30.12C18.2505 30.3755 17.9668 30.6267 17.6798 30.8762L17.6794 30.8766C17.321 31.1891 16.9741 31.5108 16.6321 31.8327C16.6319 31.8328 16.6318 31.8329 16.6316 31.8331L16.4584 31.9951L16.4579 31.9956C16.1819 32.2547 15.9077 32.518 15.6392 32.7907M17.9209 27.5415C17.6515 27.2756 17.3825 27.0093 17.1151 26.7413C16.9068 26.5325 16.6982 26.324 16.489 26.1161M17.9209 27.5415L17.6571 27.8081C17.6572 27.8081 17.6573 27.8082 17.6573 27.8083M17.9209 27.5415L17.6574 27.8084C17.6574 27.8083 17.6574 27.8083 17.6573 27.8083M16.489 26.1161L16.2248 26.3822L16.2246 26.382M16.489 26.1161L16.2246 26.382M16.2246 26.382L15.925 26.0843L15.9241 26.0834C15.7809 25.9401 15.6385 25.7978 15.4953 25.6566C15.4953 25.6566 15.4952 25.6565 15.4952 25.6565L15.3629 25.5264L15.3619 25.5254C15.347 25.5106 15.3326 25.4964 15.3188 25.4827C15.1591 25.3241 15.0675 25.2332 14.9677 25.1824C14.7221 25.475 14.4686 25.7559 14.2079 26.0321L14.2072 26.0328C14.155 26.0878 14.1029 26.1426 14.051 26.1971C13.7724 26.49 13.4999 26.7766 13.2386 27.0742C12.9667 27.3885 12.6875 27.6988 12.3841 27.9974L12.3826 27.9988L12.3826 27.9988C12.3469 28.0336 12.3114 28.068 12.2764 28.102C12.05 28.3214 11.8378 28.5271 11.6445 28.7514C11.2454 29.2236 10.815 29.6559 10.3879 30.0771L10.3875 30.0775C10.2413 30.2213 10.0955 30.3649 9.95005 30.5088C9.91234 30.5462 9.87463 30.5836 9.83691 30.621C9.45431 31.0003 9.07116 31.3802 8.68666 31.7588L8.68654 31.7589C8.42264 32.0185 8.15937 32.278 7.89721 32.5384C7.79703 32.6381 7.69677 32.7376 7.59642 32.8371L7.59467 32.8388L7.59466 32.8388C7.52563 32.9064 7.4579 32.9717 7.39185 33.0354C6.85051 33.5577 6.42185 33.9712 6.31287 34.599L6.31722 34.8165L6.31736 34.8235H6.31729C6.3179 35.2847 6.47796 35.5825 6.84256 35.9548L6.97224 36.0829L6.97456 36.0853C7.06796 36.1792 7.16147 36.273 7.25506 36.3668C7.40201 36.5121 7.55 36.6587 7.69694 36.807L7.69718 36.8073C7.78305 36.8941 7.86494 36.9795 7.94497 37.063C8.14485 37.2715 8.33318 37.468 8.54319 37.6445C8.81721 37.8749 9.09085 38.0364 9.39625 38.0976L9.63203 38.0907L9.63934 38.0905L9.63934 38.0906C9.86828 38.0884 10.0425 38.0574 10.1961 37.9986C10.347 37.9409 10.4962 37.8495 10.668 37.7032L10.8739 37.4949L10.8751 37.4937C11.0017 37.3668 11.1275 37.2404 11.2522 37.1133C11.3427 37.0212 11.4334 36.9293 11.5244 36.8377L11.5247 36.8373C11.7636 36.5972 12.002 36.3569 12.2397 36.1159C12.6274 35.7229 13.0158 35.3308 13.4045 34.9393L13.4045 34.9393C13.5413 34.8015 13.6777 34.664 13.8136 34.5261C14.2098 34.124 14.6164 33.7115 15.0567 33.3282L15.0607 33.3247L15.0608 33.3247C15.2628 33.1538 15.4534 32.9782 15.6392 32.7907M16.2246 26.382C16.4333 26.5895 16.6416 26.7976 16.8496 27.0062L16.8497 27.0063C17.1181 27.2751 17.3877 27.5422 17.6573 27.8083" fill="black" stroke="black" stroke-width="0.75"/>
<path d="M18.2689 31.9773C18.3416 33.7686 18.3701 35.5608 18.3795 37.3535C18.3808 37.5858 18.3829 37.8181 18.3857 38.0504C18.3893 38.3815 18.3906 38.7125 18.3914 39.0436C18.3929 39.1429 18.3944 39.2422 18.396 39.3444C18.3939 40.1413 18.2284 40.7388 17.6693 41.3257C17.6017 41.3972 17.5341 41.4688 17.4645 41.5425C17.3896 41.619 17.3148 41.6954 17.2376 41.7742C17.1969 41.816 17.1562 41.8579 17.1142 41.901C16.8491 42.1731 16.5815 42.4426 16.3123 42.7108C16.1722 42.8503 16.0327 42.9903 15.8932 43.1304C15.8036 43.2199 15.714 43.3094 15.6243 43.3989C15.5442 43.479 15.464 43.559 15.3815 43.6415C15.0698 43.9364 14.8846 44.0362 14.4608 44.0461C14.3814 44.0496 14.3019 44.053 14.2201 44.0565C13.8841 43.9915 13.6821 43.8261 13.4564 43.5789C13.3063 43.3327 13.1963 43.0743 13.0858 42.8084C13.0534 42.7337 13.021 42.659 12.9877 42.5819C12.8848 42.3437 12.7838 42.1046 12.6829 41.8655C12.6153 41.7078 12.5475 41.5502 12.4795 41.3927C12.3483 41.0878 12.2182 40.7825 12.0891 40.4768C11.9769 40.2117 11.8622 39.9482 11.7433 39.6861C11.7062 39.6031 11.7062 39.6031 11.6682 39.5184C11.6032 39.3738 11.5372 39.2296 11.4711 39.0854C11.3866 38.8302 11.3928 38.7551 11.4798 38.5085C11.6379 38.3265 11.7963 38.1586 11.9678 37.99C12.0187 37.9389 12.0695 37.8879 12.1219 37.8353C12.2905 37.6664 12.46 37.4985 12.6296 37.3306C12.7473 37.2131 12.865 37.0956 12.9826 36.978C13.2297 36.7314 13.4772 36.4851 13.725 36.2392C14.0412 35.9254 14.3566 35.6109 14.6718 35.2961C14.9737 34.9947 15.276 34.6936 15.5783 34.3926C15.6639 34.3073 15.6639 34.3073 15.7511 34.2203C16.8481 33.1273 16.8481 33.1273 17.3695 32.6864C17.5859 32.5016 17.7776 32.2943 17.9728 32.0877C18.097 31.9773 18.097 31.9773 18.2689 31.9773Z" fill="#D61414"/>
<path d="M5.28996 26.0277C5.39139 26.0278 5.49283 26.0278 5.59734 26.0278C5.92715 26.0281 6.25694 26.0297 6.58674 26.0314C6.81259 26.032 7.03844 26.0326 7.2643 26.0331C8.98544 26.0389 10.7052 26.0697 12.4251 26.1335C12.2781 26.4484 12.102 26.6435 11.8504 26.8854C11.6043 27.1227 11.3698 27.3624 11.1489 27.623C10.6757 28.1659 10.1647 28.6729 9.65833 29.1846C9.60443 29.2391 9.55053 29.2935 9.49499 29.3497C9.21062 29.6368 8.9259 29.9236 8.64097 30.2103C8.40556 30.4472 8.1709 30.6849 7.93686 30.9232C7.65312 31.2121 7.36815 31.4997 7.08225 31.7864C6.97374 31.8957 6.86567 32.0054 6.75806 32.1155C6.60813 32.2688 6.45666 32.4203 6.30472 32.5716C6.23854 32.6404 6.23854 32.6404 6.17103 32.7105C6.04478 32.8342 6.04478 32.8342 5.80793 33.0085C5.45808 32.994 5.16086 32.84 4.84181 32.7C4.7905 32.6776 4.73919 32.6553 4.68632 32.6322C4.51931 32.5594 4.35257 32.4859 4.18586 32.4123C4.012 32.3359 3.83811 32.2595 3.66421 32.1832C3.54695 32.1317 3.42971 32.0802 3.31249 32.0287C2.94526 31.8675 2.57635 31.7112 2.20561 31.5583C2.11592 31.5208 2.02623 31.4834 1.93382 31.4448C1.76746 31.3755 1.60067 31.3073 1.43339 31.2402C0.960203 31.0411 0.672154 30.8683 0.39387 30.4304C0.292136 30.0965 0.317254 29.8234 0.39387 29.485C0.533581 29.2862 0.533581 29.2862 0.719828 29.0909C0.789896 29.0168 0.859963 28.9427 0.932154 28.8664C1.00975 28.7869 1.08736 28.7075 1.16731 28.6257C1.20781 28.5838 1.24831 28.542 1.29005 28.4989C1.55056 28.2298 1.81366 27.9634 2.07853 27.6985C2.21586 27.561 2.35248 27.4228 2.4891 27.2846C2.57785 27.1956 2.66664 27.1066 2.75547 27.0177C2.83426 26.9386 2.91304 26.8594 2.99421 26.7779C3.72602 26.1109 4.3353 26.0217 5.28996 26.0277Z" fill="#D61414"/>
<path d="M23.6109 15.2274L23.6109 15.2274L23.612 15.2284L23.7723 15.3881L23.9454 15.563L23.9454 15.563L23.9468 15.5645L24.1323 15.7498C24.1323 15.7499 24.1324 15.7499 24.1324 15.75C24.3341 15.9518 24.5353 16.1543 24.7369 16.3572L24.7375 16.3578L25.158 16.7791C25.158 16.7791 25.1581 16.7792 25.1581 16.7792C25.5267 17.1484 25.8948 17.5182 26.2629 17.8883L26.263 17.8883C26.6101 18.2371 26.9576 18.5854 27.305 18.9335L27.3918 19.0205C27.3918 19.0205 27.3918 19.0205 27.3918 19.0205C28.0624 19.6928 28.7325 20.3655 29.4024 21.0386C29.2944 21.1809 29.1495 21.296 28.9362 21.4563L28.9362 21.4563L28.9332 21.4586L28.6072 21.709L28.6061 21.7098L28.4374 21.8384L28.4366 21.839C28.1932 22.0256 27.9527 22.2158 27.7148 22.4039C27.6863 22.4265 27.6578 22.449 27.6294 22.4715C27.2767 22.7492 26.9221 23.0225 26.5636 23.2906C26.3973 23.189 26.2545 23.0434 26.0669 22.8519C26.0378 22.8223 26.0076 22.7915 25.9761 22.7596L25.9744 22.7579L25.8093 22.5929C25.8093 22.5929 25.8093 22.5928 25.8093 22.5928C25.8092 22.5928 25.8092 22.5928 25.8092 22.5927C25.6298 22.4133 25.4511 22.2332 25.2718 22.0525L25.2711 22.0519L24.8968 21.6768C24.5689 21.3483 24.2415 21.0192 23.914 20.6898L23.9139 20.6897C23.6052 20.3794 23.2961 20.0695 22.9872 19.7598L22.9095 19.6819C22.9095 19.6819 22.9095 19.6819 22.9095 19.6819C22.322 19.0927 21.7348 18.503 21.1479 17.9131C21.242 17.763 21.3365 17.6242 21.4442 17.492L21.4442 17.492L21.4451 17.491L21.5693 17.3374L21.5703 17.3362L21.7016 17.1753L21.7016 17.1753L21.7027 17.1739C21.7953 17.0592 21.8879 16.9445 21.9803 16.8297C21.9803 16.8297 21.9803 16.8297 21.9803 16.8297L22.1204 16.6558L22.1204 16.6558L22.1212 16.6548C22.5473 16.1222 22.9666 15.5797 23.3668 15.021C23.4508 15.0783 23.528 15.1442 23.6109 15.2274Z" fill="black" stroke="black" stroke-width="0.75"/>
<path d="M18.3151 21.3357C18.1252 21.5619 17.9335 21.7866 17.7395 22.0097L17.7394 22.0099C17.6449 22.1185 17.5505 22.2272 17.4562 22.336L18.3151 21.3357ZM18.3151 21.3357C18.745 21.7119 19.1494 22.1187 19.5658 22.5375C19.6095 22.5815 19.6534 22.6257 19.6974 22.6699L19.6978 22.6703L20.0132 22.986C20.0132 22.9861 20.0132 22.9861 20.0132 22.9861C20.288 23.2612 20.5626 23.5366 20.8372 23.8122L20.8373 23.8123C21.0958 24.0716 21.3546 24.3308 21.6132 24.5898L21.6809 24.6576C22.1687 25.1462 22.6564 25.6351 23.1438 26.1241C23.1405 26.128 23.1373 26.1318 23.134 26.1354C23.0936 26.1797 23.0463 26.2166 22.9466 26.2943C22.9258 26.3105 22.9027 26.3285 22.8769 26.3487L22.8769 26.3487L22.8744 26.3506C22.4823 26.6634 22.0984 26.9828 21.7193 27.3105C21.2754 27.6933 20.8256 28.0685 20.3704 28.4389C20.2096 28.3372 20.0674 28.1974 19.8836 28.0109L19.8836 28.0109L19.8816 28.0088L19.747 27.8743C19.747 27.8743 19.7469 27.8742 19.7469 27.8742C19.6012 27.7284 19.4559 27.5818 19.3101 27.4346L19.3093 27.4338L19.0043 27.1281C19.0043 27.1281 19.0042 27.128 19.0042 27.128C18.7374 26.8606 18.4711 26.5926 18.2047 26.3243L18.2046 26.3242C17.9533 26.0712 17.7015 25.8186 17.45 25.5663L17.3868 25.5029C17.3868 25.5029 17.3868 25.5029 17.3868 25.5029C16.918 25.0325 16.4497 24.5617 15.9816 24.0906C16.1014 23.8988 16.2501 23.7223 16.4293 23.518L16.4293 23.518L16.4307 23.5164L16.5672 23.3589C16.5673 23.3589 16.5673 23.3588 16.5673 23.3588C16.6631 23.2484 16.7591 23.1381 16.8552 23.028L16.8552 23.028C17.0562 22.7975 17.2564 22.5665 17.4561 22.336L18.3151 21.3357Z" fill="black" stroke="black" stroke-width="0.75"/>
<path d="M20.6866 19.6089L20.6866 19.6089L20.6883 19.6106L20.8483 19.7705C20.8483 19.7706 20.8483 19.7706 20.8484 19.7706C20.8484 19.7706 20.8484 19.7707 20.8484 19.7707C21.0222 19.9445 21.1954 20.119 21.3691 20.2941L21.3697 20.2948L21.7325 20.6583C22.0502 20.9766 22.3674 21.2956 22.6848 21.6148L22.6848 21.6149C22.9839 21.9156 23.2834 22.2159 23.5827 22.5159L23.6581 22.5916C23.6581 22.5916 23.6581 22.5916 23.6582 22.5916C24.216 23.151 24.7734 23.7109 25.3305 24.271C25.2733 24.342 25.2349 24.3872 25.2013 24.4228C25.1489 24.4784 25.1119 24.5072 24.9847 24.6026L24.9847 24.6026L24.9831 24.6038L24.8353 24.7159L24.6842 24.828L24.6842 24.828L24.6817 24.8298L24.5251 24.9481C24.525 24.9481 24.525 24.9481 24.525 24.9481C24.525 24.9481 24.5249 24.9482 24.5249 24.9482C24.4603 24.9969 24.3956 25.0454 24.3306 25.094C24.1611 24.9891 24.0135 24.8394 23.8186 24.6417C23.8063 24.6292 23.7939 24.6166 23.7813 24.6038L23.7795 24.602L23.6271 24.4497C23.6271 24.4497 23.627 24.4497 23.627 24.4497C23.627 24.4496 23.627 24.4496 23.6269 24.4496C23.4616 24.2841 23.2968 24.118 23.1315 23.9513L23.1308 23.9506L22.7853 23.6044C22.7853 23.6044 22.7853 23.6044 22.7853 23.6043C22.4829 23.3013 22.1809 22.9977 21.8789 22.6937L21.8788 22.6937C21.594 22.4072 21.3088 22.1212 21.0238 21.8355L20.9522 21.7636C20.9521 21.7636 20.9521 21.7636 20.9521 21.7636C20.4115 21.2213 19.8713 20.6786 19.3314 20.1356C19.4 20.0202 19.4746 19.9164 19.5676 19.8096L19.5676 19.8096L19.5684 19.8086L19.7069 19.6484L19.8508 19.4842L19.8508 19.4842L19.8521 19.4827L19.9987 19.3136C19.9987 19.3136 19.9987 19.3136 19.9987 19.3136C19.9987 19.3136 19.9987 19.3136 19.9988 19.3135C20.0531 19.2508 20.1077 19.1882 20.1623 19.1256C20.3109 19.227 20.447 19.3654 20.6196 19.5409C20.6413 19.563 20.6636 19.5856 20.6866 19.6089Z" fill="black" stroke="black" stroke-width="0.75"/>
</g>
<defs>
<clipPath id="clip0_157_4785">
<rect width="44" height="44" fill="white" transform="translate(0.393921 0.00854492)"/>
</clipPath>
</defs>
</svg>
