<svg width="46" height="46" viewBox="0 0 46 46" fill="none" xmlns="http://www.w3.org/2000/svg">
<g clip-path="url(#clip0_157_4674)">
<path d="M21.345 11.3187C22.3795 11.3085 23.414 11.3007 24.4486 11.296C24.9291 11.2937 25.4096 11.2906 25.89 11.2856C26.3545 11.2808 26.8189 11.2782 27.2834 11.277C27.4598 11.2762 27.6362 11.2747 27.8126 11.2723C29.3196 11.2527 30.4127 11.4486 31.5341 12.5382C32.4368 13.499 32.6215 14.5212 32.6191 15.794C32.6195 15.9179 32.6199 16.0418 32.6205 16.1657C32.6216 16.501 32.6217 16.8362 32.6215 17.1714C32.6214 17.4516 32.6218 17.7318 32.6222 18.0121C32.6232 18.6732 32.6232 19.3343 32.6227 19.9955C32.6222 20.6769 32.6233 21.3583 32.6251 22.0398C32.6267 22.6256 32.6272 23.2115 32.6269 23.7974C32.6268 24.147 32.627 24.4965 32.6282 24.8461C32.6293 25.1747 32.6292 25.5033 32.628 25.8319C32.6277 26.0096 32.6287 26.1873 32.6297 26.365C32.6291 26.4713 32.6285 26.5776 32.6279 26.6872C32.6279 26.7792 32.6279 26.8713 32.6279 26.9661C32.5668 27.4502 32.3476 27.7807 31.9797 28.0894C31.9199 28.1407 31.8601 28.192 31.7985 28.2449C31.368 28.5599 30.8181 28.5038 30.3098 28.4574C29.8411 28.3185 29.5131 28.0867 29.2551 27.6664C28.9581 27.0389 28.9527 26.4736 28.9535 25.7862C28.9527 25.6683 28.9518 25.5505 28.9507 25.4326C28.9483 25.1145 28.9475 24.7964 28.947 24.4783C28.9461 24.1452 28.9438 23.812 28.9417 23.4789C28.9379 22.8489 28.9354 22.2189 28.9333 21.5889C28.9309 20.8713 28.9271 20.1538 28.9231 19.4362C28.915 17.9608 28.9086 16.4855 28.9036 15.0101C28.7585 14.9811 28.6135 14.9521 28.4641 14.9223C28.4641 18.1127 28.4641 21.3031 28.4641 24.5902C28.1517 24.2778 27.9365 23.9794 27.7115 23.6069C27.633 23.4792 27.5544 23.3514 27.4757 23.2238C27.4355 23.1585 27.3953 23.0932 27.3538 23.0259C27.1677 22.7262 26.9757 22.4304 26.7832 22.1348C26.3738 21.5049 25.9683 20.8726 25.5637 20.2396C25.0244 19.3955 25.0244 19.3955 24.4806 18.5542C24.4037 18.4354 24.3275 18.3162 24.2518 18.1966C24.0489 17.8771 23.8381 17.5711 23.6075 17.2709C22.5432 15.8251 22.1013 14.1431 21.5901 12.4438C21.5652 12.3609 21.5402 12.2781 21.5146 12.1927C21.4921 12.1162 21.4696 12.0397 21.4465 11.9609C21.4169 11.8604 21.4169 11.8604 21.3867 11.7579C21.345 11.5824 21.345 11.5824 21.345 11.3187Z" fill="black"/>
<path d="M19.4993 25.0298C19.6004 25.0434 19.7016 25.0569 19.8058 25.0709C19.9406 25.0882 20.0755 25.1053 20.2103 25.1225C20.3099 25.136 20.3099 25.136 20.4116 25.1498C20.954 25.2175 21.4317 25.1782 21.9602 25.0298C21.9934 25.1335 21.9934 25.1335 22.0272 25.2393C22.1105 25.498 22.1944 25.7564 22.2788 26.0147C22.3328 26.1806 22.386 26.3468 22.4391 26.5129C22.491 26.671 22.491 26.671 22.5439 26.8322C22.5751 26.9289 22.6064 27.0255 22.6387 27.1251C22.7649 27.4365 22.8908 27.6683 23.1028 27.9302C23.2223 27.9797 23.3421 28.0286 23.4621 28.0768C23.6511 28.1935 23.6511 28.1935 23.8059 28.3696C23.9151 28.8414 23.8966 29.3135 23.8885 29.7947C23.8886 29.9424 23.889 30.0901 23.8897 30.2378C23.8906 30.6389 23.8872 31.0397 23.883 31.4407C23.8792 31.8608 23.8793 32.2808 23.879 32.7008C23.8779 33.4066 23.8741 34.1123 23.8686 34.8181C23.8615 35.7226 23.8585 36.627 23.8568 37.5315C23.8553 38.3103 23.8523 39.0892 23.8489 39.868C23.8481 40.0348 23.8475 40.2016 23.8469 40.3685C23.8452 40.8446 23.8426 41.3208 23.8387 41.7969C23.8376 41.9408 23.8368 42.0848 23.8363 42.2287C23.829 44.2586 23.829 44.2586 23.1344 44.9483C22.5532 45.4727 22.0749 45.5492 21.2966 45.5354C20.661 45.4786 20.2883 45.2059 19.8793 44.7324C19.5411 44.1776 19.4607 43.6746 19.4676 43.0398C19.4673 42.9624 19.4671 42.885 19.4669 42.8052C19.4664 42.5475 19.4679 42.2897 19.4693 42.032C19.4694 41.8466 19.4694 41.6612 19.4692 41.4758C19.4691 40.9735 19.4707 40.4713 19.4725 39.9691C19.4742 39.4438 19.4743 38.9185 19.4746 38.3933C19.4755 37.3991 19.4776 36.4049 19.4803 35.4107C19.4832 34.2787 19.4847 33.1466 19.486 32.0146C19.4888 29.6863 19.4934 27.358 19.4993 25.0298Z" fill="black"/>
<path d="M14.8133 0.449951C15.1166 0.536912 15.2499 0.712815 15.4563 0.947769C15.5763 1.20863 15.5763 1.20863 15.6687 1.50116C15.7042 1.61125 15.7397 1.72134 15.7762 1.83476C15.8134 1.95451 15.8505 2.07427 15.8875 2.19403C15.9271 2.31837 15.9668 2.44266 16.0066 2.56692C16.1111 2.89404 16.214 3.22164 16.3165 3.54938C16.4197 3.87837 16.5242 4.20692 16.6288 4.53549C16.747 4.90736 16.8652 5.27926 16.9821 5.65155C17.2269 6.43026 17.481 7.20542 17.7415 7.97902C17.8102 7.92197 17.8789 7.86493 17.9497 7.80616C18.2941 7.54002 18.4581 7.57337 18.8841 7.62746C19.2113 7.88297 19.3186 8.14315 19.445 8.53246C19.4636 8.5888 19.4822 8.64515 19.5014 8.7032C19.5422 8.82752 19.5825 8.952 19.6224 9.07663C19.6876 9.28011 19.7542 9.48306 19.8211 9.68598C20.0809 10.4774 20.331 11.2716 20.5768 12.0674C20.7119 12.5042 20.8487 12.9405 20.9854 13.3768C21.0522 13.5917 21.1183 13.8069 21.1834 14.0223C21.5654 15.2851 21.9825 16.4036 22.7338 17.494C22.8726 17.6956 23.0031 17.9021 23.1341 18.1088C23.2168 18.2351 23.2998 18.3614 23.383 18.4874C23.8248 19.1623 24.2616 19.8401 24.6958 20.5199C25.2255 21.349 25.2255 21.349 25.7589 22.1757C25.8334 22.2906 25.9077 22.4056 25.9817 22.5207C26.2254 22.899 26.4734 23.2741 26.7235 23.6483C26.8212 23.7961 26.9186 23.9441 27.0159 24.0922C27.1104 24.2351 27.2064 24.3769 27.3025 24.5188C27.6528 25.054 27.8553 25.4384 27.8489 26.0845C27.739 26.3372 27.739 26.3372 27.5852 26.5239C27.5497 26.5672 27.5143 26.6105 27.4777 26.655C27.1488 26.9343 26.6897 27.0175 26.284 27.1455C26.1145 27.1992 25.9455 27.2546 25.7766 27.3103C25.6687 27.3448 25.5609 27.3793 25.4498 27.4149C25.3025 27.4621 25.3025 27.4621 25.1522 27.5102C24.7493 27.6048 24.3955 27.6415 24.0092 27.4798C23.4761 27.0476 23.3197 26.4491 23.1248 25.8153C23.097 25.7292 23.0693 25.643 23.0407 25.5542C22.8107 24.8209 22.8107 24.8209 22.8391 24.4146C22.9421 24.268 22.9421 24.268 23.0808 24.1344C23.552 23.622 23.8162 22.9159 23.8059 22.2173C23.7299 21.3047 23.4174 20.646 22.7512 20.02C22.0481 19.4431 21.285 18.9459 20.5265 18.4459C20.4619 18.4021 20.3974 18.3582 20.3309 18.313C20.1102 18.1672 20.1102 18.1672 19.8484 18.0343C18.9916 17.5514 18.794 16.9687 18.5435 16.0759C18.501 15.9357 18.458 15.7957 18.4147 15.6557C18.3231 15.3591 18.2333 15.062 18.1445 14.7646C17.9385 14.0809 17.7072 13.4056 17.4784 12.7293C17.3478 12.3427 17.2189 11.9554 17.0902 11.5681C17.0644 11.4904 17.0385 11.4127 17.0119 11.3326C16.6622 10.279 16.3198 9.22311 15.9775 8.16714C15.7516 7.4707 15.5249 6.77465 15.2912 6.08079C15.2721 6.02398 15.253 5.96717 15.2333 5.90864C15.1467 5.65152 15.0596 5.39458 14.9718 5.13787C14.9425 5.05125 14.9132 4.96463 14.883 4.87538C14.8577 4.8014 14.8324 4.72742 14.8063 4.65119C14.7532 4.46339 14.7532 4.46339 14.7532 4.19972C14.62 4.24323 14.62 4.24323 14.484 4.28761C14.152 4.3795 13.8687 4.42035 13.5227 4.3755C13.2666 4.20115 13.1153 4.0754 13.0441 3.76576C13.0263 3.45189 13.0659 3.26554 13.2151 2.98573C13.5063 2.73095 13.7699 2.64634 14.138 2.5298C14.1189 2.47451 14.0999 2.41922 14.0803 2.36226C13.7229 1.26368 13.7229 1.26368 14.0006 0.684097C14.2837 0.463139 14.463 0.456043 14.8133 0.449951Z" fill="#0F7657"/>
<path d="M28.3762 26.8755C28.4052 26.8755 28.4342 26.8755 28.4641 26.8755C28.4703 29.0865 28.4749 31.2975 28.4778 33.5085C28.4791 34.5351 28.481 35.5617 28.484 36.5883C28.4866 37.4832 28.4883 38.378 28.4889 39.2729C28.4892 39.7467 28.49 40.2204 28.492 40.6942C28.4938 41.1403 28.4943 41.5864 28.4939 42.0325C28.494 42.1961 28.4945 42.3596 28.4955 42.5231C28.4968 42.7469 28.4965 42.9706 28.4958 43.1944C28.4969 43.2908 28.4969 43.2908 28.4981 43.3892C28.4931 43.9717 28.3329 44.4325 28.0082 44.915C27.5209 45.3914 27.1282 45.5302 26.4426 45.5522C25.699 45.5268 25.2896 45.3562 24.7837 44.8162C24.3799 44.3523 24.3112 43.8815 24.3121 43.2789C24.3119 43.2157 24.3118 43.1524 24.3116 43.0872C24.3113 42.8763 24.3123 42.6654 24.3133 42.4545C24.3133 42.3029 24.3133 42.1513 24.3132 41.9997C24.3131 41.5888 24.3142 41.1779 24.3154 40.767C24.3165 40.3373 24.3166 39.9076 24.3168 39.4779C24.3174 38.6646 24.3188 37.8513 24.3206 37.0379C24.3225 36.1118 24.3235 35.1857 24.3244 34.2597C24.3262 32.3549 24.3293 30.4502 24.3332 28.5454C24.4155 28.5283 24.4977 28.5112 24.5825 28.4936C24.7461 28.4592 24.7461 28.4592 24.9131 28.424C25.0207 28.4015 25.1284 28.379 25.2392 28.3557C25.7256 28.2448 26.1954 28.0948 26.6678 27.9357C26.7592 27.9063 26.8506 27.8769 26.9447 27.8466C27.5725 27.6373 27.9853 27.4228 28.3762 26.8755Z" fill="black"/>
<path d="M16.5989 13.0767C16.6569 13.0767 16.7149 13.0767 16.7746 13.0767C16.978 13.6815 17.1797 14.2868 17.3803 14.8925C17.4487 15.0985 17.5175 15.3044 17.5867 15.5102C17.6861 15.8059 17.7841 16.102 17.8819 16.3983C17.9131 16.4902 17.9443 16.5822 17.9764 16.6769C18.0046 16.7631 18.0328 16.8493 18.0618 16.9381C18.0869 17.0136 18.1121 17.0891 18.1381 17.167C18.2052 17.5063 18.1127 17.7638 18.0051 18.0864C18.0969 18.1473 18.1886 18.2081 18.2832 18.2708C19.0591 18.7861 19.8326 19.3048 20.6034 19.8278C20.6827 19.8813 20.762 19.9348 20.8437 19.99C22.4652 21.093 22.4652 21.093 22.6633 21.8657C22.7643 22.4182 22.6331 22.8507 22.3674 23.3389C22.0838 23.7277 21.7047 23.9138 21.2571 24.063C21.0799 24.0808 21.0799 24.0808 20.8835 24.085C20.8196 24.0872 20.7557 24.0895 20.6899 24.0918C20.0996 24.0158 19.6217 23.666 19.1422 23.3379C19.0403 23.269 19.0403 23.269 18.9363 23.1988C18.7134 23.048 18.4911 22.8963 18.2688 22.7446C18.1137 22.6392 17.9587 22.5338 17.8036 22.4284C17.4807 22.2089 17.1585 21.9886 16.8364 21.7679C16.493 21.5329 16.1477 21.301 15.801 21.0709C15.7138 21.0127 15.6267 20.9544 15.5369 20.8944C15.3708 20.7835 15.2042 20.6732 15.0372 20.5637C14.4803 20.1901 13.8586 19.7418 13.6985 19.0532C13.5567 18.2399 13.9215 17.6264 14.3137 16.9438C14.3452 16.8887 14.3768 16.8336 14.4093 16.7768C14.5827 16.4756 14.7592 16.1765 14.9375 15.8782C15.3021 15.2679 15.6576 14.6523 16.0147 14.0377C16.0904 13.9076 16.0904 13.9076 16.1676 13.775C16.2127 13.6975 16.2577 13.62 16.3041 13.5402C16.3978 13.3829 16.4973 13.229 16.5989 13.0767Z" fill="black"/>
<path d="M26.2888 4.07335C27.1064 4.77655 27.4858 5.63478 27.6096 6.69324C27.6491 7.57953 27.3267 8.42351 26.7942 9.12156C26.0263 9.94494 25.1711 10.3448 24.0476 10.385C23.013 10.3658 22.2443 9.99777 21.5098 9.29425C20.7601 8.51284 20.5224 7.64786 20.5354 6.58338C20.5965 5.67903 21.0122 4.83436 21.6746 4.21617C23.0396 3.11789 24.8631 3.0208 26.2888 4.07335Z" fill="black"/>
</g>
<defs>
<clipPath id="clip0_157_4674">
<rect width="45" height="45" fill="white" transform="translate(0.339111 0.508301)"/>
</clipPath>
</defs>
</svg>
