<svg width="48" height="48" viewBox="0 0 48 48" fill="none" xmlns="http://www.w3.org/2000/svg">
<g clip-path="url(#clip0_157_4664)">
<path d="M20.9144 30.4309L20.665 30.4136C20.6305 30.9114 20.5961 31.4092 20.5618 31.9071L20.5463 32.1329L20.5462 32.1331C20.5362 32.2792 20.5264 32.4254 20.5167 32.5715C20.4963 32.8771 20.4736 33.1794 20.4434 33.4814L20.4433 33.4824C20.3507 34.4499 20.4134 35.4076 20.475 36.3489C20.4814 36.4478 20.4879 36.5466 20.4941 36.6451C20.4942 36.6452 20.4942 36.6454 20.4942 36.6455L20.5316 37.2693L20.5316 37.2694C20.5642 37.8153 20.5978 38.3612 20.6316 38.9069C20.6857 39.7783 20.7387 40.6498 20.7909 41.5214L20.7909 41.5216C20.8092 41.8234 20.8281 42.125 20.8471 42.4265C20.8801 42.9616 20.9091 43.4966 20.9332 44.032L20.9332 44.0321L20.9442 44.2741C20.9442 44.2744 20.9442 44.2746 20.9442 44.2748C20.9532 44.4973 20.9591 44.7201 20.9637 44.944H20.9636L20.9638 44.949L20.9716 45.1394C20.975 45.6298 20.8061 46.0299 20.4809 46.4127L20.3441 46.522L20.3441 46.522L20.3405 46.525L20.1973 46.6439C19.6953 46.9662 19.1468 46.9673 18.4868 46.8967C18.055 46.7325 17.7457 46.4234 17.4577 46.0134C17.3204 45.657 17.2671 45.3299 17.2395 44.9284L17.2394 44.9278L17.2255 44.7322C17.2255 44.7321 17.2255 44.7321 17.2254 44.7321C17.2099 44.5109 17.1955 44.2896 17.1811 44.0676L17.181 44.0668L17.1479 43.5838C16.9774 41.0686 16.8256 38.552 16.6736 36.0346C16.6383 35.4481 16.6029 34.8617 16.5672 34.2751L16.553 34.0403H16.3177H16.3173H16.317H16.3166H16.3163H16.3159H16.3156H16.3152H16.3149H16.3145H16.3141H16.3138H16.3134H16.3131H16.3127H16.3124H16.312H16.3117H16.3113H16.311H16.3106H16.3102H16.3099H16.3095H16.3092H16.3088H16.3085H16.3081H16.3078H16.3074H16.307H16.3067H16.3063H16.306H16.3056H16.3053H16.3049H16.3046H16.3042H16.3039H16.3035H16.3031H16.3028H16.3024H16.3021H16.3017H16.3014H16.301H16.3007H16.3003H16.2999H16.2996H16.2992H16.2989H16.2985H16.2982H16.2978H16.2975H16.2971H16.2968H16.2964H16.296H16.2957H16.2953H16.295H16.2946H16.2943H16.2939H16.2936H16.2932H16.2928H16.2925H16.2921H16.2918H16.2914H16.2911H16.2907H16.2904H16.29H16.2896H16.2893H16.2889H16.2886H16.2882H16.2879H16.2875H16.2872H16.2868H16.2864H16.2861H16.2857H16.2854H16.285H16.2847H16.2843H16.284H16.2836H16.2833H16.2829H16.2825H16.2822H16.2818H16.2815H16.2811H16.2808H16.2804H16.2801H16.2797H16.2793H16.279H16.2786H16.2783H16.2779H16.2776H16.2772H16.2769H16.2765H16.2761H16.2758H16.2754H16.2751H16.2747H16.2744H16.274H16.2737H16.2733H16.2729H16.2726H16.2722H16.2719H16.2715H16.2712H16.2708H16.2705H16.2701H16.2697H16.2694H16.269H16.2687H16.2683H16.268H16.2676H16.2673H16.2669H16.2665H16.2662H16.2658H16.2655H16.2651H16.2648H16.2644H16.264H16.2637H16.2633H16.263H16.2626H16.2623H16.2619H16.2616H16.2612H16.2608H16.2605H16.2601H16.2598H16.2594H16.2591H16.2587H16.2584H16.258H16.2576H16.2573H16.2569H16.2566H16.2562H16.2559H16.2555H16.2551H16.2548H16.2544H16.2541H16.2537H16.2534H16.253H16.2527H16.2523H16.2519H16.2516H16.2512H16.2509H16.2505H16.2502H16.2498H16.2494H16.2491H16.2487H16.2484H16.248H16.2477H16.2473H16.2469H16.2466H16.2462H16.2459H16.2455H16.2452H16.2448H16.2445H16.2441H16.2437H16.2434H16.243H16.2427H16.2423H16.242H16.2416H16.2412H16.2409H16.2405H16.2402H16.2398H16.2395H16.2391H16.2387H16.2384H16.238H16.2377H16.2373H16.237H16.2366H16.2362H16.2359H16.2355H16.2352H16.2348H16.2345H16.2341H16.2337H16.2334H16.233H16.2327H16.2323H16.232H16.2316H16.2312H16.2309H16.2305H16.2302H16.2298H16.2295H16.2291H16.2287H16.2284H16.228H16.2277H16.2273H16.2269H16.2266H16.2262H16.2259H16.2255H16.2252H16.2248H16.2244H16.2241H16.2237H16.2234H16.223H16.2227H16.2223H16.2219H16.2216H16.2212H16.2209H16.2205H16.2201H16.2198H16.2194H16.2191H16.2187H16.2184H16.218H16.2176H16.2173H16.2169H16.2166H16.2162H16.2159H16.2155H16.2151H16.2148H16.2144H16.2141H16.2137H16.2133H16.213H16.2126H16.2123H16.2119H16.2115H16.2112H16.2108H16.2105H16.2101H16.2098H16.2094H16.209H16.2087H16.2083H16.208H16.2076H16.2072H16.2069H16.2065H16.2062H16.2058H16.2054H16.2051H16.2047H16.2044H16.204H16.2037H16.2033H16.2029H16.2026H16.2022H16.2019H16.2015H16.2011H16.2008H16.2004H16.2001H16.1997H16.1993H16.199H16.1986H16.1983H16.1979H16.1975H16.1972H16.1968H16.1965H16.1961H16.1957H16.1954H16.195H16.1947H16.1943H16.1939H16.1936H16.1932H16.1929H16.1925H16.1921H16.1918H16.1914H16.1911H16.1907H16.1903H16.19H16.1896H16.1893H16.1889H16.1885H16.1882H16.1878H16.1875H16.1871H16.1867H16.1864H16.186H16.1857H16.1853H16.1849H16.1846H16.1842H16.1839H16.1835H16.1831H16.1828H16.1824H16.182H16.1817H16.1813H16.181H16.1806H16.1802H16.1799H16.1795H16.1792H16.1788H16.1784H16.1781H16.1777H16.1774H16.177H16.1766H16.1763H16.1759H16.1755H16.1752H16.1748H16.1745H16.1741H16.1737H16.1734H16.173H16.1727H16.1723H16.1719H16.1716H16.1712H16.1708H16.1705H16.1701H16.1698H16.1694H16.169H16.1687H16.1683H16.1679H16.1676H16.1672H16.1669H16.1665H16.1661H16.1658H16.1654H16.1651H16.1647H16.1643H16.164H16.1636H16.1632H16.1629H16.1625H16.1621H16.1618H16.1614H16.1611H16.1607H16.1603H16.16H16.1596H16.1592H16.1589H16.1585H16.1582H16.1578H16.1574H16.1571H16.1567H16.1563H16.156H16.1556H16.1553H16.1549H16.1545H16.1542H16.1538H16.1534H16.1531H16.1527H16.1523H16.152H16.1516H16.1513H16.1509H16.1505H16.1502H16.1498H16.1494H16.1491H16.1487H16.1483H16.148H16.1476H16.1472H16.1469H16.1465H16.1462H16.1458H16.1454H16.1451H16.1447H16.1443H16.144H16.1436H16.1432H16.1429H16.1425H16.1421H16.1418H16.1414H16.141H16.1407H16.1403H16.14H16.1396H16.1392H16.1389H16.1385H16.1381H16.1378H16.1374H16.137H16.1367H16.1363H16.1359H16.1356H16.1352H16.1348H16.1345H16.1341H15.8973L15.8845 34.2767L15.8713 34.5202C15.756 36.638 15.6333 38.755 15.5011 40.8716L15.5011 40.8716C15.481 41.194 15.4613 41.5165 15.4418 41.8389C15.4178 42.2377 15.3931 42.6365 15.368 43.0353L15.368 43.0355L20.9144 30.4309ZM15.3408 43.4833C15.2635 44.7783 15.226 45.3811 15.1227 45.753C15.0325 46.0777 14.9005 46.2057 14.5337 46.5401C14.1151 46.8371 13.6792 46.918 13.1345 46.893C12.6013 46.7892 12.2165 46.5972 11.8955 46.1896C11.6309 45.7596 11.5808 45.3595 11.5902 44.8147L11.5902 44.8127L11.5923 44.5846C11.5923 44.5844 11.5923 44.5842 11.5923 44.584C11.6049 43.7184 11.66 42.854 11.7177 41.9828L11.7177 41.9827L15.3408 43.4833ZM11.7755 41.075C11.8289 40.2169 11.8831 39.3592 11.9394 38.5016L11.9394 38.5016C11.9742 37.9724 12.0073 37.4433 12.0395 36.9142C12.0518 36.7161 12.0648 36.5181 12.0783 36.3201L12.0783 36.32C12.161 35.1062 12.1535 33.9418 12.0202 32.7272C11.9732 32.2619 11.9561 31.8951 12.0047 31.5496C12.0527 31.2091 12.1663 30.8786 12.3958 30.4941L12.3959 30.4942L12.3992 30.4882C12.7969 29.7783 13.1367 29.0658 13.4298 28.3045C13.4299 28.3045 13.4299 28.3044 13.4299 28.3043L13.5301 28.0458L13.5301 28.0459L13.5308 28.0441C13.7152 27.5574 13.8727 27.0705 14.0034 26.5652C14.0358 26.4857 14.0402 26.4819 14.0427 26.4797C14.0429 26.4795 14.0431 26.4793 14.0434 26.4791C14.048 26.4743 14.06 26.4633 14.0941 26.4397C14.1233 26.4195 14.1609 26.3952 14.2141 26.3612C14.3225 26.329 14.4323 26.2992 14.5436 26.2708L14.5505 26.269L14.5573 26.2669C14.7472 26.2067 14.9366 26.1454 15.1257 26.0832L15.4027 25.9978L15.4108 25.9953L15.4186 25.9923C15.6709 25.8955 15.8478 25.7792 16.0358 25.636H16.0359H16.0363H16.0366H16.037H16.0373H16.0377H16.038H16.0384H16.0388H16.0391H16.0395H16.0398H16.0402H16.0405H16.0409H16.0413H16.0416H16.042H16.0423H16.0427H16.0431H16.0434H16.0438H16.0441H16.0445H16.0448H16.0452H16.0456H16.0459H16.0463H16.0466H16.047H16.0473H16.0477H16.0481H16.0484H16.0488H16.0491H16.0495H16.0499H16.0502H16.0506H16.0509H16.0513H16.0516H16.052H16.0524H16.0527H16.0531H16.0534H16.0538H16.0542H16.0545H16.0549H16.0552H16.0556H16.0559H16.0563H16.0567H16.057H16.0574H16.0577H16.0581H16.0585H16.0588H16.0592H16.0595H16.0599H16.0602H16.0606H16.061H16.0613H16.0617H16.062H16.0624H16.0628H16.0631H16.0635H16.0638H16.0642H16.0646H16.0649H16.0653H16.0656H16.066H16.0664H16.0667H16.0671H16.0674H16.0678H16.0682H16.0685H16.0689H16.0692H16.0696H16.0699H16.0703H16.0707H16.071H16.0714H16.0717H16.0721H16.0725H16.0728H16.0732H16.0735H16.0739H16.0743H16.0746H16.075H16.0753H16.0757H16.0761H16.0764H16.0768H16.0771H16.0775H16.0779H16.0782H16.0786H16.0789H16.0793H16.0797H16.08H16.0804H16.0807H16.0811H16.0815H16.0818H16.0822H16.0826H16.0829H16.0833H16.0836H16.084H16.0844H16.0847H16.0851H16.0854H16.0858H16.0862H16.0865H16.0869H16.0872H16.0876H16.088H16.0883H16.0887H16.089H16.0894H16.0898H16.0901H16.0905H16.0909H16.0912H16.0916H16.0919H16.0923H16.0927H16.093H16.0934H16.0937H16.0941H16.0945H16.0948H16.0952H16.0956H16.0959H16.0963H16.0966H16.097H16.0974H16.0977H16.0981H16.0985H16.0988H16.0992H16.0995H16.0999H16.1003H16.1006H16.101H16.1013H16.1017H16.1021H16.1024H16.1028H16.1032H16.1035H16.1039H16.1042H16.1046H16.105H16.1053H16.1057H16.1061H16.1064H16.1068H16.1071H16.1075H16.1079H16.1082H16.1086H16.109H16.1093H16.1097H16.1101H16.1104H16.1108H16.1111H16.1115H16.1119H16.1122H16.1126H16.113H16.1133H16.1137H16.114H16.1144H16.1148H16.1151H16.1155H16.1159H16.1162H16.1166H16.117H16.1173H16.1177H16.1181H16.1184H16.1188H16.1191H16.1195H16.1199H16.1202H16.1206H16.121H16.1213H16.1217H16.1221H16.1224H16.1228H16.1232H16.1235H16.1239H16.1242H16.1246H16.125H16.1253H16.1257H16.1261H16.1264H16.1268H16.1272H16.1275H16.1279H16.1283H16.1286H16.129H16.1294H16.1297H16.1301H16.1304H16.1308H16.1312H16.1315H16.1319H16.1323H16.1326H16.133H16.1334H16.1337H16.1341H16.2866L16.3564 25.5004C16.7083 24.8166 16.969 24.1477 16.7428 23.3019L16.7392 23.2886L16.7342 23.2757C16.4872 22.6416 16.0563 22.2313 15.4817 21.9289L15.4589 21.9169L15.434 21.9098C15.2043 21.8442 14.9983 21.8096 14.7714 21.7828L14.6218 21.7652L14.6118 21.6481L14.6118 21.6481L14.6117 21.6466C14.4519 19.8937 14.161 18.0709 13.3196 16.4518C13.2752 16.3588 13.2698 16.3441 13.2669 16.3315C13.2646 16.3216 13.2632 16.3098 13.2623 16.2583C13.269 16.2465 13.274 16.2379 13.2787 16.2308C13.2818 16.226 13.2836 16.2237 13.2843 16.2228C13.2863 16.2213 13.2953 16.2149 13.3223 16.2013C13.3504 16.1873 13.3873 16.1707 13.4431 16.1458L13.7448 16.063L13.7448 16.063L13.7468 16.0624L14.0602 15.9734C16.5576 15.3444 19.1288 16.0441 21.2335 17.497C21.6089 17.7803 21.8545 18.0793 22.1276 18.4852L22.1278 18.4854L22.1485 18.5161C22.5386 19.0946 22.7586 19.421 23.0378 19.6784C23.3178 19.9365 23.6529 20.1212 24.2435 20.4469L24.2751 20.4643L24.3296 20.4943L24.3919 20.4953C24.7489 20.501 25.0373 20.4421 25.3044 20.3148C25.5658 20.1902 25.7928 20.0064 26.0329 19.7876L26.0331 19.7878L26.0401 19.7808C26.2795 19.5446 26.5156 19.3057 26.7481 19.0615C26.9326 18.8881 27.0874 18.8072 27.2496 18.7654C27.4206 18.7214 27.6144 18.7165 27.8945 18.7219C28.0764 18.7447 28.2071 18.7969 28.3197 18.8727C28.4327 18.9487 28.5375 19.0551 28.6604 19.2053C28.826 19.5992 28.8607 19.8915 28.757 20.2811C28.1346 21.4939 26.9719 22.3227 25.6745 22.7716C24.5042 23.0416 23.4253 22.8593 22.4096 22.2305C22.4094 22.2304 22.4092 22.2302 22.4091 22.2301L22.2496 22.1304L22.2489 22.1299L22.0829 22.027C22.0829 22.027 22.0829 22.0269 22.0829 22.0269C21.9494 21.944 21.8161 21.8608 21.6825 21.7775L21.3364 21.5613L21.3011 21.9679L11.7755 41.075Z" fill="black" stroke="black" stroke-width="0.5"/>
<path d="M29.6223 1.13428C29.9858 1.13428 30.3493 1.13428 30.7239 1.13428C30.7239 1.55838 30.7239 1.98248 30.7239 2.41943C32.9901 3.23676 34.8698 2.55102 37.0328 1.73708C38.5617 1.17189 39.977 0.905747 41.5559 1.40967C42.0557 1.6823 42.0557 1.6823 42.5657 1.96045C42.5657 5.38355 42.5657 8.80666 42.5657 12.3335C42.2447 12.2051 41.9452 12.0717 41.6362 11.9204C40.0367 11.1986 38.5487 11.6241 36.9661 12.1499C36.7957 12.2065 36.7957 12.2065 36.6219 12.2642C36.1271 12.4288 35.6323 12.5935 35.1386 12.7613C34.9684 12.8188 34.9684 12.8188 34.7949 12.8775C34.6936 12.9119 34.5923 12.9464 34.4879 12.9819C33.9274 13.1566 33.4068 13.1822 32.8237 13.1884C32.7423 13.191 32.6609 13.1937 32.577 13.1964C31.8675 13.2031 31.5415 13.0564 30.8157 12.7925C30.7854 22.2742 30.7551 31.7559 30.7239 41.5249C31.0268 41.5552 31.3297 41.5855 31.6418 41.6167C32.6701 41.8729 33.6208 42.3398 34.2638 43.2059C34.4875 43.6362 34.4875 43.6362 34.6711 44.646C31.7327 44.646 28.7943 44.646 25.7668 44.646C25.8785 43.7531 26.0739 43.2403 26.7286 42.6222C27.5215 42.0085 28.6077 41.5249 29.6223 41.5249C29.6223 28.196 29.6223 14.8671 29.6223 1.13428Z" fill="#0F7657"/>
<path d="M13.8291 21.7235C13.1612 22.0007 12.4957 22.1874 11.8028 22.2315C11.9292 21.7821 12.1948 21.3694 12.533 20.9605L12.534 20.9592C12.8901 20.5251 13.0167 20.1664 13.1018 19.646L13.2615 18.67L12.4948 19.2948C11.8 19.861 11.281 20.4386 10.8425 21.2408C10.8424 21.2411 10.8422 21.2414 10.8421 21.2416L10.7221 21.4588L10.7184 21.4656L10.7149 21.4725C10.4274 22.0475 10.3922 22.5064 10.4298 23.0975L10.4434 23.3127L10.6363 23.4092C10.9967 23.5894 11.3974 23.599 11.7459 23.5617C12.0493 23.5292 12.3542 23.4555 12.6023 23.3955C12.6387 23.3867 12.6739 23.3782 12.7076 23.3702L12.9231 23.3212L12.9231 23.3212L12.9256 23.3206C13.3571 23.2195 13.7715 23.0961 14.1884 22.9452C14.6148 22.7965 14.969 22.7314 15.3656 22.7914C15.5517 22.8905 15.6841 22.9867 15.785 23.0944C15.8847 23.2009 15.9664 23.3321 16.033 23.5167C16.0459 23.717 16.0398 23.8603 16.0126 23.9871C15.9861 24.1104 15.9356 24.2361 15.8371 24.3935C15.503 24.7058 15.225 24.8461 14.7616 24.9725L14.7616 24.9724L14.7554 24.9742L14.3666 25.0877L14.3642 25.0883L14.1783 25.1414L14.1761 25.142C13.8893 25.2257 13.6095 25.3236 13.3399 25.4181C12.854 25.565 12.3679 25.5683 11.7999 25.5721C11.7543 25.5725 11.7082 25.5728 11.6614 25.5732L11.6614 25.5731L11.6549 25.5733L11.3453 25.5813C10.4056 25.5878 9.7033 25.3863 9.05279 24.7705C8.44432 24.0451 8.35358 23.2326 8.40421 22.2106C8.53876 20.8189 9.37899 19.5406 10.3488 18.4589L10.3488 18.4589L10.3506 18.4569L10.4966 18.2917C10.8208 17.9479 11.1907 17.6534 11.5882 17.3374L11.5887 17.337L11.7488 17.2092C11.997 17.0156 12.1763 16.8758 12.3155 16.774C12.4581 16.6698 12.5374 16.6216 12.5873 16.5989C12.6091 16.5891 12.6189 16.5871 12.6205 16.5868C12.6206 16.5868 12.6206 16.5868 12.6207 16.5868C12.6211 16.5867 12.6218 16.5865 12.6258 16.5869C12.6342 16.5877 12.6441 16.5895 12.6594 16.5935C13.2412 17.681 13.5261 18.977 13.7209 20.2393L13.7209 20.2396L13.755 20.4595C13.8137 20.8782 13.8319 21.2932 13.8291 21.7235Z" fill="black" stroke="black" stroke-width="0.75"/>
<path d="M14.5274 8.77783C15.4935 7.98581 16.9467 7.81017 18.0349 8.42582C18.8014 8.9904 19.3381 9.66636 19.5207 10.5543C19.6174 11.5012 19.4469 12.3034 18.8986 13.0517C18.3085 13.731 17.5441 14.0819 16.6342 14.1582C15.735 14.1682 14.963 13.8593 14.2979 13.2486C13.6755 12.5849 13.4437 11.808 13.4543 10.872C13.5175 10.0426 13.8978 9.36188 14.5274 8.77783Z" fill="black" stroke="black" stroke-width="0.75"/>
<path d="M9.06549 13.5097C9.17953 13.508 9.17953 13.508 9.29588 13.5063C9.36859 13.5061 9.44131 13.506 9.51623 13.5058C9.58274 13.5054 9.64925 13.505 9.71777 13.5046C9.88593 13.5269 9.88593 13.5269 10.0695 13.7105C10.1072 13.9286 10.1072 13.9286 10.1276 14.2021C10.1354 14.3023 10.1431 14.4024 10.1511 14.5056C10.1619 14.6658 10.1619 14.6658 10.1728 14.8293C10.1837 14.9914 10.1837 14.9914 10.1948 15.1568C10.2087 15.3721 10.222 15.5874 10.2348 15.8028C10.2502 16.0508 10.2695 16.2979 10.2904 16.5455C10.3369 17.3805 10.3369 17.3805 10.1115 17.6327C9.92609 17.7439 9.92609 17.7439 9.7242 17.8317C9.27096 18.0556 8.96742 18.5307 8.69257 18.943C8.63198 18.943 8.57139 18.943 8.50897 18.943C8.31953 18.5773 8.13016 18.2116 7.94084 17.8459C7.87659 17.7218 7.81231 17.5977 7.74802 17.4736C7.59544 17.1791 7.4431 16.8845 7.29136 16.5896C7.19719 16.4071 7.10235 16.225 7.00602 16.0436C6.81498 15.679 6.70707 15.4221 6.78886 15.0032C7.00741 14.3869 7.38504 13.9244 7.95819 13.6187C8.33052 13.4946 8.67566 13.51 9.06549 13.5097Z" fill="#0F7657"/>
<path d="M9.79419 26.2866C10.2183 26.3472 10.6424 26.4078 11.0793 26.4702C11.1323 27.0628 11.1846 27.6553 11.2362 28.248C11.2538 28.4491 11.2717 28.6502 11.2897 28.8513C11.4813 30.9949 11.4813 30.9949 11.4465 31.978C11.3557 32.0235 11.3557 32.0235 11.2629 32.0698C11.3235 33.221 11.3841 34.3721 11.4465 35.5581C11.2042 35.5884 10.9618 35.6187 10.7122 35.6499C10.6227 35.2629 10.5932 34.8789 10.5712 34.4834C10.5673 34.4168 10.5633 34.3503 10.5593 34.2817C10.5468 34.0703 10.5348 33.8589 10.5228 33.6476C10.5144 33.5037 10.506 33.3599 10.4975 33.216C10.477 32.8646 10.4568 32.5131 10.4368 32.1616C10.3459 32.1313 10.255 32.101 10.1614 32.0698C10.0402 30.1614 9.91903 28.2529 9.79419 26.2866Z" fill="#0F7657"/>
<path d="M7.59106 24.1752C7.67947 24.349 7.76693 24.5234 7.84673 24.7012C8.01032 25.0068 8.23584 25.2409 8.47318 25.4912C8.60083 25.644 8.60083 25.644 8.60083 25.8275C8.51078 25.8421 8.42073 25.8567 8.32795 25.8717C7.4367 26.0232 6.60432 26.2532 5.75513 26.5619C5.6628 26.3077 5.57109 26.0534 5.47974 25.7989C5.45347 25.7267 5.4272 25.6546 5.40013 25.5803C5.37528 25.5108 5.35043 25.4413 5.32483 25.3696C5.30175 25.3057 5.27868 25.2418 5.25491 25.1759C5.20435 25.0014 5.20435 25.0014 5.20435 24.726C6.90677 23.8594 6.90677 23.8594 7.59106 24.1752Z" fill="#0F7657"/>
<path d="M13.5579 26.1948C13.4475 26.7591 13.2942 27.2846 13.0817 27.8185C13.0538 27.8891 13.026 27.9598 12.9973 28.0325C12.2584 29.8738 12.2584 29.8738 11.9055 30.0503C11.7555 28.8578 11.6751 27.6711 11.6301 26.4702C11.917 26.4241 12.2038 26.3783 12.4907 26.3325C12.6132 26.3128 12.6132 26.3128 12.7381 26.2927C12.8162 26.2803 12.8943 26.2679 12.9748 26.2551C13.0469 26.2435 13.119 26.232 13.1933 26.2201C13.3743 26.1948 13.3743 26.1948 13.5579 26.1948Z" fill="#0E6C4F"/>
<path d="M6.30591 20.4116C6.7986 20.5471 7.16739 20.7766 7.59106 21.0542C7.50019 21.4783 7.40931 21.9024 7.31567 22.3394C7.13392 22.2788 6.95216 22.2182 6.76489 22.1558C6.55129 22.1213 6.33714 22.0897 6.12231 22.064C6.13522 21.823 6.14868 21.582 6.16248 21.3411C6.16608 21.2726 6.16969 21.204 6.17341 21.1334C6.20371 20.616 6.20371 20.616 6.30591 20.4116Z" fill="#0F7657"/>
</g>
<defs>
<clipPath id="clip0_157_4664">
<rect width="47" height="47" fill="white" transform="translate(0.339111 0.491699)"/>
</clipPath>
</defs>
</svg>
