<svg width="51" height="52" viewBox="0 0 51 52" fill="none" xmlns="http://www.w3.org/2000/svg">
<path d="M9.90813 25.873C10.6428 26.5708 10.6915 27.2995 10.8145 28.2632C10.9605 29.8312 10.9605 29.8312 11.7343 31.1367C12.3083 31.328 12.8773 31.2512 13.4665 31.1703C13.9633 31.1145 14.1888 31.2315 14.6347 31.459C15.6323 31.588 16.6062 31.312 17.5687 31.083C17.7992 31.0288 18.0297 30.9751 18.2605 30.9221C18.4685 30.8743 18.6762 30.8252 18.8839 30.7761C19.2324 30.711 19.5449 30.6938 19.8984 30.707C19.8608 30.8301 19.8233 30.9532 19.7846 31.0801C19.7352 31.2444 19.6859 31.4088 19.6365 31.5731C19.6118 31.6539 19.5871 31.7347 19.5616 31.818C19.3438 32.5472 19.2386 33.24 19.2404 34.0035C19.2401 34.1214 19.2398 34.2392 19.2396 34.3606C19.2518 34.7295 19.277 35.0928 19.3084 35.4604C19.3232 35.634 19.3232 35.634 19.3383 35.8112C19.3496 35.9433 19.3496 35.9433 19.3613 36.0781C19.4288 36.0674 19.4963 36.0566 19.5658 36.0455C20.2767 35.9324 20.9879 35.8212 21.6993 35.711C21.9638 35.6697 22.2282 35.6281 22.4925 35.5859C26.3959 34.9642 26.3959 34.9642 27.2702 35.4403C27.4603 35.5922 27.4603 35.5922 27.6327 35.7559C27.693 35.8054 27.7532 35.855 27.8153 35.9061C28.8279 36.8722 28.7727 39.1121 28.96 40.4312C28.9932 40.663 29.0265 40.8949 29.0598 41.1267C29.129 41.6096 29.1978 42.0927 29.2664 42.5757C29.3541 43.1935 29.4428 43.8111 29.5319 44.4286C29.6006 44.9061 29.6687 45.3837 29.7367 45.8613C29.7692 46.0891 29.8019 46.3168 29.8348 46.5445C29.8806 46.8626 29.9256 47.1808 29.9705 47.499C29.9841 47.592 29.9976 47.685 30.0116 47.7808C30.1578 48.8316 30.1602 49.7238 29.6066 50.6606C29.0871 51.1528 28.4678 51.5054 27.7444 51.5544C26.9647 51.5275 26.3229 51.3147 25.7629 50.75C25.2491 50.169 25.1239 49.5966 25.0193 48.8464C25.0004 48.7166 25.0004 48.7166 24.9811 48.5842C24.9398 48.2993 24.8994 48.0142 24.8591 47.7292C24.8305 47.5308 24.8019 47.3325 24.7733 47.1341C24.7135 46.719 24.6541 46.3038 24.5951 45.8886C24.5194 45.3559 24.4429 44.8233 24.3661 44.2908C24.3071 43.8815 24.2483 43.4722 24.1897 43.0628C24.1615 42.8664 24.1334 42.67 24.1051 42.4736C24.0658 42.1995 24.0268 41.9254 23.9879 41.6512C23.9762 41.5698 23.9645 41.4885 23.9524 41.4046C23.9086 41.094 23.873 40.7966 23.873 40.4824C23.7344 40.5041 23.5959 40.5257 23.4531 40.548C22.9322 40.6294 22.4112 40.7107 21.8903 40.7919C21.6661 40.8269 21.4419 40.8619 21.2177 40.8969C20.5839 40.996 19.95 41.0944 19.3159 41.1918C19.1422 41.2185 18.9685 41.2453 18.7948 41.2723C18.589 41.3042 18.383 41.3352 18.1771 41.3661C18.0689 41.3826 17.9607 41.399 17.8492 41.4159C17.492 41.4538 17.142 41.4548 16.7831 41.4492C16.8047 41.5322 16.8262 41.6153 16.8484 41.7008C17.0524 42.4888 17.2548 43.2772 17.4554 44.066C17.5586 44.4714 17.6623 44.8767 17.7675 45.2816C17.8693 45.6733 17.9694 46.0655 18.0684 46.458C18.1062 46.6066 18.1446 46.755 18.1836 46.9033C18.792 49.2229 18.792 49.2229 18.2669 50.2645C17.8712 50.8709 17.3684 51.2273 16.6757 51.4395C16.3188 51.4841 15.9657 51.4836 15.6063 51.4812C15.4492 51.482 15.4492 51.482 15.289 51.4829C14.9444 51.4843 14.5999 51.4833 14.2554 51.4823C14.015 51.4825 13.7746 51.4828 13.5342 51.4832C13.0311 51.4837 12.528 51.483 12.0248 51.4815C11.3808 51.4796 10.7368 51.4807 10.0927 51.4826C9.59657 51.4838 9.10041 51.4834 8.60424 51.4826C8.3668 51.4824 8.12936 51.4826 7.89192 51.4834C7.55975 51.4842 7.22765 51.4829 6.89549 51.4812C6.79792 51.4818 6.70036 51.4825 6.59983 51.4831C5.70327 51.4742 5.07913 51.2296 4.42961 50.5801C3.96072 49.982 3.92152 49.3325 3.94537 48.5907C4.04469 47.91 4.33325 47.4001 4.8635 46.9613C5.44675 46.5768 5.91589 46.4845 6.6134 46.4859C6.81982 46.4859 6.81982 46.4859 7.0304 46.4859C7.18006 46.4864 7.32973 46.487 7.47939 46.4876C7.63291 46.4878 7.78644 46.4879 7.93996 46.488C8.34331 46.4884 8.74666 46.4895 9.15001 46.4907C9.56189 46.4918 9.97377 46.4923 10.3857 46.4928C11.1933 46.494 12.0009 46.4958 12.8085 46.498C12.783 46.3978 12.7575 46.2975 12.7313 46.1942C12.4871 45.2328 12.2439 44.2711 12.0015 43.3091C11.8771 42.815 11.7522 42.321 11.6266 41.8272C11.0148 39.4209 10.4473 37.02 10.0155 34.5742C9.99625 34.4662 9.97695 34.3581 9.95707 34.2467C9.69551 32.7659 9.6632 31.301 9.65971 29.8007C9.65931 29.7042 9.65891 29.6077 9.65849 29.5082C9.65587 28.2789 9.72136 27.0891 9.90813 25.873Z" fill="black"/>
<path d="M20.4967 16.5321C21.2601 17.2438 21.7159 18.0899 21.9394 19.1056C21.9394 19.2474 21.9394 19.3892 21.9394 19.5353C22.0391 19.5286 22.1388 19.522 22.2415 19.5152C22.5839 19.5353 22.5839 19.5353 22.7853 19.6561C22.9629 19.9522 22.9485 20.1638 22.9062 20.5021C22.7786 20.7035 22.7786 20.7035 22.5839 20.8244C22.4049 20.8292 22.2258 20.8296 22.0468 20.8244C22.0518 20.8935 22.0568 20.9626 22.0619 21.0337C22.1173 22.4202 21.686 23.5542 20.7577 24.5841C20.4884 24.8346 20.2126 25.0382 19.8984 25.2287C19.83 25.2703 19.7615 25.312 19.6911 25.355C18.5547 25.9825 17.3505 25.9811 16.1264 25.6479C14.9534 25.2812 14.0701 24.5444 13.4765 23.4629C13.0565 22.5797 12.9782 21.7972 13.0234 20.8244C12.9214 20.831 12.8195 20.8377 12.7145 20.8445C12.6037 20.8379 12.493 20.8312 12.3788 20.8244C12.1303 20.4516 12.1275 20.2953 12.164 19.8576C12.2349 19.7512 12.3058 19.6449 12.3788 19.5353C12.7682 19.5152 12.7682 19.5152 13.1308 19.5353C13.1352 19.4024 13.1396 19.2694 13.1442 19.1325C13.2643 18.1003 13.8232 17.2196 14.5764 16.5245C16.3615 15.1397 18.7161 15.1168 20.4967 16.5321Z" fill="black"/>
<g clip-path="url(#clip0_216_1239)">
<path d="M33.9699 24.2245C34.0442 24.4444 34.0752 24.6181 34.0714 24.8509C34.0701 24.9481 34.0701 24.9481 34.0689 25.0473C34.0675 25.1166 34.0662 25.1859 34.0647 25.2573C34.0637 25.3288 34.0627 25.4002 34.0616 25.4738C34.0582 25.7018 34.0542 25.9297 34.0501 26.1577C34.0477 26.3123 34.0453 26.467 34.043 26.6216C34.0372 27.0005 34.0308 27.3794 34.024 27.7583C33.7475 27.8664 33.482 27.8773 33.1881 27.8951C33.1879 27.9334 33.1876 27.9717 33.1874 28.0112C33.1812 28.9423 33.1736 29.8735 33.1646 30.8047C33.1603 31.255 33.1564 31.7053 33.1536 32.1556C33.1509 32.5899 33.1469 33.0241 33.1422 33.4584C33.1406 33.6244 33.1394 33.7904 33.1386 33.9564C33.1375 34.1882 33.1349 34.42 33.1319 34.6518C33.1319 34.7556 33.1319 34.7556 33.132 34.8615C33.1303 34.956 33.1303 34.9559 33.1286 35.0523C33.1279 35.1346 33.1279 35.1346 33.1272 35.2185C33.0953 35.3527 33.0953 35.3527 32.9821 35.4427C32.7894 35.5206 32.6234 35.5105 32.4162 35.5059C32.3329 35.5044 32.2495 35.5028 32.1637 35.5013C32.0768 35.499 31.99 35.4967 31.9005 35.4943C31.8127 35.4925 31.7249 35.4908 31.6344 35.489C31.4175 35.4845 31.2006 35.4794 30.9838 35.4737C30.9071 35.2632 30.8782 35.0904 30.8814 34.8668C30.8823 34.7746 30.8823 34.7746 30.8833 34.6805C30.8845 34.6136 30.8856 34.5468 30.8869 34.4779C30.8877 34.4071 30.8886 34.3362 30.8895 34.2632C30.8925 34.029 30.8961 33.7949 30.8998 33.5608C30.902 33.3984 30.9042 33.236 30.9063 33.0736C30.912 32.6463 30.9183 32.219 30.9247 31.7917C30.9311 31.3556 30.937 30.9195 30.9429 30.4834C30.9546 29.6278 30.9669 28.7723 30.9797 27.9167C30.6795 27.8007 30.3965 27.7988 30.0783 27.7977C30.0199 27.7971 29.9615 27.7966 29.9014 27.7959C29.7154 27.7942 29.5294 27.7931 29.3435 27.792C29.2172 27.791 29.0909 27.7898 28.9645 27.7887C28.6554 27.7859 28.3462 27.7837 28.0371 27.7819C27.9545 28.0099 27.9088 28.2239 27.8722 28.4638C27.7096 29.3245 27.2734 29.9765 26.5857 30.5187C25.616 31.1744 24.4397 31.432 23.283 31.2559C23.251 31.2231 23.2191 31.1903 23.1861 31.1565C23.1379 31.6684 23.1206 32.1745 23.1218 32.6884C23.1213 32.8374 23.1207 32.9864 23.1201 33.1354C23.1193 33.3677 23.1189 33.6 23.1196 33.8323C23.12 34.0582 23.1189 34.2842 23.1175 34.5101C23.1184 34.615 23.1184 34.615 23.1192 34.722C23.1186 34.7864 23.118 34.8508 23.1173 34.9172C23.1173 34.9739 23.1173 35.0307 23.1173 35.0891C23.0864 35.2282 23.0864 35.2282 22.9733 35.3188C22.7805 35.3957 22.6142 35.386 22.4072 35.3813C22.3239 35.3798 22.2406 35.3783 22.1548 35.3767C22.0679 35.3744 21.981 35.3721 21.8916 35.3697C21.8038 35.368 21.7159 35.3662 21.6255 35.3644C21.4086 35.36 21.1917 35.3548 20.9748 35.3491C20.8982 35.1387 20.8692 34.9658 20.8724 34.7423C20.8734 34.65 20.8734 34.65 20.8743 34.5559C20.8755 34.4891 20.8767 34.4222 20.8779 34.3534C20.8788 34.2825 20.8796 34.2116 20.8805 34.1386C20.8835 33.9045 20.8872 33.6703 20.8909 33.4362C20.8931 33.2738 20.8952 33.1114 20.8974 32.9491C20.9031 32.5217 20.9093 32.0944 20.9157 31.6671C20.9222 31.231 20.9281 30.795 20.934 30.3589C20.9457 29.5033 20.958 28.6477 20.9707 27.7921C20.7002 27.6901 20.4753 27.6759 20.1849 27.673C20.1116 27.6721 20.1116 27.6721 20.0368 27.6712C19.876 27.6692 19.7151 27.668 19.5542 27.6668C19.4424 27.6655 19.3306 27.6643 19.2188 27.663C18.9251 27.6597 18.6313 27.657 18.3375 27.6545C18.0376 27.6517 17.7376 27.6484 17.4377 27.6452C16.8495 27.6389 16.2613 27.6333 15.6731 27.628C15.5931 27.4108 15.5678 27.2326 15.5716 27.0016C15.5728 26.9044 15.5728 26.9044 15.5741 26.8052C15.5754 26.7359 15.5768 26.6666 15.5782 26.5952C15.5797 26.488 15.5797 26.488 15.5813 26.3787C15.5847 26.1507 15.5888 25.9228 15.5929 25.6949C15.5953 25.5402 15.5976 25.3855 15.6 25.2309C15.6058 24.852 15.6121 24.4731 15.6189 24.0942C15.8318 24.0165 16.0067 23.9887 16.2329 23.9917C16.3281 23.9926 16.3281 23.9926 16.4252 23.9935C16.5293 23.9952 16.5293 23.9952 16.6355 23.997C16.7095 23.9978 16.7835 23.9986 16.8597 23.9995C17.1083 24.0024 17.3569 24.0061 17.6055 24.0097C17.7834 24.0119 17.9614 24.0141 18.1393 24.0163C18.5227 24.021 18.9061 24.0261 19.2895 24.0314C19.8439 24.0391 20.3983 24.0463 20.9526 24.0533C21.8521 24.0647 22.7515 24.0765 23.6509 24.0887C24.5246 24.1004 25.3983 24.112 26.272 24.1233C26.3259 24.124 26.3797 24.1247 26.4352 24.1254C26.7054 24.1289 26.9756 24.1324 27.2457 24.1359C29.4871 24.1648 31.7285 24.1944 33.9699 24.2245ZM26.6695 27.7102C26.5618 27.7089 26.4541 27.7079 26.3464 27.707C26.2898 27.7064 26.2333 27.7057 26.175 27.7051C25.9935 27.7031 25.812 27.7015 25.6305 27.6998C25.5079 27.6985 25.3852 27.6972 25.2625 27.6959C24.961 27.6927 24.6594 27.6898 24.3579 27.6871C24.3454 28.0997 24.3866 28.386 24.6487 28.7181C24.8472 28.8816 24.9812 28.9105 25.2252 28.9737C25.3459 29.1285 25.3459 29.1285 25.4178 29.2705C25.3085 29.4256 25.3085 29.4256 25.1197 29.5612C24.7455 29.5717 24.4615 29.4186 24.1923 29.1694C23.8378 28.7709 23.7285 28.2957 23.6698 27.7766C23.4486 27.686 23.3775 27.6747 23.1307 27.7208C23.1206 28.5304 23.1106 29.3399 23.1002 30.174C24.1194 30.3911 25.0885 30.3183 25.9852 29.747C26.5387 29.3296 26.8112 28.8215 26.931 28.1429C26.9459 28.0187 26.9527 27.8935 26.9577 27.7685C26.8929 27.6906 26.8929 27.6906 26.6695 27.7102Z" fill="#0F7657"/>
<path d="M46.0966 23.7376C46.1285 23.7703 46.1605 23.8031 46.1935 23.8369C46.1907 23.9758 46.1907 23.9758 46.1714 24.1544C46.1304 24.5947 46.1233 25.0323 46.1192 25.4743C46.1182 25.5577 46.1173 25.6412 46.1163 25.7272C46.1133 25.9912 46.1106 26.2553 46.1079 26.5194C46.1059 26.6988 46.1039 26.8781 46.1019 27.0575C46.0975 27.4501 46.0933 27.8427 46.0893 28.2353C46.0881 28.3553 46.0867 28.4754 46.0852 28.5955C45.4946 28.6059 44.9316 28.5697 44.3482 28.486C43.9912 28.4349 43.6348 28.3939 43.2757 28.3611C43.2276 28.3566 43.1795 28.3521 43.1299 28.3474C42.9398 28.3296 42.7497 28.312 42.5594 28.2958C42.4234 28.284 42.2874 28.2711 42.1514 28.2582C42.0733 28.2513 41.9952 28.2444 41.9147 28.2372C41.7228 28.1977 41.7228 28.1977 41.529 27.999C41.5075 27.8298 41.5075 27.8298 41.5113 27.6251C41.5123 27.5485 41.5133 27.4719 41.5143 27.393C41.5163 27.3103 41.5184 27.2276 41.5205 27.1424C41.5218 27.0578 41.5231 26.9731 41.5245 26.8859C41.529 26.6149 41.5348 26.344 41.5407 26.0731C41.5439 25.8896 41.5471 25.7062 41.5502 25.5227C41.558 25.0724 41.5669 24.6222 41.5766 24.172C41.8671 24.0706 42.1471 24.0537 42.4523 24.0388C42.8912 24.0142 43.3267 23.9797 43.7633 23.9293C44.3473 23.8624 44.9316 23.8236 45.5183 23.7907C45.648 23.7816 45.7772 23.7664 45.9062 23.7509C45.969 23.7465 46.0318 23.7421 46.0966 23.7376Z" fill="#0F7657"/>
<path d="M38.9744 24.2868C39.0085 24.7369 39.019 25.1803 39.0115 25.6315C39.0107 25.6959 39.0098 25.7604 39.0089 25.8268C39.0061 26.0302 39.003 26.2336 38.9998 26.437C38.9978 26.5759 38.9959 26.7148 38.9939 26.8537C38.9892 27.1922 38.9841 27.5306 38.9789 27.869C38.2219 27.9274 37.4659 27.9138 36.7071 27.907C36.5316 27.9056 36.3561 27.9048 36.1806 27.9045C35.9267 27.904 35.6728 27.9019 35.419 27.8995C35.3401 27.8996 35.2613 27.8997 35.1801 27.8999C35.1075 27.8988 35.035 27.8978 34.9602 27.8967C34.8642 27.8961 34.8642 27.8961 34.7662 27.8955C34.6116 27.8637 34.6116 27.8637 34.5188 27.7583C34.4594 27.5942 34.45 27.4681 34.4509 27.2936C34.4509 27.2292 34.451 27.1649 34.451 27.0986C34.4518 27.0295 34.4527 26.9604 34.4536 26.8892C34.4541 26.818 34.4546 26.7468 34.4551 26.6734C34.4565 26.5231 34.4582 26.3727 34.4603 26.2223C34.4632 25.9916 34.464 25.7609 34.4647 25.5301C34.4663 25.3841 34.468 25.2381 34.4698 25.0921C34.4698 25.0228 34.4699 24.9535 34.47 24.8821C34.4712 24.8181 34.4725 24.754 34.4738 24.6881C34.4744 24.6316 34.475 24.5752 34.4756 24.517C34.5078 24.3784 34.5078 24.3784 34.6075 24.2877C34.8023 24.2171 34.9631 24.2192 35.1703 24.2227C35.2548 24.2238 35.3393 24.2248 35.4263 24.2259C35.5173 24.2278 35.6083 24.2297 35.7021 24.2317C35.7963 24.2331 35.8906 24.2345 35.9848 24.2358C36.2325 24.2395 36.4802 24.244 36.7279 24.2487C36.9808 24.2534 37.2337 24.2572 37.4866 24.2611C37.9826 24.2688 38.4785 24.2775 38.9744 24.2868Z" fill="#0F7657"/>
<path d="M29.2009 19.8347C29.3281 20.1299 29.3027 20.4232 29.294 20.7376C29.2928 20.7924 29.2917 20.8472 29.2905 20.9037C29.2877 21.0384 29.2843 21.1732 29.2807 21.3079C29.2409 21.3103 29.2011 21.3128 29.1601 21.3154C29.1057 21.3188 29.0513 21.3222 28.9953 21.3258C28.9423 21.3291 28.8893 21.3324 28.8347 21.3359C28.5903 21.3525 28.3462 21.3719 28.102 21.3913C28.1025 21.456 28.1029 21.5206 28.1034 21.5872C28.1046 21.8267 28.1047 22.0662 28.1041 22.3058C28.104 22.4095 28.1044 22.5132 28.1052 22.6169C28.1064 22.7659 28.1059 22.9148 28.1051 23.0638C28.1053 23.1535 28.1055 23.2432 28.1056 23.3356C28.0751 23.5501 28.0751 23.5501 27.975 23.6349C27.7823 23.7127 27.6294 23.7094 27.4216 23.7059C27.2978 23.7044 27.2978 23.7044 27.1716 23.7028C27.0827 23.7009 26.9939 23.699 26.9023 23.6971C26.8112 23.6958 26.72 23.6944 26.6261 23.6931C26.3842 23.6895 26.1424 23.685 25.9005 23.6804C25.6535 23.6758 25.4065 23.6721 25.1596 23.6682C24.6752 23.6606 24.1909 23.6521 23.7066 23.643C23.6156 23.3808 23.603 23.168 23.6083 22.8892C23.6097 22.8016 23.6111 22.714 23.6125 22.6238C23.6145 22.5326 23.6165 22.4415 23.6185 22.3476C23.6201 22.2544 23.6217 22.1612 23.6233 22.068C23.6273 21.8403 23.6317 21.6126 23.6366 21.3848C23.3763 21.2865 23.1628 21.2706 22.8835 21.2712C22.8042 21.2711 22.7249 21.271 22.6432 21.2709C22.5828 21.2713 22.5225 21.2717 22.4603 21.2721C22.3331 20.9768 22.3585 20.6836 22.3672 20.3692C22.3684 20.3144 22.3695 20.2596 22.3707 20.2031C22.3735 20.0683 22.3769 19.9336 22.3805 19.7989C22.7178 19.7732 23.055 19.7518 23.3933 19.7441C23.4496 19.7424 23.5059 19.7407 23.5639 19.7389C23.7058 19.7663 23.7058 19.7663 23.7829 19.8733C23.8536 20.0212 23.8845 20.1458 23.9109 20.3073C23.9203 20.3638 23.9298 20.4202 23.9395 20.4784C23.9488 20.537 23.9581 20.5956 23.9677 20.656C23.9772 20.7132 23.9867 20.7705 23.9965 20.8295C24.057 21.1963 24.1135 21.5637 24.1696 21.9312C24.3756 22.0119 24.5454 22.0461 24.7662 22.048C24.8546 22.049 24.8546 22.049 24.9448 22.0502C25.0077 22.0504 25.0705 22.0507 25.1353 22.051C25.2002 22.0517 25.2652 22.0523 25.3321 22.053C25.539 22.055 25.746 22.0564 25.953 22.0577C26.0934 22.059 26.2339 22.0603 26.3744 22.0616C26.7185 22.0648 27.0625 22.0674 27.4065 22.0697C27.5002 21.7525 27.5841 21.4406 27.6444 21.1152C27.6581 21.0418 27.6719 20.9684 27.686 20.8929C27.6997 20.818 27.7135 20.7431 27.7276 20.6659C27.7491 20.5505 27.7491 20.5505 27.7711 20.4327C27.8061 20.2443 27.841 20.0558 27.8756 19.8673C28.2167 19.8428 28.5551 19.8202 28.8974 19.8279C28.9554 19.8291 29.0134 19.8302 29.0731 19.8314C29.1364 19.8331 29.1364 19.8331 29.2009 19.8347Z" fill="#0F7657"/>
<path d="M33.3369 18.7085C33.3725 19.1729 33.3811 19.6307 33.3735 20.0962C33.3726 20.165 33.3717 20.2338 33.3707 20.3047C33.3677 20.5221 33.3644 20.7395 33.3611 20.9569C33.359 21.1053 33.3569 21.2536 33.3549 21.402C33.3498 21.7637 33.3445 22.1254 33.339 22.487C33.1079 22.5662 32.9387 22.5902 32.6939 22.571C32.6351 22.5671 32.5763 22.5632 32.5158 22.5592C31.9958 22.4693 31.5831 22.2517 31.1434 21.969C30.7668 21.7328 30.4301 21.5415 29.9861 21.4623C29.8683 21.4133 29.8683 21.4133 29.8049 21.2979C29.7602 21.0385 29.756 20.7853 29.7567 20.5225C29.7553 20.4693 29.754 20.4161 29.7526 20.3613C29.7536 19.9774 29.7536 19.9774 29.9019 19.8193C30.1051 19.7399 30.3108 19.6781 30.5195 19.615C30.7842 19.5201 31.0128 19.3694 31.2512 19.2224C31.9239 18.8249 32.5526 18.6585 33.3369 18.7085Z" fill="#0F7657"/>
<path d="M50.3848 26.1463C50.3816 26.401 50.3144 26.4464 50.1395 26.6279C49.1948 27.5138 47.7939 27.9488 46.6266 28.455C46.5856 27.9408 46.5839 27.4326 46.5919 26.9171C46.593 26.833 46.5941 26.749 46.5953 26.6624C46.5989 26.396 46.6028 26.1296 46.6067 25.8632C46.6092 25.6817 46.6117 25.5003 46.6142 25.3188C46.6202 24.8757 46.6266 24.4327 46.6331 23.9896C46.8881 23.9928 47.0368 24.0822 47.2658 24.1949C47.3089 24.2161 47.352 24.2372 47.3964 24.259C47.4881 24.3041 47.5797 24.3494 47.6712 24.3949C47.8079 24.4628 47.945 24.53 48.0822 24.5971C49.8924 25.4875 49.8924 25.4875 50.3848 26.1463Z" fill="#0F7657"/>
<path d="M41.0883 23.9696C41.1346 24.6878 41.1346 24.6878 41.13 25.0138C41.1291 25.0864 41.1282 25.159 41.1272 25.2339C41.126 25.31 41.1248 25.3861 41.1236 25.4646C41.1225 25.5442 41.1215 25.6239 41.1204 25.706C41.1169 25.9584 41.1132 26.2108 41.1094 26.4632C41.107 26.6352 41.1047 26.8073 41.1023 26.9793C41.0966 27.3991 41.0905 27.8189 41.0843 28.2387C40.8574 28.3167 40.6305 28.3946 40.4036 28.4725C40.339 28.4947 40.2744 28.5169 40.2079 28.5397C40.1461 28.561 40.0843 28.5822 40.0207 28.604C39.9636 28.6236 39.9066 28.6432 39.8478 28.6634C39.7511 28.6963 39.654 28.7283 39.5566 28.7595C39.4518 28.4962 39.4522 28.2632 39.4554 27.9814C39.4558 27.9337 39.4563 27.886 39.4567 27.8368C39.4582 27.6796 39.4605 27.5223 39.4628 27.3651C39.464 27.2558 39.4653 27.1464 39.4666 27.0371C39.4693 26.8083 39.4723 26.5795 39.4756 26.3507C39.4798 26.0569 39.4832 25.7631 39.4862 25.4693C39.4887 25.2437 39.4916 25.0181 39.4947 24.7925C39.4961 24.6841 39.4974 24.5757 39.4985 24.4674C39.5001 24.3163 39.5024 24.1653 39.5048 24.0142C39.5059 23.9282 39.5071 23.8421 39.5083 23.7534C39.5232 23.5575 39.5232 23.5575 39.6225 23.4606C40.1062 23.6286 40.5899 23.7965 41.0883 23.9696Z" fill="#0F7657"/>
<path d="M27.3886 19.567C27.3894 19.8575 27.3795 20.1309 27.3244 20.4161C27.3125 20.4786 27.3007 20.5411 27.2885 20.6054C27.276 20.669 27.2635 20.7327 27.2506 20.7982C27.2381 20.8637 27.2256 20.9292 27.2127 20.9967C27.182 21.157 27.1509 21.3172 27.1195 21.4774C26.8508 21.5859 26.6104 21.5805 26.3228 21.5752C26.2516 21.5741 26.2516 21.5741 26.1789 21.573C26.0279 21.5706 25.877 21.5675 25.726 21.5644C25.6234 21.5626 25.5207 21.5609 25.4181 21.5592C25.1671 21.555 24.9161 21.5502 24.6651 21.545C24.5572 21.3043 24.4918 21.0817 24.4481 20.8218C24.4302 20.7169 24.4302 20.7169 24.4119 20.61C24.4 20.5378 24.3881 20.4657 24.3758 20.3913C24.3634 20.3178 24.3509 20.2443 24.3381 20.1686C24.3075 19.9878 24.2772 19.807 24.2474 19.626C24.4522 19.552 24.6203 19.5205 24.8377 19.5241C24.8947 19.5248 24.9516 19.5255 25.0103 19.5263C25.071 19.5275 25.1318 19.5288 25.1943 19.5301C25.2571 19.531 25.3198 19.5319 25.3844 19.5329C25.5844 19.5359 25.7843 19.5396 25.9843 19.5434C26.12 19.5456 26.2558 19.5477 26.3915 19.5498C26.7239 19.555 27.0563 19.5608 27.3886 19.567Z" fill="#0F7657"/>
<path d="M26.7734 17.7437C26.8065 17.9802 26.8065 17.9802 26.8041 18.2348C26.8052 18.3608 26.8052 18.3608 26.8063 18.4894C26.7481 18.793 26.667 18.8894 26.4135 19.0641C26.2159 19.0966 26.0686 19.1083 25.8732 19.1003C25.8262 19.1011 25.7791 19.1018 25.7306 19.1026C25.4693 19.0968 25.3419 19.0567 25.1336 18.8968C24.9831 18.6865 24.9514 18.5891 24.9504 18.3344C24.9491 18.2731 24.9479 18.2119 24.9466 18.1488C24.9494 18.0886 24.9521 18.0284 24.955 17.9664C24.9561 17.8791 24.9561 17.8791 24.9572 17.7901C25.0363 17.5326 25.1727 17.4613 25.4045 17.3341C25.6527 17.3067 25.6527 17.3067 25.9107 17.3189C25.9965 17.3221 26.0823 17.3252 26.1707 17.3285C26.519 17.3573 26.6016 17.4393 26.7734 17.7437Z" fill="#0F7657"/>
</g>
<path d="M9.26356 27.2695C9.26187 27.3747 9.26019 27.48 9.25845 27.5884C9.18693 32.5031 10.0509 37.0175 11.2758 41.7605C11.3211 41.9372 11.3211 41.9372 11.3674 42.1175C11.4245 42.3398 11.4822 42.5619 11.5406 42.7839C11.5661 42.8834 11.5917 42.9828 11.618 43.0853C11.6518 43.2148 11.6518 43.2148 11.6863 43.347C11.7376 43.615 11.7426 43.8625 11.7343 44.1348C8.90841 44.5138 8.90841 44.5138 8.1222 44.1885C7.49957 43.5331 7.47562 42.6573 7.40962 41.7988C7.39909 41.6748 7.38857 41.5508 7.37772 41.4231C7.34338 41.0147 7.31083 40.6061 7.27836 40.1975C7.25482 39.9117 7.2312 39.6259 7.20748 39.3401C7.15798 38.741 7.10945 38.1419 7.06154 37.5427C7.00653 36.8546 6.95013 36.1668 6.89293 35.4789C6.83755 34.8127 6.78303 34.1465 6.72894 33.4802C6.70605 33.1989 6.68297 32.9177 6.65968 32.6365C6.45281 30.1264 6.45281 30.1264 6.42305 29.0027C6.41673 28.8002 6.41673 28.8002 6.41028 28.5936C6.49196 28.1098 6.66381 27.9374 7.0077 27.5918C7.39596 27.3787 7.75746 27.3398 8.19606 27.3098C8.30587 27.3018 8.41568 27.2938 8.52881 27.2855C8.77345 27.2727 9.01859 27.2695 9.26356 27.2695Z" fill="black"/>
<path d="M13.9628 25.2431L13.9628 25.2431C13.9258 25.1894 13.889 25.1356 13.8521 25.0819C13.4741 24.5299 13.0967 23.9788 12.5823 23.5597C12.0602 23.3019 11.4507 23.372 10.8998 23.5542C10.5454 23.8551 10.3436 24.1605 10.1723 24.5951C10.1412 25.0563 10.1377 25.4146 10.3803 25.804L10.5144 25.9922L10.5145 25.9923L10.6678 26.2085L10.6679 26.2087L10.8349 26.4415L10.835 26.4416C11.0143 26.6933 11.1938 26.9447 11.3738 27.1958C11.3738 27.1958 11.3738 27.1958 11.3738 27.1958L11.56 27.4553L11.5601 27.4553C11.9684 28.0267 12.3777 28.5971 12.7919 29.1639L12.9562 29.3885L12.9563 29.3886C13.1048 29.5926 13.2535 29.7962 13.404 29.9985C13.4041 29.9985 13.4041 29.9986 13.4041 29.9986L13.54 30.1803L13.5401 30.1804C13.7776 30.5001 14.0075 30.7625 14.304 31.0252C14.6643 31.203 14.8355 31.286 15.1206 31.285C15.4139 31.2839 15.8256 31.194 16.6657 31.0099C16.9143 30.9528 17.163 30.8964 17.4119 30.8406L17.4119 30.8406L17.8194 30.7494L13.9628 25.2431ZM13.9628 25.2431C14.3181 25.7584 14.6897 26.2613 15.0609 26.7638L15.0845 26.7957L15.0845 26.7957L15.286 27.0695C15.5667 27.4691 15.5678 27.4705 15.8858 27.8393L15.9038 27.8602M13.9628 25.2431L15.9038 27.8602M15.9038 27.8602L15.9311 27.8561M15.9038 27.8602L15.9311 27.8561M15.9311 27.8561C16.1006 27.8309 16.2684 27.7966 16.4345 27.7592L16.7572 27.6875L16.7574 27.6875M15.9311 27.8561L16.7574 27.6875M16.7574 27.6875L17.1094 27.6075L17.1097 27.6074L17.8442 27.4449L17.8443 27.4449M16.7574 27.6875L17.8443 27.4449M17.8443 27.4449C18.2314 27.3585 18.6185 27.2717 19.0055 27.1846C19.3781 27.1009 19.7509 27.0185 20.1239 26.9361L20.1243 26.936M17.8443 27.4449L20.1243 26.936M20.1243 26.936L20.4709 26.8568C20.4709 26.8568 20.471 26.8568 20.4711 26.8567C21.2908 26.6767 21.692 26.5889 21.9757 26.5887C22.2516 26.5885 22.4141 26.671 22.7588 26.8489C22.999 27.027 23.1471 27.1746 23.2521 27.3474C23.3574 27.5209 23.4215 27.7233 23.4877 28.0158C23.5272 28.4687 23.4227 28.7708 23.1887 29.1721C22.9667 29.3872 22.7657 29.5409 22.5453 29.6557C22.3233 29.7714 22.0794 29.8489 21.7711 29.909L21.7711 29.909M20.1243 26.936L21.7711 29.909M21.7711 29.909L21.7702 29.9092M21.7711 29.909L21.7702 29.9092M21.7702 29.9092L21.5374 29.9594L21.7702 29.9092ZM19.2134 30.4445L19.2134 30.4445C19.5648 30.3718 19.9161 30.2986 20.2671 30.2243C20.2671 30.2243 20.2671 30.2243 20.2671 30.2243L20.2775 30.2732L19.2134 30.4445ZM19.2134 30.4445C18.7475 30.5413 18.2833 30.6442 17.8195 30.7493L19.2134 30.4445ZM20.788 30.1142L20.7877 30.1143L21.5373 29.9595C21.288 30.0129 21.0382 30.0636 20.788 30.1142Z" fill="black" stroke="#0F7657" stroke-width="0.1"/>
<path d="M12.5937 22.1134C12.6646 22.397 12.7355 22.6806 12.8086 22.9728C12.6742 22.9653 12.6742 22.9653 12.5371 22.9576C11.7687 22.933 11.0858 22.9346 10.4453 23.4024C9.8905 23.9331 9.78341 24.4232 9.66647 25.1682C9.64072 25.3158 9.64072 25.3158 9.61444 25.4663C9.52346 25.9944 9.44408 26.5239 9.37106 27.0548C8.88192 27.1485 8.41204 27.183 7.91415 27.1891C7.77665 27.1918 7.63915 27.1946 7.49747 27.1975C6.99715 27.1513 6.71854 27.0005 6.39011 26.6251C5.95102 25.9226 6.035 24.9103 6.01413 24.1074C6.01136 24.0056 6.00859 23.9038 6.00574 23.799C6.06431 23.3185 6.31754 22.9563 6.68552 22.6505C7.63347 22.3698 8.69938 22.36 9.68276 22.2817C9.94322 22.261 10.2036 22.2393 10.464 22.2174C10.6319 22.2037 10.7998 22.19 10.9677 22.1763C11.0827 22.1668 11.0827 22.1668 11.2 22.157C11.6667 22.1203 12.1261 22.1077 12.5937 22.1134Z" fill="black"/>
<path d="M23.0135 30.707C23.049 30.707 23.0844 30.707 23.1209 30.707C23.1672 31.2153 23.2131 31.7237 23.2586 32.2321C23.2742 32.4048 23.2898 32.5776 23.3055 32.7503C23.3282 32.9993 23.3505 33.2484 23.3727 33.4975C23.3798 33.574 23.3868 33.6506 23.3941 33.7295C23.4317 34.1555 23.4605 34.5763 23.4432 35.0039C23.2489 35.1982 22.9493 35.1782 22.6862 35.2158C22.4868 35.2444 22.4868 35.2444 22.2834 35.2735C22.0732 35.3029 22.0732 35.3029 21.8587 35.3329C21.7203 35.3529 21.5818 35.3729 21.4391 35.3935C20.2312 35.5646 20.2312 35.5646 19.7909 35.541C19.5188 35.2689 19.6583 34.5295 19.6566 34.1647C19.6544 34.0479 19.6522 33.9311 19.6499 33.8107C19.6459 32.9825 19.7682 32.2518 20.0057 31.459C20.6132 31.524 21.1876 31.6332 21.7782 31.788C21.8953 31.818 21.8953 31.818 22.0148 31.8486C22.2046 31.8973 22.3942 31.9466 22.5838 31.9961C22.5981 31.8972 22.6124 31.7984 22.6271 31.6965C22.697 31.3209 22.8308 31.0406 23.0135 30.707Z" fill="black"/>
<path d="M10.9823 27.2695C11.443 27.699 11.7937 28.1686 12.1505 28.6862C12.2067 28.7667 12.2629 28.8473 12.3207 28.9303C12.4324 29.0905 12.5438 29.2509 12.655 29.4114C12.8571 29.7031 13.0611 29.9936 13.265 30.2841C13.3635 30.425 13.462 30.566 13.5604 30.707C13.236 31.0314 12.8987 31.0007 12.4539 31.031C12.1639 31.0293 12.1639 31.0293 11.8416 30.9286C11.343 30.4144 11.2368 29.6136 11.1233 28.9279C11.1093 28.8509 11.0954 28.774 11.0811 28.6948C10.9982 28.2128 10.9688 27.7584 10.9823 27.2695Z" fill="black"/>
<path d="M23.0135 29.8477C22.8258 30.435 22.6206 31.0033 22.369 31.5664C21.7093 31.5036 21.0792 31.4009 20.4354 31.2441C20.4354 30.8145 20.4354 30.8145 20.5391 30.5874C20.8717 30.2791 21.2408 30.2357 21.6775 30.1498C22.1105 30.0586 22.587 29.8477 23.0135 29.8477Z" fill="black"/>
<defs>
<clipPath id="clip0_216_1239">
<rect width="35.5285" height="35.5285" fill="white" transform="translate(25.6738 0.8125) rotate(45.713)"/>
</clipPath>
</defs>
</svg>
